<?xml version="1.0" encoding="UTF-8" standalone="no"?>
<!DOCTYPE svg PUBLIC "-//W3C//DTD SVG 1.1//EN"
 "http://www.w3.org/Graphics/SVG/1.1/DTD/svg11.dtd">
<!-- Generated by graphviz version 2.38.0 (20140413.2041)
 -->
<!-- Title: perl6&#45;type&#45;graph Pages: 1 -->
<svg width="788pt" height="476pt"
 viewBox="0.00 0.00 788.25 476.00" xmlns="http://www.w3.org/2000/svg" xmlns:xlink="http://www.w3.org/1999/xlink">
<g id="graph0" class="graph" transform="scale(1 1) rotate(0) translate(4 472)">
<title>perl6&#45;type&#45;graph</title>
<polygon fill="white" stroke="none" points="-4,4 -4,-472 784.247,-472 784.247,4 -4,4"/>
<!-- Associative -->
<g id="node1" class="node"><title>Associative</title>
<g id="a_node1"><a xlink:href="/type/Associative" xlink:title="Associative">
<ellipse fill="none" stroke="#6666ff" cx="180" cy="-450" rx="55.4913" ry="18"/>
<text text-anchor="middle" x="180" y="-446.3" font-family="FreeSans" font-size="14.00" fill="#6666ff">Associative</text>
</a>
</g>
</g>
<!-- Mu -->
<g id="node2" class="node"><title>Mu</title>
<g id="a_node2"><a xlink:href="/type/Mu" xlink:title="Mu">
<ellipse fill="none" stroke="#000000" cx="325" cy="-378" rx="27" ry="18"/>
<text text-anchor="middle" x="325" y="-374.3" font-family="FreeSans" font-size="14.00" fill="#000000">Mu</text>
</a>
</g>
</g>
<!-- Any -->
<g id="node3" class="node"><title>Any</title>
<g id="a_node3"><a xlink:href="/type/Any" xlink:title="Any">
<ellipse fill="none" stroke="#000000" cx="415" cy="-306" rx="27" ry="18"/>
<text text-anchor="middle" x="415" y="-302.3" font-family="FreeSans" font-size="14.00" fill="#000000">Any</text>
</a>
</g>
</g>
<!-- Any&#45;&gt;Mu -->
<g id="edge1" class="edge"><title>Any&#45;&gt;Mu</title>
<path fill="none" stroke="#000000" d="M398.072,-320.166C384.495,-330.726 365.243,-345.7 349.908,-357.627"/>
<polygon fill="#000000" stroke="#000000" points="347.597,-354.99 341.852,-363.893 351.895,-360.516 347.597,-354.99"/>
</g>
<!-- Cool -->
<g id="node4" class="node"><title>Cool</title>
<g id="a_node4"><a xlink:href="/type/Cool" xlink:title="Cool">
<ellipse fill="none" stroke="#000000" cx="415" cy="-234" rx="28.6953" ry="18"/>
<text text-anchor="middle" x="415" y="-230.3" font-family="FreeSans" font-size="14.00" fill="#000000">Cool</text>
</a>
</g>
</g>
<!-- Cool&#45;&gt;Any -->
<g id="edge2" class="edge"><title>Cool&#45;&gt;Any</title>
<path fill="none" stroke="#000000" d="M415,-252.303C415,-260.017 415,-269.288 415,-277.888"/>
<polygon fill="#000000" stroke="#000000" points="411.5,-277.896 415,-287.896 418.5,-277.896 411.5,-277.896"/>
</g>
<!-- Iterable -->
<g id="node5" class="node"><title>Iterable</title>
<g id="a_node5"><a xlink:href="/type/Iterable" xlink:title="Iterable">
<ellipse fill="none" stroke="#6666ff" cx="112" cy="-234" rx="40.0939" ry="18"/>
<text text-anchor="middle" x="112" y="-230.3" font-family="FreeSans" font-size="14.00" fill="#6666ff">Iterable</text>
</a>
</g>
</g>
<!-- Map -->
<g id="node6" class="node"><title>Map</title>
<g id="a_node6"><a xlink:href="/type/Map" xlink:title="Map">
<ellipse fill="none" stroke="#000000" cx="180" cy="-162" rx="28.6953" ry="18"/>
<text text-anchor="middle" x="180" y="-158.3" font-family="FreeSans" font-size="14.00" fill="#000000">Map</text>
</a>
</g>
</g>
<!-- Map&#45;&gt;Associative -->
<g id="edge15" class="edge"><title>Map&#45;&gt;Associative</title>
<path fill="none" stroke="#6666ff" d="M180,-180.034C180,-227.709 180,-362.815 180,-421.37"/>
<polygon fill="#6666ff" stroke="#6666ff" points="176.5,-421.694 180,-431.694 183.5,-421.694 176.5,-421.694"/>
</g>
<!-- Map&#45;&gt;Cool -->
<g id="edge3" class="edge"><title>Map&#45;&gt;Cool</title>
<path fill="none" stroke="#000000" d="M205.754,-169.929C259.154,-184.295 377,-216 377,-216 377,-216 379.431,-217.088 383.063,-218.712"/>
<polygon fill="#000000" stroke="#000000" points="381.899,-222.026 392.456,-222.915 384.757,-215.636 381.899,-222.026"/>
</g>
<!-- Map&#45;&gt;Iterable -->
<g id="edge14" class="edge"><title>Map&#45;&gt;Iterable</title>
<path fill="none" stroke="#6666ff" d="M165.579,-177.845C156.544,-187.146 144.711,-199.327 134.464,-209.876"/>
<polygon fill="#6666ff" stroke="#6666ff" points="131.803,-207.592 127.345,-217.203 136.824,-212.469 131.803,-207.592"/>
</g>
<!-- QuantHash -->
<g id="node7" class="node"><title>QuantHash</title>
<g id="a_node7"><a xlink:href="/type/QuantHash" xlink:title="QuantHash">
<ellipse fill="none" stroke="#6666ff" cx="426" cy="-378" rx="55.7903" ry="18"/>
<text text-anchor="middle" x="426" y="-374.3" font-family="FreeSans" font-size="14.00" fill="#6666ff">QuantHash</text>
</a>
</g>
</g>
<!-- QuantHash&#45;&gt;Associative -->
<g id="edge16" class="edge"><title>QuantHash&#45;&gt;Associative</title>
<path fill="none" stroke="#6666ff" d="M385.654,-390.481C343.112,-402.586 276.019,-421.678 230.113,-434.74"/>
<polygon fill="#6666ff" stroke="#6666ff" points="229.029,-431.41 220.368,-437.513 230.945,-438.142 229.029,-431.41"/>
</g>
<!-- Pair -->
<g id="node8" class="node"><title>Pair</title>
<g id="a_node8"><a xlink:href="/type/Pair" xlink:title="Pair">
<ellipse fill="none" stroke="#000000" cx="27" cy="-234" rx="27" ry="18"/>
<text text-anchor="middle" x="27" y="-230.3" font-family="FreeSans" font-size="14.00" fill="#000000">Pair</text>
</a>
</g>
</g>
<!-- Pair&#45;&gt;Associative -->
<g id="edge17" class="edge"><title>Pair&#45;&gt;Associative</title>
<path fill="none" stroke="#6666ff" d="M38.2505,-250.736C64.5823,-287.566 130.392,-379.614 162.215,-424.124"/>
<polygon fill="#6666ff" stroke="#6666ff" points="159.441,-426.262 168.104,-432.362 165.135,-422.191 159.441,-426.262"/>
</g>
<!-- Pair&#45;&gt;Any -->
<g id="edge4" class="edge"><title>Pair&#45;&gt;Any</title>
<path fill="none" stroke="#000000" d="M48.3574,-245.085C56.1094,-248.746 63,-252 63,-252 63,-252 364,-288 364,-288 364,-288 372.025,-290.675 381.708,-293.903"/>
<polygon fill="#000000" stroke="#000000" points="380.698,-297.255 391.292,-297.097 382.912,-290.614 380.698,-297.255"/>
</g>
<!-- PseudoStash -->
<g id="node9" class="node"><title>PseudoStash</title>
<g id="a_node9"><a xlink:href="/type/PseudoStash" xlink:title="PseudoStash">
<ellipse fill="none" stroke="#000000" cx="124" cy="-90" rx="63.0888" ry="18"/>
<text text-anchor="middle" x="124" y="-86.3" font-family="FreeSans" font-size="14.00" fill="#000000">PseudoStash</text>
</a>
</g>
</g>
<!-- PseudoStash&#45;&gt;Map -->
<g id="edge5" class="edge"><title>PseudoStash&#45;&gt;Map</title>
<path fill="none" stroke="#000000" d="M137.556,-107.945C144.666,-116.833 153.488,-127.86 161.243,-137.554"/>
<polygon fill="#000000" stroke="#000000" points="158.735,-140.021 167.715,-145.644 164.201,-135.648 158.735,-140.021"/>
</g>
<!-- Hash -->
<g id="node10" class="node"><title>Hash</title>
<g id="a_node10"><a xlink:href="/type/Hash" xlink:title="Hash">
<ellipse fill="none" stroke="#000000" cx="236" cy="-90" rx="31.3957" ry="18"/>
<text text-anchor="middle" x="236" y="-86.3" font-family="FreeSans" font-size="14.00" fill="#000000">Hash</text>
</a>
</g>
</g>
<!-- Hash&#45;&gt;Map -->
<g id="edge6" class="edge"><title>Hash&#45;&gt;Map</title>
<path fill="none" stroke="#000000" d="M223.572,-106.535C216.249,-115.689 206.843,-127.446 198.646,-137.693"/>
<polygon fill="#000000" stroke="#000000" points="195.907,-135.513 192.393,-145.508 201.374,-139.886 195.907,-135.513"/>
</g>
<!-- Baggy -->
<g id="node11" class="node"><title>Baggy</title>
<g id="a_node11"><a xlink:href="/type/Baggy" xlink:title="Baggy">
<ellipse fill="none" stroke="#6666ff" cx="631" cy="-306" rx="35.9954" ry="18"/>
<text text-anchor="middle" x="631" y="-302.3" font-family="FreeSans" font-size="14.00" fill="#6666ff">Baggy</text>
</a>
</g>
</g>
<!-- Baggy&#45;&gt;QuantHash -->
<g id="edge18" class="edge"><title>Baggy&#45;&gt;QuantHash</title>
<path fill="none" stroke="#6666ff" d="M602.063,-316.881C568.416,-328.37 512.416,-347.492 472.612,-361.084"/>
<polygon fill="#6666ff" stroke="#6666ff" points="471.451,-357.782 463.118,-364.325 473.713,-364.406 471.451,-357.782"/>
</g>
<!-- Setty -->
<g id="node12" class="node"><title>Setty</title>
<g id="a_node12"><a xlink:href="/type/Setty" xlink:title="Setty">
<ellipse fill="none" stroke="#6666ff" cx="324" cy="-306" rx="30.5947" ry="18"/>
<text text-anchor="middle" x="324" y="-302.3" font-family="FreeSans" font-size="14.00" fill="#6666ff">Setty</text>
</a>
</g>
</g>
<!-- Setty&#45;&gt;QuantHash -->
<g id="edge19" class="edge"><title>Setty&#45;&gt;QuantHash</title>
<path fill="none" stroke="#6666ff" d="M343.185,-320.166C357.732,-330.149 378.027,-344.077 394.885,-355.647"/>
<polygon fill="#6666ff" stroke="#6666ff" points="393.114,-358.676 403.339,-361.448 397.074,-352.904 393.114,-358.676"/>
</g>
<!-- Stash -->
<g id="node13" class="node"><title>Stash</title>
<g id="a_node13"><a xlink:href="/type/Stash" xlink:title="Stash">
<ellipse fill="none" stroke="#000000" cx="236" cy="-18" rx="33.2948" ry="18"/>
<text text-anchor="middle" x="236" y="-14.3" font-family="FreeSans" font-size="14.00" fill="#000000">Stash</text>
</a>
</g>
</g>
<!-- Stash&#45;&gt;Hash -->
<g id="edge7" class="edge"><title>Stash&#45;&gt;Hash</title>
<path fill="none" stroke="#000000" d="M236,-36.3034C236,-44.0173 236,-53.2875 236,-61.8876"/>
<polygon fill="#000000" stroke="#000000" points="232.5,-61.8956 236,-71.8957 239.5,-61.8957 232.5,-61.8956"/>
</g>
<!-- Mixy -->
<g id="node14" class="node"><title>Mixy</title>
<g id="a_node14"><a xlink:href="/type/Mixy" xlink:title="Mixy">
<ellipse fill="none" stroke="#6666ff" cx="751" cy="-234" rx="29.4969" ry="18"/>
<text text-anchor="middle" x="751" y="-230.3" font-family="FreeSans" font-size="14.00" fill="#6666ff">Mixy</text>
</a>
</g>
</g>
<!-- Mixy&#45;&gt;Baggy -->
<g id="edge20" class="edge"><title>Mixy&#45;&gt;Baggy</title>
<path fill="none" stroke="#6666ff" d="M730.371,-247.033C711.608,-257.979 683.648,-274.289 662.162,-286.822"/>
<polygon fill="#6666ff" stroke="#6666ff" points="660.269,-283.874 653.395,-291.936 663.797,-289.921 660.269,-283.874"/>
</g>
<!-- BagHash -->
<g id="node15" class="node"><title>BagHash</title>
<g id="a_node15"><a xlink:href="/type/BagHash" xlink:title="BagHash">
<ellipse fill="none" stroke="#000000" cx="585" cy="-234" rx="46.5926" ry="18"/>
<text text-anchor="middle" x="585" y="-230.3" font-family="FreeSans" font-size="14.00" fill="#000000">BagHash</text>
</a>
</g>
</g>
<!-- BagHash&#45;&gt;Any -->
<g id="edge8" class="edge"><title>BagHash&#45;&gt;Any</title>
<path fill="none" stroke="#000000" d="M554.214,-247.676C523.823,-260.19 477.563,-279.239 446.818,-291.898"/>
<polygon fill="#000000" stroke="#000000" points="445.335,-288.724 437.421,-295.768 448.001,-295.197 445.335,-288.724"/>
</g>
<!-- BagHash&#45;&gt;Baggy -->
<g id="edge21" class="edge"><title>BagHash&#45;&gt;Baggy</title>
<path fill="none" stroke="#6666ff" d="M595.901,-251.589C601.458,-260.045 608.332,-270.506 614.52,-279.922"/>
<polygon fill="#6666ff" stroke="#6666ff" points="611.76,-282.095 620.177,-288.53 617.61,-278.251 611.76,-282.095"/>
</g>
<!-- Bag -->
<g id="node16" class="node"><title>Bag</title>
<g id="a_node16"><a xlink:href="/type/Bag" xlink:title="Bag">
<ellipse fill="none" stroke="#000000" cx="677" cy="-234" rx="27" ry="18"/>
<text text-anchor="middle" x="677" y="-230.3" font-family="FreeSans" font-size="14.00" fill="#000000">Bag</text>
</a>
</g>
</g>
<!-- Bag&#45;&gt;Any -->
<g id="edge9" class="edge"><title>Bag&#45;&gt;Any</title>
<path fill="none" stroke="#000000" d="M655.643,-245.085C647.891,-248.746 641,-252 641,-252 641,-252 513.484,-281.904 450.02,-296.787"/>
<polygon fill="#000000" stroke="#000000" points="448.986,-293.435 440.049,-299.126 450.584,-300.25 448.986,-293.435"/>
</g>
<!-- Bag&#45;&gt;Baggy -->
<g id="edge22" class="edge"><title>Bag&#45;&gt;Baggy</title>
<path fill="none" stroke="#6666ff" d="M666.562,-250.884C660.879,-259.531 653.721,-270.425 647.319,-280.167"/>
<polygon fill="#6666ff" stroke="#6666ff" points="644.283,-278.414 641.716,-288.693 650.133,-282.258 644.283,-278.414"/>
</g>
<!-- Set -->
<g id="node17" class="node"><title>Set</title>
<g id="a_node17"><a xlink:href="/type/Set" xlink:title="Set">
<ellipse fill="none" stroke="#000000" cx="235" cy="-234" rx="27" ry="18"/>
<text text-anchor="middle" x="235" y="-230.3" font-family="FreeSans" font-size="14.00" fill="#000000">Set</text>
</a>
</g>
</g>
<!-- Set&#45;&gt;Any -->
<g id="edge10" class="edge"><title>Set&#45;&gt;Any</title>
<path fill="none" stroke="#000000" d="M256.357,-245.085C264.109,-248.746 271,-252 271,-252 271,-252 339.992,-277.393 382.466,-293.026"/>
<polygon fill="#000000" stroke="#000000" points="381.27,-296.315 391.864,-296.485 383.688,-289.746 381.27,-296.315"/>
</g>
<!-- Set&#45;&gt;Setty -->
<g id="edge23" class="edge"><title>Set&#45;&gt;Setty</title>
<path fill="none" stroke="#6666ff" d="M251.74,-248.166C264.911,-258.525 283.483,-273.133 298.501,-284.945"/>
<polygon fill="#6666ff" stroke="#6666ff" points="296.398,-287.743 306.421,-291.174 300.725,-282.241 296.398,-287.743"/>
</g>
<!-- SetHash -->
<g id="node18" class="node"><title>SetHash</title>
<g id="a_node18"><a xlink:href="/type/SetHash" xlink:title="SetHash">
<ellipse fill="none" stroke="#000000" cx="324" cy="-234" rx="44.393" ry="18"/>
<text text-anchor="middle" x="324" y="-230.3" font-family="FreeSans" font-size="14.00" fill="#000000">SetHash</text>
</a>
</g>
</g>
<!-- SetHash&#45;&gt;Any -->
<g id="edge11" class="edge"><title>SetHash&#45;&gt;Any</title>
<path fill="none" stroke="#000000" d="M343.746,-250.189C357.292,-260.609 375.379,-274.522 389.94,-285.723"/>
<polygon fill="#000000" stroke="#000000" points="387.985,-288.635 398.045,-291.958 392.253,-283.087 387.985,-288.635"/>
</g>
<!-- SetHash&#45;&gt;Setty -->
<g id="edge24" class="edge"><title>SetHash&#45;&gt;Setty</title>
<path fill="none" stroke="#6666ff" d="M324,-252.303C324,-260.017 324,-269.288 324,-277.888"/>
<polygon fill="#6666ff" stroke="#6666ff" points="320.5,-277.896 324,-287.896 327.5,-277.896 320.5,-277.896"/>
</g>
<!-- Mix -->
<g id="node19" class="node"><title>Mix</title>
<g id="a_node19"><a xlink:href="/type/Mix" xlink:title="Mix">
<ellipse fill="none" stroke="#000000" cx="703" cy="-162" rx="27" ry="18"/>
<text text-anchor="middle" x="703" y="-158.3" font-family="FreeSans" font-size="14.00" fill="#000000">Mix</text>
</a>
</g>
</g>
<!-- Mix&#45;&gt;Any -->
<g id="edge12" class="edge"><title>Mix&#45;&gt;Any</title>
<path fill="none" stroke="#000000" d="M678.806,-170.369C630.996,-184.932 529,-216 529,-216 529,-216 473.362,-259.437 439.824,-285.62"/>
<polygon fill="#000000" stroke="#000000" points="437.55,-282.955 431.821,-291.868 441.857,-288.473 437.55,-282.955"/>
</g>
<!-- Mix&#45;&gt;Mixy -->
<g id="edge25" class="edge"><title>Mix&#45;&gt;Mixy</title>
<path fill="none" stroke="#6666ff" d="M713.892,-178.884C719.968,-187.745 727.66,-198.963 734.464,-208.885"/>
<polygon fill="#6666ff" stroke="#6666ff" points="731.609,-210.911 740.151,-217.179 737.382,-206.952 731.609,-210.911"/>
</g>
<!-- MixHash -->
<g id="node20" class="node"><title>MixHash</title>
<g id="a_node20"><a xlink:href="/type/MixHash" xlink:title="MixHash">
<ellipse fill="none" stroke="#000000" cx="519" cy="-162" rx="45.4919" ry="18"/>
<text text-anchor="middle" x="519" y="-158.3" font-family="FreeSans" font-size="14.00" fill="#000000">MixHash</text>
</a>
</g>
</g>
<!-- MixHash&#45;&gt;Any -->
<g id="edge13" class="edge"><title>MixHash&#45;&gt;Any</title>
<path fill="none" stroke="#000000" d="M506.866,-179.567C488.511,-204.629 453.594,-252.305 432.493,-281.115"/>
<polygon fill="#000000" stroke="#000000" points="429.507,-279.269 426.422,-289.405 435.154,-283.405 429.507,-279.269"/>
</g>
<!-- MixHash&#45;&gt;Mixy -->
<g id="edge26" class="edge"><title>MixHash&#45;&gt;Mixy</title>
<path fill="none" stroke="#6666ff" d="M555.49,-172.969C611.687,-188.322 713,-216 713,-216 713,-216 715.345,-217.049 718.87,-218.626"/>
<polygon fill="#6666ff" stroke="#6666ff" points="717.461,-221.83 728.019,-222.719 720.32,-215.44 717.461,-221.83"/>
</g>
</g>
</svg>
