<?xml version="1.0" encoding="UTF-8" standalone="no"?>
<!DOCTYPE svg PUBLIC "-//W3C//DTD SVG 1.1//EN"
 "http://www.w3.org/Graphics/SVG/1.1/DTD/svg11.dtd">
<!-- Generated by graphviz version 2.38.0 (20140413.2041)
 -->
<!-- Title: perl6&#45;type&#45;graph Pages: 1 -->
<svg width="403pt" height="476pt"
 viewBox="0.00 0.00 403.44 476.00" xmlns="http://www.w3.org/2000/svg" xmlns:xlink="http://www.w3.org/1999/xlink">
<g id="graph0" class="graph" transform="scale(1 1) rotate(0) translate(4 472)">
<title>perl6&#45;type&#45;graph</title>
<polygon fill="white" stroke="none" points="-4,4 -4,-472 399.439,-472 399.439,4 -4,4"/>
<!-- Callable -->
<g id="node1" class="node"><title>Callable</title>
<g id="a_node1"><a xlink:href="/type/Callable" xlink:title="Callable">
<ellipse fill="none" stroke="#6666ff" cx="165.895" cy="-378" rx="42.4939" ry="18"/>
<text text-anchor="middle" x="165.895" y="-374.3" font-family="FreeSans" font-size="14.00" fill="#6666ff">Callable</text>
</a>
</g>
</g>
<!-- Mu -->
<g id="node2" class="node"><title>Mu</title>
<g id="a_node2"><a xlink:href="/type/Mu" xlink:title="Mu">
<ellipse fill="none" stroke="#000000" cx="258.895" cy="-450" rx="27" ry="18"/>
<text text-anchor="middle" x="258.895" y="-446.3" font-family="FreeSans" font-size="14.00" fill="#000000">Mu</text>
</a>
</g>
</g>
<!-- Any -->
<g id="node3" class="node"><title>Any</title>
<g id="a_node3"><a xlink:href="/type/Any" xlink:title="Any">
<ellipse fill="none" stroke="#000000" cx="258.895" cy="-378" rx="27" ry="18"/>
<text text-anchor="middle" x="258.895" y="-374.3" font-family="FreeSans" font-size="14.00" fill="#000000">Any</text>
</a>
</g>
</g>
<!-- Any&#45;&gt;Mu -->
<g id="edge1" class="edge"><title>Any&#45;&gt;Mu</title>
<path fill="none" stroke="#000000" d="M258.895,-396.303C258.895,-404.017 258.895,-413.288 258.895,-421.888"/>
<polygon fill="#000000" stroke="#000000" points="255.395,-421.896 258.895,-431.896 262.395,-421.896 255.395,-421.896"/>
</g>
<!-- ForeignCode -->
<g id="node4" class="node"><title>ForeignCode</title>
<g id="a_node4"><a xlink:href="/type/ForeignCode" xlink:title="ForeignCode">
<ellipse fill="none" stroke="#000000" cx="153.895" cy="-306" rx="61.99" ry="18"/>
<text text-anchor="middle" x="153.895" y="-302.3" font-family="FreeSans" font-size="14.00" fill="#000000">ForeignCode</text>
</a>
</g>
</g>
<!-- ForeignCode&#45;&gt;Callable -->
<g id="edge12" class="edge"><title>ForeignCode&#45;&gt;Callable</title>
<path fill="none" stroke="#6666ff" d="M156.861,-324.303C158.184,-332.017 159.773,-341.288 161.247,-349.888"/>
<polygon fill="#6666ff" stroke="#6666ff" points="157.823,-350.631 162.963,-359.896 164.723,-349.448 157.823,-350.631"/>
</g>
<!-- ForeignCode&#45;&gt;Any -->
<g id="edge2" class="edge"><title>ForeignCode&#45;&gt;Any</title>
<path fill="none" stroke="#000000" d="M177.459,-322.709C193.627,-333.488 215.118,-347.815 231.963,-359.046"/>
<polygon fill="#000000" stroke="#000000" points="230.034,-361.966 240.296,-364.601 233.917,-356.141 230.034,-361.966"/>
</g>
<!-- Code -->
<g id="node5" class="node"><title>Code</title>
<g id="a_node5"><a xlink:href="/type/Code" xlink:title="Code">
<ellipse fill="none" stroke="#000000" cx="265.895" cy="-306" rx="31.6951" ry="18"/>
<text text-anchor="middle" x="265.895" y="-302.3" font-family="FreeSans" font-size="14.00" fill="#000000">Code</text>
</a>
</g>
</g>
<!-- Code&#45;&gt;Callable -->
<g id="edge13" class="edge"><title>Code&#45;&gt;Callable</title>
<path fill="none" stroke="#6666ff" d="M246.614,-320.497C232.018,-330.714 211.72,-344.923 195.13,-356.535"/>
<polygon fill="#6666ff" stroke="#6666ff" points="193.028,-353.734 186.843,-362.336 197.043,-359.469 193.028,-353.734"/>
</g>
<!-- Code&#45;&gt;Any -->
<g id="edge3" class="edge"><title>Code&#45;&gt;Any</title>
<path fill="none" stroke="#000000" d="M264.165,-324.303C263.393,-332.017 262.466,-341.288 261.606,-349.888"/>
<polygon fill="#000000" stroke="#000000" points="258.118,-349.597 260.605,-359.896 265.083,-350.294 258.118,-349.597"/>
</g>
<!-- Block -->
<g id="node6" class="node"><title>Block</title>
<g id="a_node6"><a xlink:href="/type/Block" xlink:title="Block">
<ellipse fill="none" stroke="#000000" cx="205.895" cy="-234" rx="32.4942" ry="18"/>
<text text-anchor="middle" x="205.895" y="-230.3" font-family="FreeSans" font-size="14.00" fill="#000000">Block</text>
</a>
</g>
</g>
<!-- Block&#45;&gt;Code -->
<g id="edge4" class="edge"><title>Block&#45;&gt;Code</title>
<path fill="none" stroke="#000000" d="M219.211,-250.535C227.057,-259.689 237.135,-271.446 245.918,-281.693"/>
<polygon fill="#000000" stroke="#000000" points="243.451,-284.193 252.616,-289.508 248.766,-279.638 243.451,-284.193"/>
</g>
<!-- WhateverCode -->
<g id="node7" class="node"><title>WhateverCode</title>
<g id="a_node7"><a xlink:href="/type/WhateverCode" xlink:title="WhateverCode">
<ellipse fill="none" stroke="#000000" cx="325.895" cy="-234" rx="69.5877" ry="18"/>
<text text-anchor="middle" x="325.895" y="-230.3" font-family="FreeSans" font-size="14.00" fill="#000000">WhateverCode</text>
</a>
</g>
</g>
<!-- WhateverCode&#45;&gt;Code -->
<g id="edge5" class="edge"><title>WhateverCode&#45;&gt;Code</title>
<path fill="none" stroke="#000000" d="M311.371,-251.945C303.784,-260.796 294.379,-271.769 286.094,-281.434"/>
<polygon fill="#000000" stroke="#000000" points="283.314,-279.3 279.463,-289.171 288.628,-283.856 283.314,-279.3"/>
</g>
<!-- Routine -->
<g id="node8" class="node"><title>Routine</title>
<g id="a_node8"><a xlink:href="/type/Routine" xlink:title="Routine">
<ellipse fill="none" stroke="#000000" cx="205.895" cy="-162" rx="40.8928" ry="18"/>
<text text-anchor="middle" x="205.895" y="-158.3" font-family="FreeSans" font-size="14.00" fill="#000000">Routine</text>
</a>
</g>
</g>
<!-- Routine&#45;&gt;Block -->
<g id="edge6" class="edge"><title>Routine&#45;&gt;Block</title>
<path fill="none" stroke="#000000" d="M205.895,-180.303C205.895,-188.017 205.895,-197.288 205.895,-205.888"/>
<polygon fill="#000000" stroke="#000000" points="202.395,-205.896 205.895,-215.896 209.395,-205.896 202.395,-205.896"/>
</g>
<!-- Submethod -->
<g id="node9" class="node"><title>Submethod</title>
<g id="a_node9"><a xlink:href="/type/Submethod" xlink:title="Submethod">
<ellipse fill="none" stroke="#000000" cx="55.895" cy="-90" rx="55.7903" ry="18"/>
<text text-anchor="middle" x="55.895" y="-86.3" font-family="FreeSans" font-size="14.00" fill="#000000">Submethod</text>
</a>
</g>
</g>
<!-- Submethod&#45;&gt;Routine -->
<g id="edge7" class="edge"><title>Submethod&#45;&gt;Routine</title>
<path fill="none" stroke="#000000" d="M86.2498,-105.166C110.237,-116.36 143.804,-132.024 169.28,-143.913"/>
<polygon fill="#000000" stroke="#000000" points="168.07,-147.21 178.612,-148.268 171.03,-140.867 168.07,-147.21"/>
</g>
<!-- Macro -->
<g id="node10" class="node"><title>Macro</title>
<g id="a_node10"><a xlink:href="/type/Macro" xlink:title="Macro">
<ellipse fill="none" stroke="#000000" cx="165.895" cy="-90" rx="35.9954" ry="18"/>
<text text-anchor="middle" x="165.895" y="-86.3" font-family="FreeSans" font-size="14.00" fill="#000000">Macro</text>
</a>
</g>
</g>
<!-- Macro&#45;&gt;Routine -->
<g id="edge8" class="edge"><title>Macro&#45;&gt;Routine</title>
<path fill="none" stroke="#000000" d="M175.374,-107.589C180.087,-115.837 185.89,-125.991 191.166,-135.223"/>
<polygon fill="#000000" stroke="#000000" points="188.205,-137.098 196.206,-144.044 194.283,-133.625 188.205,-137.098"/>
</g>
<!-- Sub -->
<g id="node11" class="node"><title>Sub</title>
<g id="a_node11"><a xlink:href="/type/Sub" xlink:title="Sub">
<ellipse fill="none" stroke="#000000" cx="246.895" cy="-90" rx="27" ry="18"/>
<text text-anchor="middle" x="246.895" y="-86.3" font-family="FreeSans" font-size="14.00" fill="#000000">Sub</text>
</a>
</g>
</g>
<!-- Sub&#45;&gt;Routine -->
<g id="edge9" class="edge"><title>Sub&#45;&gt;Routine</title>
<path fill="none" stroke="#000000" d="M237.386,-107.235C232.438,-115.683 226.277,-126.201 220.721,-135.688"/>
<polygon fill="#000000" stroke="#000000" points="217.671,-133.969 215.637,-144.367 223.712,-137.507 217.671,-133.969"/>
</g>
<!-- Method -->
<g id="node12" class="node"><title>Method</title>
<g id="a_node12"><a xlink:href="/type/Method" xlink:title="Method">
<ellipse fill="none" stroke="#000000" cx="331.895" cy="-90" rx="40.0939" ry="18"/>
<text text-anchor="middle" x="331.895" y="-86.3" font-family="FreeSans" font-size="14.00" fill="#000000">Method</text>
</a>
</g>
</g>
<!-- Method&#45;&gt;Routine -->
<g id="edge10" class="edge"><title>Method&#45;&gt;Routine</title>
<path fill="none" stroke="#000000" d="M307.601,-104.497C288.203,-115.273 260.813,-130.49 239.343,-142.418"/>
<polygon fill="#000000" stroke="#000000" points="237.586,-139.39 230.544,-147.306 240.986,-145.509 237.586,-139.39"/>
</g>
<!-- Regex -->
<g id="node13" class="node"><title>Regex</title>
<g id="a_node13"><a xlink:href="/type/Regex" xlink:title="Regex">
<ellipse fill="none" stroke="#000000" cx="331.895" cy="-18" rx="36.2938" ry="18"/>
<text text-anchor="middle" x="331.895" y="-14.3" font-family="FreeSans" font-size="14.00" fill="#000000">Regex</text>
</a>
</g>
</g>
<!-- Regex&#45;&gt;Method -->
<g id="edge11" class="edge"><title>Regex&#45;&gt;Method</title>
<path fill="none" stroke="#000000" d="M331.895,-36.3034C331.895,-44.0173 331.895,-53.2875 331.895,-61.8876"/>
<polygon fill="#000000" stroke="#000000" points="328.395,-61.8956 331.895,-71.8957 335.395,-61.8957 328.395,-61.8956"/>
</g>
</g>
</svg>
