<?xml version="1.0" encoding="UTF-8" standalone="no"?>
<!DOCTYPE svg PUBLIC "-//W3C//DTD SVG 1.1//EN"
 "http://www.w3.org/Graphics/SVG/1.1/DTD/svg11.dtd">
<!-- Generated by graphviz version 2.38.0 (20140413.2041)
 -->
<!-- Title: perl6&#45;type&#45;graph Pages: 1 -->
<svg width="2177pt" height="1377pt"
 viewBox="0.00 0.00 2176.99 1377.47" xmlns="http://www.w3.org/2000/svg" xmlns:xlink="http://www.w3.org/1999/xlink">
<g id="graph0" class="graph" transform="scale(1 1) rotate(0) translate(1067.29 685.373)">
<title>perl6&#45;type&#45;graph</title>
<polygon fill="white" stroke="none" points="-1067.29,692.1 -1067.29,-685.373 1109.7,-685.373 1109.7,692.1 -1067.29,692.1"/>
<!-- Metamodel::MultiMethodContainer -->
<g id="node1" class="node"><title>Metamodel::MultiMethodContainer</title>
<g id="a_node1"><a xlink:href="/type/Metamodel::MultiMethodContainer" xlink:title="Metamodel::MultiMethodContainer">
<ellipse fill="none" stroke="#6666ff" cx="-464.106" cy="-297.721" rx="146.474" ry="18"/>
<text text-anchor="middle" x="-464.106" y="-294.021" font-family="FreeSans" font-size="14.00" fill="#6666ff">Metamodel::MultiMethodContainer</text>
</a>
</g>
</g>
<!-- Mu -->
<g id="node2" class="node"><title>Mu</title>
<g id="a_node2"><a xlink:href="/type/Mu" xlink:title="Mu">
<ellipse fill="none" stroke="#000000" cx="990.665" cy="558.613" rx="27" ry="18"/>
<text text-anchor="middle" x="990.665" y="562.313" font-family="FreeSans" font-size="14.00" fill="#000000">Mu</text>
</a>
</g>
</g>
<!-- Any -->
<g id="node3" class="node"><title>Any</title>
<g id="a_node3"><a xlink:href="/type/Any" xlink:title="Any">
<ellipse fill="none" stroke="#000000" cx="985.657" cy="7.89237" rx="27" ry="18"/>
<text text-anchor="middle" x="985.657" y="11.5924" font-family="FreeSans" font-size="14.00" fill="#000000">Any</text>
</a>
</g>
</g>
<!-- Any&#45;&gt;Mu -->
<g id="edge1" class="edge"><title>Any&#45;&gt;Mu</title>
<path fill="none" stroke="#000000" d="M985.821,25.9027C986.551,106.219 989.514,432.064 990.408,530.389"/>
<polygon fill="#000000" stroke="#000000" points="993.908,530.431 990.499,540.462 986.909,530.495 993.908,530.431"/>
</g>
<!-- Metamodel::Naming -->
<g id="node4" class="node"><title>Metamodel::Naming</title>
<g id="a_node4"><a xlink:href="/type/Metamodel::Naming" xlink:title="Metamodel::Naming">
<ellipse fill="none" stroke="#6666ff" cx="-244.013" cy="-37.5022" rx="90.1842" ry="18"/>
<text text-anchor="middle" x="-244.013" y="-33.8022" font-family="FreeSans" font-size="14.00" fill="#6666ff">Metamodel::Naming</text>
</a>
</g>
</g>
<!-- Metamodel::Stashing -->
<g id="node5" class="node"><title>Metamodel::Stashing</title>
<g id="a_node5"><a xlink:href="/type/Metamodel::Stashing" xlink:title="Metamodel::Stashing">
<ellipse fill="none" stroke="#6666ff" cx="532.414" cy="290.204" rx="93.6835" ry="18"/>
<text text-anchor="middle" x="532.414" y="293.904" font-family="FreeSans" font-size="14.00" fill="#6666ff">Metamodel::Stashing</text>
</a>
</g>
</g>
<!-- Metamodel::AttributeContainer -->
<g id="node6" class="node"><title>Metamodel::AttributeContainer</title>
<g id="a_node6"><a xlink:href="/type/Metamodel::AttributeContainer" xlink:title="Metamodel::AttributeContainer">
<ellipse fill="none" stroke="#6666ff" cx="222.94" cy="-228.981" rx="129.977" ry="18"/>
<text text-anchor="middle" x="222.94" y="-225.281" font-family="FreeSans" font-size="14.00" fill="#6666ff">Metamodel::AttributeContainer</text>
</a>
</g>
</g>
<!-- Metamodel::MethodContainer -->
<g id="node7" class="node"><title>Metamodel::MethodContainer</title>
<g id="a_node7"><a xlink:href="/type/Metamodel::MethodContainer" xlink:title="Metamodel::MethodContainer">
<ellipse fill="none" stroke="#6666ff" cx="7.51333" cy="6.89874" rx="127.277" ry="18"/>
<text text-anchor="middle" x="7.51333" y="10.5987" font-family="FreeSans" font-size="14.00" fill="#6666ff">Metamodel::MethodContainer</text>
</a>
</g>
</g>
<!-- Metamodel::RoleContainer -->
<g id="node8" class="node"><title>Metamodel::RoleContainer</title>
<g id="a_node8"><a xlink:href="/type/Metamodel::RoleContainer" xlink:title="Metamodel::RoleContainer">
<ellipse fill="none" stroke="#6666ff" cx="255.105" cy="92.2621" rx="115.88" ry="18"/>
<text text-anchor="middle" x="255.105" y="95.9621" font-family="FreeSans" font-size="14.00" fill="#6666ff">Metamodel::RoleContainer</text>
</a>
</g>
</g>
<!-- Metamodel::BaseType -->
<g id="node9" class="node"><title>Metamodel::BaseType</title>
<g id="a_node9"><a xlink:href="/type/Metamodel::BaseType" xlink:title="Metamodel::BaseType">
<ellipse fill="none" stroke="#6666ff" cx="547.827" cy="670.1" rx="99.3824" ry="18"/>
<text text-anchor="middle" x="547.827" y="673.8" font-family="FreeSans" font-size="14.00" fill="#6666ff">Metamodel::BaseType</text>
</a>
</g>
</g>
<!-- Metamodel::MROBasedMethodDispatch -->
<g id="node10" class="node"><title>Metamodel::MROBasedMethodDispatch</title>
<g id="a_node10"><a xlink:href="/type/Metamodel::MROBasedMethodDispatch" xlink:title="Metamodel::MROBasedMethodDispatch">
<ellipse fill="none" stroke="#6666ff" cx="-101.511" cy="651.505" rx="169.77" ry="18"/>
<text text-anchor="middle" x="-101.511" y="655.205" font-family="FreeSans" font-size="14.00" fill="#6666ff">Metamodel::MROBasedMethodDispatch</text>
</a>
</g>
</g>
<!-- Metamodel::MROBasedTypeChecking -->
<g id="node11" class="node"><title>Metamodel::MROBasedTypeChecking</title>
<g id="a_node11"><a xlink:href="/type/Metamodel::MROBasedTypeChecking" xlink:title="Metamodel::MROBasedTypeChecking">
<ellipse fill="none" stroke="#6666ff" cx="-445.97" cy="661.989" rx="163.271" ry="18"/>
<text text-anchor="middle" x="-445.97" y="665.689" font-family="FreeSans" font-size="14.00" fill="#6666ff">Metamodel::MROBasedTypeChecking</text>
</a>
</g>
</g>
<!-- Metamodel::BUILDPLAN -->
<g id="node12" class="node"><title>Metamodel::BUILDPLAN</title>
<g id="a_node12"><a xlink:href="/type/Metamodel::BUILDPLAN" xlink:title="Metamodel::BUILDPLAN">
<ellipse fill="none" stroke="#6666ff" cx="-203.424" cy="268.968" rx="109.681" ry="18"/>
<text text-anchor="middle" x="-203.424" y="272.668" font-family="FreeSans" font-size="14.00" fill="#6666ff">Metamodel::BUILDPLAN</text>
</a>
</g>
</g>
<!-- Metamodel::BoolificationProtocol -->
<g id="node13" class="node"><title>Metamodel::BoolificationProtocol</title>
<g id="a_node13"><a xlink:href="/type/Metamodel::BoolificationProtocol" xlink:title="Metamodel::BoolificationProtocol">
<ellipse fill="none" stroke="#6666ff" cx="208.4" cy="642.741" rx="139.175" ry="18"/>
<text text-anchor="middle" x="208.4" y="646.441" font-family="FreeSans" font-size="14.00" fill="#6666ff">Metamodel::BoolificationProtocol</text>
</a>
</g>
</g>
<!-- Metamodel::EnumHOW -->
<g id="node14" class="node"><title>Metamodel::EnumHOW</title>
<g id="a_node14"><a xlink:href="/type/Metamodel::EnumHOW" xlink:title="Metamodel::EnumHOW">
<ellipse fill="none" stroke="#000000" cx="102.172" cy="311.036" rx="104.782" ry="18"/>
<text text-anchor="middle" x="102.172" y="314.736" font-family="FreeSans" font-size="14.00" fill="#000000">Metamodel::EnumHOW</text>
</a>
</g>
</g>
<!-- Metamodel::EnumHOW&#45;&gt;Metamodel::MultiMethodContainer -->
<g id="edge10" class="edge"><title>Metamodel::EnumHOW&#45;&gt;Metamodel::MultiMethodContainer</title>
<path fill="none" stroke="#6666ff" d="M88.852,292.928C40.7053,227.477 -121.473,7.01041 -121.473,7.01041 -121.473,7.01041 -152.072,-37.553 -152.072,-37.553 -152.072,-37.553 -356.958,-208.383 -434.685,-273.19"/>
<polygon fill="#6666ff" stroke="#6666ff" points="-437.22,-270.747 -442.659,-279.839 -432.737,-276.123 -437.22,-270.747"/>
</g>
<!-- Metamodel::EnumHOW&#45;&gt;Any -->
<g id="edge2" class="edge"><title>Metamodel::EnumHOW&#45;&gt;Any</title>
<path fill="none" stroke="#000000" d="M149.36,294.845C307.388,240.622 815.694,66.2106 951.843,19.4948"/>
<polygon fill="#000000" stroke="#000000" points="950.759,16.1664 961.354,16.2313 953.031,22.7874 950.759,16.1664"/>
</g>
<!-- Metamodel::EnumHOW&#45;&gt;Metamodel::Naming -->
<g id="edge6" class="edge"><title>Metamodel::EnumHOW&#45;&gt;Metamodel::Naming</title>
<path fill="none" stroke="#6666ff" d="M84.529,293.273C27.3474,235.703 -152.99,54.1396 -219.265,-12.5855"/>
<polygon fill="#6666ff" stroke="#6666ff" points="-221.842,-10.2133 -226.406,-19.7748 -216.875,-15.1462 -221.842,-10.2133"/>
</g>
<!-- Metamodel::EnumHOW&#45;&gt;Metamodel::Stashing -->
<g id="edge7" class="edge"><title>Metamodel::EnumHOW&#45;&gt;Metamodel::Stashing</title>
<path fill="none" stroke="#6666ff" d="M203.045,306.152C271.815,302.822 362.529,298.43 431.341,295.098"/>
<polygon fill="#6666ff" stroke="#6666ff" points="431.172,291.602 441.33,294.614 431.511,298.594 431.172,291.602"/>
</g>
<!-- Metamodel::EnumHOW&#45;&gt;Metamodel::AttributeContainer -->
<g id="edge8" class="edge"><title>Metamodel::EnumHOW&#45;&gt;Metamodel::AttributeContainer</title>
<path fill="none" stroke="#6666ff" d="M105.15,292.768C113.717,240.212 137.816,92.3619 137.816,92.3619 137.816,92.3619 194.641,-122.152 215.434,-200.647"/>
<polygon fill="#6666ff" stroke="#6666ff" points="212.175,-202.014 218.119,-210.784 218.942,-200.221 212.175,-202.014"/>
</g>
<!-- Metamodel::EnumHOW&#45;&gt;Metamodel::MethodContainer -->
<g id="edge9" class="edge"><title>Metamodel::EnumHOW&#45;&gt;Metamodel::MethodContainer</title>
<path fill="none" stroke="#6666ff" d="M96.5344,292.922C80.6191,241.786 35.2651,96.0647 16.1626,34.6887"/>
<polygon fill="#6666ff" stroke="#6666ff" points="12.7516,35.5065 13.1217,24.9182 19.4354,33.4263 12.7516,35.5065"/>
</g>
<!-- Metamodel::EnumHOW&#45;&gt;Metamodel::RoleContainer -->
<g id="edge11" class="edge"><title>Metamodel::EnumHOW&#45;&gt;Metamodel::RoleContainer</title>
<path fill="none" stroke="#6666ff" d="M114.687,293.133C141.573,254.673 204.959,163.997 236.544,118.814"/>
<polygon fill="#6666ff" stroke="#6666ff" points="233.819,116.603 242.417,110.413 239.556,120.614 233.819,116.603"/>
</g>
<!-- Metamodel::EnumHOW&#45;&gt;Metamodel::BaseType -->
<g id="edge12" class="edge"><title>Metamodel::EnumHOW&#45;&gt;Metamodel::BaseType</title>
<path fill="none" stroke="#6666ff" d="M124.272,328.842C197.785,388.071 434.171,578.527 518.001,646.07"/>
<polygon fill="#6666ff" stroke="#6666ff" points="520.266,643.399 525.857,652.399 515.874,648.85 520.266,643.399"/>
</g>
<!-- Metamodel::EnumHOW&#45;&gt;Metamodel::MROBasedMethodDispatch -->
<g id="edge13" class="edge"><title>Metamodel::EnumHOW&#45;&gt;Metamodel::MROBasedMethodDispatch</title>
<path fill="none" stroke="#6666ff" d="M91.2214,329.341C57.3651,385.934 -45.7302,558.264 -85.5658,624.851"/>
<polygon fill="#6666ff" stroke="#6666ff" points="-82.6156,626.737 -90.7531,633.522 -88.6227,623.144 -82.6156,626.737"/>
</g>
<!-- Metamodel::EnumHOW&#45;&gt;Metamodel::MROBasedTypeChecking -->
<g id="edge14" class="edge"><title>Metamodel::EnumHOW&#45;&gt;Metamodel::MROBasedTypeChecking</title>
<path fill="none" stroke="#6666ff" d="M74.9898,328.44C-15.4794,386.363 -306.499,572.691 -409.457,638.611"/>
<polygon fill="#6666ff" stroke="#6666ff" points="-407.662,641.617 -417.971,644.062 -411.436,635.722 -407.662,641.617"/>
</g>
<!-- Metamodel::EnumHOW&#45;&gt;Metamodel::BUILDPLAN -->
<g id="edge15" class="edge"><title>Metamodel::EnumHOW&#45;&gt;Metamodel::BUILDPLAN</title>
<path fill="none" stroke="#6666ff" d="M20.278,299.763C-19.5751,294.277 -67.6969,287.652 -109.082,281.955"/>
<polygon fill="#6666ff" stroke="#6666ff" points="-109.744,285.397 -119.173,280.566 -108.789,278.463 -109.744,285.397"/>
</g>
<!-- Metamodel::EnumHOW&#45;&gt;Metamodel::BoolificationProtocol -->
<g id="edge16" class="edge"><title>Metamodel::EnumHOW&#45;&gt;Metamodel::BoolificationProtocol</title>
<path fill="none" stroke="#6666ff" d="M108.035,329.342C125.664,384.391 178.279,548.685 199.44,614.761"/>
<polygon fill="#6666ff" stroke="#6666ff" points="202.839,613.9 202.556,624.491 196.173,616.035 202.839,613.9"/>
</g>
<!-- Metamodel::Documenting -->
<g id="node15" class="node"><title>Metamodel::Documenting</title>
<g id="a_node15"><a xlink:href="/type/Metamodel::Documenting" xlink:title="Metamodel::Documenting">
<ellipse fill="none" stroke="#6666ff" cx="-443.963" cy="-653.467" rx="111.28" ry="18"/>
<text text-anchor="middle" x="-443.963" y="-649.767" font-family="FreeSans" font-size="14.00" fill="#6666ff">Metamodel::Documenting</text>
</a>
</g>
</g>
<!-- Metamodel::Versioning -->
<g id="node16" class="node"><title>Metamodel::Versioning</title>
<g id="a_node16"><a xlink:href="/type/Metamodel::Versioning" xlink:title="Metamodel::Versioning">
<ellipse fill="none" stroke="#6666ff" cx="523.681" cy="-0.355331" rx="100.983" ry="18"/>
<text text-anchor="middle" x="523.681" y="3.34467" font-family="FreeSans" font-size="14.00" fill="#6666ff">Metamodel::Versioning</text>
</a>
</g>
</g>
<!-- Metamodel::Finalization -->
<g id="node17" class="node"><title>Metamodel::Finalization</title>
<g id="a_node17"><a xlink:href="/type/Metamodel::Finalization" xlink:title="Metamodel::Finalization">
<ellipse fill="none" stroke="#6666ff" cx="-934.574" cy="624.418" rx="103.982" ry="18"/>
<text text-anchor="middle" x="-934.574" y="628.118" font-family="FreeSans" font-size="14.00" fill="#6666ff">Metamodel::Finalization</text>
</a>
</g>
</g>
<!-- Metamodel::PrivateMethodContainer -->
<g id="node18" class="node"><title>Metamodel::PrivateMethodContainer</title>
<g id="a_node18"><a xlink:href="/type/Metamodel::PrivateMethodContainer" xlink:title="Metamodel::PrivateMethodContainer">
<ellipse fill="none" stroke="#6666ff" cx="-96.6719" cy="-660.889" rx="154.873" ry="18"/>
<text text-anchor="middle" x="-96.6719" y="-657.189" font-family="FreeSans" font-size="14.00" fill="#6666ff">Metamodel::PrivateMethodContainer</text>
</a>
</g>
</g>
<!-- Metamodel::MultipleInheritance -->
<g id="node19" class="node"><title>Metamodel::MultipleInheritance</title>
<g id="a_node19"><a xlink:href="/type/Metamodel::MultipleInheritance" xlink:title="Metamodel::MultipleInheritance">
<ellipse fill="none" stroke="#6666ff" cx="-92.2588" cy="-299.617" rx="133.776" ry="18"/>
<text text-anchor="middle" x="-92.2588" y="-295.917" font-family="FreeSans" font-size="14.00" fill="#6666ff">Metamodel::MultipleInheritance</text>
</a>
</g>
</g>
<!-- Metamodel::DefaultParent -->
<g id="node20" class="node"><title>Metamodel::DefaultParent</title>
<g id="a_node20"><a xlink:href="/type/Metamodel::DefaultParent" xlink:title="Metamodel::DefaultParent">
<ellipse fill="none" stroke="#6666ff" cx="-950.201" cy="-202.304" rx="113.18" ry="18"/>
<text text-anchor="middle" x="-950.201" y="-198.604" font-family="FreeSans" font-size="14.00" fill="#6666ff">Metamodel::DefaultParent</text>
</a>
</g>
</g>
<!-- Metamodel::C3MRO -->
<g id="node21" class="node"><title>Metamodel::C3MRO</title>
<g id="a_node21"><a xlink:href="/type/Metamodel::C3MRO" xlink:title="Metamodel::C3MRO">
<ellipse fill="none" stroke="#6666ff" cx="-527.147" cy="298.831" rx="92.0841" ry="18"/>
<text text-anchor="middle" x="-527.147" y="302.531" font-family="FreeSans" font-size="14.00" fill="#6666ff">Metamodel::C3MRO</text>
</a>
</g>
</g>
<!-- Metamodel::Trusting -->
<g id="node22" class="node"><title>Metamodel::Trusting</title>
<g id="a_node22"><a xlink:href="/type/Metamodel::Trusting" xlink:title="Metamodel::Trusting">
<ellipse fill="none" stroke="#6666ff" cx="-971.007" cy="179.584" rx="91.784" ry="18"/>
<text text-anchor="middle" x="-971.007" y="183.284" font-family="FreeSans" font-size="14.00" fill="#6666ff">Metamodel::Trusting</text>
</a>
</g>
</g>
<!-- Metamodel::Mixins -->
<g id="node23" class="node"><title>Metamodel::Mixins</title>
<g id="a_node23"><a xlink:href="/type/Metamodel::Mixins" xlink:title="Metamodel::Mixins">
<ellipse fill="none" stroke="#6666ff" cx="-928.967" cy="-622.901" rx="85.2851" ry="18"/>
<text text-anchor="middle" x="-928.967" y="-619.201" font-family="FreeSans" font-size="14.00" fill="#6666ff">Metamodel::Mixins</text>
</a>
</g>
</g>
<!-- Metamodel::ClassHOW -->
<g id="node24" class="node"><title>Metamodel::ClassHOW</title>
<g id="a_node24"><a xlink:href="/type/Metamodel::ClassHOW" xlink:title="Metamodel::ClassHOW">
<ellipse fill="none" stroke="#000000" cx="-541.266" cy="-2.72048" rx="103.982" ry="18"/>
<text text-anchor="middle" x="-541.266" y="0.979517" font-family="FreeSans" font-size="14.00" fill="#000000">Metamodel::ClassHOW</text>
</a>
</g>
</g>
<!-- Metamodel::ClassHOW&#45;&gt;Metamodel::MultiMethodContainer -->
<g id="edge25" class="edge"><title>Metamodel::ClassHOW&#45;&gt;Metamodel::MultiMethodContainer</title>
<path fill="none" stroke="#6666ff" d="M-536.556,-20.73C-523.561,-70.4124 -487.133,-209.683 -471.445,-269.663"/>
<polygon fill="#6666ff" stroke="#6666ff" points="-474.77,-270.784 -468.853,-279.573 -467.998,-269.012 -474.77,-270.784"/>
</g>
<!-- Metamodel::ClassHOW&#45;&gt;Any -->
<g id="edge3" class="edge"><title>Metamodel::ClassHOW&#45;&gt;Any</title>
<path fill="none" stroke="#000000" d="M-441.753,2.57084C-283.398,10.9909 8.24827,26.4984 8.24827,26.4984 8.24827,26.4984 524.066,19.2445 524.066,19.2445 524.066,19.2445 838.285,11.5168 948.222,8.81304"/>
<polygon fill="#000000" stroke="#000000" points="948.422,5.30713 958.506,8.56012 948.595,12.305 948.422,5.30713"/>
</g>
<!-- Metamodel::ClassHOW&#45;&gt;Metamodel::Naming -->
<g id="edge17" class="edge"><title>Metamodel::ClassHOW&#45;&gt;Metamodel::Naming</title>
<path fill="none" stroke="#6666ff" d="M-454.889,-12.8275C-416.337,-17.3385 -370.966,-22.6475 -332.204,-27.183"/>
<polygon fill="#6666ff" stroke="#6666ff" points="-332.319,-30.6933 -321.98,-28.3793 -331.506,-23.7407 -332.319,-30.6933"/>
</g>
<!-- Metamodel::ClassHOW&#45;&gt;Metamodel::Stashing -->
<g id="edge20" class="edge"><title>Metamodel::ClassHOW&#45;&gt;Metamodel::Stashing</title>
<path fill="none" stroke="#6666ff" d="M-485.428,12.5136C-302.969,62.2925 275.009,219.978 468.556,272.782"/>
<polygon fill="#6666ff" stroke="#6666ff" points="469.572,269.432 478.298,275.44 467.73,276.185 469.572,269.432"/>
</g>
<!-- Metamodel::ClassHOW&#45;&gt;Metamodel::AttributeContainer -->
<g id="edge21" class="edge"><title>Metamodel::ClassHOW&#45;&gt;Metamodel::AttributeContainer</title>
<path fill="none" stroke="#6666ff" d="M-488.739,-18.2723C-353.008,-58.4586 9.14148,-165.681 157.835,-209.706"/>
<polygon fill="#6666ff" stroke="#6666ff" points="157.159,-213.156 167.741,-212.639 159.146,-206.444 157.159,-213.156"/>
</g>
<!-- Metamodel::ClassHOW&#45;&gt;Metamodel::MethodContainer -->
<g id="edge23" class="edge"><title>Metamodel::ClassHOW&#45;&gt;Metamodel::MethodContainer</title>
<path fill="none" stroke="#6666ff" d="M-437.723,-0.90553C-350.424,0.62467 -224.806,2.82656 -129.243,4.50161"/>
<polygon fill="#6666ff" stroke="#6666ff" points="-129.151,1.0026 -119.214,4.67742 -129.273,8.00153 -129.151,1.0026"/>
</g>
<!-- Metamodel::ClassHOW&#45;&gt;Metamodel::RoleContainer -->
<g id="edge26" class="edge"><title>Metamodel::ClassHOW&#45;&gt;Metamodel::RoleContainer</title>
<path fill="none" stroke="#6666ff" d="M-455.284,7.53456C-307.406,25.1719 -5.5718,61.1714 152.841,80.0651"/>
<polygon fill="#6666ff" stroke="#6666ff" points="153.549,76.6248 163.064,81.2845 152.72,83.5755 153.549,76.6248"/>
</g>
<!-- Metamodel::ClassHOW&#45;&gt;Metamodel::MROBasedMethodDispatch -->
<g id="edge30" class="edge"><title>Metamodel::ClassHOW&#45;&gt;Metamodel::MROBasedMethodDispatch</title>
<path fill="none" stroke="#6666ff" d="M-529.046,15.4601C-467.587,106.892 -192.361,516.347 -119.342,624.977"/>
<polygon fill="#6666ff" stroke="#6666ff" points="-116.346,623.16 -113.672,633.412 -122.156,627.065 -116.346,623.16"/>
</g>
<!-- Metamodel::ClassHOW&#45;&gt;Metamodel::MROBasedTypeChecking -->
<g id="edge31" class="edge"><title>Metamodel::ClassHOW&#45;&gt;Metamodel::MROBasedTypeChecking</title>
<path fill="none" stroke="#6666ff" d="M-534.672,15.6866C-511.222,81.1496 -433.255,298.793 -433.255,298.793 -433.255,298.793 -441.992,548.337 -444.981,633.73"/>
<polygon fill="#6666ff" stroke="#6666ff" points="-441.492,634.107 -445.34,643.978 -448.488,633.862 -441.492,634.107"/>
</g>
<!-- Metamodel::ClassHOW&#45;&gt;Metamodel::BUILDPLAN -->
<g id="edge33" class="edge"><title>Metamodel::ClassHOW&#45;&gt;Metamodel::BUILDPLAN</title>
<path fill="none" stroke="#6666ff" d="M-519.36,14.8965C-460.888,61.9193 -301.023,190.481 -233.82,244.524"/>
<polygon fill="#6666ff" stroke="#6666ff" points="-231.32,242.043 -225.721,251.038 -235.707,247.498 -231.32,242.043"/>
</g>
<!-- Metamodel::ClassHOW&#45;&gt;Metamodel::BoolificationProtocol -->
<g id="edge35" class="edge"><title>Metamodel::ClassHOW&#45;&gt;Metamodel::BoolificationProtocol</title>
<path fill="none" stroke="#6666ff" d="M-526.411,15.1149C-476.042,75.5891 -314.862,269.107 -314.862,269.107 -314.862,269.107 59.7522,536.599 175.043,618.922"/>
<polygon fill="#6666ff" stroke="#6666ff" points="177.41,616.311 183.514,624.971 173.342,622.008 177.41,616.311"/>
</g>
<!-- Metamodel::ClassHOW&#45;&gt;Metamodel::Documenting -->
<g id="edge18" class="edge"><title>Metamodel::ClassHOW&#45;&gt;Metamodel::Documenting</title>
<path fill="none" stroke="#6666ff" d="M-545.581,-20.7243C-560.926,-84.7532 -611.942,-297.628 -611.942,-297.628 -611.942,-297.628 -496.109,-543.003 -456.819,-626.233"/>
<polygon fill="#6666ff" stroke="#6666ff" points="-459.958,-627.782 -452.524,-635.331 -453.628,-624.794 -459.958,-627.782"/>
</g>
<!-- Metamodel::ClassHOW&#45;&gt;Metamodel::Versioning -->
<g id="edge19" class="edge"><title>Metamodel::ClassHOW&#45;&gt;Metamodel::Versioning</title>
<path fill="none" stroke="#6666ff" d="M-437.539,-4.60946C-278.655,-7.5029 6.77839,-12.7009 6.77839,-12.7009 6.77839,-12.7009 261.604,-6.61474 413.414,-2.98894"/>
<polygon fill="#6666ff" stroke="#6666ff" points="413.797,-6.48087 423.711,-2.743 413.63,0.517133 413.797,-6.48087"/>
</g>
<!-- Metamodel::ClassHOW&#45;&gt;Metamodel::Finalization -->
<g id="edge22" class="edge"><title>Metamodel::ClassHOW&#45;&gt;Metamodel::Finalization</title>
<path fill="none" stroke="#6666ff" d="M-552.613,15.3722C-608.176,103.968 -851.547,492.029 -917.845,597.742"/>
<polygon fill="#6666ff" stroke="#6666ff" points="-914.903,599.639 -923.181,606.252 -920.833,595.92 -914.903,599.639"/>
</g>
<!-- Metamodel::ClassHOW&#45;&gt;Metamodel::PrivateMethodContainer -->
<g id="edge24" class="edge"><title>Metamodel::ClassHOW&#45;&gt;Metamodel::PrivateMethodContainer</title>
<path fill="none" stroke="#6666ff" d="M-527.531,-20.7357C-478.681,-84.805 -316.271,-297.814 -316.271,-297.814 -316.271,-297.814 -163.538,-550.335 -112.822,-634.187"/>
<polygon fill="#6666ff" stroke="#6666ff" points="-115.732,-636.139 -107.562,-642.884 -109.742,-632.516 -115.732,-636.139"/>
</g>
<!-- Metamodel::ClassHOW&#45;&gt;Metamodel::MultipleInheritance -->
<g id="edge27" class="edge"><title>Metamodel::ClassHOW&#45;&gt;Metamodel::MultipleInheritance</title>
<path fill="none" stroke="#6666ff" d="M-514.855,-20.1843C-438.069,-70.9573 -214.829,-218.57 -127.688,-276.19"/>
<polygon fill="#6666ff" stroke="#6666ff" points="-129.475,-279.205 -119.203,-281.801 -125.614,-273.366 -129.475,-279.205"/>
</g>
<!-- Metamodel::ClassHOW&#45;&gt;Metamodel::DefaultParent -->
<g id="edge28" class="edge"><title>Metamodel::ClassHOW&#45;&gt;Metamodel::DefaultParent</title>
<path fill="none" stroke="#6666ff" d="M-576.132,-19.7369C-650.431,-55.9992 -824.24,-140.828 -906.091,-180.776"/>
<polygon fill="#6666ff" stroke="#6666ff" points="-907.682,-177.658 -915.134,-185.19 -904.612,-183.949 -907.682,-177.658"/>
</g>
<!-- Metamodel::ClassHOW&#45;&gt;Metamodel::C3MRO -->
<g id="edge29" class="edge"><title>Metamodel::ClassHOW&#45;&gt;Metamodel::C3MRO</title>
<path fill="none" stroke="#6666ff" d="M-540.404,15.689C-538.021,66.5952 -531.329,209.515 -528.47,270.585"/>
<polygon fill="#6666ff" stroke="#6666ff" points="-524.969,270.51 -527.998,280.663 -531.962,270.837 -524.969,270.51"/>
</g>
<!-- Metamodel::ClassHOW&#45;&gt;Metamodel::Trusting -->
<g id="edge32" class="edge"><title>Metamodel::ClassHOW&#45;&gt;Metamodel::Trusting</title>
<path fill="none" stroke="#6666ff" d="M-580.925,14.1036C-660.135,47.7059 -837.637,123.006 -923.154,159.284"/>
<polygon fill="#6666ff" stroke="#6666ff" points="-921.801,162.512 -932.374,163.195 -924.535,156.068 -921.801,162.512"/>
</g>
<!-- Metamodel::ClassHOW&#45;&gt;Metamodel::Mixins -->
<g id="edge34" class="edge"><title>Metamodel::ClassHOW&#45;&gt;Metamodel::Mixins</title>
<path fill="none" stroke="#6666ff" d="M-552.66,-20.9454C-607.781,-109.12 -846.808,-491.477 -912.313,-596.261"/>
<polygon fill="#6666ff" stroke="#6666ff" points="-915.427,-594.639 -917.76,-604.974 -909.491,-598.35 -915.427,-594.639"/>
</g>
<!-- Metamodel::ConcreteRoleHOW -->
<g id="node25" class="node"><title>Metamodel::ConcreteRoleHOW</title>
<g id="a_node25"><a xlink:href="/type/Metamodel::ConcreteRoleHOW" xlink:title="Metamodel::ConcreteRoleHOW">
<ellipse fill="none" stroke="#000000" cx="574.314" cy="-276.774" rx="135.676" ry="18"/>
<text text-anchor="middle" x="574.314" y="-273.074" font-family="FreeSans" font-size="14.00" fill="#000000">Metamodel::ConcreteRoleHOW</text>
</a>
</g>
</g>
<!-- Metamodel::ConcreteRoleHOW&#45;&gt;Metamodel::MultiMethodContainer -->
<g id="edge40" class="edge"><title>Metamodel::ConcreteRoleHOW&#45;&gt;Metamodel::MultiMethodContainer</title>
<path fill="none" stroke="#6666ff" d="M438.399,-277.436C243.705,-278.385 -91.3666,-280.018 -91.3666,-280.018 -91.3666,-280.018 -213.07,-285.798 -317.392,-290.753"/>
<polygon fill="#6666ff" stroke="#6666ff" points="-317.606,-287.259 -327.428,-291.23 -317.273,-294.251 -317.606,-287.259"/>
</g>
<!-- Metamodel::ConcreteRoleHOW&#45;&gt;Any -->
<g id="edge4" class="edge"><title>Metamodel::ConcreteRoleHOW&#45;&gt;Any</title>
<path fill="none" stroke="#000000" d="M600.045,-258.967C673.397,-208.204 883.099,-63.0819 958.357,-11.0004"/>
<polygon fill="#000000" stroke="#000000" points="960.619,-13.6915 966.85,-5.1228 956.635,-7.93542 960.619,-13.6915"/>
</g>
<!-- Metamodel::ConcreteRoleHOW&#45;&gt;Metamodel::Naming -->
<g id="edge36" class="edge"><title>Metamodel::ConcreteRoleHOW&#45;&gt;Metamodel::Naming</title>
<path fill="none" stroke="#6666ff" d="M518.067,-260.328C369.928,-217.013 -30.0799,-100.055 -183.227,-55.2755"/>
<polygon fill="#6666ff" stroke="#6666ff" points="-182.372,-51.8791 -192.953,-52.4319 -184.337,-58.5978 -182.372,-51.8791"/>
</g>
<!-- Metamodel::ConcreteRoleHOW&#45;&gt;Metamodel::AttributeContainer -->
<g id="edge41" class="edge"><title>Metamodel::ConcreteRoleHOW&#45;&gt;Metamodel::AttributeContainer</title>
<path fill="none" stroke="#6666ff" d="M479.227,-263.841C431.885,-257.401 374.574,-249.606 326.163,-243.022"/>
<polygon fill="#6666ff" stroke="#6666ff" points="326.356,-239.516 315.975,-241.636 325.412,-246.452 326.356,-239.516"/>
</g>
<!-- Metamodel::ConcreteRoleHOW&#45;&gt;Metamodel::MethodContainer -->
<g id="edge39" class="edge"><title>Metamodel::ConcreteRoleHOW&#45;&gt;Metamodel::MethodContainer</title>
<path fill="none" stroke="#6666ff" d="M539.286,-259.243C440.552,-209.829 160.124,-69.4802 51.3706,-15.051"/>
<polygon fill="#6666ff" stroke="#6666ff" points="52.8167,-11.8609 42.3077,-10.5152 49.6838,-18.1207 52.8167,-11.8609"/>
</g>
<!-- Metamodel::ConcreteRoleHOW&#45;&gt;Metamodel::RoleContainer -->
<g id="edge42" class="edge"><title>Metamodel::ConcreteRoleHOW&#45;&gt;Metamodel::RoleContainer</title>
<path fill="none" stroke="#6666ff" d="M558.702,-258.725C506.62,-198.513 338.684,-4.3638 277.592,66.2641"/>
<polygon fill="#6666ff" stroke="#6666ff" points="279.876,68.9741 270.687,74.2476 274.582,64.3947 279.876,68.9741"/>
</g>
<!-- Metamodel::ConcreteRoleHOW&#45;&gt;Metamodel::Versioning -->
<g id="edge37" class="edge"><title>Metamodel::ConcreteRoleHOW&#45;&gt;Metamodel::Versioning</title>
<path fill="none" stroke="#6666ff" d="M570.992,-258.638C562.373,-211.585 539.246,-85.3271 528.858,-28.617"/>
<polygon fill="#6666ff" stroke="#6666ff" points="532.26,-27.7644 527.016,-18.5587 525.375,-29.0257 532.26,-27.7644"/>
</g>
<!-- Metamodel::ConcreteRoleHOW&#45;&gt;Metamodel::PrivateMethodContainer -->
<g id="edge38" class="edge"><title>Metamodel::ConcreteRoleHOW&#45;&gt;Metamodel::PrivateMethodContainer</title>
<path fill="none" stroke="#6666ff" d="M543.296,-294.53C433.791,-357.218 65.3426,-568.141 -56.8915,-638.116"/>
<polygon fill="#6666ff" stroke="#6666ff" points="-58.658,-635.094 -65.5977,-643.1 -55.1803,-641.169 -58.658,-635.094"/>
</g>
<!-- Metamodel::ConcreteRoleHOW&#45;&gt;Metamodel::MultipleInheritance -->
<g id="edge43" class="edge"><title>Metamodel::ConcreteRoleHOW&#45;&gt;Metamodel::MultipleInheritance</title>
<path fill="none" stroke="#6666ff" d="M442.621,-281.287C328.61,-285.194 164.186,-290.829 47.7939,-294.818"/>
<polygon fill="#6666ff" stroke="#6666ff" points="47.616,-291.322 37.7418,-295.162 47.8558,-298.318 47.616,-291.322"/>
</g>
<!-- Metamodel::TypePretense -->
<g id="node26" class="node"><title>Metamodel::TypePretense</title>
<g id="a_node26"><a xlink:href="/type/Metamodel::TypePretense" xlink:title="Metamodel::TypePretense">
<ellipse fill="none" stroke="#6666ff" cx="991.312" cy="-554.833" rx="114.28" ry="18"/>
<text text-anchor="middle" x="991.312" y="-551.133" font-family="FreeSans" font-size="14.00" fill="#6666ff">Metamodel::TypePretense</text>
</a>
</g>
</g>
<!-- Metamodel::RolePunning -->
<g id="node27" class="node"><title>Metamodel::RolePunning</title>
<g id="a_node27"><a xlink:href="/type/Metamodel::RolePunning" xlink:title="Metamodel::RolePunning">
<ellipse fill="none" stroke="#6666ff" cx="532.317" cy="-663.373" rx="109.681" ry="18"/>
<text text-anchor="middle" x="532.317" y="-659.673" font-family="FreeSans" font-size="14.00" fill="#6666ff">Metamodel::RolePunning</text>
</a>
</g>
</g>
<!-- Metamodel::ParametricRoleHOW -->
<g id="node28" class="node"><title>Metamodel::ParametricRoleHOW</title>
<g id="a_node28"><a xlink:href="/type/Metamodel::ParametricRoleHOW" xlink:title="Metamodel::ParametricRoleHOW">
<ellipse fill="none" stroke="#000000" cx="199.026" cy="-609.665" rx="142.175" ry="18"/>
<text text-anchor="middle" x="199.026" y="-605.965" font-family="FreeSans" font-size="14.00" fill="#000000">Metamodel::ParametricRoleHOW</text>
</a>
</g>
</g>
<!-- Metamodel::ParametricRoleHOW&#45;&gt;Metamodel::MultiMethodContainer -->
<g id="edge49" class="edge"><title>Metamodel::ParametricRoleHOW&#45;&gt;Metamodel::MultiMethodContainer</title>
<path fill="none" stroke="#6666ff" d="M161.952,-592.226C48.7078,-538.954 -292.551,-378.422 -417.563,-319.616"/>
<polygon fill="#6666ff" stroke="#6666ff" points="-416.346,-316.32 -426.885,-315.231 -419.326,-322.654 -416.346,-316.32"/>
</g>
<!-- Metamodel::ParametricRoleHOW&#45;&gt;Any -->
<g id="edge5" class="edge"><title>Metamodel::ParametricRoleHOW&#45;&gt;Any</title>
<path fill="none" stroke="#000000" d="M226.592,-591.771C333.091,-522.637 711.751,-276.827 711.751,-276.827 711.751,-276.827 898.543,-82.6611 963.619,-15.016"/>
<polygon fill="#000000" stroke="#000000" points="966.52,-17.0485 970.931,-7.41535 961.475,-12.1954 966.52,-17.0485"/>
</g>
<!-- Metamodel::ParametricRoleHOW&#45;&gt;Metamodel::Naming -->
<g id="edge44" class="edge"><title>Metamodel::ParametricRoleHOW&#45;&gt;Metamodel::Naming</title>
<path fill="none" stroke="#6666ff" d="M189.976,-591.663C156.725,-525.519 43.2264,-299.746 43.2264,-299.746 43.2264,-299.746 -145.492,-127.451 -216.994,-62.1707"/>
<polygon fill="#6666ff" stroke="#6666ff" points="-214.976,-59.2737 -224.721,-55.116 -219.696,-64.4433 -214.976,-59.2737"/>
</g>
<!-- Metamodel::ParametricRoleHOW&#45;&gt;Metamodel::Stashing -->
<g id="edge53" class="edge"><title>Metamodel::ParametricRoleHOW&#45;&gt;Metamodel::Stashing</title>
<path fill="none" stroke="#6666ff" d="M206.422,-591.566C237.324,-515.938 354.526,-229.108 354.526,-229.108 354.526,-229.108 421.341,-0.28171 421.341,-0.28171 421.341,-0.28171 494.14,190.108 521.865,262.616"/>
<polygon fill="#6666ff" stroke="#6666ff" points="525.163,261.443 525.465,272.033 518.625,263.943 525.163,261.443"/>
</g>
<!-- Metamodel::ParametricRoleHOW&#45;&gt;Metamodel::AttributeContainer -->
<g id="edge50" class="edge"><title>Metamodel::ParametricRoleHOW&#45;&gt;Metamodel::AttributeContainer</title>
<path fill="none" stroke="#6666ff" d="M200.163,-591.56C204.003,-530.438 216.506,-331.411 221.167,-257.208"/>
<polygon fill="#6666ff" stroke="#6666ff" points="224.662,-257.397 221.796,-247.197 217.675,-256.958 224.662,-257.397"/>
</g>
<!-- Metamodel::ParametricRoleHOW&#45;&gt;Metamodel::MethodContainer -->
<g id="edge47" class="edge"><title>Metamodel::ParametricRoleHOW&#45;&gt;Metamodel::MethodContainer</title>
<path fill="none" stroke="#6666ff" d="M193.398,-591.547C166.282,-504.248 49.0677,-126.883 16.1438,-20.8864"/>
<polygon fill="#6666ff" stroke="#6666ff" points="19.4504,-19.7326 13.1415,-11.2209 12.7655,-21.8091 19.4504,-19.7326"/>
</g>
<!-- Metamodel::ParametricRoleHOW&#45;&gt;Metamodel::RoleContainer -->
<g id="edge51" class="edge"><title>Metamodel::ParametricRoleHOW&#45;&gt;Metamodel::RoleContainer</title>
<path fill="none" stroke="#6666ff" d="M206.422,-591.566C237.324,-515.938 354.526,-229.108 354.526,-229.108 354.526,-229.108 287.885,-13.6981 263.723,64.4053"/>
<polygon fill="#6666ff" stroke="#6666ff" points="267.034,65.5442 260.735,74.063 260.347,63.4753 267.034,65.5442"/>
</g>
<!-- Metamodel::ParametricRoleHOW&#45;&gt;Metamodel::Documenting -->
<g id="edge45" class="edge"><title>Metamodel::ParametricRoleHOW&#45;&gt;Metamodel::Documenting</title>
<path fill="none" stroke="#6666ff" d="M73.5249,-618.215C-43.9909,-626.22 -218.003,-638.074 -331.202,-645.785"/>
<polygon fill="#6666ff" stroke="#6666ff" points="-331.543,-642.3 -341.282,-646.472 -331.067,-649.284 -331.543,-642.3"/>
</g>
<!-- Metamodel::ParametricRoleHOW&#45;&gt;Metamodel::Versioning -->
<g id="edge46" class="edge"><title>Metamodel::ParametricRoleHOW&#45;&gt;Metamodel::Versioning</title>
<path fill="none" stroke="#6666ff" d="M208.742,-591.43C255.089,-504.446 453.743,-131.615 509.233,-27.4709"/>
<polygon fill="#6666ff" stroke="#6666ff" points="512.389,-28.9909 514.003,-18.5197 506.212,-25.6992 512.389,-28.9909"/>
</g>
<!-- Metamodel::ParametricRoleHOW&#45;&gt;Metamodel::PrivateMethodContainer -->
<g id="edge48" class="edge"><title>Metamodel::ParametricRoleHOW&#45;&gt;Metamodel::PrivateMethodContainer</title>
<path fill="none" stroke="#6666ff" d="M115.082,-624.207C79.1104,-630.438 36.8896,-637.752 -0.347483,-644.203"/>
<polygon fill="#6666ff" stroke="#6666ff" points="-0.946946,-640.754 -10.2028,-645.91 0.247918,-647.652 -0.946946,-640.754"/>
</g>
<!-- Metamodel::ParametricRoleHOW&#45;&gt;Metamodel::MultipleInheritance -->
<g id="edge52" class="edge"><title>Metamodel::ParametricRoleHOW&#45;&gt;Metamodel::MultipleInheritance</title>
<path fill="none" stroke="#6666ff" d="M182.106,-591.656C132.736,-539.105 -11.2576,-385.836 -68.4452,-324.965"/>
<polygon fill="#6666ff" stroke="#6666ff" points="-65.8943,-322.568 -75.2923,-317.677 -70.9961,-327.361 -65.8943,-322.568"/>
</g>
<!-- Metamodel::ParametricRoleHOW&#45;&gt;Metamodel::TypePretense -->
<g id="edge54" class="edge"><title>Metamodel::ParametricRoleHOW&#45;&gt;Metamodel::TypePretense</title>
<path fill="none" stroke="#6666ff" d="M324.129,-601.007C475.727,-590.516 729.063,-572.983 876.077,-562.808"/>
<polygon fill="#6666ff" stroke="#6666ff" points="876.741,-566.271 886.476,-562.089 876.258,-559.288 876.741,-566.271"/>
</g>
<!-- Metamodel::ParametricRoleHOW&#45;&gt;Metamodel::RolePunning -->
<g id="edge55" class="edge"><title>Metamodel::ParametricRoleHOW&#45;&gt;Metamodel::RolePunning</title>
<path fill="none" stroke="#6666ff" d="M287.03,-623.847C335.375,-631.637 395.176,-641.274 443.628,-649.082"/>
<polygon fill="#6666ff" stroke="#6666ff" points="443.357,-652.583 453.786,-650.719 444.471,-645.672 443.357,-652.583"/>
</g>
</g>
</svg>
