<?xml version="1.0" encoding="UTF-8" standalone="no"?>
<!DOCTYPE svg PUBLIC "-//W3C//DTD SVG 1.1//EN"
 "http://www.w3.org/Graphics/SVG/1.1/DTD/svg11.dtd">
<!-- Generated by graphviz version 2.38.0 (20140413.2041)
 -->
<!-- Title: perl6&#45;type&#45;graph Pages: 1 -->
<svg width="471pt" height="404pt"
 viewBox="0.00 0.00 471.44 404.00" xmlns="http://www.w3.org/2000/svg" xmlns:xlink="http://www.w3.org/1999/xlink">
<g id="graph0" class="graph" transform="scale(1 1) rotate(0) translate(4 400)">
<title>perl6&#45;type&#45;graph</title>
<polygon fill="white" stroke="none" points="-4,4 -4,-400 467.441,-400 467.441,4 -4,4"/>
<!-- Str -->
<g id="node1" class="node"><title>Str</title>
<g id="a_node1"><a xlink:href="/type/Str" xlink:title="Str">
<ellipse fill="none" stroke="#000000" cx="144.545" cy="-162" rx="27" ry="18"/>
<text text-anchor="middle" x="144.545" y="-158.3" font-family="FreeSans" font-size="14.00" fill="#000000">Str</text>
</a>
</g>
</g>
<!-- Cool -->
<g id="node4" class="node"><title>Cool</title>
<g id="a_node4"><a xlink:href="/type/Cool" xlink:title="Cool">
<ellipse fill="none" stroke="#000000" cx="219.545" cy="-234" rx="28.6953" ry="18"/>
<text text-anchor="middle" x="219.545" y="-230.3" font-family="FreeSans" font-size="14.00" fill="#000000">Cool</text>
</a>
</g>
</g>
<!-- Str&#45;&gt;Cool -->
<g id="edge1" class="edge"><title>Str&#45;&gt;Cool</title>
<path fill="none" stroke="#000000" d="M159.722,-177.166C170.326,-187.062 184.674,-200.454 196.66,-211.641"/>
<polygon fill="#000000" stroke="#000000" points="194.434,-214.351 204.133,-218.615 199.21,-209.233 194.434,-214.351"/>
</g>
<!-- Stringy -->
<g id="node5" class="node"><title>Stringy</title>
<g id="a_node5"><a xlink:href="/type/Stringy" xlink:title="Stringy">
<ellipse fill="none" stroke="#6666ff" cx="134.545" cy="-234" rx="38.1938" ry="18"/>
<text text-anchor="middle" x="134.545" y="-230.3" font-family="FreeSans" font-size="14.00" fill="#6666ff">Stringy</text>
</a>
</g>
</g>
<!-- Str&#45;&gt;Stringy -->
<g id="edge16" class="edge"><title>Str&#45;&gt;Stringy</title>
<path fill="none" stroke="#6666ff" d="M142.124,-179.945C141.023,-187.654 139.692,-196.973 138.454,-205.636"/>
<polygon fill="#6666ff" stroke="#6666ff" points="134.962,-205.33 137.013,-215.725 141.892,-206.32 134.962,-205.33"/>
</g>
<!-- Mu -->
<g id="node2" class="node"><title>Mu</title>
<g id="a_node2"><a xlink:href="/type/Mu" xlink:title="Mu">
<ellipse fill="none" stroke="#000000" cx="219.545" cy="-378" rx="27" ry="18"/>
<text text-anchor="middle" x="219.545" y="-374.3" font-family="FreeSans" font-size="14.00" fill="#000000">Mu</text>
</a>
</g>
</g>
<!-- Any -->
<g id="node3" class="node"><title>Any</title>
<g id="a_node3"><a xlink:href="/type/Any" xlink:title="Any">
<ellipse fill="none" stroke="#000000" cx="219.545" cy="-306" rx="27" ry="18"/>
<text text-anchor="middle" x="219.545" y="-302.3" font-family="FreeSans" font-size="14.00" fill="#000000">Any</text>
</a>
</g>
</g>
<!-- Any&#45;&gt;Mu -->
<g id="edge2" class="edge"><title>Any&#45;&gt;Mu</title>
<path fill="none" stroke="#000000" d="M219.545,-324.303C219.545,-332.017 219.545,-341.288 219.545,-349.888"/>
<polygon fill="#000000" stroke="#000000" points="216.045,-349.896 219.545,-359.896 223.045,-349.896 216.045,-349.896"/>
</g>
<!-- Cool&#45;&gt;Any -->
<g id="edge3" class="edge"><title>Cool&#45;&gt;Any</title>
<path fill="none" stroke="#000000" d="M219.545,-252.303C219.545,-260.017 219.545,-269.288 219.545,-277.888"/>
<polygon fill="#000000" stroke="#000000" points="216.045,-277.896 219.545,-287.896 223.045,-277.896 216.045,-277.896"/>
</g>
<!-- Numeric -->
<g id="node6" class="node"><title>Numeric</title>
<g id="a_node6"><a xlink:href="/type/Numeric" xlink:title="Numeric">
<ellipse fill="none" stroke="#6666ff" cx="314.545" cy="-306" rx="44.393" ry="18"/>
<text text-anchor="middle" x="314.545" y="-302.3" font-family="FreeSans" font-size="14.00" fill="#6666ff">Numeric</text>
</a>
</g>
</g>
<!-- Real -->
<g id="node7" class="node"><title>Real</title>
<g id="a_node7"><a xlink:href="/type/Real" xlink:title="Real">
<ellipse fill="none" stroke="#6666ff" cx="326.545" cy="-234" rx="28.6953" ry="18"/>
<text text-anchor="middle" x="326.545" y="-230.3" font-family="FreeSans" font-size="14.00" fill="#6666ff">Real</text>
</a>
</g>
</g>
<!-- Real&#45;&gt;Numeric -->
<g id="edge17" class="edge"><title>Real&#45;&gt;Numeric</title>
<path fill="none" stroke="#6666ff" d="M323.64,-251.945C322.319,-259.654 320.721,-268.973 319.236,-277.636"/>
<polygon fill="#6666ff" stroke="#6666ff" points="315.747,-277.277 317.506,-287.725 322.646,-278.46 315.747,-277.277"/>
</g>
<!-- Num -->
<g id="node8" class="node"><title>Num</title>
<g id="a_node8"><a xlink:href="/type/Num" xlink:title="Num">
<ellipse fill="none" stroke="#000000" cx="329.545" cy="-162" rx="29.795" ry="18"/>
<text text-anchor="middle" x="329.545" y="-158.3" font-family="FreeSans" font-size="14.00" fill="#000000">Num</text>
</a>
</g>
</g>
<!-- Num&#45;&gt;Cool -->
<g id="edge4" class="edge"><title>Num&#45;&gt;Cool</title>
<path fill="none" stroke="#000000" d="M309.625,-175.676C292.229,-186.746 266.799,-202.929 247.391,-215.28"/>
<polygon fill="#000000" stroke="#000000" points="245.505,-212.331 238.948,-220.653 249.263,-218.237 245.505,-212.331"/>
</g>
<!-- Num&#45;&gt;Real -->
<g id="edge18" class="edge"><title>Num&#45;&gt;Real</title>
<path fill="none" stroke="#6666ff" d="M328.803,-180.303C328.473,-188.017 328.076,-197.288 327.707,-205.888"/>
<polygon fill="#6666ff" stroke="#6666ff" points="324.21,-205.755 327.278,-215.896 331.203,-206.055 324.21,-205.755"/>
</g>
<!-- NumStr -->
<g id="node9" class="node"><title>NumStr</title>
<g id="a_node9"><a xlink:href="/type/NumStr" xlink:title="NumStr">
<ellipse fill="none" stroke="#000000" cx="295.545" cy="-90" rx="40.8928" ry="18"/>
<text text-anchor="middle" x="295.545" y="-86.3" font-family="FreeSans" font-size="14.00" fill="#000000">NumStr</text>
</a>
</g>
</g>
<!-- NumStr&#45;&gt;Str -->
<g id="edge6" class="edge"><title>NumStr&#45;&gt;Str</title>
<path fill="none" stroke="#000000" d="M268.292,-103.56C234.285,-119.233 180.545,-144 180.545,-144 180.545,-144 178.365,-145.03 175.077,-146.582"/>
<polygon fill="#000000" stroke="#000000" points="173.45,-143.48 165.902,-150.915 176.439,-149.809 173.45,-143.48"/>
</g>
<!-- NumStr&#45;&gt;Num -->
<g id="edge5" class="edge"><title>NumStr&#45;&gt;Num</title>
<path fill="none" stroke="#000000" d="M303.775,-107.945C307.743,-116.113 312.588,-126.088 317.002,-135.176"/>
<polygon fill="#000000" stroke="#000000" points="313.873,-136.745 321.39,-144.211 320.17,-133.687 313.873,-136.745"/>
</g>
<!-- Complex -->
<g id="node10" class="node"><title>Complex</title>
<g id="a_node10"><a xlink:href="/type/Complex" xlink:title="Complex">
<ellipse fill="none" stroke="#000000" cx="54.545" cy="-162" rx="45.4919" ry="18"/>
<text text-anchor="middle" x="54.545" y="-158.3" font-family="FreeSans" font-size="14.00" fill="#000000">Complex</text>
</a>
</g>
</g>
<!-- Complex&#45;&gt;Cool -->
<g id="edge7" class="edge"><title>Complex&#45;&gt;Cool</title>
<path fill="none" stroke="#000000" d="M84.6422,-175.56C122.198,-191.233 181.545,-216 181.545,-216 181.545,-216 183.976,-217.088 187.608,-218.712"/>
<polygon fill="#000000" stroke="#000000" points="186.444,-222.026 197.001,-222.915 189.302,-215.636 186.444,-222.026"/>
</g>
<!-- Complex&#45;&gt;Numeric -->
<g id="edge19" class="edge"><title>Complex&#45;&gt;Numeric</title>
<path fill="none" stroke="#6666ff" d="M60.9077,-180.16C70.4971,-206.022 87.545,-252 87.545,-252 87.545,-252 255.545,-288 255.545,-288 255.545,-288 261.635,-289.755 269.903,-292.137"/>
<polygon fill="#6666ff" stroke="#6666ff" points="268.964,-295.509 279.543,-294.915 270.903,-288.783 268.964,-295.509"/>
</g>
<!-- ComplexStr -->
<g id="node11" class="node"><title>ComplexStr</title>
<g id="a_node11"><a xlink:href="/type/ComplexStr" xlink:title="ComplexStr">
<ellipse fill="none" stroke="#000000" cx="56.545" cy="-90" rx="56.59" ry="18"/>
<text text-anchor="middle" x="56.545" y="-86.3" font-family="FreeSans" font-size="14.00" fill="#000000">ComplexStr</text>
</a>
</g>
</g>
<!-- ComplexStr&#45;&gt;Str -->
<g id="edge9" class="edge"><title>ComplexStr&#45;&gt;Str</title>
<path fill="none" stroke="#000000" d="M76.5135,-106.884C89.3639,-117.106 106.159,-130.466 119.846,-141.353"/>
<polygon fill="#000000" stroke="#000000" points="117.899,-144.277 127.904,-147.763 122.257,-138.798 117.899,-144.277"/>
</g>
<!-- ComplexStr&#45;&gt;Complex -->
<g id="edge8" class="edge"><title>ComplexStr&#45;&gt;Complex</title>
<path fill="none" stroke="#000000" d="M56.0506,-108.303C55.8302,-116.017 55.5653,-125.288 55.3196,-133.888"/>
<polygon fill="#000000" stroke="#000000" points="51.8208,-133.8 55.0337,-143.896 58.8179,-134 51.8208,-133.8"/>
</g>
<!-- Int -->
<g id="node12" class="node"><title>Int</title>
<g id="a_node12"><a xlink:href="/type/Int" xlink:title="Int">
<ellipse fill="none" stroke="#000000" cx="216.545" cy="-162" rx="27" ry="18"/>
<text text-anchor="middle" x="216.545" y="-158.3" font-family="FreeSans" font-size="14.00" fill="#000000">Int</text>
</a>
</g>
</g>
<!-- Int&#45;&gt;Cool -->
<g id="edge10" class="edge"><title>Int&#45;&gt;Cool</title>
<path fill="none" stroke="#000000" d="M217.287,-180.303C217.617,-188.017 218.014,-197.288 218.383,-205.888"/>
<polygon fill="#000000" stroke="#000000" points="214.887,-206.055 218.812,-215.896 221.88,-205.755 214.887,-206.055"/>
</g>
<!-- Int&#45;&gt;Real -->
<g id="edge20" class="edge"><title>Int&#45;&gt;Real</title>
<path fill="none" stroke="#6666ff" d="M235.706,-175.193C253.107,-186.267 278.987,-202.736 298.676,-215.265"/>
<polygon fill="#6666ff" stroke="#6666ff" points="296.919,-218.296 307.235,-220.712 300.677,-212.39 296.919,-218.296"/>
</g>
<!-- IntStr -->
<g id="node13" class="node"><title>IntStr</title>
<g id="a_node13"><a xlink:href="/type/IntStr" xlink:title="IntStr">
<ellipse fill="none" stroke="#000000" cx="204.545" cy="-90" rx="31.6951" ry="18"/>
<text text-anchor="middle" x="204.545" y="-86.3" font-family="FreeSans" font-size="14.00" fill="#000000">IntStr</text>
</a>
</g>
</g>
<!-- IntStr&#45;&gt;Str -->
<g id="edge12" class="edge"><title>IntStr&#45;&gt;Str</title>
<path fill="none" stroke="#000000" d="M191.229,-106.535C183.274,-115.816 173.025,-127.773 164.157,-138.119"/>
<polygon fill="#000000" stroke="#000000" points="161.262,-136.118 157.412,-145.989 166.577,-140.674 161.262,-136.118"/>
</g>
<!-- IntStr&#45;&gt;Int -->
<g id="edge11" class="edge"><title>IntStr&#45;&gt;Int</title>
<path fill="none" stroke="#000000" d="M207.45,-107.945C208.771,-115.654 210.369,-124.973 211.854,-133.636"/>
<polygon fill="#000000" stroke="#000000" points="208.444,-134.46 213.584,-143.725 215.343,-133.277 208.444,-134.46"/>
</g>
<!-- Rational -->
<g id="node14" class="node"><title>Rational</title>
<g id="a_node14"><a xlink:href="/type/Rational" xlink:title="Rational">
<ellipse fill="none" stroke="#6666ff" cx="420.545" cy="-162" rx="42.7926" ry="18"/>
<text text-anchor="middle" x="420.545" y="-158.3" font-family="FreeSans" font-size="14.00" fill="#6666ff">Rational</text>
</a>
</g>
</g>
<!-- Rational&#45;&gt;Real -->
<g id="edge21" class="edge"><title>Rational&#45;&gt;Real</title>
<path fill="none" stroke="#6666ff" d="M400.148,-178.189C386.246,-188.542 367.713,-202.343 352.722,-213.506"/>
<polygon fill="#6666ff" stroke="#6666ff" points="350.297,-210.948 344.367,-219.728 354.478,-216.563 350.297,-210.948"/>
</g>
<!-- Rat -->
<g id="node15" class="node"><title>Rat</title>
<g id="a_node15"><a xlink:href="/type/Rat" xlink:title="Rat">
<ellipse fill="none" stroke="#000000" cx="381.545" cy="-90" rx="27" ry="18"/>
<text text-anchor="middle" x="381.545" y="-86.3" font-family="FreeSans" font-size="14.00" fill="#000000">Rat</text>
</a>
</g>
</g>
<!-- Rat&#45;&gt;Cool -->
<g id="edge13" class="edge"><title>Rat&#45;&gt;Cool</title>
<path fill="none" stroke="#000000" d="M361.799,-102.5C335.036,-118.088 290.545,-144 290.545,-144 290.545,-144 259.368,-183.081 238.333,-209.449"/>
<polygon fill="#000000" stroke="#000000" points="235.412,-207.497 231.912,-217.497 240.885,-211.863 235.412,-207.497"/>
</g>
<!-- Rat&#45;&gt;Rational -->
<g id="edge22" class="edge"><title>Rat&#45;&gt;Rational</title>
<path fill="none" stroke="#6666ff" d="M390.59,-107.235C395.248,-115.596 401.036,-125.984 406.279,-135.394"/>
<polygon fill="#6666ff" stroke="#6666ff" points="403.353,-137.334 411.278,-144.367 409.468,-133.927 403.353,-137.334"/>
</g>
<!-- RatStr -->
<g id="node16" class="node"><title>RatStr</title>
<g id="a_node16"><a xlink:href="/type/RatStr" xlink:title="RatStr">
<ellipse fill="none" stroke="#000000" cx="262.545" cy="-18" rx="35.9954" ry="18"/>
<text text-anchor="middle" x="262.545" y="-14.3" font-family="FreeSans" font-size="14.00" fill="#000000">RatStr</text>
</a>
</g>
</g>
<!-- RatStr&#45;&gt;Str -->
<g id="edge15" class="edge"><title>RatStr&#45;&gt;Str</title>
<path fill="none" stroke="#000000" d="M238.832,-31.6948C209.544,-47.3744 163.545,-72 163.545,-72 163.545,-72 155.895,-107.833 150.304,-134.025"/>
<polygon fill="#000000" stroke="#000000" points="146.873,-133.33 148.208,-143.84 153.719,-134.791 146.873,-133.33"/>
</g>
<!-- RatStr&#45;&gt;Rat -->
<g id="edge14" class="edge"><title>RatStr&#45;&gt;Rat</title>
<path fill="none" stroke="#000000" d="M284.928,-32.1665C304.282,-43.5511 332.359,-60.0672 353.264,-72.364"/>
<polygon fill="#000000" stroke="#000000" points="351.628,-75.4622 362.022,-77.5156 355.177,-69.4286 351.628,-75.4622"/>
</g>
</g>
</svg>
