<?xml version="1.0" encoding="UTF-8" standalone="no"?>
<!DOCTYPE svg PUBLIC "-//W3C//DTD SVG 1.1//EN"
 "http://www.w3.org/Graphics/SVG/1.1/DTD/svg11.dtd">
<!-- Generated by graphviz version 2.38.0 (20140413.2041)
 -->
<!-- Title: perl6&#45;type&#45;graph Pages: 1 -->
<svg width="920pt" height="332pt"
 viewBox="0.00 0.00 919.99 332.00" xmlns="http://www.w3.org/2000/svg" xmlns:xlink="http://www.w3.org/1999/xlink">
<g id="graph0" class="graph" transform="scale(1 1) rotate(0) translate(4 328)">
<title>perl6&#45;type&#45;graph</title>
<polygon fill="white" stroke="none" points="-4,4 -4,-328 915.993,-328 915.993,4 -4,4"/>
<!-- Real -->
<g id="node1" class="node"><title>Real</title>
<g id="a_node1"><a xlink:href="/type/Real" xlink:title="Real">
<ellipse fill="none" stroke="#6666ff" cx="576.946" cy="-162" rx="28.6953" ry="18"/>
<text text-anchor="middle" x="576.946" y="-158.3" font-family="FreeSans" font-size="14.00" fill="#6666ff">Real</text>
</a>
</g>
</g>
<!-- Numeric -->
<g id="node2" class="node"><title>Numeric</title>
<g id="a_node2"><a xlink:href="/type/Numeric" xlink:title="Numeric">
<ellipse fill="none" stroke="#6666ff" cx="576.946" cy="-234" rx="44.393" ry="18"/>
<text text-anchor="middle" x="576.946" y="-230.3" font-family="FreeSans" font-size="14.00" fill="#6666ff">Numeric</text>
</a>
</g>
</g>
<!-- Real&#45;&gt;Numeric -->
<g id="edge20" class="edge"><title>Real&#45;&gt;Numeric</title>
<path fill="none" stroke="#6666ff" d="M576.946,-180.303C576.946,-188.017 576.946,-197.288 576.946,-205.888"/>
<polygon fill="#6666ff" stroke="#6666ff" points="573.446,-205.896 576.946,-215.896 580.446,-205.896 573.446,-205.896"/>
</g>
<!-- Mu -->
<g id="node3" class="node"><title>Mu</title>
<g id="a_node3"><a xlink:href="/type/Mu" xlink:title="Mu">
<ellipse fill="none" stroke="#000000" cx="473.946" cy="-306" rx="27" ry="18"/>
<text text-anchor="middle" x="473.946" y="-302.3" font-family="FreeSans" font-size="14.00" fill="#000000">Mu</text>
</a>
</g>
</g>
<!-- Any -->
<g id="node4" class="node"><title>Any</title>
<g id="a_node4"><a xlink:href="/type/Any" xlink:title="Any">
<ellipse fill="none" stroke="#000000" cx="473.946" cy="-234" rx="27" ry="18"/>
<text text-anchor="middle" x="473.946" y="-230.3" font-family="FreeSans" font-size="14.00" fill="#000000">Any</text>
</a>
</g>
</g>
<!-- Any&#45;&gt;Mu -->
<g id="edge1" class="edge"><title>Any&#45;&gt;Mu</title>
<path fill="none" stroke="#000000" d="M473.946,-252.303C473.946,-260.017 473.946,-269.288 473.946,-277.888"/>
<polygon fill="#000000" stroke="#000000" points="470.446,-277.896 473.946,-287.896 477.446,-277.896 470.446,-277.896"/>
</g>
<!-- Cool -->
<g id="node5" class="node"><title>Cool</title>
<g id="a_node5"><a xlink:href="/type/Cool" xlink:title="Cool">
<ellipse fill="none" stroke="#000000" cx="473.946" cy="-162" rx="28.6953" ry="18"/>
<text text-anchor="middle" x="473.946" y="-158.3" font-family="FreeSans" font-size="14.00" fill="#000000">Cool</text>
</a>
</g>
</g>
<!-- Cool&#45;&gt;Any -->
<g id="edge2" class="edge"><title>Cool&#45;&gt;Any</title>
<path fill="none" stroke="#000000" d="M473.946,-180.303C473.946,-188.017 473.946,-197.288 473.946,-205.888"/>
<polygon fill="#000000" stroke="#000000" points="470.446,-205.896 473.946,-215.896 477.446,-205.896 470.446,-205.896"/>
</g>
<!-- Num -->
<g id="node6" class="node"><title>Num</title>
<g id="a_node6"><a xlink:href="/type/Num" xlink:title="Num">
<ellipse fill="none" stroke="#000000" cx="343.946" cy="-90" rx="29.795" ry="18"/>
<text text-anchor="middle" x="343.946" y="-86.3" font-family="FreeSans" font-size="14.00" fill="#000000">Num</text>
</a>
</g>
</g>
<!-- Num&#45;&gt;Real -->
<g id="edge21" class="edge"><title>Num&#45;&gt;Real</title>
<path fill="none" stroke="#6666ff" d="M367.533,-101.281C375.746,-104.861 382.946,-108 382.946,-108 382.946,-108 485.278,-135.957 541.298,-151.261"/>
<polygon fill="#6666ff" stroke="#6666ff" points="540.616,-154.703 551.185,-153.962 542.461,-147.95 540.616,-154.703"/>
</g>
<!-- Num&#45;&gt;Cool -->
<g id="edge3" class="edge"><title>Num&#45;&gt;Cool</title>
<path fill="none" stroke="#000000" d="M365.413,-102.559C386.805,-114.078 419.838,-131.865 443.845,-144.791"/>
<polygon fill="#000000" stroke="#000000" points="442.415,-147.997 452.879,-149.656 445.734,-141.833 442.415,-147.997"/>
</g>
<!-- Int -->
<g id="node7" class="node"><title>Int</title>
<g id="a_node7"><a xlink:href="/type/Int" xlink:title="Int">
<ellipse fill="none" stroke="#000000" cx="418.946" cy="-90" rx="27" ry="18"/>
<text text-anchor="middle" x="418.946" y="-86.3" font-family="FreeSans" font-size="14.00" fill="#000000">Int</text>
</a>
</g>
</g>
<!-- Int&#45;&gt;Real -->
<g id="edge22" class="edge"><title>Int&#45;&gt;Real</title>
<path fill="none" stroke="#6666ff" d="M440.916,-100.733C467.848,-112.665 513.716,-132.987 544.661,-146.696"/>
<polygon fill="#6666ff" stroke="#6666ff" points="543.58,-150.045 554.141,-150.896 546.415,-143.645 543.58,-150.045"/>
</g>
<!-- Int&#45;&gt;Cool -->
<g id="edge4" class="edge"><title>Int&#45;&gt;Cool</title>
<path fill="none" stroke="#000000" d="M430.881,-106.189C438.06,-115.327 447.351,-127.151 455.463,-137.476"/>
<polygon fill="#000000" stroke="#000000" points="452.724,-139.655 461.655,-145.356 458.229,-135.33 452.724,-139.655"/>
</g>
<!-- Rational -->
<g id="node8" class="node"><title>Rational</title>
<g id="a_node8"><a xlink:href="/type/Rational" xlink:title="Rational">
<ellipse fill="none" stroke="#6666ff" cx="792.946" cy="-90" rx="42.7926" ry="18"/>
<text text-anchor="middle" x="792.946" y="-86.3" font-family="FreeSans" font-size="14.00" fill="#6666ff">Rational</text>
</a>
</g>
</g>
<!-- Rational&#45;&gt;Real -->
<g id="edge23" class="edge"><title>Rational&#45;&gt;Real</title>
<path fill="none" stroke="#6666ff" d="M760.141,-101.631C720.018,-114.634 652.408,-136.545 611.505,-149.801"/>
<polygon fill="#6666ff" stroke="#6666ff" points="610.396,-146.481 601.962,-152.893 612.554,-153.14 610.396,-146.481"/>
</g>
<!-- Duration -->
<g id="node9" class="node"><title>Duration</title>
<g id="a_node9"><a xlink:href="/type/Duration" xlink:title="Duration">
<ellipse fill="none" stroke="#000000" cx="675.946" cy="-90" rx="44.393" ry="18"/>
<text text-anchor="middle" x="675.946" y="-86.3" font-family="FreeSans" font-size="14.00" fill="#000000">Duration</text>
</a>
</g>
</g>
<!-- Duration&#45;&gt;Real -->
<g id="edge24" class="edge"><title>Duration&#45;&gt;Real</title>
<path fill="none" stroke="#6666ff" d="M654.951,-105.845C640.009,-116.41 619.811,-130.692 603.712,-142.075"/>
<polygon fill="#6666ff" stroke="#6666ff" points="601.393,-139.428 595.249,-148.059 605.435,-145.143 601.393,-139.428"/>
</g>
<!-- Duration&#45;&gt;Cool -->
<g id="edge5" class="edge"><title>Duration&#45;&gt;Cool</title>
<path fill="none" stroke="#000000" d="M643.492,-102.247C606.329,-115.125 545.724,-136.126 507.932,-149.223"/>
<polygon fill="#000000" stroke="#000000" points="506.683,-145.952 498.38,-152.533 508.975,-152.566 506.683,-145.952"/>
</g>
<!-- Instant -->
<g id="node10" class="node"><title>Instant</title>
<g id="a_node10"><a xlink:href="/type/Instant" xlink:title="Instant">
<ellipse fill="none" stroke="#000000" cx="576.946" cy="-90" rx="37.0935" ry="18"/>
<text text-anchor="middle" x="576.946" y="-86.3" font-family="FreeSans" font-size="14.00" fill="#000000">Instant</text>
</a>
</g>
</g>
<!-- Instant&#45;&gt;Real -->
<g id="edge25" class="edge"><title>Instant&#45;&gt;Real</title>
<path fill="none" stroke="#6666ff" d="M576.946,-108.303C576.946,-116.017 576.946,-125.288 576.946,-133.888"/>
<polygon fill="#6666ff" stroke="#6666ff" points="573.446,-133.896 576.946,-143.896 580.446,-133.896 573.446,-133.896"/>
</g>
<!-- Instant&#45;&gt;Cool -->
<g id="edge6" class="edge"><title>Instant&#45;&gt;Cool</title>
<path fill="none" stroke="#000000" d="M556.103,-105.166C540.285,-115.916 518.4,-130.789 501.195,-142.482"/>
<polygon fill="#000000" stroke="#000000" points="498.984,-139.752 492.681,-148.268 502.919,-145.542 498.984,-139.752"/>
</g>
<!-- Stringy -->
<g id="node11" class="node"><title>Stringy</title>
<g id="a_node11"><a xlink:href="/type/Stringy" xlink:title="Stringy">
<ellipse fill="none" stroke="#6666ff" cx="131.946" cy="-162" rx="38.1938" ry="18"/>
<text text-anchor="middle" x="131.946" y="-158.3" font-family="FreeSans" font-size="14.00" fill="#6666ff">Stringy</text>
</a>
</g>
</g>
<!-- Str -->
<g id="node12" class="node"><title>Str</title>
<g id="a_node12"><a xlink:href="/type/Str" xlink:title="Str">
<ellipse fill="none" stroke="#000000" cx="131.946" cy="-90" rx="27" ry="18"/>
<text text-anchor="middle" x="131.946" y="-86.3" font-family="FreeSans" font-size="14.00" fill="#000000">Str</text>
</a>
</g>
</g>
<!-- Str&#45;&gt;Cool -->
<g id="edge7" class="edge"><title>Str&#45;&gt;Cool</title>
<path fill="none" stroke="#000000" d="M157.373,-96.2042C217.154,-108.44 366.852,-139.08 436.818,-153.401"/>
<polygon fill="#000000" stroke="#000000" points="436.441,-156.896 446.94,-155.472 437.844,-150.038 436.441,-156.896"/>
</g>
<!-- Str&#45;&gt;Stringy -->
<g id="edge26" class="edge"><title>Str&#45;&gt;Stringy</title>
<path fill="none" stroke="#6666ff" d="M131.946,-108.303C131.946,-116.017 131.946,-125.288 131.946,-133.888"/>
<polygon fill="#6666ff" stroke="#6666ff" points="128.446,-133.896 131.946,-143.896 135.446,-133.896 128.446,-133.896"/>
</g>
<!-- NumStr -->
<g id="node13" class="node"><title>NumStr</title>
<g id="a_node13"><a xlink:href="/type/NumStr" xlink:title="NumStr">
<ellipse fill="none" stroke="#000000" cx="40.9464" cy="-18" rx="40.8928" ry="18"/>
<text text-anchor="middle" x="40.9464" y="-14.3" font-family="FreeSans" font-size="14.00" fill="#000000">NumStr</text>
</a>
</g>
</g>
<!-- NumStr&#45;&gt;Num -->
<g id="edge8" class="edge"><title>NumStr&#45;&gt;Num</title>
<path fill="none" stroke="#000000" d="M72.3282,-29.6698C82.374,-33.0854 90.9464,-36 90.9464,-36 90.9464,-36 235.468,-66.2752 306.053,-81.0618"/>
<polygon fill="#000000" stroke="#000000" points="305.399,-84.5008 315.904,-83.1256 306.834,-77.6495 305.399,-84.5008"/>
</g>
<!-- NumStr&#45;&gt;Str -->
<g id="edge9" class="edge"><title>NumStr&#45;&gt;Str</title>
<path fill="none" stroke="#000000" d="M60.692,-34.189C74.2381,-44.609 92.3253,-58.5222 106.887,-69.7232"/>
<polygon fill="#000000" stroke="#000000" points="104.931,-72.635 114.992,-75.9579 109.199,-67.0866 104.931,-72.635"/>
</g>
<!-- PromiseStatus -->
<g id="node14" class="node"><title>PromiseStatus</title>
<g id="a_node14"><a xlink:href="/type/PromiseStatus" xlink:title="PromiseStatus">
<ellipse fill="none" stroke="#33bb33" cx="519.946" cy="-18" rx="67.6881" ry="18"/>
<text text-anchor="middle" x="519.946" y="-14.3" font-family="FreeSans" font-size="14.00" fill="#33bb33">PromiseStatus</text>
</a>
</g>
</g>
<!-- PromiseStatus&#45;&gt;Int -->
<g id="edge10" class="edge"><title>PromiseStatus&#45;&gt;Int</title>
<path fill="none" stroke="#000000" d="M496.775,-35.0594C481.443,-45.6852 461.303,-59.6441 445.351,-70.6995"/>
<polygon fill="#000000" stroke="#000000" points="443.203,-67.93 436.978,-76.5031 447.19,-73.6833 443.203,-67.93"/>
</g>
<!-- Bool -->
<g id="node15" class="node"><title>Bool</title>
<g id="a_node15"><a xlink:href="/type/Bool" xlink:title="Bool">
<ellipse fill="none" stroke="#33bb33" cx="633.946" cy="-18" rx="28.6953" ry="18"/>
<text text-anchor="middle" x="633.946" y="-14.3" font-family="FreeSans" font-size="14.00" fill="#33bb33">Bool</text>
</a>
</g>
</g>
<!-- Bool&#45;&gt;Int -->
<g id="edge11" class="edge"><title>Bool&#45;&gt;Int</title>
<path fill="none" stroke="#000000" d="M611.57,-29.2811C603.778,-32.8613 596.946,-36 596.946,-36 596.946,-36 459.946,-72 459.946,-72 459.946,-72 456.067,-73.6087 450.694,-75.8363"/>
<polygon fill="#000000" stroke="#000000" points="449.263,-72.6409 441.366,-79.7042 451.944,-79.1071 449.263,-72.6409"/>
</g>
<!-- IntStr -->
<g id="node16" class="node"><title>IntStr</title>
<g id="a_node16"><a xlink:href="/type/IntStr" xlink:title="IntStr">
<ellipse fill="none" stroke="#000000" cx="131.946" cy="-18" rx="31.6951" ry="18"/>
<text text-anchor="middle" x="131.946" y="-14.3" font-family="FreeSans" font-size="14.00" fill="#000000">IntStr</text>
</a>
</g>
</g>
<!-- IntStr&#45;&gt;Int -->
<g id="edge12" class="edge"><title>IntStr&#45;&gt;Int</title>
<path fill="none" stroke="#000000" d="M157.212,-29.476C165.649,-32.9744 172.946,-36 172.946,-36 172.946,-36 382.946,-72 382.946,-72 382.946,-72 385.127,-73.0296 388.414,-74.5819"/>
<polygon fill="#000000" stroke="#000000" points="387.052,-77.8093 397.589,-78.9146 390.041,-71.4796 387.052,-77.8093"/>
</g>
<!-- IntStr&#45;&gt;Str -->
<g id="edge13" class="edge"><title>IntStr&#45;&gt;Str</title>
<path fill="none" stroke="#000000" d="M131.946,-36.3034C131.946,-44.0173 131.946,-53.2875 131.946,-61.8876"/>
<polygon fill="#000000" stroke="#000000" points="128.446,-61.8956 131.946,-71.8957 135.446,-61.8957 128.446,-61.8956"/>
</g>
<!-- Order -->
<g id="node17" class="node"><title>Order</title>
<g id="a_node17"><a xlink:href="/type/Order" xlink:title="Order">
<ellipse fill="none" stroke="#33bb33" cx="713.946" cy="-18" rx="33.5952" ry="18"/>
<text text-anchor="middle" x="713.946" y="-14.3" font-family="FreeSans" font-size="14.00" fill="#33bb33">Order</text>
</a>
</g>
</g>
<!-- Order&#45;&gt;Int -->
<g id="edge14" class="edge"><title>Order&#45;&gt;Int</title>
<path fill="none" stroke="#000000" d="M687.586,-29.6698C679.147,-33.0854 671.946,-36 671.946,-36 671.946,-36 459.946,-72 459.946,-72 459.946,-72 456.067,-73.6087 450.694,-75.8363"/>
<polygon fill="#000000" stroke="#000000" points="449.263,-72.6409 441.366,-79.7042 451.944,-79.1071 449.263,-72.6409"/>
</g>
<!-- atomicint -->
<g id="node18" class="node"><title>atomicint</title>
<g id="a_node18"><a xlink:href="/type/atomicint" xlink:title="atomicint">
<ellipse fill="none" stroke="#000000" cx="227.946" cy="-18" rx="46.2923" ry="18"/>
<text text-anchor="middle" x="227.946" y="-14.3" font-family="FreeSans" font-size="14.00" fill="#000000">atomicint</text>
</a>
</g>
</g>
<!-- atomicint&#45;&gt;Int -->
<g id="edge15" class="edge"><title>atomicint&#45;&gt;Int</title>
<path fill="none" stroke="#000000" d="M261.579,-30.5002C307.166,-46.0879 382.946,-72 382.946,-72 382.946,-72 385.127,-73.0296 388.414,-74.5819"/>
<polygon fill="#000000" stroke="#000000" points="387.052,-77.8093 397.589,-78.9146 390.041,-71.4796 387.052,-77.8093"/>
</g>
<!-- Signal -->
<g id="node19" class="node"><title>Signal</title>
<g id="a_node19"><a xlink:href="/type/Signal" xlink:title="Signal">
<ellipse fill="none" stroke="#33bb33" cx="326.946" cy="-18" rx="35.194" ry="18"/>
<text text-anchor="middle" x="326.946" y="-14.3" font-family="FreeSans" font-size="14.00" fill="#33bb33">Signal</text>
</a>
</g>
</g>
<!-- Signal&#45;&gt;Int -->
<g id="edge16" class="edge"><title>Signal&#45;&gt;Int</title>
<path fill="none" stroke="#000000" d="M346.009,-33.504C359.736,-43.9485 378.404,-58.1527 393.418,-69.576"/>
<polygon fill="#000000" stroke="#000000" points="391.692,-72.6612 401.77,-75.931 395.931,-67.0904 391.692,-72.6612"/>
</g>
<!-- int -->
<g id="node20" class="node"><title>int</title>
<g id="a_node20"><a xlink:href="/type/int" xlink:title="int">
<ellipse fill="none" stroke="#000000" cx="406.946" cy="-18" rx="27" ry="18"/>
<text text-anchor="middle" x="406.946" y="-14.3" font-family="FreeSans" font-size="14.00" fill="#000000">int</text>
</a>
</g>
</g>
<!-- int&#45;&gt;Int -->
<g id="edge17" class="edge"><title>int&#45;&gt;Int</title>
<path fill="none" stroke="#000000" d="M409.851,-35.945C411.173,-43.6544 412.77,-52.9731 414.255,-61.6358"/>
<polygon fill="#000000" stroke="#000000" points="410.845,-62.4599 415.985,-71.7247 417.745,-61.2771 410.845,-62.4599"/>
</g>
<!-- FatRat -->
<g id="node21" class="node"><title>FatRat</title>
<g id="a_node21"><a xlink:href="/type/FatRat" xlink:title="FatRat">
<ellipse fill="none" stroke="#000000" cx="874.946" cy="-18" rx="37.0935" ry="18"/>
<text text-anchor="middle" x="874.946" y="-14.3" font-family="FreeSans" font-size="14.00" fill="#000000">FatRat</text>
</a>
</g>
</g>
<!-- FatRat&#45;&gt;Cool -->
<g id="edge18" class="edge"><title>FatRat&#45;&gt;Cool</title>
<path fill="none" stroke="#000000" d="M846.337,-29.573C836.982,-33.0301 828.946,-36 828.946,-36 828.946,-36 530.946,-72 530.946,-72 530.946,-72 506.609,-110 489.74,-136.34"/>
<polygon fill="#000000" stroke="#000000" points="486.583,-134.78 484.137,-145.089 492.477,-138.555 486.583,-134.78"/>
</g>
<!-- FatRat&#45;&gt;Rational -->
<g id="edge27" class="edge"><title>FatRat&#45;&gt;Rational</title>
<path fill="none" stroke="#6666ff" d="M857.154,-34.189C845.948,-43.7546 831.294,-56.2639 818.816,-66.9164"/>
<polygon fill="#6666ff" stroke="#6666ff" points="816.321,-64.4443 810.988,-73.599 820.866,-69.7683 816.321,-64.4443"/>
</g>
<!-- Rat -->
<g id="node22" class="node"><title>Rat</title>
<g id="a_node22"><a xlink:href="/type/Rat" xlink:title="Rat">
<ellipse fill="none" stroke="#000000" cx="792.946" cy="-18" rx="27" ry="18"/>
<text text-anchor="middle" x="792.946" y="-14.3" font-family="FreeSans" font-size="14.00" fill="#000000">Rat</text>
</a>
</g>
</g>
<!-- Rat&#45;&gt;Cool -->
<g id="edge19" class="edge"><title>Rat&#45;&gt;Cool</title>
<path fill="none" stroke="#000000" d="M771.589,-29.0854C763.837,-32.7461 756.946,-36 756.946,-36 756.946,-36 497.946,-72 497.946,-72 497.946,-72 488.284,-107.833 481.22,-134.025"/>
<polygon fill="#000000" stroke="#000000" points="477.798,-133.273 478.574,-143.84 484.557,-135.096 477.798,-133.273"/>
</g>
<!-- Rat&#45;&gt;Rational -->
<g id="edge28" class="edge"><title>Rat&#45;&gt;Rational</title>
<path fill="none" stroke="#6666ff" d="M792.946,-36.3034C792.946,-44.0173 792.946,-53.2875 792.946,-61.8876"/>
<polygon fill="#6666ff" stroke="#6666ff" points="789.446,-61.8956 792.946,-71.8957 796.446,-61.8957 789.446,-61.8956"/>
</g>
</g>
</svg>
