<?xml version="1.0" encoding="UTF-8" standalone="no"?>
<!DOCTYPE svg PUBLIC "-//W3C//DTD SVG 1.1//EN"
 "http://www.w3.org/Graphics/SVG/1.1/DTD/svg11.dtd">
<!-- Generated by graphviz version 2.38.0 (20140413.2041)
 -->
<!-- Title: perl6&#45;type&#45;graph Pages: 1 -->
<svg width="937pt" height="404pt"
 viewBox="0.00 0.00 936.90 404.00" xmlns="http://www.w3.org/2000/svg" xmlns:xlink="http://www.w3.org/1999/xlink">
<g id="graph0" class="graph" transform="scale(1 1) rotate(0) translate(4 400)">
<title>perl6&#45;type&#45;graph</title>
<polygon fill="white" stroke="none" points="-4,4 -4,-400 932.896,-400 932.896,4 -4,4"/>
<!-- Stringy -->
<g id="node1" class="node"><title>Stringy</title>
<g id="a_node1"><a xlink:href="/type/Stringy" xlink:title="Stringy">
<ellipse fill="none" stroke="#6666ff" cx="227" cy="-306" rx="38.1938" ry="18"/>
<text text-anchor="middle" x="227" y="-302.3" font-family="FreeSans" font-size="14.00" fill="#6666ff">Stringy</text>
</a>
</g>
</g>
<!-- Positional -->
<g id="node2" class="node"><title>Positional</title>
<g id="a_node2"><a xlink:href="/type/Positional" xlink:title="Positional">
<ellipse fill="none" stroke="#6666ff" cx="111" cy="-306" rx="48.9926" ry="18"/>
<text text-anchor="middle" x="111" y="-302.3" font-family="FreeSans" font-size="14.00" fill="#6666ff">Positional</text>
</a>
</g>
</g>
<!-- Blob -->
<g id="node3" class="node"><title>Blob</title>
<g id="a_node3"><a xlink:href="/type/Blob" xlink:title="Blob">
<ellipse fill="none" stroke="#6666ff" cx="105" cy="-234" rx="28.6953" ry="18"/>
<text text-anchor="middle" x="105" y="-230.3" font-family="FreeSans" font-size="14.00" fill="#6666ff">Blob</text>
</a>
</g>
</g>
<!-- Blob&#45;&gt;Stringy -->
<g id="edge23" class="edge"><title>Blob&#45;&gt;Stringy</title>
<path fill="none" stroke="#6666ff" d="M125.42,-246.716C144.379,-257.594 172.909,-273.964 194.911,-286.588"/>
<polygon fill="#6666ff" stroke="#6666ff" points="193.176,-289.628 203.591,-291.569 196.659,-283.556 193.176,-289.628"/>
</g>
<!-- Blob&#45;&gt;Positional -->
<g id="edge22" class="edge"><title>Blob&#45;&gt;Positional</title>
<path fill="none" stroke="#6666ff" d="M106.483,-252.303C107.144,-260.017 107.939,-269.288 108.676,-277.888"/>
<polygon fill="#6666ff" stroke="#6666ff" points="105.193,-278.231 109.534,-287.896 112.167,-277.633 105.193,-278.231"/>
</g>
<!-- Mu -->
<g id="node4" class="node"><title>Mu</title>
<g id="a_node4"><a xlink:href="/type/Mu" xlink:title="Mu">
<ellipse fill="none" stroke="#000000" cx="310" cy="-378" rx="27" ry="18"/>
<text text-anchor="middle" x="310" y="-374.3" font-family="FreeSans" font-size="14.00" fill="#000000">Mu</text>
</a>
</g>
</g>
<!-- Any -->
<g id="node5" class="node"><title>Any</title>
<g id="a_node5"><a xlink:href="/type/Any" xlink:title="Any">
<ellipse fill="none" stroke="#000000" cx="310" cy="-306" rx="27" ry="18"/>
<text text-anchor="middle" x="310" y="-302.3" font-family="FreeSans" font-size="14.00" fill="#000000">Any</text>
</a>
</g>
</g>
<!-- Any&#45;&gt;Mu -->
<g id="edge1" class="edge"><title>Any&#45;&gt;Mu</title>
<path fill="none" stroke="#000000" d="M310,-324.303C310,-332.017 310,-341.288 310,-349.888"/>
<polygon fill="#000000" stroke="#000000" points="306.5,-349.896 310,-359.896 313.5,-349.896 306.5,-349.896"/>
</g>
<!-- Cool -->
<g id="node6" class="node"><title>Cool</title>
<g id="a_node6"><a xlink:href="/type/Cool" xlink:title="Cool">
<ellipse fill="none" stroke="#000000" cx="651" cy="-234" rx="28.6953" ry="18"/>
<text text-anchor="middle" x="651" y="-230.3" font-family="FreeSans" font-size="14.00" fill="#000000">Cool</text>
</a>
</g>
</g>
<!-- Cool&#45;&gt;Any -->
<g id="edge2" class="edge"><title>Cool&#45;&gt;Any</title>
<path fill="none" stroke="#000000" d="M625.392,-242.506C609.854,-247.06 593,-252 593,-252 593,-252 421.763,-284.069 345.689,-298.316"/>
<polygon fill="#000000" stroke="#000000" points="344.798,-294.922 335.613,-300.203 346.087,-301.802 344.798,-294.922"/>
</g>
<!-- Str -->
<g id="node7" class="node"><title>Str</title>
<g id="a_node7"><a xlink:href="/type/Str" xlink:title="Str">
<ellipse fill="none" stroke="#000000" cx="610" cy="-162" rx="27" ry="18"/>
<text text-anchor="middle" x="610" y="-158.3" font-family="FreeSans" font-size="14.00" fill="#000000">Str</text>
</a>
</g>
</g>
<!-- Str&#45;&gt;Stringy -->
<g id="edge24" class="edge"><title>Str&#45;&gt;Stringy</title>
<path fill="none" stroke="#6666ff" d="M588.643,-173.085C580.891,-176.746 574,-180 574,-180 574,-180 274,-288 274,-288 274,-288 270.852,-289.139 266.186,-290.826"/>
<polygon fill="#6666ff" stroke="#6666ff" points="264.712,-287.637 256.499,-294.33 267.093,-294.22 264.712,-287.637"/>
</g>
<!-- Str&#45;&gt;Cool -->
<g id="edge3" class="edge"><title>Str&#45;&gt;Cool</title>
<path fill="none" stroke="#000000" d="M619.509,-179.235C624.529,-187.805 630.796,-198.506 636.415,-208.1"/>
<polygon fill="#000000" stroke="#000000" points="633.468,-209.993 641.542,-216.853 639.508,-206.455 633.468,-209.993"/>
</g>
<!-- Uni -->
<g id="node8" class="node"><title>Uni</title>
<g id="a_node8"><a xlink:href="/type/Uni" xlink:title="Uni">
<ellipse fill="none" stroke="#000000" cx="249" cy="-234" rx="27" ry="18"/>
<text text-anchor="middle" x="249" y="-230.3" font-family="FreeSans" font-size="14.00" fill="#000000">Uni</text>
</a>
</g>
</g>
<!-- Uni&#45;&gt;Stringy -->
<g id="edge26" class="edge"><title>Uni&#45;&gt;Stringy</title>
<path fill="none" stroke="#6666ff" d="M243.674,-251.945C241.225,-259.739 238.258,-269.178 235.511,-277.921"/>
<polygon fill="#6666ff" stroke="#6666ff" points="232.089,-277.135 232.429,-287.725 238.767,-279.234 232.089,-277.135"/>
</g>
<!-- Uni&#45;&gt;Positional -->
<g id="edge25" class="edge"><title>Uni&#45;&gt;Positional</title>
<path fill="none" stroke="#6666ff" d="M228.041,-245.631C206.82,-256.396 173.565,-273.264 147.917,-286.274"/>
<polygon fill="#6666ff" stroke="#6666ff" points="146.183,-283.229 138.849,-290.874 149.35,-289.472 146.183,-283.229"/>
</g>
<!-- Uni&#45;&gt;Any -->
<g id="edge4" class="edge"><title>Uni&#45;&gt;Any</title>
<path fill="none" stroke="#000000" d="M261.937,-249.845C270.186,-259.311 281.035,-271.762 290.338,-282.437"/>
<polygon fill="#000000" stroke="#000000" points="287.874,-284.937 297.082,-290.176 293.151,-280.338 287.874,-284.937"/>
</g>
<!-- Numeric -->
<g id="node9" class="node"><title>Numeric</title>
<g id="a_node9"><a xlink:href="/type/Numeric" xlink:title="Numeric">
<ellipse fill="none" stroke="#6666ff" cx="630" cy="-306" rx="44.393" ry="18"/>
<text text-anchor="middle" x="630" y="-302.3" font-family="FreeSans" font-size="14.00" fill="#6666ff">Numeric</text>
</a>
</g>
</g>
<!-- Real -->
<g id="node10" class="node"><title>Real</title>
<g id="a_node10"><a xlink:href="/type/Real" xlink:title="Real">
<ellipse fill="none" stroke="#6666ff" cx="733" cy="-234" rx="28.6953" ry="18"/>
<text text-anchor="middle" x="733" y="-230.3" font-family="FreeSans" font-size="14.00" fill="#6666ff">Real</text>
</a>
</g>
</g>
<!-- Real&#45;&gt;Numeric -->
<g id="edge27" class="edge"><title>Real&#45;&gt;Numeric</title>
<path fill="none" stroke="#6666ff" d="M714.108,-247.839C699.173,-257.99 678.021,-272.364 660.666,-284.159"/>
<polygon fill="#6666ff" stroke="#6666ff" points="658.293,-281.54 651.989,-290.056 662.228,-287.33 658.293,-281.54"/>
</g>
<!-- Num -->
<g id="node11" class="node"><title>Num</title>
<g id="a_node11"><a xlink:href="/type/Num" xlink:title="Num">
<ellipse fill="none" stroke="#000000" cx="795" cy="-162" rx="29.795" ry="18"/>
<text text-anchor="middle" x="795" y="-158.3" font-family="FreeSans" font-size="14.00" fill="#000000">Num</text>
</a>
</g>
</g>
<!-- Num&#45;&gt;Cool -->
<g id="edge5" class="edge"><title>Num&#45;&gt;Cool</title>
<path fill="none" stroke="#000000" d="M772.5,-173.938C748.159,-185.77 709.189,-204.714 681.966,-217.947"/>
<polygon fill="#000000" stroke="#000000" points="680.334,-214.849 672.871,-222.369 683.394,-221.144 680.334,-214.849"/>
</g>
<!-- Num&#45;&gt;Real -->
<g id="edge28" class="edge"><title>Num&#45;&gt;Real</title>
<path fill="none" stroke="#6666ff" d="M781.547,-178.189C773.26,-187.545 762.478,-199.718 753.181,-210.215"/>
<polygon fill="#6666ff" stroke="#6666ff" points="750.437,-208.034 746.427,-217.841 755.677,-212.675 750.437,-208.034"/>
</g>
<!-- NumStr -->
<g id="node12" class="node"><title>NumStr</title>
<g id="a_node12"><a xlink:href="/type/NumStr" xlink:title="NumStr">
<ellipse fill="none" stroke="#000000" cx="761" cy="-90" rx="40.8928" ry="18"/>
<text text-anchor="middle" x="761" y="-86.3" font-family="FreeSans" font-size="14.00" fill="#000000">NumStr</text>
</a>
</g>
</g>
<!-- NumStr&#45;&gt;Str -->
<g id="edge7" class="edge"><title>NumStr&#45;&gt;Str</title>
<path fill="none" stroke="#000000" d="M733.655,-103.676C707.503,-115.8 668.12,-134.057 640.857,-146.696"/>
<polygon fill="#000000" stroke="#000000" points="639.361,-143.531 631.76,-150.912 642.305,-149.882 639.361,-143.531"/>
</g>
<!-- NumStr&#45;&gt;Num -->
<g id="edge6" class="edge"><title>NumStr&#45;&gt;Num</title>
<path fill="none" stroke="#000000" d="M769.23,-107.945C773.198,-116.113 778.043,-126.088 782.457,-135.176"/>
<polygon fill="#000000" stroke="#000000" points="779.328,-136.745 786.845,-144.211 785.625,-133.687 779.328,-136.745"/>
</g>
<!-- Complex -->
<g id="node13" class="node"><title>Complex</title>
<g id="a_node13"><a xlink:href="/type/Complex" xlink:title="Complex">
<ellipse fill="none" stroke="#000000" cx="520" cy="-162" rx="45.4919" ry="18"/>
<text text-anchor="middle" x="520" y="-158.3" font-family="FreeSans" font-size="14.00" fill="#000000">Complex</text>
</a>
</g>
</g>
<!-- Complex&#45;&gt;Cool -->
<g id="edge8" class="edge"><title>Complex&#45;&gt;Cool</title>
<path fill="none" stroke="#000000" d="M545.881,-176.83C567.508,-188.386 598.365,-204.875 621.055,-216.999"/>
<polygon fill="#000000" stroke="#000000" points="619.454,-220.112 629.923,-221.738 622.753,-213.938 619.454,-220.112"/>
</g>
<!-- Complex&#45;&gt;Numeric -->
<g id="edge29" class="edge"><title>Complex&#45;&gt;Numeric</title>
<path fill="none" stroke="#6666ff" d="M532.834,-179.567C552.125,-204.471 588.714,-251.703 611.073,-280.567"/>
<polygon fill="#6666ff" stroke="#6666ff" points="608.357,-282.776 617.248,-288.538 613.891,-278.489 608.357,-282.776"/>
</g>
<!-- ComplexStr -->
<g id="node14" class="node"><title>ComplexStr</title>
<g id="a_node14"><a xlink:href="/type/ComplexStr" xlink:title="ComplexStr">
<ellipse fill="none" stroke="#000000" cx="523" cy="-90" rx="56.59" ry="18"/>
<text text-anchor="middle" x="523" y="-86.3" font-family="FreeSans" font-size="14.00" fill="#000000">ComplexStr</text>
</a>
</g>
</g>
<!-- ComplexStr&#45;&gt;Str -->
<g id="edge10" class="edge"><title>ComplexStr&#45;&gt;Str</title>
<path fill="none" stroke="#000000" d="M542.742,-106.884C555.363,-117.039 571.833,-130.291 585.316,-141.14"/>
<polygon fill="#000000" stroke="#000000" points="583.279,-143.992 593.264,-147.534 587.667,-138.539 583.279,-143.992"/>
</g>
<!-- ComplexStr&#45;&gt;Complex -->
<g id="edge9" class="edge"><title>ComplexStr&#45;&gt;Complex</title>
<path fill="none" stroke="#000000" d="M522.258,-108.303C521.928,-116.017 521.531,-125.288 521.162,-133.888"/>
<polygon fill="#000000" stroke="#000000" points="517.665,-133.755 520.733,-143.896 524.658,-134.055 517.665,-133.755"/>
</g>
<!-- Int -->
<g id="node15" class="node"><title>Int</title>
<g id="a_node15"><a xlink:href="/type/Int" xlink:title="Int">
<ellipse fill="none" stroke="#000000" cx="720" cy="-162" rx="27" ry="18"/>
<text text-anchor="middle" x="720" y="-158.3" font-family="FreeSans" font-size="14.00" fill="#000000">Int</text>
</a>
</g>
</g>
<!-- Int&#45;&gt;Cool -->
<g id="edge11" class="edge"><title>Int&#45;&gt;Cool</title>
<path fill="none" stroke="#000000" d="M705.703,-177.504C696.21,-187.135 683.565,-199.963 672.824,-210.859"/>
<polygon fill="#000000" stroke="#000000" points="670.282,-208.453 665.755,-218.032 675.267,-213.367 670.282,-208.453"/>
</g>
<!-- Int&#45;&gt;Real -->
<g id="edge30" class="edge"><title>Int&#45;&gt;Real</title>
<path fill="none" stroke="#6666ff" d="M723.147,-179.945C724.579,-187.654 726.309,-196.973 727.918,-205.636"/>
<polygon fill="#6666ff" stroke="#6666ff" points="724.525,-206.532 729.792,-215.725 731.407,-205.254 724.525,-206.532"/>
</g>
<!-- IntStr -->
<g id="node16" class="node"><title>IntStr</title>
<g id="a_node16"><a xlink:href="/type/IntStr" xlink:title="IntStr">
<ellipse fill="none" stroke="#000000" cx="670" cy="-90" rx="31.6951" ry="18"/>
<text text-anchor="middle" x="670" y="-86.3" font-family="FreeSans" font-size="14.00" fill="#000000">IntStr</text>
</a>
</g>
</g>
<!-- IntStr&#45;&gt;Str -->
<g id="edge13" class="edge"><title>IntStr&#45;&gt;Str</title>
<path fill="none" stroke="#000000" d="M656.684,-106.535C648.729,-115.816 638.48,-127.773 629.612,-138.119"/>
<polygon fill="#000000" stroke="#000000" points="626.717,-136.118 622.867,-145.989 632.032,-140.674 626.717,-136.118"/>
</g>
<!-- IntStr&#45;&gt;Int -->
<g id="edge12" class="edge"><title>IntStr&#45;&gt;Int</title>
<path fill="none" stroke="#000000" d="M681.346,-106.884C687.675,-115.745 695.688,-126.963 702.775,-136.885"/>
<polygon fill="#000000" stroke="#000000" points="700.039,-139.076 708.699,-145.179 705.735,-135.007 700.039,-139.076"/>
</g>
<!-- Rational -->
<g id="node17" class="node"><title>Rational</title>
<g id="a_node17"><a xlink:href="/type/Rational" xlink:title="Rational">
<ellipse fill="none" stroke="#6666ff" cx="886" cy="-162" rx="42.7926" ry="18"/>
<text text-anchor="middle" x="886" y="-158.3" font-family="FreeSans" font-size="14.00" fill="#6666ff">Rational</text>
</a>
</g>
</g>
<!-- Rational&#45;&gt;Real -->
<g id="edge31" class="edge"><title>Rational&#45;&gt;Real</title>
<path fill="none" stroke="#6666ff" d="M857.937,-175.839C831.545,-187.914 792.086,-205.967 764.599,-218.543"/>
<polygon fill="#6666ff" stroke="#6666ff" points="763.054,-215.401 755.416,-222.744 765.966,-221.766 763.054,-215.401"/>
</g>
<!-- Rat -->
<g id="node18" class="node"><title>Rat</title>
<g id="a_node18"><a xlink:href="/type/Rat" xlink:title="Rat">
<ellipse fill="none" stroke="#000000" cx="847" cy="-90" rx="27" ry="18"/>
<text text-anchor="middle" x="847" y="-86.3" font-family="FreeSans" font-size="14.00" fill="#000000">Rat</text>
</a>
</g>
</g>
<!-- Rat&#45;&gt;Cool -->
<g id="edge14" class="edge"><title>Rat&#45;&gt;Cool</title>
<path fill="none" stroke="#000000" d="M825.643,-101.085C817.891,-104.746 811,-108 811,-108 811,-108 684,-144 684,-144 684,-144 670.45,-180.545 660.715,-206.799"/>
<polygon fill="#000000" stroke="#000000" points="657.402,-205.667 657.207,-216.26 663.965,-208.1 657.402,-205.667"/>
</g>
<!-- Rat&#45;&gt;Rational -->
<g id="edge32" class="edge"><title>Rat&#45;&gt;Rational</title>
<path fill="none" stroke="#6666ff" d="M856.045,-107.235C860.703,-115.596 866.491,-125.984 871.734,-135.394"/>
<polygon fill="#6666ff" stroke="#6666ff" points="868.808,-137.334 876.733,-144.367 874.923,-133.927 868.808,-137.334"/>
</g>
<!-- RatStr -->
<g id="node19" class="node"><title>RatStr</title>
<g id="a_node19"><a xlink:href="/type/RatStr" xlink:title="RatStr">
<ellipse fill="none" stroke="#000000" cx="728" cy="-18" rx="35.9954" ry="18"/>
<text text-anchor="middle" x="728" y="-14.3" font-family="FreeSans" font-size="14.00" fill="#000000">RatStr</text>
</a>
</g>
</g>
<!-- RatStr&#45;&gt;Str -->
<g id="edge16" class="edge"><title>RatStr&#45;&gt;Str</title>
<path fill="none" stroke="#000000" d="M704.287,-31.6948C674.999,-47.3744 629,-72 629,-72 629,-72 621.35,-107.833 615.759,-134.025"/>
<polygon fill="#000000" stroke="#000000" points="612.328,-133.33 613.663,-143.84 619.174,-134.791 612.328,-133.33"/>
</g>
<!-- RatStr&#45;&gt;Rat -->
<g id="edge15" class="edge"><title>RatStr&#45;&gt;Rat</title>
<path fill="none" stroke="#000000" d="M750.383,-32.1665C769.737,-43.5511 797.814,-60.0672 818.719,-72.364"/>
<polygon fill="#000000" stroke="#000000" points="817.083,-75.4622 827.477,-77.5156 820.632,-69.4286 817.083,-75.4622"/>
</g>
<!-- NFD -->
<g id="node20" class="node"><title>NFD</title>
<g id="a_node20"><a xlink:href="/type/NFD" xlink:title="NFD">
<ellipse fill="none" stroke="#000000" cx="173" cy="-162" rx="29.4969" ry="18"/>
<text text-anchor="middle" x="173" y="-158.3" font-family="FreeSans" font-size="14.00" fill="#000000">NFD</text>
</a>
</g>
</g>
<!-- NFD&#45;&gt;Uni -->
<g id="edge17" class="edge"><title>NFD&#45;&gt;Uni</title>
<path fill="none" stroke="#000000" d="M188.747,-177.504C199.59,-187.49 214.164,-200.914 226.263,-212.058"/>
<polygon fill="#000000" stroke="#000000" points="224.065,-214.792 233.792,-218.992 228.807,-209.643 224.065,-214.792"/>
</g>
<!-- NFC -->
<g id="node21" class="node"><title>NFC</title>
<g id="a_node21"><a xlink:href="/type/NFC" xlink:title="NFC">
<ellipse fill="none" stroke="#000000" cx="249" cy="-162" rx="29.4969" ry="18"/>
<text text-anchor="middle" x="249" y="-158.3" font-family="FreeSans" font-size="14.00" fill="#000000">NFC</text>
</a>
</g>
</g>
<!-- NFC&#45;&gt;Uni -->
<g id="edge18" class="edge"><title>NFC&#45;&gt;Uni</title>
<path fill="none" stroke="#000000" d="M249,-180.303C249,-188.017 249,-197.288 249,-205.888"/>
<polygon fill="#000000" stroke="#000000" points="245.5,-205.896 249,-215.896 252.5,-205.896 245.5,-205.896"/>
</g>
<!-- NFKD -->
<g id="node22" class="node"><title>NFKD</title>
<g id="a_node22"><a xlink:href="/type/NFKD" xlink:title="NFKD">
<ellipse fill="none" stroke="#000000" cx="332" cy="-162" rx="35.9954" ry="18"/>
<text text-anchor="middle" x="332" y="-158.3" font-family="FreeSans" font-size="14.00" fill="#000000">NFKD</text>
</a>
</g>
</g>
<!-- NFKD&#45;&gt;Uni -->
<g id="edge19" class="edge"><title>NFKD&#45;&gt;Uni</title>
<path fill="none" stroke="#000000" d="M314.398,-177.845C302.339,-188.015 286.197,-201.629 272.968,-212.786"/>
<polygon fill="#000000" stroke="#000000" points="270.557,-210.241 265.169,-219.363 275.07,-215.592 270.557,-210.241"/>
</g>
<!-- NFKC -->
<g id="node23" class="node"><title>NFKC</title>
<g id="a_node23"><a xlink:href="/type/NFKC" xlink:title="NFKC">
<ellipse fill="none" stroke="#000000" cx="421" cy="-162" rx="35.9954" ry="18"/>
<text text-anchor="middle" x="421" y="-158.3" font-family="FreeSans" font-size="14.00" fill="#000000">NFKC</text>
</a>
</g>
</g>
<!-- NFKC&#45;&gt;Uni -->
<g id="edge20" class="edge"><title>NFKC&#45;&gt;Uni</title>
<path fill="none" stroke="#000000" d="M394.125,-173.938C363.557,-186.378 313.673,-206.68 281.09,-219.94"/>
<polygon fill="#000000" stroke="#000000" points="279.517,-216.801 271.574,-223.813 282.156,-223.285 279.517,-216.801"/>
</g>
<!-- utf8 -->
<g id="node24" class="node"><title>utf8</title>
<g id="a_node24"><a xlink:href="/type/utf8" xlink:title="utf8">
<ellipse fill="none" stroke="#000000" cx="99" cy="-162" rx="27" ry="18"/>
<text text-anchor="middle" x="99" y="-158.3" font-family="FreeSans" font-size="14.00" fill="#000000">utf8</text>
</a>
</g>
</g>
<!-- utf8&#45;&gt;Blob -->
<g id="edge33" class="edge"><title>utf8&#45;&gt;Blob</title>
<path fill="none" stroke="#6666ff" d="M100.483,-180.303C101.144,-188.017 101.939,-197.288 102.676,-205.888"/>
<polygon fill="#6666ff" stroke="#6666ff" points="99.1926,-206.231 103.534,-215.896 106.167,-205.633 99.1926,-206.231"/>
</g>
<!-- utf8&#45;&gt;Any -->
<g id="edge21" class="edge"><title>utf8&#45;&gt;Any</title>
<path fill="none" stroke="#000000" d="M115.821,-176.132C147.532,-200.889 213,-252 213,-252 213,-252 252.046,-273.335 280.592,-288.932"/>
<polygon fill="#000000" stroke="#000000" points="278.975,-292.037 289.429,-293.76 282.332,-285.894 278.975,-292.037"/>
</g>
<!-- Buf -->
<g id="node25" class="node"><title>Buf</title>
<g id="a_node25"><a xlink:href="/type/Buf" xlink:title="Buf">
<ellipse fill="none" stroke="#6666ff" cx="27" cy="-162" rx="27" ry="18"/>
<text text-anchor="middle" x="27" y="-158.3" font-family="FreeSans" font-size="14.00" fill="#6666ff">Buf</text>
</a>
</g>
</g>
<!-- Buf&#45;&gt;Blob -->
<g id="edge34" class="edge"><title>Buf&#45;&gt;Blob</title>
<path fill="none" stroke="#6666ff" d="M42.4103,-176.83C53.5874,-186.86 68.9051,-200.607 81.5894,-211.99"/>
<polygon fill="#6666ff" stroke="#6666ff" points="79.3061,-214.644 89.0862,-218.718 83.9815,-209.434 79.3061,-214.644"/>
</g>
</g>
</svg>
