<?xml version="1.0" encoding="UTF-8" standalone="no"?>
<!DOCTYPE svg PUBLIC "-//W3C//DTD SVG 1.1//EN"
 "http://www.w3.org/Graphics/SVG/1.1/DTD/svg11.dtd">
<!-- Generated by graphviz version 2.38.0 (20140413.2041)
 -->
<!-- Title: perl6&#45;type&#45;graph Pages: 1 -->
<svg width="1817pt" height="404pt"
 viewBox="0.00 0.00 1816.54 404.00" xmlns="http://www.w3.org/2000/svg" xmlns:xlink="http://www.w3.org/1999/xlink">
<g id="graph0" class="graph" transform="scale(1 1) rotate(0) translate(4 400)">
<title>perl6&#45;type&#45;graph</title>
<polygon fill="white" stroke="none" points="-4,4 -4,-400 1812.54,-400 1812.54,4 -4,4"/>
<!-- X::IO -->
<g id="node1" class="node"><title>X::IO</title>
<g id="a_node1"><a xlink:href="/type/X::IO" xlink:title="X::IO">
<ellipse fill="none" stroke="#6666ff" cx="885.446" cy="-90" rx="31.3957" ry="18"/>
<text text-anchor="middle" x="885.446" y="-86.3" font-family="FreeSans" font-size="14.00" fill="#6666ff">X::IO</text>
</a>
</g>
</g>
<!-- Exception -->
<g id="node4" class="node"><title>Exception</title>
<g id="a_node4"><a xlink:href="/type/Exception" xlink:title="Exception">
<ellipse fill="none" stroke="#000000" cx="994.446" cy="-234" rx="49.2915" ry="18"/>
<text text-anchor="middle" x="994.446" y="-230.3" font-family="FreeSans" font-size="14.00" fill="#000000">Exception</text>
</a>
</g>
</g>
<!-- X::IO&#45;&gt;Exception -->
<g id="edge1" class="edge"><title>X::IO&#45;&gt;Exception</title>
<path fill="none" stroke="#000000" d="M898.115,-106.615C910.799,-122.249 928.446,-144 928.446,-144 928.446,-144 956.51,-181.844 976.038,-208.177"/>
<polygon fill="#000000" stroke="#000000" points="973.264,-210.312 982.032,-216.26 978.886,-206.143 973.264,-210.312"/>
</g>
<!-- X::OS -->
<g id="node5" class="node"><title>X::OS</title>
<g id="a_node5"><a xlink:href="/type/X::OS" xlink:title="X::OS">
<ellipse fill="none" stroke="#6666ff" cx="885.446" cy="-162" rx="34.394" ry="18"/>
<text text-anchor="middle" x="885.446" y="-158.3" font-family="FreeSans" font-size="14.00" fill="#6666ff">X::OS</text>
</a>
</g>
</g>
<!-- X::IO&#45;&gt;X::OS -->
<g id="edge34" class="edge"><title>X::IO&#45;&gt;X::OS</title>
<path fill="none" stroke="#6666ff" d="M885.446,-108.303C885.446,-116.017 885.446,-125.288 885.446,-133.888"/>
<polygon fill="#6666ff" stroke="#6666ff" points="881.946,-133.896 885.446,-143.896 888.946,-133.896 881.946,-133.896"/>
</g>
<!-- Mu -->
<g id="node2" class="node"><title>Mu</title>
<g id="a_node2"><a xlink:href="/type/Mu" xlink:title="Mu">
<ellipse fill="none" stroke="#000000" cx="994.446" cy="-378" rx="27" ry="18"/>
<text text-anchor="middle" x="994.446" y="-374.3" font-family="FreeSans" font-size="14.00" fill="#000000">Mu</text>
</a>
</g>
</g>
<!-- Any -->
<g id="node3" class="node"><title>Any</title>
<g id="a_node3"><a xlink:href="/type/Any" xlink:title="Any">
<ellipse fill="none" stroke="#000000" cx="994.446" cy="-306" rx="27" ry="18"/>
<text text-anchor="middle" x="994.446" y="-302.3" font-family="FreeSans" font-size="14.00" fill="#000000">Any</text>
</a>
</g>
</g>
<!-- Any&#45;&gt;Mu -->
<g id="edge2" class="edge"><title>Any&#45;&gt;Mu</title>
<path fill="none" stroke="#000000" d="M994.446,-324.303C994.446,-332.017 994.446,-341.288 994.446,-349.888"/>
<polygon fill="#000000" stroke="#000000" points="990.946,-349.896 994.446,-359.896 997.946,-349.896 990.946,-349.896"/>
</g>
<!-- Exception&#45;&gt;Any -->
<g id="edge3" class="edge"><title>Exception&#45;&gt;Any</title>
<path fill="none" stroke="#000000" d="M994.446,-252.303C994.446,-260.017 994.446,-269.288 994.446,-277.888"/>
<polygon fill="#000000" stroke="#000000" points="990.946,-277.896 994.446,-287.896 997.946,-277.896 990.946,-277.896"/>
</g>
<!-- X::OS&#45;&gt;Exception -->
<g id="edge4" class="edge"><title>X::OS&#45;&gt;Exception</title>
<path fill="none" stroke="#000000" d="M906.462,-176.497C922.411,-186.739 944.607,-200.993 962.714,-212.622"/>
<polygon fill="#000000" stroke="#000000" points="960.924,-215.632 971.23,-218.091 964.707,-209.742 960.924,-215.632"/>
</g>
<!-- X::IO::Dir -->
<g id="node6" class="node"><title>X::IO::Dir</title>
<g id="a_node6"><a xlink:href="/type/X::IO::Dir" xlink:title="X::IO::Dir">
<ellipse fill="none" stroke="#000000" cx="47.4458" cy="-18" rx="47.3916" ry="18"/>
<text text-anchor="middle" x="47.4458" y="-14.3" font-family="FreeSans" font-size="14.00" fill="#000000">X::IO::Dir</text>
</a>
</g>
</g>
<!-- X::IO::Dir&#45;&gt;X::IO -->
<g id="edge35" class="edge"><title>X::IO::Dir&#45;&gt;X::IO</title>
<path fill="none" stroke="#6666ff" d="M83.2285,-29.8626C94.2036,-33.1943 103.446,-36 103.446,-36 103.446,-36 683.131,-75.2881 844.307,-86.2118"/>
<polygon fill="#6666ff" stroke="#6666ff" points="844.094,-89.7053 854.308,-86.8896 844.567,-82.7214 844.094,-89.7053"/>
</g>
<!-- X::IO::Dir&#45;&gt;Exception -->
<g id="edge5" class="edge"><title>X::IO::Dir&#45;&gt;Exception</title>
<path fill="none" stroke="#000000" d="M79.3858,-31.3661C183.358,-69.0662 504.446,-180 504.446,-180 504.446,-180 807.631,-213.407 937.091,-227.176"/>
<polygon fill="#000000" stroke="#000000" points="936.903,-230.675 947.217,-228.25 937.642,-223.714 936.903,-230.675"/>
</g>
<!-- X::IO::Dir&#45;&gt;Exception -->
<g id="edge6" class="edge"><title>X::IO::Dir&#45;&gt;Exception</title>
<path fill="none" stroke="#000000" d="M83.1445,-30.0662C193.759,-66.4407 522.446,-180 522.446,-180 522.446,-180 812.828,-211.996 938.126,-226.268"/>
<polygon fill="#000000" stroke="#000000" points="937.959,-229.771 948.292,-227.428 938.753,-222.817 937.959,-229.771"/>
</g>
<!-- X::IO::Rename -->
<g id="node7" class="node"><title>X::IO::Rename</title>
<g id="a_node7"><a xlink:href="/type/X::IO::Rename" xlink:title="X::IO::Rename">
<ellipse fill="none" stroke="#000000" cx="182.446" cy="-18" rx="69.5877" ry="18"/>
<text text-anchor="middle" x="182.446" y="-14.3" font-family="FreeSans" font-size="14.00" fill="#000000">X::IO::Rename</text>
</a>
</g>
</g>
<!-- X::IO::Rename&#45;&gt;X::IO -->
<g id="edge36" class="edge"><title>X::IO::Rename&#45;&gt;X::IO</title>
<path fill="none" stroke="#6666ff" d="M234.039,-30.2446C248.544,-33.406 260.446,-36 260.446,-36 260.446,-36 704.881,-73.6881 844.198,-85.5022"/>
<polygon fill="#6666ff" stroke="#6666ff" points="844.192,-89.0141 854.452,-86.3717 844.783,-82.0392 844.192,-89.0141"/>
</g>
<!-- X::IO::Rename&#45;&gt;Exception -->
<g id="edge7" class="edge"><title>X::IO::Rename&#45;&gt;Exception</title>
<path fill="none" stroke="#000000" d="M217.316,-33.7145C317.881,-73.4592 600.446,-180 600.446,-180 600.446,-180 829.321,-211.508 938.259,-225.936"/>
<polygon fill="#000000" stroke="#000000" points="938.044,-229.438 948.416,-227.278 938.96,-222.498 938.044,-229.438"/>
</g>
<!-- X::IO::Rename&#45;&gt;Exception -->
<g id="edge8" class="edge"><title>X::IO::Rename&#45;&gt;Exception</title>
<path fill="none" stroke="#000000" d="M222.884,-32.7268C331.112,-71.6611 618.446,-180 618.446,-180 618.446,-180 835.241,-209.845 939.661,-224.743"/>
<polygon fill="#000000" stroke="#000000" points="939.311,-228.228 949.706,-226.18 940.303,-221.299 939.311,-228.228"/>
</g>
<!-- X::IO::Move -->
<g id="node8" class="node"><title>X::IO::Move</title>
<g id="a_node8"><a xlink:href="/type/X::IO::Move" xlink:title="X::IO::Move">
<ellipse fill="none" stroke="#000000" cx="327.446" cy="-18" rx="57.6901" ry="18"/>
<text text-anchor="middle" x="327.446" y="-14.3" font-family="FreeSans" font-size="14.00" fill="#000000">X::IO::Move</text>
</a>
</g>
</g>
<!-- X::IO::Move&#45;&gt;X::IO -->
<g id="edge37" class="edge"><title>X::IO::Move&#45;&gt;X::IO</title>
<path fill="none" stroke="#6666ff" d="M370.732,-30.1496C383.173,-33.3539 393.446,-36 393.446,-36 393.446,-36 727.316,-71.9657 844.991,-84.6421"/>
<polygon fill="#6666ff" stroke="#6666ff" points="844.723,-88.1333 855.04,-85.7246 845.473,-81.1736 844.723,-88.1333"/>
</g>
<!-- X::IO::Move&#45;&gt;Exception -->
<g id="edge9" class="edge"><title>X::IO::Move&#45;&gt;Exception</title>
<path fill="none" stroke="#000000" d="M356.558,-33.7145C441.571,-73.4592 682.446,-180 682.446,-180 682.446,-180 850.499,-209.395 940.013,-224.403"/>
<polygon fill="#000000" stroke="#000000" points="939.558,-227.875 949.998,-226.071 940.712,-220.971 939.558,-227.875"/>
</g>
<!-- X::IO::Move&#45;&gt;Exception -->
<g id="edge10" class="edge"><title>X::IO::Move&#45;&gt;Exception</title>
<path fill="none" stroke="#000000" d="M362.181,-32.588C454.922,-71.403 700.446,-180 700.446,-180 700.446,-180 857.418,-207.457 942.041,-222.846"/>
<polygon fill="#000000" stroke="#000000" points="941.521,-226.309 951.987,-224.66 942.777,-219.423 941.521,-226.309"/>
</g>
<!-- X::IO::Copy -->
<g id="node9" class="node"><title>X::IO::Copy</title>
<g id="a_node9"><a xlink:href="/type/X::IO::Copy" xlink:title="X::IO::Copy">
<ellipse fill="none" stroke="#000000" cx="459.446" cy="-18" rx="56.59" ry="18"/>
<text text-anchor="middle" x="459.446" y="-14.3" font-family="FreeSans" font-size="14.00" fill="#000000">X::IO::Copy</text>
</a>
</g>
</g>
<!-- X::IO::Copy&#45;&gt;X::IO -->
<g id="edge38" class="edge"><title>X::IO::Copy&#45;&gt;X::IO</title>
<path fill="none" stroke="#6666ff" d="M501.991,-29.9586C514.762,-33.248 525.446,-36 525.446,-36 525.446,-36 751.577,-69.2916 845.397,-83.1039"/>
<polygon fill="#6666ff" stroke="#6666ff" points="844.968,-86.5785 855.372,-84.5724 845.988,-79.6531 844.968,-86.5785"/>
</g>
<!-- X::IO::Copy&#45;&gt;Exception -->
<g id="edge11" class="edge"><title>X::IO::Copy&#45;&gt;Exception</title>
<path fill="none" stroke="#000000" d="M483.715,-34.2916C553.825,-74.4799 750.446,-180 750.446,-180 750.446,-180 870.397,-207.053 942.184,-222.503"/>
<polygon fill="#000000" stroke="#000000" points="941.465,-225.928 951.977,-224.602 942.932,-219.084 941.465,-225.928"/>
</g>
<!-- X::IO::Copy&#45;&gt;Exception -->
<g id="edge12" class="edge"><title>X::IO::Copy&#45;&gt;Exception</title>
<path fill="none" stroke="#000000" d="M490.171,-33.2877C568.49,-72.6904 768.446,-180 768.446,-180 768.446,-180 878.879,-204.906 945.439,-220.572"/>
<polygon fill="#000000" stroke="#000000" points="944.785,-224.013 955.322,-222.906 946.395,-217.201 944.785,-224.013"/>
</g>
<!-- X::IO::Link -->
<g id="node10" class="node"><title>X::IO::Link</title>
<g id="a_node10"><a xlink:href="/type/X::IO::Link" xlink:title="X::IO::Link">
<ellipse fill="none" stroke="#000000" cx="587.446" cy="-18" rx="53.0913" ry="18"/>
<text text-anchor="middle" x="587.446" y="-14.3" font-family="FreeSans" font-size="14.00" fill="#000000">X::IO::Link</text>
</a>
</g>
</g>
<!-- X::IO::Link&#45;&gt;X::IO -->
<g id="edge39" class="edge"><title>X::IO::Link&#45;&gt;X::IO</title>
<path fill="none" stroke="#6666ff" d="M627.701,-29.8626C640.048,-33.1943 650.446,-36 650.446,-36 650.446,-36 779.681,-65.1466 846.476,-80.211"/>
<polygon fill="#6666ff" stroke="#6666ff" points="846.105,-83.7153 856.63,-82.5012 847.645,-76.8868 846.105,-83.7153"/>
</g>
<!-- X::IO::Link&#45;&gt;Exception -->
<g id="edge13" class="edge"><title>X::IO::Link&#45;&gt;Exception</title>
<path fill="none" stroke="#000000" d="M605.432,-35.0259C657.401,-75.749 802.446,-180 802.446,-180 802.446,-180 887.955,-204.765 944.946,-220.438"/>
<polygon fill="#000000" stroke="#000000" points="944.309,-223.892 954.878,-223.155 946.156,-217.14 944.309,-223.892"/>
</g>
<!-- X::IO::Link&#45;&gt;Exception -->
<g id="edge14" class="edge"><title>X::IO::Link&#45;&gt;Exception</title>
<path fill="none" stroke="#000000" d="M612.727,-34.1465C673.281,-74.2252 820.446,-180 820.446,-180 820.446,-180 898.092,-202.488 949.742,-218.167"/>
<polygon fill="#000000" stroke="#000000" points="948.791,-221.536 959.377,-221.106 950.833,-214.84 948.791,-221.536"/>
</g>
<!-- X::IO::Mkdir -->
<g id="node11" class="node"><title>X::IO::Mkdir</title>
<g id="a_node11"><a xlink:href="/type/X::IO::Mkdir" xlink:title="X::IO::Mkdir">
<ellipse fill="none" stroke="#000000" cx="717.446" cy="-18" rx="58.4896" ry="18"/>
<text text-anchor="middle" x="717.446" y="-14.3" font-family="FreeSans" font-size="14.00" fill="#000000">X::IO::Mkdir</text>
</a>
</g>
</g>
<!-- X::IO::Mkdir&#45;&gt;X::IO -->
<g id="edge40" class="edge"><title>X::IO::Mkdir&#45;&gt;X::IO</title>
<path fill="none" stroke="#6666ff" d="M750.637,-32.8297C779.762,-44.9651 821.94,-62.5392 851.335,-74.7873"/>
<polygon fill="#6666ff" stroke="#6666ff" points="850.2,-78.1058 860.777,-78.7212 852.892,-71.6442 850.2,-78.1058"/>
</g>
<!-- X::IO::Mkdir&#45;&gt;Exception -->
<g id="edge15" class="edge"><title>X::IO::Mkdir&#45;&gt;Exception</title>
<path fill="none" stroke="#000000" d="M726.175,-35.9255C753.68,-77.2617 833.446,-180 833.446,-180 833.446,-180 899.95,-203.189 947.584,-218.89"/>
<polygon fill="#000000" stroke="#000000" points="946.54,-222.231 957.132,-222.018 948.719,-215.579 946.54,-222.231"/>
</g>
<!-- X::IO::Mkdir&#45;&gt;Exception -->
<g id="edge16" class="edge"><title>X::IO::Mkdir&#45;&gt;Exception</title>
<path fill="none" stroke="#000000" d="M734.464,-35.3235C770.898,-76.2544 851.446,-180 851.446,-180 851.446,-180 911.191,-200.832 953.55,-216.375"/>
<polygon fill="#000000" stroke="#000000" points="952.502,-219.719 963.095,-219.899 954.926,-213.152 952.502,-219.719"/>
</g>
<!-- X::IO::DoesNotExist -->
<g id="node12" class="node"><title>X::IO::DoesNotExist</title>
<g id="a_node12"><a xlink:href="/type/X::IO::DoesNotExist" xlink:title="X::IO::DoesNotExist">
<ellipse fill="none" stroke="#000000" cx="883.446" cy="-18" rx="89.8845" ry="18"/>
<text text-anchor="middle" x="883.446" y="-14.3" font-family="FreeSans" font-size="14.00" fill="#000000">X::IO::DoesNotExist</text>
</a>
</g>
</g>
<!-- X::IO::DoesNotExist&#45;&gt;X::IO -->
<g id="edge41" class="edge"><title>X::IO::DoesNotExist&#45;&gt;X::IO</title>
<path fill="none" stroke="#6666ff" d="M883.94,-36.3034C884.161,-44.0173 884.425,-53.2875 884.671,-61.8876"/>
<polygon fill="#6666ff" stroke="#6666ff" points="881.173,-61.9997 884.957,-71.8957 888.17,-61.7998 881.173,-61.9997"/>
</g>
<!-- X::IO::DoesNotExist&#45;&gt;Exception -->
<g id="edge17" class="edge"><title>X::IO::DoesNotExist&#45;&gt;Exception</title>
<path fill="none" stroke="#000000" d="M890.122,-36.0613C900.244,-51.5549 916.446,-72 916.446,-72 916.446,-72 955.011,-161.985 978.239,-207.408"/>
<polygon fill="#000000" stroke="#000000" points="975.198,-209.147 982.943,-216.377 981.397,-205.895 975.198,-209.147"/>
</g>
<!-- X::IO::DoesNotExist&#45;&gt;Exception -->
<g id="edge18" class="edge"><title>X::IO::DoesNotExist&#45;&gt;Exception</title>
<path fill="none" stroke="#000000" d="M903.538,-35.7695C918.04,-51.2969 934.446,-72 934.446,-72 934.446,-72 972.317,-160.365 988.286,-206.166"/>
<polygon fill="#000000" stroke="#000000" points="985.009,-207.402 991.507,-215.77 991.646,-205.176 985.009,-207.402"/>
</g>
<!-- X::IO::Symlink -->
<g id="node13" class="node"><title>X::IO::Symlink</title>
<g id="a_node13"><a xlink:href="/type/X::IO::Symlink" xlink:title="X::IO::Symlink">
<ellipse fill="none" stroke="#000000" cx="1058.45" cy="-18" rx="67.6881" ry="18"/>
<text text-anchor="middle" x="1058.45" y="-14.3" font-family="FreeSans" font-size="14.00" fill="#000000">X::IO::Symlink</text>
</a>
</g>
</g>
<!-- X::IO::Symlink&#45;&gt;X::IO -->
<g id="edge42" class="edge"><title>X::IO::Symlink&#45;&gt;X::IO</title>
<path fill="none" stroke="#6666ff" d="M1023.02,-33.3345C992.822,-45.5529 949.688,-63.0062 919.802,-75.0987"/>
<polygon fill="#6666ff" stroke="#6666ff" points="918.169,-71.9835 910.212,-78.9788 920.795,-78.4724 918.169,-71.9835"/>
</g>
<!-- X::IO::Symlink&#45;&gt;Exception -->
<g id="edge19" class="edge"><title>X::IO::Symlink&#45;&gt;Exception</title>
<path fill="none" stroke="#000000" d="M1049.72,-35.9255C1034.61,-77.2617 1008.45,-180 1008.45,-180 1008.45,-180 1002.81,-192.983 998.212,-206.097"/>
<polygon fill="#000000" stroke="#000000" points="994.775,-205.346 995.006,-215.939 1001.43,-207.514 994.775,-205.346"/>
</g>
<!-- X::IO::Symlink&#45;&gt;Exception -->
<g id="edge20" class="edge"><title>X::IO::Symlink&#45;&gt;Exception</title>
<path fill="none" stroke="#000000" d="M1058.5,-36.2298C1052.48,-77.7634 1026.45,-180 1026.45,-180 1026.45,-180 1020.44,-193.839 1013.37,-207.373"/>
<polygon fill="#000000" stroke="#000000" points="1010.09,-206.069 1008.36,-216.521 1016.23,-209.43 1010.09,-206.069"/>
</g>
<!-- X::IO::Chdir -->
<g id="node14" class="node"><title>X::IO::Chdir</title>
<g id="a_node14"><a xlink:href="/type/X::IO::Chdir" xlink:title="X::IO::Chdir">
<ellipse fill="none" stroke="#000000" cx="1201.45" cy="-18" rx="57.3905" ry="18"/>
<text text-anchor="middle" x="1201.45" y="-14.3" font-family="FreeSans" font-size="14.00" fill="#000000">X::IO::Chdir</text>
</a>
</g>
</g>
<!-- X::IO::Chdir&#45;&gt;X::IO -->
<g id="edge43" class="edge"><title>X::IO::Chdir&#45;&gt;X::IO</title>
<path fill="none" stroke="#6666ff" d="M1158.53,-30.0542C1145.92,-33.3012 1135.45,-36 1135.45,-36 1135.45,-36 994.741,-65.8295 924.448,-80.7315"/>
<polygon fill="#6666ff" stroke="#6666ff" points="923.67,-77.3186 914.613,-82.8165 925.122,-84.1664 923.67,-77.3186"/>
</g>
<!-- X::IO::Chdir&#45;&gt;Exception -->
<g id="edge21" class="edge"><title>X::IO::Chdir&#45;&gt;Exception</title>
<path fill="none" stroke="#000000" d="M1182.11,-35.0848C1142.37,-72.3285 1052.82,-164.666 1013.4,-208.782"/>
<polygon fill="#000000" stroke="#000000" points="1010.64,-206.621 1006.65,-216.434 1015.89,-211.253 1010.64,-206.621"/>
</g>
<!-- X::IO::Chdir&#45;&gt;Exception -->
<g id="edge22" class="edge"><title>X::IO::Chdir&#45;&gt;Exception</title>
<path fill="none" stroke="#000000" d="M1189.05,-35.7922C1155.89,-73.888 1066.09,-166.904 1020.89,-210.171"/>
<polygon fill="#000000" stroke="#000000" points="1018.37,-207.742 1013.52,-217.161 1023.18,-212.824 1018.37,-207.742"/>
</g>
<!-- X::IO::Cwd -->
<g id="node15" class="node"><title>X::IO::Cwd</title>
<g id="a_node15"><a xlink:href="/type/X::IO::Cwd" xlink:title="X::IO::Cwd">
<ellipse fill="none" stroke="#000000" cx="1330.45" cy="-18" rx="53.8905" ry="18"/>
<text text-anchor="middle" x="1330.45" y="-14.3" font-family="FreeSans" font-size="14.00" fill="#000000">X::IO::Cwd</text>
</a>
</g>
</g>
<!-- X::IO::Cwd&#45;&gt;X::IO -->
<g id="edge44" class="edge"><title>X::IO::Cwd&#45;&gt;X::IO</title>
<path fill="none" stroke="#6666ff" d="M1289.83,-29.9586C1277.64,-33.248 1267.45,-36 1267.45,-36 1267.45,-36 1023.57,-69.8362 925.537,-83.4376"/>
<polygon fill="#6666ff" stroke="#6666ff" points="924.845,-80 915.421,-84.8412 925.807,-86.9336 924.845,-80"/>
</g>
<!-- X::IO::Cwd&#45;&gt;Exception -->
<g id="edge23" class="edge"><title>X::IO::Cwd&#45;&gt;Exception</title>
<path fill="none" stroke="#000000" d="M1303.85,-33.8579C1238.86,-73.7148 1078.45,-180 1078.45,-180 1078.45,-180 1048.17,-197.253 1023.84,-212.072"/>
<polygon fill="#000000" stroke="#000000" points="1021.89,-209.161 1015.21,-217.385 1025.56,-215.122 1021.89,-209.161"/>
</g>
<!-- X::IO::Cwd&#45;&gt;Exception -->
<g id="edge24" class="edge"><title>X::IO::Cwd&#45;&gt;Exception</title>
<path fill="none" stroke="#000000" d="M1310.57,-35.0259C1253.79,-75.749 1096.45,-180 1096.45,-180 1096.45,-180 1062.26,-199.48 1033.34,-214.821"/>
<polygon fill="#000000" stroke="#000000" points="1031.41,-211.88 1024.18,-219.626 1034.67,-218.078 1031.41,-211.88"/>
</g>
<!-- X::IO::Chmod -->
<g id="node16" class="node"><title>X::IO::Chmod</title>
<g id="a_node16"><a xlink:href="/type/X::IO::Chmod" xlink:title="X::IO::Chmod">
<ellipse fill="none" stroke="#000000" cx="1466.45" cy="-18" rx="64.189" ry="18"/>
<text text-anchor="middle" x="1466.45" y="-14.3" font-family="FreeSans" font-size="14.00" fill="#000000">X::IO::Chmod</text>
</a>
</g>
</g>
<!-- X::IO::Chmod&#45;&gt;X::IO -->
<g id="edge45" class="edge"><title>X::IO::Chmod&#45;&gt;X::IO</title>
<path fill="none" stroke="#6666ff" d="M1418.57,-30.1496C1404.81,-33.3539 1393.45,-36 1393.45,-36 1393.45,-36 1047.13,-72.1314 926.38,-84.7293"/>
<polygon fill="#6666ff" stroke="#6666ff" points="925.662,-81.2851 916.079,-85.804 926.389,-88.2473 925.662,-81.2851"/>
</g>
<!-- X::IO::Chmod&#45;&gt;Exception -->
<g id="edge25" class="edge"><title>X::IO::Chmod&#45;&gt;Exception</title>
<path fill="none" stroke="#000000" d="M1430.01,-32.8661C1340.31,-71.9189 1119.45,-180 1119.45,-180 1119.45,-180 1067.55,-199.234 1030.22,-214.528"/>
<polygon fill="#000000" stroke="#000000" points="1028.5,-211.451 1020.61,-218.518 1031.19,-217.917 1028.5,-211.451"/>
</g>
<!-- X::IO::Chmod&#45;&gt;Exception -->
<g id="edge26" class="edge"><title>X::IO::Chmod&#45;&gt;Exception</title>
<path fill="none" stroke="#000000" d="M1435.79,-34.0019C1354.12,-73.9702 1137.45,-180 1137.45,-180 1137.45,-180 1079.6,-201.439 1037.49,-217.046"/>
<polygon fill="#000000" stroke="#000000" points="1036.13,-213.817 1027.97,-220.574 1038.57,-220.38 1036.13,-213.817"/>
</g>
<!-- X::IO::Chmod&#45;&gt;Exception -->
<g id="edge27" class="edge"><title>X::IO::Chmod&#45;&gt;Exception</title>
<path fill="none" stroke="#000000" d="M1442.59,-34.8779C1369,-75.4958 1155.45,-180 1155.45,-180 1155.45,-180 1090.79,-203.964 1042.95,-219.664"/>
<polygon fill="#000000" stroke="#000000" points="1041.77,-216.369 1033.33,-222.781 1043.93,-223.029 1041.77,-216.369"/>
</g>
<!-- X::IO::Rmdir -->
<g id="node17" class="node"><title>X::IO::Rmdir</title>
<g id="a_node17"><a xlink:href="/type/X::IO::Rmdir" xlink:title="X::IO::Rmdir">
<ellipse fill="none" stroke="#000000" cx="1608.45" cy="-18" rx="59.5901" ry="18"/>
<text text-anchor="middle" x="1608.45" y="-14.3" font-family="FreeSans" font-size="14.00" fill="#000000">X::IO::Rmdir</text>
</a>
</g>
</g>
<!-- X::IO::Rmdir&#45;&gt;X::IO -->
<g id="edge46" class="edge"><title>X::IO::Rmdir&#45;&gt;X::IO</title>
<path fill="none" stroke="#6666ff" d="M1563.58,-30.0542C1550.4,-33.3012 1539.45,-36 1539.45,-36 1539.45,-36 1069.24,-74.1054 926.222,-85.6955"/>
<polygon fill="#6666ff" stroke="#6666ff" points="925.797,-82.2184 916.112,-86.5148 926.362,-89.1955 925.797,-82.2184"/>
</g>
<!-- X::IO::Rmdir&#45;&gt;Exception -->
<g id="edge28" class="edge"><title>X::IO::Rmdir&#45;&gt;Exception</title>
<path fill="none" stroke="#000000" d="M1569.05,-31.6334C1463.82,-69.5876 1187.45,-180 1187.45,-180 1187.45,-180 1096.66,-202.803 1039.27,-218.495"/>
<polygon fill="#000000" stroke="#000000" points="1038.03,-215.206 1029.32,-221.238 1039.89,-221.954 1038.03,-215.206"/>
</g>
<!-- X::IO::Rmdir&#45;&gt;Exception -->
<g id="edge29" class="edge"><title>X::IO::Rmdir&#45;&gt;Exception</title>
<path fill="none" stroke="#000000" d="M1573.74,-32.8661C1475.98,-71.9189 1205.45,-180 1205.45,-180 1205.45,-180 1106.57,-204.836 1044.19,-220.505"/>
<polygon fill="#000000" stroke="#000000" points="1042.98,-217.2 1034.13,-223.031 1044.68,-223.989 1042.98,-217.2"/>
</g>
<!-- X::IO::Rmdir&#45;&gt;Exception -->
<g id="edge30" class="edge"><title>X::IO::Rmdir&#45;&gt;Exception</title>
<path fill="none" stroke="#000000" d="M1579.6,-33.8579C1489.49,-73.7148 1223.45,-180 1223.45,-180 1223.45,-180 1115.51,-207.113 1047.45,-222.554"/>
<polygon fill="#000000" stroke="#000000" points="1046.29,-219.227 1037.3,-224.835 1047.82,-226.057 1046.29,-219.227"/>
</g>
<!-- X::IO::Unlink -->
<g id="node18" class="node"><title>X::IO::Unlink</title>
<g id="a_node18"><a xlink:href="/type/X::IO::Unlink" xlink:title="X::IO::Unlink">
<ellipse fill="none" stroke="#000000" cx="1747.45" cy="-18" rx="61.1893" ry="18"/>
<text text-anchor="middle" x="1747.45" y="-14.3" font-family="FreeSans" font-size="14.00" fill="#000000">X::IO::Unlink</text>
</a>
</g>
</g>
<!-- X::IO::Unlink&#45;&gt;X::IO -->
<g id="edge47" class="edge"><title>X::IO::Unlink&#45;&gt;X::IO</title>
<path fill="none" stroke="#6666ff" d="M1701.93,-30.0542C1688.56,-33.3012 1677.45,-36 1677.45,-36 1677.45,-36 1089.04,-75.3754 926.568,-86.2481"/>
<polygon fill="#6666ff" stroke="#6666ff" points="926.237,-82.7624 916.493,-86.9223 926.705,-89.7467 926.237,-82.7624"/>
</g>
<!-- X::IO::Unlink&#45;&gt;Exception -->
<g id="edge31" class="edge"><title>X::IO::Unlink&#45;&gt;Exception</title>
<path fill="none" stroke="#000000" d="M1704.79,-31.1012C1586.05,-68.5436 1263.45,-180 1263.45,-180 1263.45,-180 1123.18,-205.902 1044.92,-221.491"/>
<polygon fill="#000000" stroke="#000000" points="1043.89,-218.128 1034.77,-223.525 1045.26,-224.991 1043.89,-218.128"/>
</g>
<!-- X::IO::Unlink&#45;&gt;Exception -->
<g id="edge32" class="edge"><title>X::IO::Unlink&#45;&gt;Exception</title>
<path fill="none" stroke="#000000" d="M1709.31,-32.1753C1598.02,-70.6268 1281.45,-180 1281.45,-180 1281.45,-180 1130.34,-207.904 1047.42,-223.218"/>
<polygon fill="#000000" stroke="#000000" points="1046.61,-219.807 1037.41,-225.065 1047.88,-226.691 1046.61,-219.807"/>
</g>
<!-- X::IO::Unlink&#45;&gt;Exception -->
<g id="edge33" class="edge"><title>X::IO::Unlink&#45;&gt;Exception</title>
<path fill="none" stroke="#000000" d="M1714.3,-33.2877C1610.04,-72.6904 1299.45,-180 1299.45,-180 1299.45,-180 1137.77,-209.857 1049.5,-224.752"/>
<polygon fill="#000000" stroke="#000000" points="1048.66,-221.344 1039.37,-226.448 1049.82,-228.248 1048.66,-221.344"/>
</g>
</g>
</svg>
