<?xml version="1.0" encoding="UTF-8" standalone="no"?>
<!DOCTYPE svg PUBLIC "-//W3C//DTD SVG 1.1//EN"
 "http://www.w3.org/Graphics/SVG/1.1/DTD/svg11.dtd">
<!-- Generated by graphviz version 2.38.0 (20140413.2041)
 -->
<!-- Title: perl6&#45;type&#45;graph Pages: 1 -->
<svg width="627pt" height="332pt"
 viewBox="0.00 0.00 627.14 332.00" xmlns="http://www.w3.org/2000/svg" xmlns:xlink="http://www.w3.org/1999/xlink">
<g id="graph0" class="graph" transform="scale(1 1) rotate(0) translate(4 328)">
<title>perl6&#45;type&#45;graph</title>
<polygon fill="white" stroke="none" points="-4,4 -4,-328 623.144,-328 623.144,4 -4,4"/>
<!-- Positional -->
<g id="node1" class="node"><title>Positional</title>
<g id="a_node1"><a xlink:href="/type/Positional" xlink:title="Positional">
<ellipse fill="none" stroke="#6666ff" cx="262.397" cy="-162" rx="48.9926" ry="18"/>
<text text-anchor="middle" x="262.397" y="-158.3" font-family="FreeSans" font-size="14.00" fill="#6666ff">Positional</text>
</a>
</g>
</g>
<!-- Stringy -->
<g id="node2" class="node"><title>Stringy</title>
<g id="a_node2"><a xlink:href="/type/Stringy" xlink:title="Stringy">
<ellipse fill="none" stroke="#6666ff" cx="367.397" cy="-162" rx="38.1938" ry="18"/>
<text text-anchor="middle" x="367.397" y="-158.3" font-family="FreeSans" font-size="14.00" fill="#6666ff">Stringy</text>
</a>
</g>
</g>
<!-- Blob -->
<g id="node3" class="node"><title>Blob</title>
<g id="a_node3"><a xlink:href="/type/Blob" xlink:title="Blob">
<ellipse fill="none" stroke="#6666ff" cx="262.397" cy="-90" rx="28.6953" ry="18"/>
<text text-anchor="middle" x="262.397" y="-86.3" font-family="FreeSans" font-size="14.00" fill="#6666ff">Blob</text>
</a>
</g>
</g>
<!-- Blob&#45;&gt;Positional -->
<g id="edge13" class="edge"><title>Blob&#45;&gt;Positional</title>
<path fill="none" stroke="#6666ff" d="M262.397,-108.303C262.397,-116.017 262.397,-125.288 262.397,-133.888"/>
<polygon fill="#6666ff" stroke="#6666ff" points="258.897,-133.896 262.397,-143.896 265.897,-133.896 258.897,-133.896"/>
</g>
<!-- Blob&#45;&gt;Stringy -->
<g id="edge14" class="edge"><title>Blob&#45;&gt;Stringy</title>
<path fill="none" stroke="#6666ff" d="M281.655,-103.839C297.326,-114.286 319.709,-129.208 337.676,-141.186"/>
<polygon fill="#6666ff" stroke="#6666ff" points="335.831,-144.163 346.093,-146.798 339.714,-138.338 335.831,-144.163"/>
</g>
<!-- Mu -->
<g id="node4" class="node"><title>Mu</title>
<g id="a_node4"><a xlink:href="/type/Mu" xlink:title="Mu">
<ellipse fill="none" stroke="#000000" cx="185.397" cy="-306" rx="27" ry="18"/>
<text text-anchor="middle" x="185.397" y="-302.3" font-family="FreeSans" font-size="14.00" fill="#000000">Mu</text>
</a>
</g>
</g>
<!-- Any -->
<g id="node5" class="node"><title>Any</title>
<g id="a_node5"><a xlink:href="/type/Any" xlink:title="Any">
<ellipse fill="none" stroke="#000000" cx="185.397" cy="-234" rx="27" ry="18"/>
<text text-anchor="middle" x="185.397" y="-230.3" font-family="FreeSans" font-size="14.00" fill="#000000">Any</text>
</a>
</g>
</g>
<!-- Any&#45;&gt;Mu -->
<g id="edge1" class="edge"><title>Any&#45;&gt;Mu</title>
<path fill="none" stroke="#000000" d="M185.397,-252.303C185.397,-260.017 185.397,-269.288 185.397,-277.888"/>
<polygon fill="#000000" stroke="#000000" points="181.897,-277.896 185.397,-287.896 188.897,-277.896 181.897,-277.896"/>
</g>
<!-- Cool -->
<g id="node6" class="node"><title>Cool</title>
<g id="a_node6"><a xlink:href="/type/Cool" xlink:title="Cool">
<ellipse fill="none" stroke="#000000" cx="30.3968" cy="-162" rx="28.6953" ry="18"/>
<text text-anchor="middle" x="30.3968" y="-158.3" font-family="FreeSans" font-size="14.00" fill="#000000">Cool</text>
</a>
</g>
</g>
<!-- Cool&#45;&gt;Any -->
<g id="edge2" class="edge"><title>Cool&#45;&gt;Any</title>
<path fill="none" stroke="#000000" d="M52.9351,-173.179C79.6037,-185.223 124.162,-205.345 154.15,-218.888"/>
<polygon fill="#000000" stroke="#000000" points="152.779,-222.11 163.333,-223.036 155.66,-215.73 152.779,-222.11"/>
</g>
<!-- Iterable -->
<g id="node7" class="node"><title>Iterable</title>
<g id="a_node7"><a xlink:href="/type/Iterable" xlink:title="Iterable">
<ellipse fill="none" stroke="#6666ff" cx="117.397" cy="-162" rx="40.0939" ry="18"/>
<text text-anchor="middle" x="117.397" y="-158.3" font-family="FreeSans" font-size="14.00" fill="#6666ff">Iterable</text>
</a>
</g>
</g>
<!-- Range -->
<g id="node8" class="node"><title>Range</title>
<g id="a_node8"><a xlink:href="/type/Range" xlink:title="Range">
<ellipse fill="none" stroke="#000000" cx="36.3968" cy="-90" rx="36.2938" ry="18"/>
<text text-anchor="middle" x="36.3968" y="-86.3" font-family="FreeSans" font-size="14.00" fill="#000000">Range</text>
</a>
</g>
</g>
<!-- Range&#45;&gt;Positional -->
<g id="edge15" class="edge"><title>Range&#45;&gt;Positional</title>
<path fill="none" stroke="#6666ff" d="M64.3842,-101.573C73.5354,-105.03 81.3968,-108 81.3968,-108 81.3968,-108 162.029,-131.61 215.658,-147.314"/>
<polygon fill="#6666ff" stroke="#6666ff" points="214.751,-150.695 225.332,-150.147 216.719,-143.978 214.751,-150.695"/>
</g>
<!-- Range&#45;&gt;Cool -->
<g id="edge3" class="edge"><title>Range&#45;&gt;Cool</title>
<path fill="none" stroke="#000000" d="M34.9136,-108.303C34.2524,-116.017 33.4578,-125.288 32.7207,-133.888"/>
<polygon fill="#000000" stroke="#000000" points="29.2297,-133.633 31.8629,-143.896 36.2042,-134.231 29.2297,-133.633"/>
</g>
<!-- Range&#45;&gt;Iterable -->
<g id="edge16" class="edge"><title>Range&#45;&gt;Iterable</title>
<path fill="none" stroke="#6666ff" d="M53.9726,-106.189C65.0413,-115.755 79.5164,-128.264 91.8429,-138.916"/>
<polygon fill="#6666ff" stroke="#6666ff" points="89.7209,-141.708 99.5756,-145.599 94.2979,-136.412 89.7209,-141.708"/>
</g>
<!-- List -->
<g id="node9" class="node"><title>List</title>
<g id="a_node9"><a xlink:href="/type/List" xlink:title="List">
<ellipse fill="none" stroke="#000000" cx="117.397" cy="-90" rx="27" ry="18"/>
<text text-anchor="middle" x="117.397" y="-86.3" font-family="FreeSans" font-size="14.00" fill="#000000">List</text>
</a>
</g>
</g>
<!-- List&#45;&gt;Positional -->
<g id="edge17" class="edge"><title>List&#45;&gt;Positional</title>
<path fill="none" stroke="#6666ff" d="M138.792,-101.329C161.342,-112.215 197.313,-129.58 224.649,-142.777"/>
<polygon fill="#6666ff" stroke="#6666ff" points="223.395,-146.058 233.922,-147.254 226.439,-139.754 223.395,-146.058"/>
</g>
<!-- List&#45;&gt;Cool -->
<g id="edge4" class="edge"><title>List&#45;&gt;Cool</title>
<path fill="none" stroke="#000000" d="M100.622,-104.497C87.8266,-114.792 69.9938,-129.14 55.5007,-140.801"/>
<polygon fill="#000000" stroke="#000000" points="53.0137,-138.31 47.4166,-147.306 57.4019,-143.764 53.0137,-138.31"/>
</g>
<!-- List&#45;&gt;Iterable -->
<g id="edge18" class="edge"><title>List&#45;&gt;Iterable</title>
<path fill="none" stroke="#6666ff" d="M117.397,-108.303C117.397,-116.017 117.397,-125.288 117.397,-133.888"/>
<polygon fill="#6666ff" stroke="#6666ff" points="113.897,-133.896 117.397,-143.896 120.897,-133.896 113.897,-133.896"/>
</g>
<!-- Uni -->
<g id="node10" class="node"><title>Uni</title>
<g id="a_node10"><a xlink:href="/type/Uni" xlink:title="Uni">
<ellipse fill="none" stroke="#000000" cx="411.397" cy="-90" rx="27" ry="18"/>
<text text-anchor="middle" x="411.397" y="-86.3" font-family="FreeSans" font-size="14.00" fill="#000000">Uni</text>
</a>
</g>
</g>
<!-- Uni&#45;&gt;Positional -->
<g id="edge19" class="edge"><title>Uni&#45;&gt;Positional</title>
<path fill="none" stroke="#6666ff" d="M390.049,-101.029C366.769,-111.966 329.043,-129.69 300.628,-143.039"/>
<polygon fill="#6666ff" stroke="#6666ff" points="298.945,-139.963 291.382,-147.383 301.922,-146.298 298.945,-139.963"/>
</g>
<!-- Uni&#45;&gt;Stringy -->
<g id="edge20" class="edge"><title>Uni&#45;&gt;Stringy</title>
<path fill="none" stroke="#6666ff" d="M401.412,-106.884C396.109,-115.321 389.462,-125.896 383.455,-135.453"/>
<polygon fill="#6666ff" stroke="#6666ff" points="380.314,-133.874 377.955,-144.203 386.24,-137.599 380.314,-133.874"/>
</g>
<!-- Uni&#45;&gt;Any -->
<g id="edge5" class="edge"><title>Uni&#45;&gt;Any</title>
<path fill="none" stroke="#000000" d="M412.363,-108.061C413.239,-123.555 414.397,-144 414.397,-144 414.397,-144 414.397,-180 414.397,-180 414.397,-180 285.188,-209.904 220.882,-224.787"/>
<polygon fill="#000000" stroke="#000000" points="219.732,-221.461 210.779,-227.126 221.31,-228.281 219.732,-221.461"/>
</g>
<!-- Array -->
<g id="node11" class="node"><title>Array</title>
<g id="a_node11"><a xlink:href="/type/Array" xlink:title="Array">
<ellipse fill="none" stroke="#000000" cx="40.3968" cy="-18" rx="31.6951" ry="18"/>
<text text-anchor="middle" x="40.3968" y="-14.3" font-family="FreeSans" font-size="14.00" fill="#000000">Array</text>
</a>
</g>
</g>
<!-- Array&#45;&gt;List -->
<g id="edge6" class="edge"><title>Array&#45;&gt;List</title>
<path fill="none" stroke="#000000" d="M56.7265,-33.8452C67.7354,-43.8533 82.4129,-57.1965 94.5739,-68.2519"/>
<polygon fill="#000000" stroke="#000000" points="92.3842,-70.9915 102.138,-75.1284 97.093,-65.8119 92.3842,-70.9915"/>
</g>
<!-- Slip -->
<g id="node12" class="node"><title>Slip</title>
<g id="a_node12"><a xlink:href="/type/Slip" xlink:title="Slip">
<ellipse fill="none" stroke="#000000" cx="117.397" cy="-18" rx="27" ry="18"/>
<text text-anchor="middle" x="117.397" y="-14.3" font-family="FreeSans" font-size="14.00" fill="#000000">Slip</text>
</a>
</g>
</g>
<!-- Slip&#45;&gt;List -->
<g id="edge7" class="edge"><title>Slip&#45;&gt;List</title>
<path fill="none" stroke="#000000" d="M117.397,-36.3034C117.397,-44.0173 117.397,-53.2875 117.397,-61.8876"/>
<polygon fill="#000000" stroke="#000000" points="113.897,-61.8956 117.397,-71.8957 120.897,-61.8957 113.897,-61.8956"/>
</g>
<!-- NFD -->
<g id="node13" class="node"><title>NFD</title>
<g id="a_node13"><a xlink:href="/type/NFD" xlink:title="NFD">
<ellipse fill="none" stroke="#000000" cx="335.397" cy="-18" rx="29.4969" ry="18"/>
<text text-anchor="middle" x="335.397" y="-14.3" font-family="FreeSans" font-size="14.00" fill="#000000">NFD</text>
</a>
</g>
</g>
<!-- NFD&#45;&gt;Uni -->
<g id="edge8" class="edge"><title>NFD&#45;&gt;Uni</title>
<path fill="none" stroke="#000000" d="M351.144,-33.504C361.986,-43.4905 376.561,-56.9141 388.659,-68.0576"/>
<polygon fill="#000000" stroke="#000000" points="386.462,-70.7918 396.188,-74.9922 391.204,-65.643 386.462,-70.7918"/>
</g>
<!-- NFC -->
<g id="node14" class="node"><title>NFC</title>
<g id="a_node14"><a xlink:href="/type/NFC" xlink:title="NFC">
<ellipse fill="none" stroke="#000000" cx="411.397" cy="-18" rx="29.4969" ry="18"/>
<text text-anchor="middle" x="411.397" y="-14.3" font-family="FreeSans" font-size="14.00" fill="#000000">NFC</text>
</a>
</g>
</g>
<!-- NFC&#45;&gt;Uni -->
<g id="edge9" class="edge"><title>NFC&#45;&gt;Uni</title>
<path fill="none" stroke="#000000" d="M411.397,-36.3034C411.397,-44.0173 411.397,-53.2875 411.397,-61.8876"/>
<polygon fill="#000000" stroke="#000000" points="407.897,-61.8956 411.397,-71.8957 414.897,-61.8957 407.897,-61.8956"/>
</g>
<!-- NFKD -->
<g id="node15" class="node"><title>NFKD</title>
<g id="a_node15"><a xlink:href="/type/NFKD" xlink:title="NFKD">
<ellipse fill="none" stroke="#000000" cx="494.397" cy="-18" rx="35.9954" ry="18"/>
<text text-anchor="middle" x="494.397" y="-14.3" font-family="FreeSans" font-size="14.00" fill="#000000">NFKD</text>
</a>
</g>
</g>
<!-- NFKD&#45;&gt;Uni -->
<g id="edge10" class="edge"><title>NFKD&#45;&gt;Uni</title>
<path fill="none" stroke="#000000" d="M476.795,-33.8452C464.736,-44.015 448.594,-57.6288 435.365,-68.7862"/>
<polygon fill="#000000" stroke="#000000" points="432.954,-66.2405 427.566,-75.3631 437.467,-71.5916 432.954,-66.2405"/>
</g>
<!-- NFKC -->
<g id="node16" class="node"><title>NFKC</title>
<g id="a_node16"><a xlink:href="/type/NFKC" xlink:title="NFKC">
<ellipse fill="none" stroke="#000000" cx="583.397" cy="-18" rx="35.9954" ry="18"/>
<text text-anchor="middle" x="583.397" y="-14.3" font-family="FreeSans" font-size="14.00" fill="#000000">NFKC</text>
</a>
</g>
</g>
<!-- NFKC&#45;&gt;Uni -->
<g id="edge11" class="edge"><title>NFKC&#45;&gt;Uni</title>
<path fill="none" stroke="#000000" d="M556.522,-29.9375C525.954,-42.378 476.07,-62.6795 443.487,-75.94"/>
<polygon fill="#000000" stroke="#000000" points="441.914,-72.8013 433.971,-79.8128 444.553,-79.285 441.914,-72.8013"/>
</g>
<!-- utf8 -->
<g id="node17" class="node"><title>utf8</title>
<g id="a_node17"><a xlink:href="/type/utf8" xlink:title="utf8">
<ellipse fill="none" stroke="#000000" cx="189.397" cy="-18" rx="27" ry="18"/>
<text text-anchor="middle" x="189.397" y="-14.3" font-family="FreeSans" font-size="14.00" fill="#000000">utf8</text>
</a>
</g>
</g>
<!-- utf8&#45;&gt;Blob -->
<g id="edge21" class="edge"><title>utf8&#45;&gt;Blob</title>
<path fill="none" stroke="#6666ff" d="M204.169,-33.1655C214.49,-43.0624 228.456,-56.4538 240.122,-67.6409"/>
<polygon fill="#6666ff" stroke="#6666ff" points="237.755,-70.2203 247.396,-74.6153 242.6,-65.1678 237.755,-70.2203"/>
</g>
<!-- utf8&#45;&gt;Any -->
<g id="edge12" class="edge"><title>utf8&#45;&gt;Any</title>
<path fill="none" stroke="#000000" d="M189.076,-36.1508C188.384,-73.1683 186.746,-160.819 185.909,-205.614"/>
<polygon fill="#000000" stroke="#000000" points="182.406,-205.704 185.719,-215.768 189.405,-205.835 182.406,-205.704"/>
</g>
<!-- Buf -->
<g id="node18" class="node"><title>Buf</title>
<g id="a_node18"><a xlink:href="/type/Buf" xlink:title="Buf">
<ellipse fill="none" stroke="#6666ff" cx="261.397" cy="-18" rx="27" ry="18"/>
<text text-anchor="middle" x="261.397" y="-14.3" font-family="FreeSans" font-size="14.00" fill="#6666ff">Buf</text>
</a>
</g>
</g>
<!-- Buf&#45;&gt;Blob -->
<g id="edge22" class="edge"><title>Buf&#45;&gt;Blob</title>
<path fill="none" stroke="#6666ff" d="M261.644,-36.3034C261.754,-44.0173 261.887,-53.2875 262.009,-61.8876"/>
<polygon fill="#6666ff" stroke="#6666ff" points="258.51,-61.9467 262.152,-71.8957 265.509,-61.8467 258.51,-61.9467"/>
</g>
</g>
</svg>
