<?xml version="1.0" encoding="UTF-8" standalone="no"?>
<!DOCTYPE svg PUBLIC "-//W3C//DTD SVG 1.1//EN"
 "http://www.w3.org/Graphics/SVG/1.1/DTD/svg11.dtd">
<!-- Generated by graphviz version 2.38.0 (20140413.2041)
 -->
<!-- Title: perl6&#45;type&#45;graph Pages: 1 -->
<svg width="2848pt" height="1814pt"
 viewBox="0.00 0.00 2848.20 1814.46" xmlns="http://www.w3.org/2000/svg" xmlns:xlink="http://www.w3.org/1999/xlink">
<g id="graph0" class="graph" transform="scale(1 1) rotate(0) translate(1394.72 892.151)">
<title>perl6&#45;type&#45;graph</title>
<polygon fill="white" stroke="none" points="-1394.72,922.311 -1394.72,-892.151 1453.47,-892.151 1453.47,922.311 -1394.72,922.311"/>
<!-- Metamodel::Documenting -->
<g id="node1" class="node"><title>Metamodel::Documenting</title>
<g id="a_node1"><a xlink:href="/type/Metamodel::Documenting" xlink:title="Metamodel::Documenting">
<ellipse fill="none" stroke="#6666ff" cx="21.9948" cy="428.335" rx="111.28" ry="18"/>
<text text-anchor="middle" x="21.9948" y="432.035" font-family="FreeSans" font-size="14.00" fill="#6666ff">Metamodel::Documenting</text>
</a>
</g>
</g>
<!-- Mu -->
<g id="node2" class="node"><title>Mu</title>
<g id="a_node2"><a xlink:href="/type/Mu" xlink:title="Mu">
<ellipse fill="none" stroke="#000000" cx="1275.01" cy="784.746" rx="27" ry="18"/>
<text text-anchor="middle" x="1275.01" y="788.446" font-family="FreeSans" font-size="14.00" fill="#000000">Mu</text>
</a>
</g>
</g>
<!-- Any -->
<g id="node3" class="node"><title>Any</title>
<g id="a_node3"><a xlink:href="/type/Any" xlink:title="Any">
<ellipse fill="none" stroke="#000000" cx="358.778" cy="417.834" rx="27" ry="18"/>
<text text-anchor="middle" x="358.778" y="421.534" font-family="FreeSans" font-size="14.00" fill="#000000">Any</text>
</a>
</g>
</g>
<!-- Any&#45;&gt;Mu -->
<g id="edge1" class="edge"><title>Any&#45;&gt;Mu</title>
<path fill="none" stroke="#000000" d="M382.347,427.273C507.752,477.492 1096.41,713.223 1242.26,771.629"/>
<polygon fill="#000000" stroke="#000000" points="1243.62,768.403 1251.6,775.37 1241.01,774.901 1243.62,768.403"/>
</g>
<!-- Metamodel::Naming -->
<g id="node4" class="node"><title>Metamodel::Naming</title>
<g id="a_node4"><a xlink:href="/type/Metamodel::Naming" xlink:title="Metamodel::Naming">
<ellipse fill="none" stroke="#6666ff" cx="155.87" cy="102.607" rx="90.1842" ry="18"/>
<text text-anchor="middle" x="155.87" y="106.307" font-family="FreeSans" font-size="14.00" fill="#6666ff">Metamodel::Naming</text>
</a>
</g>
</g>
<!-- Metamodel::Versioning -->
<g id="node5" class="node"><title>Metamodel::Versioning</title>
<g id="a_node5"><a xlink:href="/type/Metamodel::Versioning" xlink:title="Metamodel::Versioning">
<ellipse fill="none" stroke="#6666ff" cx="-109.469" cy="66.7426" rx="100.983" ry="18"/>
<text text-anchor="middle" x="-109.469" y="70.4426" font-family="FreeSans" font-size="14.00" fill="#6666ff">Metamodel::Versioning</text>
</a>
</g>
</g>
<!-- Metamodel::Stashing -->
<g id="node6" class="node"><title>Metamodel::Stashing</title>
<g id="a_node6"><a xlink:href="/type/Metamodel::Stashing" xlink:title="Metamodel::Stashing">
<ellipse fill="none" stroke="#6666ff" cx="-299.639" cy="418.473" rx="93.6835" ry="18"/>
<text text-anchor="middle" x="-299.639" y="422.173" font-family="FreeSans" font-size="14.00" fill="#6666ff">Metamodel::Stashing</text>
</a>
</g>
</g>
<!-- Metamodel::TypePretense -->
<g id="node7" class="node"><title>Metamodel::TypePretense</title>
<g id="a_node7"><a xlink:href="/type/Metamodel::TypePretense" xlink:title="Metamodel::TypePretense">
<ellipse fill="none" stroke="#6666ff" cx="-1236.21" cy="849.097" rx="114.28" ry="18"/>
<text text-anchor="middle" x="-1236.21" y="852.797" font-family="FreeSans" font-size="14.00" fill="#6666ff">Metamodel::TypePretense</text>
</a>
</g>
</g>
<!-- Metamodel::MethodDelegation -->
<g id="node8" class="node"><title>Metamodel::MethodDelegation</title>
<g id="a_node8"><a xlink:href="/type/Metamodel::MethodDelegation" xlink:title="Metamodel::MethodDelegation">
<ellipse fill="none" stroke="#6666ff" cx="-171.995" cy="900.311" rx="131.077" ry="18"/>
<text text-anchor="middle" x="-171.995" y="904.011" font-family="FreeSans" font-size="14.00" fill="#6666ff">Metamodel::MethodDelegation</text>
</a>
</g>
</g>
<!-- Metamodel::ModuleHOW -->
<g id="node9" class="node"><title>Metamodel::ModuleHOW</title>
<g id="a_node9"><a xlink:href="/type/Metamodel::ModuleHOW" xlink:title="Metamodel::ModuleHOW">
<ellipse fill="none" stroke="#000000" cx="-604.857" cy="873.247" rx="111.28" ry="18"/>
<text text-anchor="middle" x="-604.857" y="876.947" font-family="FreeSans" font-size="14.00" fill="#000000">Metamodel::ModuleHOW</text>
</a>
</g>
</g>
<!-- Metamodel::ModuleHOW&#45;&gt;Metamodel::Documenting -->
<g id="edge9" class="edge"><title>Metamodel::ModuleHOW&#45;&gt;Metamodel::Documenting</title>
<path fill="none" stroke="#6666ff" d="M-579.897,855.531C-481.805,785.91 -122.702,531.034 -11.2353,451.92"/>
<polygon fill="#6666ff" stroke="#6666ff" points="-13.2173,449.035 -3.03673,446.101 -9.16574,454.743 -13.2173,449.035"/>
</g>
<!-- Metamodel::ModuleHOW&#45;&gt;Any -->
<g id="edge2" class="edge"><title>Metamodel::ModuleHOW&#45;&gt;Any</title>
<path fill="none" stroke="#000000" d="M-568.55,856.088C-414.601,783.332 182.956,500.927 327.275,432.722"/>
<polygon fill="#000000" stroke="#000000" points="325.958,429.474 336.495,428.365 328.949,435.802 325.958,429.474"/>
</g>
<!-- Metamodel::ModuleHOW&#45;&gt;Metamodel::Naming -->
<g id="edge8" class="edge"><title>Metamodel::ModuleHOW&#45;&gt;Metamodel::Naming</title>
<path fill="none" stroke="#6666ff" d="M-587.173,855.332C-486.54,753.388 13.5499,246.781 131.101,127.698"/>
<polygon fill="#6666ff" stroke="#6666ff" points="128.766,125.081 138.282,120.423 133.748,129.999 128.766,125.081"/>
</g>
<!-- Metamodel::ModuleHOW&#45;&gt;Metamodel::Versioning -->
<g id="edge10" class="edge"><title>Metamodel::ModuleHOW&#45;&gt;Metamodel::Versioning</title>
<path fill="none" stroke="#6666ff" d="M-596.495,855.139C-557.432,770.56 -394.831,418.491 -394.831,418.491 -394.831,418.491 -196.854,174.457 -130.702,92.9159"/>
<polygon fill="#6666ff" stroke="#6666ff" points="-133.03,90.2302 -124.012,84.6694 -127.594,94.6403 -133.03,90.2302"/>
</g>
<!-- Metamodel::ModuleHOW&#45;&gt;Metamodel::Stashing -->
<g id="edge11" class="edge"><title>Metamodel::ModuleHOW&#45;&gt;Metamodel::Stashing</title>
<path fill="none" stroke="#6666ff" d="M-592.704,855.139C-545.421,784.687 -373.584,528.651 -317.487,445.066"/>
<polygon fill="#6666ff" stroke="#6666ff" points="-320.306,442.986 -311.827,436.633 -314.494,446.887 -320.306,442.986"/>
</g>
<!-- Metamodel::ModuleHOW&#45;&gt;Metamodel::TypePretense -->
<g id="edge12" class="edge"><title>Metamodel::ModuleHOW&#45;&gt;Metamodel::TypePretense</title>
<path fill="none" stroke="#6666ff" d="M-713.032,869.109C-824.739,864.836 -998.683,858.182 -1114.97,853.734"/>
<polygon fill="#6666ff" stroke="#6666ff" points="-1115.13,857.231 -1124.99,853.351 -1114.86,850.236 -1115.13,857.231"/>
</g>
<!-- Metamodel::ModuleHOW&#45;&gt;Metamodel::MethodDelegation -->
<g id="edge13" class="edge"><title>Metamodel::ModuleHOW&#45;&gt;Metamodel::MethodDelegation</title>
<path fill="none" stroke="#6666ff" d="M-500.901,879.747C-441.067,883.488 -365.35,888.222 -301.652,892.204"/>
<polygon fill="#6666ff" stroke="#6666ff" points="-301.299,888.719 -291.536,892.837 -301.735,895.706 -301.299,888.719"/>
</g>
<!-- Metamodel::MultipleInheritance -->
<g id="node10" class="node"><title>Metamodel::MultipleInheritance</title>
<g id="a_node10"><a xlink:href="/type/Metamodel::MultipleInheritance" xlink:title="Metamodel::MultipleInheritance">
<ellipse fill="none" stroke="#6666ff" cx="431.686" cy="17.4335" rx="133.776" ry="18"/>
<text text-anchor="middle" x="431.686" y="21.1335" font-family="FreeSans" font-size="14.00" fill="#6666ff">Metamodel::MultipleInheritance</text>
</a>
</g>
</g>
<!-- Metamodel::C3MRO -->
<g id="node11" class="node"><title>Metamodel::C3MRO</title>
<g id="a_node11"><a xlink:href="/type/Metamodel::C3MRO" xlink:title="Metamodel::C3MRO">
<ellipse fill="none" stroke="#6666ff" cx="360.637" cy="-363.2" rx="92.0841" ry="18"/>
<text text-anchor="middle" x="360.637" y="-359.5" font-family="FreeSans" font-size="14.00" fill="#6666ff">Metamodel::C3MRO</text>
</a>
</g>
</g>
<!-- Metamodel::MROBasedMethodDispatch -->
<g id="node12" class="node"><title>Metamodel::MROBasedMethodDispatch</title>
<g id="a_node12"><a xlink:href="/type/Metamodel::MROBasedMethodDispatch" xlink:title="Metamodel::MROBasedMethodDispatch">
<ellipse fill="none" stroke="#6666ff" cx="770.529" cy="-229.604" rx="169.77" ry="18"/>
<text text-anchor="middle" x="770.529" y="-225.904" font-family="FreeSans" font-size="14.00" fill="#6666ff">Metamodel::MROBasedMethodDispatch</text>
</a>
</g>
</g>
<!-- Metamodel::MROBasedTypeChecking -->
<g id="node13" class="node"><title>Metamodel::MROBasedTypeChecking</title>
<g id="a_node13"><a xlink:href="/type/Metamodel::MROBasedTypeChecking" xlink:title="Metamodel::MROBasedTypeChecking">
<ellipse fill="none" stroke="#6666ff" cx="1284.99" cy="-708.129" rx="163.271" ry="18"/>
<text text-anchor="middle" x="1284.99" y="-704.429" font-family="FreeSans" font-size="14.00" fill="#6666ff">Metamodel::MROBasedTypeChecking</text>
</a>
</g>
</g>
<!-- Metamodel::NativeHOW -->
<g id="node14" class="node"><title>Metamodel::NativeHOW</title>
<g id="a_node14"><a xlink:href="/type/Metamodel::NativeHOW" xlink:title="Metamodel::NativeHOW">
<ellipse fill="none" stroke="#000000" cx="761.142" cy="305.744" rx="107.482" ry="18"/>
<text text-anchor="middle" x="761.142" y="309.444" font-family="FreeSans" font-size="14.00" fill="#000000">Metamodel::NativeHOW</text>
</a>
</g>
</g>
<!-- Metamodel::NativeHOW&#45;&gt;Metamodel::Documenting -->
<g id="edge15" class="edge"><title>Metamodel::NativeHOW&#45;&gt;Metamodel::Documenting</title>
<path fill="none" stroke="#6666ff" d="M684.825,318.402C546.776,341.297 256.37,389.463 110.117,413.719"/>
<polygon fill="#6666ff" stroke="#6666ff" points="110.277,417.24 99.8396,415.424 109.132,410.335 110.277,417.24"/>
</g>
<!-- Metamodel::NativeHOW&#45;&gt;Any -->
<g id="edge3" class="edge"><title>Metamodel::NativeHOW&#45;&gt;Any</title>
<path fill="none" stroke="#000000" d="M705.618,321.212C621.372,344.681 463.678,388.611 393.73,408.097"/>
<polygon fill="#000000" stroke="#000000" points="394.638,411.477 384.066,410.789 392.76,404.734 394.638,411.477"/>
</g>
<!-- Metamodel::NativeHOW&#45;&gt;Metamodel::Naming -->
<g id="edge14" class="edge"><title>Metamodel::NativeHOW&#45;&gt;Metamodel::Naming</title>
<path fill="none" stroke="#6666ff" d="M713.142,289.634C602.453,252.486 329.784,160.974 211.788,121.373"/>
<polygon fill="#6666ff" stroke="#6666ff" points="210.577,124.659 202.21,118.159 212.804,118.023 210.577,124.659"/>
</g>
<!-- Metamodel::NativeHOW&#45;&gt;Metamodel::Versioning -->
<g id="edge16" class="edge"><title>Metamodel::NativeHOW&#45;&gt;Metamodel::Versioning</title>
<path fill="none" stroke="#6666ff" d="M705.024,290.338C550.598,247.945 119.931,129.718 -44.5144,84.5739"/>
<polygon fill="#6666ff" stroke="#6666ff" points="-45.7717,87.8583 -54.4884,81.8359 -43.9186,81.1081 -45.7717,87.8583"/>
</g>
<!-- Metamodel::NativeHOW&#45;&gt;Metamodel::Stashing -->
<g id="edge17" class="edge"><title>Metamodel::NativeHOW&#45;&gt;Metamodel::Stashing</title>
<path fill="none" stroke="#6666ff" d="M670.242,315.404C470.143,336.668 -6.59195,387.331 -207.671,408.7"/>
<polygon fill="#6666ff" stroke="#6666ff" points="-207.303,412.18 -217.616,409.757 -208.042,405.219 -207.303,412.18"/>
</g>
<!-- Metamodel::NativeHOW&#45;&gt;Metamodel::MultipleInheritance -->
<g id="edge18" class="edge"><title>Metamodel::NativeHOW&#45;&gt;Metamodel::MultipleInheritance</title>
<path fill="none" stroke="#6666ff" d="M740.533,287.709C683.794,238.056 525.196,99.2651 460.11,42.3075"/>
<polygon fill="#6666ff" stroke="#6666ff" points="457.507,44.6812 452.287,35.4618 462.117,39.4134 457.507,44.6812"/>
</g>
<!-- Metamodel::NativeHOW&#45;&gt;Metamodel::C3MRO -->
<g id="edge19" class="edge"><title>Metamodel::NativeHOW&#45;&gt;Metamodel::C3MRO</title>
<path fill="none" stroke="#6666ff" d="M750.222,287.504C694.612,194.621 442.949,-225.718 376.673,-336.415"/>
<polygon fill="#6666ff" stroke="#6666ff" points="373.494,-334.911 371.36,-345.289 379.5,-338.507 373.494,-334.911"/>
</g>
<!-- Metamodel::NativeHOW&#45;&gt;Metamodel::MROBasedMethodDispatch -->
<g id="edge20" class="edge"><title>Metamodel::NativeHOW&#45;&gt;Metamodel::MROBasedMethodDispatch</title>
<path fill="none" stroke="#6666ff" d="M761.46,287.625C762.843,208.748 768.345,-105.046 770.034,-201.35"/>
<polygon fill="#6666ff" stroke="#6666ff" points="766.537,-201.553 770.212,-211.49 773.536,-201.43 766.537,-201.553"/>
</g>
<!-- Metamodel::NativeHOW&#45;&gt;Metamodel::MROBasedTypeChecking -->
<g id="edge21" class="edge"><title>Metamodel::NativeHOW&#45;&gt;Metamodel::MROBasedTypeChecking</title>
<path fill="none" stroke="#6666ff" d="M770.457,287.716C833.256,166.172 1194.63,-533.247 1270.87,-680.801"/>
<polygon fill="#6666ff" stroke="#6666ff" points="1267.96,-682.806 1275.66,-690.084 1274.18,-679.593 1267.96,-682.806"/>
</g>
<!-- Metamodel::SubsetHOW -->
<g id="node15" class="node"><title>Metamodel::SubsetHOW</title>
<g id="a_node15"><a xlink:href="/type/Metamodel::SubsetHOW" xlink:title="Metamodel::SubsetHOW">
<ellipse fill="none" stroke="#000000" cx="654.916" cy="881.282" rx="109.381" ry="18"/>
<text text-anchor="middle" x="654.916" y="884.982" font-family="FreeSans" font-size="14.00" fill="#000000">Metamodel::SubsetHOW</text>
</a>
</g>
</g>
<!-- Metamodel::SubsetHOW&#45;&gt;Metamodel::Documenting -->
<g id="edge23" class="edge"><title>Metamodel::SubsetHOW&#45;&gt;Metamodel::Documenting</title>
<path fill="none" stroke="#6666ff" d="M630.105,863.526C531.428,792.908 166.747,531.926 54.8557,451.851"/>
<polygon fill="#6666ff" stroke="#6666ff" points="52.7297,454.634 46.6345,445.968 56.8035,448.942 52.7297,454.634"/>
</g>
<!-- Metamodel::SubsetHOW&#45;&gt;Any -->
<g id="edge4" class="edge"><title>Metamodel::SubsetHOW&#45;&gt;Any</title>
<path fill="none" stroke="#000000" d="M643.307,863.114C597.337,791.172 427.98,526.133 374.839,442.969"/>
<polygon fill="#000000" stroke="#000000" points="371.801,444.714 369.366,434.403 377.699,440.945 371.801,444.714"/>
</g>
<!-- Metamodel::SubsetHOW&#45;&gt;Metamodel::Naming -->
<g id="edge22" class="edge"><title>Metamodel::SubsetHOW&#45;&gt;Metamodel::Naming</title>
<path fill="none" stroke="#6666ff" d="M642.324,863.383C583.506,779.78 338.67,431.772 338.67,431.772 338.67,431.772 330.179,417.946 330.179,417.946 330.179,417.946 213.4,206.683 171.011,129.997"/>
<polygon fill="#6666ff" stroke="#6666ff" points="167.77,131.369 165.995,120.924 173.896,127.982 167.77,131.369"/>
</g>
<!-- Metamodel::AttributeContainer -->
<g id="node16" class="node"><title>Metamodel::AttributeContainer</title>
<g id="a_node16"><a xlink:href="/type/Metamodel::AttributeContainer" xlink:title="Metamodel::AttributeContainer">
<ellipse fill="none" stroke="#6666ff" cx="-309.707" cy="-324.997" rx="129.977" ry="18"/>
<text text-anchor="middle" x="-309.707" y="-321.297" font-family="FreeSans" font-size="14.00" fill="#6666ff">Metamodel::AttributeContainer</text>
</a>
</g>
</g>
<!-- Metamodel::Finalization -->
<g id="node17" class="node"><title>Metamodel::Finalization</title>
<g id="a_node17"><a xlink:href="/type/Metamodel::Finalization" xlink:title="Metamodel::Finalization">
<ellipse fill="none" stroke="#6666ff" cx="679.771" cy="-806.635" rx="103.982" ry="18"/>
<text text-anchor="middle" x="679.771" y="-802.935" font-family="FreeSans" font-size="14.00" fill="#6666ff">Metamodel::Finalization</text>
</a>
</g>
</g>
<!-- Metamodel::MethodContainer -->
<g id="node18" class="node"><title>Metamodel::MethodContainer</title>
<g id="a_node18"><a xlink:href="/type/Metamodel::MethodContainer" xlink:title="Metamodel::MethodContainer">
<ellipse fill="none" stroke="#6666ff" cx="-1263.33" cy="-223.224" rx="127.277" ry="18"/>
<text text-anchor="middle" x="-1263.33" y="-219.524" font-family="FreeSans" font-size="14.00" fill="#6666ff">Metamodel::MethodContainer</text>
</a>
</g>
</g>
<!-- Metamodel::PrivateMethodContainer -->
<g id="node19" class="node"><title>Metamodel::PrivateMethodContainer</title>
<g id="a_node19"><a xlink:href="/type/Metamodel::PrivateMethodContainer" xlink:title="Metamodel::PrivateMethodContainer">
<ellipse fill="none" stroke="#6666ff" cx="-377.299" cy="48.3747" rx="154.873" ry="18"/>
<text text-anchor="middle" x="-377.299" y="52.0747" font-family="FreeSans" font-size="14.00" fill="#6666ff">Metamodel::PrivateMethodContainer</text>
</a>
</g>
</g>
<!-- Metamodel::MultiMethodContainer -->
<g id="node20" class="node"><title>Metamodel::MultiMethodContainer</title>
<g id="a_node20"><a xlink:href="/type/Metamodel::MultiMethodContainer" xlink:title="Metamodel::MultiMethodContainer">
<ellipse fill="none" stroke="#6666ff" cx="-1244.03" cy="-791.924" rx="146.474" ry="18"/>
<text text-anchor="middle" x="-1244.03" y="-788.224" font-family="FreeSans" font-size="14.00" fill="#6666ff">Metamodel::MultiMethodContainer</text>
</a>
</g>
</g>
<!-- Metamodel::RoleContainer -->
<g id="node21" class="node"><title>Metamodel::RoleContainer</title>
<g id="a_node21"><a xlink:href="/type/Metamodel::RoleContainer" xlink:title="Metamodel::RoleContainer">
<ellipse fill="none" stroke="#6666ff" cx="-652.017" cy="-738.218" rx="115.88" ry="18"/>
<text text-anchor="middle" x="-652.017" y="-734.518" font-family="FreeSans" font-size="14.00" fill="#6666ff">Metamodel::RoleContainer</text>
</a>
</g>
</g>
<!-- Metamodel::DefaultParent -->
<g id="node22" class="node"><title>Metamodel::DefaultParent</title>
<g id="a_node22"><a xlink:href="/type/Metamodel::DefaultParent" xlink:title="Metamodel::DefaultParent">
<ellipse fill="none" stroke="#6666ff" cx="-693.716" cy="-170.842" rx="113.18" ry="18"/>
<text text-anchor="middle" x="-693.716" y="-167.142" font-family="FreeSans" font-size="14.00" fill="#6666ff">Metamodel::DefaultParent</text>
</a>
</g>
</g>
<!-- Metamodel::Trusting -->
<g id="node23" class="node"><title>Metamodel::Trusting</title>
<g id="a_node23"><a xlink:href="/type/Metamodel::Trusting" xlink:title="Metamodel::Trusting">
<ellipse fill="none" stroke="#6666ff" cx="-2.91516" cy="-492.702" rx="91.784" ry="18"/>
<text text-anchor="middle" x="-2.91516" y="-489.002" font-family="FreeSans" font-size="14.00" fill="#6666ff">Metamodel::Trusting</text>
</a>
</g>
</g>
<!-- Metamodel::BUILDPLAN -->
<g id="node24" class="node"><title>Metamodel::BUILDPLAN</title>
<g id="a_node24"><a xlink:href="/type/Metamodel::BUILDPLAN" xlink:title="Metamodel::BUILDPLAN">
<ellipse fill="none" stroke="#6666ff" cx="220.589" cy="-859.609" rx="109.681" ry="18"/>
<text text-anchor="middle" x="220.589" y="-855.909" font-family="FreeSans" font-size="14.00" fill="#6666ff">Metamodel::BUILDPLAN</text>
</a>
</g>
</g>
<!-- Metamodel::Mixins -->
<g id="node25" class="node"><title>Metamodel::Mixins</title>
<g id="a_node25"><a xlink:href="/type/Metamodel::Mixins" xlink:title="Metamodel::Mixins">
<ellipse fill="none" stroke="#6666ff" cx="-243.64" cy="-870.151" rx="85.2851" ry="18"/>
<text text-anchor="middle" x="-243.64" y="-866.451" font-family="FreeSans" font-size="14.00" fill="#6666ff">Metamodel::Mixins</text>
</a>
</g>
</g>
<!-- Metamodel::BoolificationProtocol -->
<g id="node26" class="node"><title>Metamodel::BoolificationProtocol</title>
<g id="a_node26"><a xlink:href="/type/Metamodel::BoolificationProtocol" xlink:title="Metamodel::BoolificationProtocol">
<ellipse fill="none" stroke="#6666ff" cx="1310.39" cy="42.7415" rx="139.175" ry="18"/>
<text text-anchor="middle" x="1310.39" y="46.4415" font-family="FreeSans" font-size="14.00" fill="#6666ff">Metamodel::BoolificationProtocol</text>
</a>
</g>
</g>
<!-- Metamodel::ClassHOW -->
<g id="node27" class="node"><title>Metamodel::ClassHOW</title>
<g id="a_node27"><a xlink:href="/type/Metamodel::ClassHOW" xlink:title="Metamodel::ClassHOW">
<ellipse fill="none" stroke="#000000" cx="50.5765" cy="-184.008" rx="103.982" ry="18"/>
<text text-anchor="middle" x="50.5765" y="-180.308" font-family="FreeSans" font-size="14.00" fill="#000000">Metamodel::ClassHOW</text>
</a>
</g>
</g>
<!-- Metamodel::ClassHOW&#45;&gt;Metamodel::Documenting -->
<g id="edge25" class="edge"><title>Metamodel::ClassHOW&#45;&gt;Metamodel::Documenting</title>
<path fill="none" stroke="#6666ff" d="M49.7211,-165.682C45.6572,-78.6176 28.2926,293.408 23.3263,399.806"/>
<polygon fill="#6666ff" stroke="#6666ff" points="26.8094,400.254 22.8468,410.08 19.817,399.928 26.8094,400.254"/>
</g>
<!-- Metamodel::ClassHOW&#45;&gt;Any -->
<g id="edge5" class="edge"><title>Metamodel::ClassHOW&#45;&gt;Any</title>
<path fill="none" stroke="#000000" d="M62.9143,-166.085C106.094,-103.36 247.811,102.507 247.811,102.507 247.811,102.507 322.191,313.866 349.159,390.501"/>
<polygon fill="#000000" stroke="#000000" points="352.476,389.382 352.494,399.977 345.873,391.706 352.476,389.382"/>
</g>
<!-- Metamodel::ClassHOW&#45;&gt;Metamodel::Naming -->
<g id="edge24" class="edge"><title>Metamodel::ClassHOW&#45;&gt;Metamodel::Naming</title>
<path fill="none" stroke="#6666ff" d="M57.3232,-165.643C75.2642,-116.807 124.237,16.501 145.636,74.749"/>
<polygon fill="#6666ff" stroke="#6666ff" points="149.016,73.801 149.179,84.3946 142.446,76.2149 149.016,73.801"/>
</g>
<!-- Metamodel::ClassHOW&#45;&gt;Metamodel::Versioning -->
<g id="edge26" class="edge"><title>Metamodel::ClassHOW&#45;&gt;Metamodel::Versioning</title>
<path fill="none" stroke="#6666ff" d="M39.0664,-165.975C11.277,-122.436 -59.6024,-11.3856 -92.3746,39.9603"/>
<polygon fill="#6666ff" stroke="#6666ff" points="-89.5175,41.9894 -97.848,48.5357 -95.4181,38.2232 -89.5175,41.9894"/>
</g>
<!-- Metamodel::ClassHOW&#45;&gt;Metamodel::Stashing -->
<g id="edge27" class="edge"><title>Metamodel::ClassHOW&#45;&gt;Metamodel::Stashing</title>
<path fill="none" stroke="#6666ff" d="M46.4265,-165.978C33.1954,-108.492 -7.12793,66.7027 -7.12793,66.7027 -7.12793,66.7027 -210.887,311.741 -278.284,392.791"/>
<polygon fill="#6666ff" stroke="#6666ff" points="-275.647,395.094 -284.732,400.545 -281.029,390.618 -275.647,395.094"/>
</g>
<!-- Metamodel::ClassHOW&#45;&gt;Metamodel::MultipleInheritance -->
<g id="edge34" class="edge"><title>Metamodel::ClassHOW&#45;&gt;Metamodel::MultipleInheritance</title>
<path fill="none" stroke="#6666ff" d="M83.0696,-166.833C152,-130.399 312.831,-45.3893 389.536,-4.84549"/>
<polygon fill="#6666ff" stroke="#6666ff" points="391.256,-7.89524 398.461,-0.127804 387.985,-1.70655 391.256,-7.89524"/>
</g>
<!-- Metamodel::ClassHOW&#45;&gt;Metamodel::C3MRO -->
<g id="edge36" class="edge"><title>Metamodel::ClassHOW&#45;&gt;Metamodel::C3MRO</title>
<path fill="none" stroke="#6666ff" d="M80.5881,-201.353C137.226,-234.085 259.784,-304.914 322.292,-341.039"/>
<polygon fill="#6666ff" stroke="#6666ff" points="320.654,-344.135 331.064,-346.108 324.157,-338.074 320.654,-344.135"/>
</g>
<!-- Metamodel::ClassHOW&#45;&gt;Metamodel::MROBasedMethodDispatch -->
<g id="edge37" class="edge"><title>Metamodel::ClassHOW&#45;&gt;Metamodel::MROBasedMethodDispatch</title>
<path fill="none" stroke="#6666ff" d="M148.422,-190.205C268.287,-197.796 472.843,-210.751 614.506,-219.723"/>
<polygon fill="#6666ff" stroke="#6666ff" points="614.394,-223.223 624.595,-220.362 614.837,-216.237 614.394,-223.223"/>
</g>
<!-- Metamodel::ClassHOW&#45;&gt;Metamodel::MROBasedTypeChecking -->
<g id="edge38" class="edge"><title>Metamodel::ClassHOW&#45;&gt;Metamodel::MROBasedTypeChecking</title>
<path fill="none" stroke="#6666ff" d="M89.9034,-200.706C271.769,-277.925 1031.04,-600.305 1234.59,-686.731"/>
<polygon fill="#6666ff" stroke="#6666ff" points="1233.29,-689.98 1243.86,-690.667 1236.02,-683.537 1233.29,-689.98"/>
</g>
<!-- Metamodel::ClassHOW&#45;&gt;Metamodel::AttributeContainer -->
<g id="edge28" class="edge"><title>Metamodel::ClassHOW&#45;&gt;Metamodel::AttributeContainer</title>
<path fill="none" stroke="#6666ff" d="M8.1879,-200.596C-57.7682,-226.406 -184.836,-276.132 -256.737,-304.269"/>
<polygon fill="#6666ff" stroke="#6666ff" points="-258.041,-301.02 -266.078,-307.924 -255.49,-307.539 -258.041,-301.02"/>
</g>
<!-- Metamodel::ClassHOW&#45;&gt;Metamodel::Finalization -->
<g id="edge29" class="edge"><title>Metamodel::ClassHOW&#45;&gt;Metamodel::Finalization</title>
<path fill="none" stroke="#6666ff" d="M68.7285,-201.971C158.07,-290.38 550.947,-679.156 654.616,-781.744"/>
<polygon fill="#6666ff" stroke="#6666ff" points="652.277,-784.352 661.847,-788.899 657.2,-779.377 652.277,-784.352"/>
</g>
<!-- Metamodel::ClassHOW&#45;&gt;Metamodel::MethodContainer -->
<g id="edge30" class="edge"><title>Metamodel::ClassHOW&#45;&gt;Metamodel::MethodContainer</title>
<path fill="none" stroke="#6666ff" d="M-51.9767,-187.069C-287.064,-194.086 -864.834,-211.33 -1128.37,-219.196"/>
<polygon fill="#6666ff" stroke="#6666ff" points="-1128.49,-215.697 -1138.38,-219.494 -1128.28,-222.694 -1128.49,-215.697"/>
</g>
<!-- Metamodel::ClassHOW&#45;&gt;Metamodel::PrivateMethodContainer -->
<g id="edge31" class="edge"><title>Metamodel::ClassHOW&#45;&gt;Metamodel::PrivateMethodContainer</title>
<path fill="none" stroke="#6666ff" d="M18.7658,-166.732C-57.4752,-125.324 -250.611,-20.4307 -335.82,25.8473"/>
<polygon fill="#6666ff" stroke="#6666ff" points="-334.236,28.9697 -344.694,30.6667 -337.577,22.8183 -334.236,28.9697"/>
</g>
<!-- Metamodel::ClassHOW&#45;&gt;Metamodel::MultiMethodContainer -->
<g id="edge32" class="edge"><title>Metamodel::ClassHOW&#45;&gt;Metamodel::MultiMethodContainer</title>
<path fill="none" stroke="#6666ff" d="M22.0737,-201.602C-39.2336,-239.446 -178.124,-325.181 -178.124,-325.181 -178.124,-325.181 -985.674,-678.793 -1194.97,-770.441"/>
<polygon fill="#6666ff" stroke="#6666ff" points="-1196.44,-767.262 -1204.19,-774.479 -1193.63,-773.674 -1196.44,-767.262"/>
</g>
<!-- Metamodel::ClassHOW&#45;&gt;Metamodel::RoleContainer -->
<g id="edge33" class="edge"><title>Metamodel::ClassHOW&#45;&gt;Metamodel::RoleContainer</title>
<path fill="none" stroke="#6666ff" d="M27.9957,-201.82C-75.3385,-283.331 -503.163,-620.802 -621.54,-714.178"/>
<polygon fill="#6666ff" stroke="#6666ff" points="-623.836,-711.531 -629.52,-720.473 -619.501,-717.027 -623.836,-711.531"/>
</g>
<!-- Metamodel::ClassHOW&#45;&gt;Metamodel::DefaultParent -->
<g id="edge35" class="edge"><title>Metamodel::ClassHOW&#45;&gt;Metamodel::DefaultParent</title>
<path fill="none" stroke="#6666ff" d="M-52.9142,-182.178C-188.563,-179.778 -426.18,-175.575 -570.821,-173.016"/>
<polygon fill="#6666ff" stroke="#6666ff" points="-571.012,-169.512 -581.072,-172.835 -571.135,-176.511 -571.012,-169.512"/>
</g>
<!-- Metamodel::ClassHOW&#45;&gt;Metamodel::Trusting -->
<g id="edge39" class="edge"><title>Metamodel::ClassHOW&#45;&gt;Metamodel::Trusting</title>
<path fill="none" stroke="#6666ff" d="M47.3905,-202.394C38.3968,-254.296 12.7673,-402.2 1.97254,-464.496"/>
<polygon fill="#6666ff" stroke="#6666ff" points="-1.48704,-463.962 0.254097,-474.413 5.41018,-465.157 -1.48704,-463.962"/>
</g>
<!-- Metamodel::ClassHOW&#45;&gt;Metamodel::BUILDPLAN -->
<g id="edge40" class="edge"><title>Metamodel::ClassHOW&#45;&gt;Metamodel::BUILDPLAN</title>
<path fill="none" stroke="#6666ff" d="M55.1239,-202.079C78.4767,-294.879 184.933,-717.916 213.511,-831.48"/>
<polygon fill="#6666ff" stroke="#6666ff" points="210.193,-832.639 216.028,-841.482 216.982,-830.93 210.193,-832.639"/>
</g>
<!-- Metamodel::ClassHOW&#45;&gt;Metamodel::Mixins -->
<g id="edge41" class="edge"><title>Metamodel::ClassHOW&#45;&gt;Metamodel::Mixins</title>
<path fill="none" stroke="#6666ff" d="M41.8371,-202.391C10.2481,-268.838 -96.1568,-492.657 -96.1568,-492.657 -96.1568,-492.657 -198.779,-755.326 -232.817,-842.448"/>
<polygon fill="#6666ff" stroke="#6666ff" points="-236.148,-841.356 -236.527,-851.944 -229.628,-843.903 -236.148,-841.356"/>
</g>
<!-- Metamodel::ClassHOW&#45;&gt;Metamodel::BoolificationProtocol -->
<g id="edge42" class="edge"><title>Metamodel::ClassHOW&#45;&gt;Metamodel::BoolificationProtocol</title>
<path fill="none" stroke="#6666ff" d="M122.834,-171.003C338.93,-132.108 980.014,-16.7212 1219.12,26.3149"/>
<polygon fill="#6666ff" stroke="#6666ff" points="1219.95,22.908 1229.17,28.1241 1218.71,29.7973 1219.95,22.908"/>
</g>
<!-- Metamodel::RolePunning -->
<g id="node28" class="node"><title>Metamodel::RolePunning</title>
<g id="a_node28"><a xlink:href="/type/Metamodel::RolePunning" xlink:title="Metamodel::RolePunning">
<ellipse fill="none" stroke="#6666ff" cx="-1274.32" cy="267.789" rx="109.681" ry="18"/>
<text text-anchor="middle" x="-1274.32" y="271.489" font-family="FreeSans" font-size="14.00" fill="#6666ff">Metamodel::RolePunning</text>
</a>
</g>
</g>
<!-- Metamodel::ParametricRoleHOW -->
<g id="node29" class="node"><title>Metamodel::ParametricRoleHOW</title>
<g id="a_node29"><a xlink:href="/type/Metamodel::ParametricRoleHOW" xlink:title="Metamodel::ParametricRoleHOW">
<ellipse fill="none" stroke="#000000" cx="-694.648" cy="323.794" rx="142.175" ry="18"/>
<text text-anchor="middle" x="-694.648" y="327.494" font-family="FreeSans" font-size="14.00" fill="#000000">Metamodel::ParametricRoleHOW</text>
</a>
</g>
</g>
<!-- Metamodel::ParametricRoleHOW&#45;&gt;Metamodel::Documenting -->
<g id="edge44" class="edge"><title>Metamodel::ParametricRoleHOW&#45;&gt;Metamodel::Documenting</title>
<path fill="none" stroke="#6666ff" d="M-601.327,337.407C-463.758,357.475 -208.037,394.779 -70.7808,414.801"/>
<polygon fill="#6666ff" stroke="#6666ff" points="-70.0926,411.364 -60.7026,416.271 -71.1031,418.291 -70.0926,411.364"/>
</g>
<!-- Metamodel::ParametricRoleHOW&#45;&gt;Any -->
<g id="edge6" class="edge"><title>Metamodel::ParametricRoleHOW&#45;&gt;Any</title>
<path fill="none" stroke="#000000" d="M-578.142,334.195C-342.839,355.2 178.868,401.773 321.895,414.541"/>
<polygon fill="#000000" stroke="#000000" points="322.262,411.06 331.911,415.436 321.64,418.033 322.262,411.06"/>
</g>
<!-- Metamodel::ParametricRoleHOW&#45;&gt;Metamodel::Naming -->
<g id="edge43" class="edge"><title>Metamodel::ParametricRoleHOW&#45;&gt;Metamodel::Naming</title>
<path fill="none" stroke="#6666ff" d="M-632.108,307.53C-475.666,266.845 -68.5547,160.971 90.6781,119.561"/>
<polygon fill="#6666ff" stroke="#6666ff" points="90.2437,116.057 100.803,116.928 92.0056,122.832 90.2437,116.057"/>
</g>
<!-- Metamodel::ParametricRoleHOW&#45;&gt;Metamodel::Versioning -->
<g id="edge45" class="edge"><title>Metamodel::ParametricRoleHOW&#45;&gt;Metamodel::Versioning</title>
<path fill="none" stroke="#6666ff" d="M-654.887,306.328C-550.654,260.542 -269.806,137.174 -157.166,87.6943"/>
<polygon fill="#6666ff" stroke="#6666ff" points="-158.317,84.3774 -147.754,83.56 -155.502,90.7863 -158.317,84.3774"/>
</g>
<!-- Metamodel::ParametricRoleHOW&#45;&gt;Metamodel::Stashing -->
<g id="edge52" class="edge"><title>Metamodel::ParametricRoleHOW&#45;&gt;Metamodel::Stashing</title>
<path fill="none" stroke="#6666ff" d="M-628.087,339.748C-555.954,357.038 -441.409,384.493 -368.42,401.987"/>
<polygon fill="#6666ff" stroke="#6666ff" points="-367.314,398.653 -358.405,404.388 -368.945,405.46 -367.314,398.653"/>
</g>
<!-- Metamodel::ParametricRoleHOW&#45;&gt;Metamodel::TypePretense -->
<g id="edge53" class="edge"><title>Metamodel::ParametricRoleHOW&#45;&gt;Metamodel::TypePretense</title>
<path fill="none" stroke="#6666ff" d="M-713.29,341.876C-794.336,420.489 -1116.19,732.685 -1210.26,823.929"/>
<polygon fill="#6666ff" stroke="#6666ff" points="-1208.03,826.64 -1217.65,831.091 -1212.9,821.616 -1208.03,826.64"/>
</g>
<!-- Metamodel::ParametricRoleHOW&#45;&gt;Metamodel::MultipleInheritance -->
<g id="edge51" class="edge"><title>Metamodel::ParametricRoleHOW&#45;&gt;Metamodel::MultipleInheritance</title>
<path fill="none" stroke="#6666ff" d="M-639.124,307.178C-460.072,253.593 90.5267,88.8182 90.5267,88.8182 90.5267,88.8182 248.056,55.8564 349.026,34.7293"/>
<polygon fill="#6666ff" stroke="#6666ff" points="348.412,31.282 358.917,32.6597 349.846,38.1337 348.412,31.282"/>
</g>
<!-- Metamodel::ParametricRoleHOW&#45;&gt;Metamodel::AttributeContainer -->
<g id="edge49" class="edge"><title>Metamodel::ParametricRoleHOW&#45;&gt;Metamodel::AttributeContainer</title>
<path fill="none" stroke="#6666ff" d="M-684.081,305.724C-648.248,244.454 -533.585,48.3908 -533.585,48.3908 -533.585,48.3908 -376.855,-213.006 -325.668,-298.378"/>
<polygon fill="#6666ff" stroke="#6666ff" points="-328.649,-300.211 -320.505,-306.988 -322.646,-296.612 -328.649,-300.211"/>
</g>
<!-- Metamodel::ParametricRoleHOW&#45;&gt;Metamodel::MethodContainer -->
<g id="edge46" class="edge"><title>Metamodel::ParametricRoleHOW&#45;&gt;Metamodel::MethodContainer</title>
<path fill="none" stroke="#6666ff" d="M-713.246,305.905C-797.023,225.32 -1139.5,-104.108 -1237.2,-198.087"/>
<polygon fill="#6666ff" stroke="#6666ff" points="-1239.81,-195.74 -1244.59,-205.195 -1234.96,-200.785 -1239.81,-195.74"/>
</g>
<!-- Metamodel::ParametricRoleHOW&#45;&gt;Metamodel::PrivateMethodContainer -->
<g id="edge47" class="edge"><title>Metamodel::ParametricRoleHOW&#45;&gt;Metamodel::PrivateMethodContainer</title>
<path fill="none" stroke="#6666ff" d="M-673.826,305.723C-618.683,257.866 -468.786,127.774 -405.79,73.1012"/>
<polygon fill="#6666ff" stroke="#6666ff" points="-408.044,70.4235 -398.198,66.5123 -403.456,75.7102 -408.044,70.4235"/>
</g>
<!-- Metamodel::ParametricRoleHOW&#45;&gt;Metamodel::MultiMethodContainer -->
<g id="edge48" class="edge"><title>Metamodel::ParametricRoleHOW&#45;&gt;Metamodel::MultiMethodContainer</title>
<path fill="none" stroke="#6666ff" d="M-703.5,305.817C-767.037,176.783 -1153.31,-607.689 -1230.59,-764.615"/>
<polygon fill="#6666ff" stroke="#6666ff" points="-1233.75,-763.117 -1235.03,-773.635 -1227.47,-766.209 -1233.75,-763.117"/>
</g>
<!-- Metamodel::ParametricRoleHOW&#45;&gt;Metamodel::RoleContainer -->
<g id="edge50" class="edge"><title>Metamodel::ParametricRoleHOW&#45;&gt;Metamodel::RoleContainer</title>
<path fill="none" stroke="#6666ff" d="M-690.396,305.596C-669.538,216.324 -579.031,-171.029 -579.031,-171.029 -579.031,-171.029 -633.601,-595.105 -648.369,-709.873"/>
<polygon fill="#6666ff" stroke="#6666ff" points="-651.866,-709.624 -649.671,-719.989 -644.923,-710.518 -651.866,-709.624"/>
</g>
<!-- Metamodel::ParametricRoleHOW&#45;&gt;Metamodel::RolePunning -->
<g id="edge54" class="edge"><title>Metamodel::ParametricRoleHOW&#45;&gt;Metamodel::RolePunning</title>
<path fill="none" stroke="#6666ff" d="M-807.791,312.863C-912.696,302.727 -1067.54,287.767 -1169.65,277.902"/>
<polygon fill="#6666ff" stroke="#6666ff" points="-1170.05,281.379 -1179.67,276.934 -1169.38,274.412 -1170.05,281.379"/>
</g>
<!-- Metamodel::PackageHOW -->
<g id="node30" class="node"><title>Metamodel::PackageHOW</title>
<g id="a_node30"><a xlink:href="/type/Metamodel::PackageHOW" xlink:title="Metamodel::PackageHOW">
<ellipse fill="none" stroke="#000000" cx="210.323" cy="897.038" rx="116.18" ry="18"/>
<text text-anchor="middle" x="210.323" y="900.738" font-family="FreeSans" font-size="14.00" fill="#000000">Metamodel::PackageHOW</text>
</a>
</g>
</g>
<!-- Metamodel::PackageHOW&#45;&gt;Metamodel::Documenting -->
<g id="edge56" class="edge"><title>Metamodel::PackageHOW&#45;&gt;Metamodel::Documenting</title>
<path fill="none" stroke="#6666ff" d="M203.055,878.951C174.217,807.18 67.7337,542.168 33.0173,455.767"/>
<polygon fill="#6666ff" stroke="#6666ff" points="29.7212,456.951 29.2404,446.367 36.2164,454.341 29.7212,456.951"/>
</g>
<!-- Metamodel::PackageHOW&#45;&gt;Any -->
<g id="edge7" class="edge"><title>Metamodel::PackageHOW&#45;&gt;Any</title>
<path fill="none" stroke="#000000" d="M215.961,878.838C238.609,805.732 323.047,533.171 350.265,445.315"/>
<polygon fill="#000000" stroke="#000000" points="346.99,444.059 353.292,435.543 353.676,446.13 346.99,444.059"/>
</g>
<!-- Metamodel::PackageHOW&#45;&gt;Metamodel::Naming -->
<g id="edge55" class="edge"><title>Metamodel::PackageHOW&#45;&gt;Metamodel::Naming</title>
<path fill="none" stroke="#6666ff" d="M209.083,878.953C201.984,775.383 166.501,257.702 157.799,130.749"/>
<polygon fill="#6666ff" stroke="#6666ff" points="154.3,130.88 157.108,120.664 161.283,130.401 154.3,130.88"/>
</g>
<!-- Metamodel::PackageHOW&#45;&gt;Metamodel::Stashing -->
<g id="edge57" class="edge"><title>Metamodel::PackageHOW&#45;&gt;Metamodel::Stashing</title>
<path fill="none" stroke="#6666ff" d="M191.262,879.151C113.077,805.779 -183.172,527.77 -273.401,443.097"/>
<polygon fill="#6666ff" stroke="#6666ff" points="-275.857,445.591 -280.754,436.196 -271.067,440.486 -275.857,445.591"/>
</g>
<!-- Metamodel::PackageHOW&#45;&gt;Metamodel::TypePretense -->
<g id="edge58" class="edge"><title>Metamodel::PackageHOW&#45;&gt;Metamodel::TypePretense</title>
<path fill="none" stroke="#6666ff" d="M100.268,891.186C-122.475,879.342 -605.714,853.647 -605.714,853.647 -605.714,853.647 -927.606,851.324 -1111.39,849.998"/>
<polygon fill="#6666ff" stroke="#6666ff" points="-1111.69,853.496 -1121.67,849.923 -1111.64,846.496 -1111.69,853.496"/>
</g>
<!-- Metamodel::PackageHOW&#45;&gt;Metamodel::MethodDelegation -->
<g id="edge59" class="edge"><title>Metamodel::PackageHOW&#45;&gt;Metamodel::MethodDelegation</title>
<path fill="none" stroke="#6666ff" d="M94.0577,898.033C54.6848,898.37 10.2767,898.75 -30.817,899.102"/>
<polygon fill="#6666ff" stroke="#6666ff" points="-30.88,902.603 -40.9096,899.189 -30.9399,895.603 -30.88,902.603"/>
</g>
</g>
</svg>
