<?xml version="1.0" encoding="UTF-8" standalone="no"?>
<!DOCTYPE svg PUBLIC "-//W3C//DTD SVG 1.1//EN"
 "http://www.w3.org/Graphics/SVG/1.1/DTD/svg11.dtd">
<!-- Generated by graphviz version 2.38.0 (20140413.2041)
 -->
<!-- Title: perl6&#45;type&#45;graph Pages: 1 -->
<svg width="621pt" height="404pt"
 viewBox="0.00 0.00 621.24 404.00" xmlns="http://www.w3.org/2000/svg" xmlns:xlink="http://www.w3.org/1999/xlink">
<g id="graph0" class="graph" transform="scale(1 1) rotate(0) translate(4 400)">
<title>perl6&#45;type&#45;graph</title>
<polygon fill="white" stroke="none" points="-4,4 -4,-400 617.237,-400 617.237,4 -4,4"/>
<!-- Iterable -->
<g id="node1" class="node"><title>Iterable</title>
<g id="a_node1"><a xlink:href="/type/Iterable" xlink:title="Iterable">
<ellipse fill="none" stroke="#6666ff" cx="230.746" cy="-234" rx="40.0939" ry="18"/>
<text text-anchor="middle" x="230.746" y="-230.3" font-family="FreeSans" font-size="14.00" fill="#6666ff">Iterable</text>
</a>
</g>
</g>
<!-- Mu -->
<g id="node2" class="node"><title>Mu</title>
<g id="a_node2"><a xlink:href="/type/Mu" xlink:title="Mu">
<ellipse fill="none" stroke="#000000" cx="143.746" cy="-378" rx="27" ry="18"/>
<text text-anchor="middle" x="143.746" y="-374.3" font-family="FreeSans" font-size="14.00" fill="#000000">Mu</text>
</a>
</g>
</g>
<!-- Any -->
<g id="node3" class="node"><title>Any</title>
<g id="a_node3"><a xlink:href="/type/Any" xlink:title="Any">
<ellipse fill="none" stroke="#000000" cx="143.746" cy="-306" rx="27" ry="18"/>
<text text-anchor="middle" x="143.746" y="-302.3" font-family="FreeSans" font-size="14.00" fill="#000000">Any</text>
</a>
</g>
</g>
<!-- Any&#45;&gt;Mu -->
<g id="edge1" class="edge"><title>Any&#45;&gt;Mu</title>
<path fill="none" stroke="#000000" d="M143.746,-324.303C143.746,-332.017 143.746,-341.288 143.746,-349.888"/>
<polygon fill="#000000" stroke="#000000" points="140.246,-349.896 143.746,-359.896 147.246,-349.896 140.246,-349.896"/>
</g>
<!-- Cool -->
<g id="node4" class="node"><title>Cool</title>
<g id="a_node4"><a xlink:href="/type/Cool" xlink:title="Cool">
<ellipse fill="none" stroke="#000000" cx="143.746" cy="-234" rx="28.6953" ry="18"/>
<text text-anchor="middle" x="143.746" y="-230.3" font-family="FreeSans" font-size="14.00" fill="#000000">Cool</text>
</a>
</g>
</g>
<!-- Cool&#45;&gt;Any -->
<g id="edge2" class="edge"><title>Cool&#45;&gt;Any</title>
<path fill="none" stroke="#000000" d="M143.746,-252.303C143.746,-260.017 143.746,-269.288 143.746,-277.888"/>
<polygon fill="#000000" stroke="#000000" points="140.246,-277.896 143.746,-287.896 147.246,-277.896 140.246,-277.896"/>
</g>
<!-- PositionalBindFailover -->
<g id="node5" class="node"><title>PositionalBindFailover</title>
<g id="a_node5"><a xlink:href="/type/PositionalBindFailover" xlink:title="PositionalBindFailover">
<ellipse fill="none" stroke="#6666ff" cx="515.746" cy="-234" rx="97.4827" ry="18"/>
<text text-anchor="middle" x="515.746" y="-230.3" font-family="FreeSans" font-size="14.00" fill="#6666ff">PositionalBindFailover</text>
</a>
</g>
</g>
<!-- Seq -->
<g id="node6" class="node"><title>Seq</title>
<g id="a_node6"><a xlink:href="/type/Seq" xlink:title="Seq">
<ellipse fill="none" stroke="#000000" cx="306.746" cy="-162" rx="27" ry="18"/>
<text text-anchor="middle" x="306.746" y="-158.3" font-family="FreeSans" font-size="14.00" fill="#000000">Seq</text>
</a>
</g>
</g>
<!-- Seq&#45;&gt;Iterable -->
<g id="edge12" class="edge"><title>Seq&#45;&gt;Iterable</title>
<path fill="none" stroke="#6666ff" d="M291.366,-177.166C280.977,-186.735 267.04,-199.571 255.15,-210.523"/>
<polygon fill="#6666ff" stroke="#6666ff" points="252.674,-208.045 247.689,-217.394 257.416,-213.194 252.674,-208.045"/>
</g>
<!-- Seq&#45;&gt;Cool -->
<g id="edge3" class="edge"><title>Seq&#45;&gt;Cool</title>
<path fill="none" stroke="#000000" d="M285.388,-173.085C277.636,-176.746 270.746,-180 270.746,-180 270.746,-180 181.746,-216 181.746,-216 181.746,-216 179.315,-217.088 175.682,-218.712"/>
<polygon fill="#000000" stroke="#000000" points="173.989,-215.636 166.29,-222.915 176.847,-222.026 173.989,-215.636"/>
</g>
<!-- Seq&#45;&gt;PositionalBindFailover -->
<g id="edge13" class="edge"><title>Seq&#45;&gt;PositionalBindFailover</title>
<path fill="none" stroke="#6666ff" d="M330.314,-170.894C361.809,-181.442 418.575,-200.455 461.033,-214.675"/>
<polygon fill="#6666ff" stroke="#6666ff" points="460.081,-218.047 470.675,-217.905 462.304,-211.41 460.081,-218.047"/>
</g>
<!-- Positional -->
<g id="node7" class="node"><title>Positional</title>
<g id="a_node7"><a xlink:href="/type/Positional" xlink:title="Positional">
<ellipse fill="none" stroke="#6666ff" cx="48.7457" cy="-234" rx="48.9926" ry="18"/>
<text text-anchor="middle" x="48.7457" y="-230.3" font-family="FreeSans" font-size="14.00" fill="#6666ff">Positional</text>
</a>
</g>
</g>
<!-- Range -->
<g id="node8" class="node"><title>Range</title>
<g id="a_node8"><a xlink:href="/type/Range" xlink:title="Range">
<ellipse fill="none" stroke="#000000" cx="55.7457" cy="-162" rx="36.2938" ry="18"/>
<text text-anchor="middle" x="55.7457" y="-158.3" font-family="FreeSans" font-size="14.00" fill="#000000">Range</text>
</a>
</g>
</g>
<!-- Range&#45;&gt;Iterable -->
<g id="edge15" class="edge"><title>Range&#45;&gt;Iterable</title>
<path fill="none" stroke="#6666ff" d="M83.0894,-173.938C112.487,-185.697 159.444,-204.479 192.497,-217.7"/>
<polygon fill="#6666ff" stroke="#6666ff" points="191.263,-220.977 201.848,-221.441 193.863,-214.477 191.263,-220.977"/>
</g>
<!-- Range&#45;&gt;Cool -->
<g id="edge4" class="edge"><title>Range&#45;&gt;Cool</title>
<path fill="none" stroke="#000000" d="M74.4082,-177.845C87.3138,-188.111 104.631,-201.886 118.73,-213.101"/>
<polygon fill="#000000" stroke="#000000" points="116.597,-215.877 126.602,-219.363 120.955,-210.399 116.597,-215.877"/>
</g>
<!-- Range&#45;&gt;Positional -->
<g id="edge14" class="edge"><title>Range&#45;&gt;Positional</title>
<path fill="none" stroke="#6666ff" d="M54.0153,-180.303C53.2439,-188.017 52.3169,-197.288 51.4569,-205.888"/>
<polygon fill="#6666ff" stroke="#6666ff" points="47.9686,-205.597 50.4561,-215.896 54.9339,-206.294 47.9686,-205.597"/>
</g>
<!-- Associative -->
<g id="node9" class="node"><title>Associative</title>
<g id="a_node9"><a xlink:href="/type/Associative" xlink:title="Associative">
<ellipse fill="none" stroke="#6666ff" cx="344.746" cy="-234" rx="55.4913" ry="18"/>
<text text-anchor="middle" x="344.746" y="-230.3" font-family="FreeSans" font-size="14.00" fill="#6666ff">Associative</text>
</a>
</g>
</g>
<!-- Map -->
<g id="node10" class="node"><title>Map</title>
<g id="a_node10"><a xlink:href="/type/Map" xlink:title="Map">
<ellipse fill="none" stroke="#000000" cx="232.746" cy="-162" rx="28.6953" ry="18"/>
<text text-anchor="middle" x="232.746" y="-158.3" font-family="FreeSans" font-size="14.00" fill="#000000">Map</text>
</a>
</g>
</g>
<!-- Map&#45;&gt;Iterable -->
<g id="edge16" class="edge"><title>Map&#45;&gt;Iterable</title>
<path fill="none" stroke="#6666ff" d="M232.251,-180.303C232.031,-188.017 231.766,-197.288 231.52,-205.888"/>
<polygon fill="#6666ff" stroke="#6666ff" points="228.021,-205.8 231.234,-215.896 235.019,-206 228.021,-205.8"/>
</g>
<!-- Map&#45;&gt;Cool -->
<g id="edge5" class="edge"><title>Map&#45;&gt;Cool</title>
<path fill="none" stroke="#000000" d="M215.586,-176.497C202.288,-186.955 183.673,-201.596 168.724,-213.354"/>
<polygon fill="#000000" stroke="#000000" points="166.549,-210.612 160.853,-219.545 170.877,-216.114 166.549,-210.612"/>
</g>
<!-- Map&#45;&gt;Associative -->
<g id="edge17" class="edge"><title>Map&#45;&gt;Associative</title>
<path fill="none" stroke="#6666ff" d="M252.255,-175.193C268.668,-185.452 292.49,-200.34 311.846,-212.438"/>
<polygon fill="#6666ff" stroke="#6666ff" points="310.048,-215.441 320.383,-217.773 313.758,-209.505 310.048,-215.441"/>
</g>
<!-- List -->
<g id="node11" class="node"><title>List</title>
<g id="a_node11"><a xlink:href="/type/List" xlink:title="List">
<ellipse fill="none" stroke="#000000" cx="136.746" cy="-162" rx="27" ry="18"/>
<text text-anchor="middle" x="136.746" y="-158.3" font-family="FreeSans" font-size="14.00" fill="#000000">List</text>
</a>
</g>
</g>
<!-- List&#45;&gt;Iterable -->
<g id="edge19" class="edge"><title>List&#45;&gt;Iterable</title>
<path fill="none" stroke="#6666ff" d="M154.426,-176.166C167.978,-186.258 186.944,-200.382 202.579,-212.025"/>
<polygon fill="#6666ff" stroke="#6666ff" points="200.755,-215.031 210.866,-218.196 204.936,-209.416 200.755,-215.031"/>
</g>
<!-- List&#45;&gt;Cool -->
<g id="edge6" class="edge"><title>List&#45;&gt;Cool</title>
<path fill="none" stroke="#000000" d="M138.476,-180.303C139.247,-188.017 140.174,-197.288 141.034,-205.888"/>
<polygon fill="#000000" stroke="#000000" points="137.557,-206.294 142.035,-215.896 144.523,-205.597 137.557,-206.294"/>
</g>
<!-- List&#45;&gt;Positional -->
<g id="edge18" class="edge"><title>List&#45;&gt;Positional</title>
<path fill="none" stroke="#6666ff" d="M119.778,-176.497C107.504,-186.261 90.6462,-199.67 76.4339,-210.975"/>
<polygon fill="#6666ff" stroke="#6666ff" points="74.0733,-208.381 68.4261,-217.345 78.431,-213.859 74.0733,-208.381"/>
</g>
<!-- PseudoStash -->
<g id="node12" class="node"><title>PseudoStash</title>
<g id="a_node12"><a xlink:href="/type/PseudoStash" xlink:title="PseudoStash">
<ellipse fill="none" stroke="#000000" cx="241.746" cy="-90" rx="63.0888" ry="18"/>
<text text-anchor="middle" x="241.746" y="-86.3" font-family="FreeSans" font-size="14.00" fill="#000000">PseudoStash</text>
</a>
</g>
</g>
<!-- PseudoStash&#45;&gt;Map -->
<g id="edge7" class="edge"><title>PseudoStash&#45;&gt;Map</title>
<path fill="none" stroke="#000000" d="M239.521,-108.303C238.529,-116.017 237.337,-125.288 236.232,-133.888"/>
<polygon fill="#000000" stroke="#000000" points="232.749,-133.531 234.945,-143.896 239.692,-134.424 232.749,-133.531"/>
</g>
<!-- Hash -->
<g id="node13" class="node"><title>Hash</title>
<g id="a_node13"><a xlink:href="/type/Hash" xlink:title="Hash">
<ellipse fill="none" stroke="#000000" cx="353.746" cy="-90" rx="31.3957" ry="18"/>
<text text-anchor="middle" x="353.746" y="-86.3" font-family="FreeSans" font-size="14.00" fill="#000000">Hash</text>
</a>
</g>
</g>
<!-- Hash&#45;&gt;Map -->
<g id="edge8" class="edge"><title>Hash&#45;&gt;Map</title>
<path fill="none" stroke="#000000" d="M332.392,-103.353C312.802,-114.687 283.615,-131.572 261.886,-144.142"/>
<polygon fill="#000000" stroke="#000000" points="259.984,-141.199 253.08,-149.236 263.489,-147.258 259.984,-141.199"/>
</g>
<!-- Array -->
<g id="node14" class="node"><title>Array</title>
<g id="a_node14"><a xlink:href="/type/Array" xlink:title="Array">
<ellipse fill="none" stroke="#000000" cx="56.7457" cy="-90" rx="31.6951" ry="18"/>
<text text-anchor="middle" x="56.7457" y="-86.3" font-family="FreeSans" font-size="14.00" fill="#000000">Array</text>
</a>
</g>
</g>
<!-- Array&#45;&gt;List -->
<g id="edge9" class="edge"><title>Array&#45;&gt;List</title>
<path fill="none" stroke="#000000" d="M73.3217,-105.504C84.9193,-115.652 100.573,-129.349 113.427,-140.596"/>
<polygon fill="#000000" stroke="#000000" points="111.177,-143.278 121.007,-147.229 115.786,-138.01 111.177,-143.278"/>
</g>
<!-- Slip -->
<g id="node15" class="node"><title>Slip</title>
<g id="a_node15"><a xlink:href="/type/Slip" xlink:title="Slip">
<ellipse fill="none" stroke="#000000" cx="133.746" cy="-90" rx="27" ry="18"/>
<text text-anchor="middle" x="133.746" y="-86.3" font-family="FreeSans" font-size="14.00" fill="#000000">Slip</text>
</a>
</g>
</g>
<!-- Slip&#45;&gt;List -->
<g id="edge10" class="edge"><title>Slip&#45;&gt;List</title>
<path fill="none" stroke="#000000" d="M134.487,-108.303C134.818,-116.017 135.215,-125.288 135.584,-133.888"/>
<polygon fill="#000000" stroke="#000000" points="132.088,-134.055 136.013,-143.896 139.081,-133.755 132.088,-134.055"/>
</g>
<!-- Stash -->
<g id="node16" class="node"><title>Stash</title>
<g id="a_node16"><a xlink:href="/type/Stash" xlink:title="Stash">
<ellipse fill="none" stroke="#000000" cx="353.746" cy="-18" rx="33.2948" ry="18"/>
<text text-anchor="middle" x="353.746" y="-14.3" font-family="FreeSans" font-size="14.00" fill="#000000">Stash</text>
</a>
</g>
</g>
<!-- Stash&#45;&gt;Hash -->
<g id="edge11" class="edge"><title>Stash&#45;&gt;Hash</title>
<path fill="none" stroke="#000000" d="M353.746,-36.3034C353.746,-44.0173 353.746,-53.2875 353.746,-61.8876"/>
<polygon fill="#000000" stroke="#000000" points="350.246,-61.8956 353.746,-71.8957 357.246,-61.8957 350.246,-61.8956"/>
</g>
</g>
</svg>
