<?xml version="1.0" encoding="UTF-8" standalone="no"?>
<!DOCTYPE svg PUBLIC "-//W3C//DTD SVG 1.1//EN"
 "http://www.w3.org/Graphics/SVG/1.1/DTD/svg11.dtd">
<!-- Generated by graphviz version 2.38.0 (20140413.2041)
 -->
<!-- Title: perl6&#45;type&#45;graph Pages: 1 -->
<svg width="2221pt" height="1409pt"
 viewBox="0.00 0.00 2221.20 1408.82" xmlns="http://www.w3.org/2000/svg" xmlns:xlink="http://www.w3.org/1999/xlink">
<g id="graph0" class="graph" transform="scale(1 1) rotate(0) translate(1090.23 702.957)">
<title>perl6&#45;type&#45;graph</title>
<polygon fill="white" stroke="none" points="-1090.23,705.866 -1090.23,-702.957 1130.97,-702.957 1130.97,705.866 -1090.23,705.866"/>
<!-- Metamodel::AttributeContainer -->
<g id="node1" class="node"><title>Metamodel::AttributeContainer</title>
<g id="a_node1"><a xlink:href="/type/Metamodel::AttributeContainer" xlink:title="Metamodel::AttributeContainer">
<ellipse fill="none" stroke="#6666ff" cx="-492.549" cy="-320.123" rx="129.977" ry="18"/>
<text text-anchor="middle" x="-492.549" y="-316.423" font-family="FreeSans" font-size="14.00" fill="#6666ff">Metamodel::AttributeContainer</text>
</a>
</g>
</g>
<!-- Mu -->
<g id="node2" class="node"><title>Mu</title>
<g id="a_node2"><a xlink:href="/type/Mu" xlink:title="Mu">
<ellipse fill="none" stroke="#000000" cx="1011.33" cy="573.421" rx="27" ry="18"/>
<text text-anchor="middle" x="1011.33" y="577.121" font-family="FreeSans" font-size="14.00" fill="#000000">Mu</text>
</a>
</g>
</g>
<!-- Any -->
<g id="node3" class="node"><title>Any</title>
<g id="a_node3"><a xlink:href="/type/Any" xlink:title="Any">
<ellipse fill="none" stroke="#000000" cx="1010.79" cy="8.21264" rx="27" ry="18"/>
<text text-anchor="middle" x="1010.79" y="11.9126" font-family="FreeSans" font-size="14.00" fill="#000000">Any</text>
</a>
</g>
</g>
<!-- Any&#45;&gt;Mu -->
<g id="edge1" class="edge"><title>Any&#45;&gt;Mu</title>
<path fill="none" stroke="#000000" d="M1010.81,26.378C1010.88,108.426 1011.21,444.77 1011.3,545.065"/>
<polygon fill="#000000" stroke="#000000" points="1014.8,545.32 1011.31,555.323 1007.8,545.327 1014.8,545.32"/>
</g>
<!-- Metamodel::Naming -->
<g id="node4" class="node"><title>Metamodel::Naming</title>
<g id="a_node4"><a xlink:href="/type/Metamodel::Naming" xlink:title="Metamodel::Naming">
<ellipse fill="none" stroke="#6666ff" cx="-250.131" cy="-40.7775" rx="90.1842" ry="18"/>
<text text-anchor="middle" x="-250.131" y="-37.0775" font-family="FreeSans" font-size="14.00" fill="#6666ff">Metamodel::Naming</text>
</a>
</g>
</g>
<!-- Metamodel::Stashing -->
<g id="node5" class="node"><title>Metamodel::Stashing</title>
<g id="a_node5"><a xlink:href="/type/Metamodel::Stashing" xlink:title="Metamodel::Stashing">
<ellipse fill="none" stroke="#6666ff" cx="558.721" cy="313.169" rx="93.6835" ry="18"/>
<text text-anchor="middle" x="558.721" y="316.869" font-family="FreeSans" font-size="14.00" fill="#6666ff">Metamodel::Stashing</text>
</a>
</g>
</g>
<!-- Metamodel::MethodContainer -->
<g id="node6" class="node"><title>Metamodel::MethodContainer</title>
<g id="a_node6"><a xlink:href="/type/Metamodel::MethodContainer" xlink:title="Metamodel::MethodContainer">
<ellipse fill="none" stroke="#6666ff" cx="225.217" cy="-242.354" rx="127.277" ry="18"/>
<text text-anchor="middle" x="225.217" y="-238.654" font-family="FreeSans" font-size="14.00" fill="#6666ff">Metamodel::MethodContainer</text>
</a>
</g>
</g>
<!-- Metamodel::MultiMethodContainer -->
<g id="node7" class="node"><title>Metamodel::MultiMethodContainer</title>
<g id="a_node7"><a xlink:href="/type/Metamodel::MultiMethodContainer" xlink:title="Metamodel::MultiMethodContainer">
<ellipse fill="none" stroke="#6666ff" cx="5.62971" cy="10.3614" rx="146.474" ry="18"/>
<text text-anchor="middle" x="5.62971" y="14.0614" font-family="FreeSans" font-size="14.00" fill="#6666ff">Metamodel::MultiMethodContainer</text>
</a>
</g>
</g>
<!-- Metamodel::RoleContainer -->
<g id="node8" class="node"><title>Metamodel::RoleContainer</title>
<g id="a_node8"><a xlink:href="/type/Metamodel::RoleContainer" xlink:title="Metamodel::RoleContainer">
<ellipse fill="none" stroke="#6666ff" cx="262.69" cy="86.8637" rx="115.88" ry="18"/>
<text text-anchor="middle" x="262.69" y="90.5637" font-family="FreeSans" font-size="14.00" fill="#6666ff">Metamodel::RoleContainer</text>
</a>
</g>
</g>
<!-- Metamodel::BaseType -->
<g id="node9" class="node"><title>Metamodel::BaseType</title>
<g id="a_node9"><a xlink:href="/type/Metamodel::BaseType" xlink:title="Metamodel::BaseType">
<ellipse fill="none" stroke="#6666ff" cx="573.465" cy="683.866" rx="99.3824" ry="18"/>
<text text-anchor="middle" x="573.465" y="687.566" font-family="FreeSans" font-size="14.00" fill="#6666ff">Metamodel::BaseType</text>
</a>
</g>
</g>
<!-- Metamodel::MROBasedMethodDispatch -->
<g id="node10" class="node"><title>Metamodel::MROBasedMethodDispatch</title>
<g id="a_node10"><a xlink:href="/type/Metamodel::MROBasedMethodDispatch" xlink:title="Metamodel::MROBasedMethodDispatch">
<ellipse fill="none" stroke="#6666ff" cx="-112.47" cy="666.256" rx="169.77" ry="18"/>
<text text-anchor="middle" x="-112.47" y="669.956" font-family="FreeSans" font-size="14.00" fill="#6666ff">Metamodel::MROBasedMethodDispatch</text>
</a>
</g>
</g>
<!-- Metamodel::MROBasedTypeChecking -->
<g id="node11" class="node"><title>Metamodel::MROBasedTypeChecking</title>
<g id="a_node11"><a xlink:href="/type/Metamodel::MROBasedTypeChecking" xlink:title="Metamodel::MROBasedTypeChecking">
<ellipse fill="none" stroke="#6666ff" cx="-476.542" cy="678.801" rx="163.271" ry="18"/>
<text text-anchor="middle" x="-476.542" y="682.501" font-family="FreeSans" font-size="14.00" fill="#6666ff">Metamodel::MROBasedTypeChecking</text>
</a>
</g>
</g>
<!-- Metamodel::BUILDPLAN -->
<g id="node12" class="node"><title>Metamodel::BUILDPLAN</title>
<g id="a_node12"><a xlink:href="/type/Metamodel::BUILDPLAN" xlink:title="Metamodel::BUILDPLAN">
<ellipse fill="none" stroke="#6666ff" cx="-209.65" cy="287.65" rx="109.681" ry="18"/>
<text text-anchor="middle" x="-209.65" y="291.35" font-family="FreeSans" font-size="14.00" fill="#6666ff">Metamodel::BUILDPLAN</text>
</a>
</g>
</g>
<!-- Metamodel::BoolificationProtocol -->
<g id="node13" class="node"><title>Metamodel::BoolificationProtocol</title>
<g id="a_node13"><a xlink:href="/type/Metamodel::BoolificationProtocol" xlink:title="Metamodel::BoolificationProtocol">
<ellipse fill="none" stroke="#6666ff" cx="211.578" cy="663.696" rx="139.175" ry="18"/>
<text text-anchor="middle" x="211.578" y="667.396" font-family="FreeSans" font-size="14.00" fill="#6666ff">Metamodel::BoolificationProtocol</text>
</a>
</g>
</g>
<!-- Metamodel::EnumHOW -->
<g id="node14" class="node"><title>Metamodel::EnumHOW</title>
<g id="a_node14"><a xlink:href="/type/Metamodel::EnumHOW" xlink:title="Metamodel::EnumHOW">
<ellipse fill="none" stroke="#000000" cx="113.215" cy="332.686" rx="104.782" ry="18"/>
<text text-anchor="middle" x="113.215" y="336.386" font-family="FreeSans" font-size="14.00" fill="#000000">Metamodel::EnumHOW</text>
</a>
</g>
</g>
<!-- Metamodel::EnumHOW&#45;&gt;Metamodel::AttributeContainer -->
<g id="edge8" class="edge"><title>Metamodel::EnumHOW&#45;&gt;Metamodel::AttributeContainer</title>
<path fill="none" stroke="#6666ff" d="M98.7509,314.44C44.7184,246.277 -142.205,10.473 -142.205,10.473 -142.205,10.473 -158.19,-40.8283 -158.19,-40.8283 -158.19,-40.8283 -381.712,-227.539 -463.242,-295.642"/>
<polygon fill="#6666ff" stroke="#6666ff" points="-465.694,-293.13 -471.125,-302.227 -461.206,-298.502 -465.694,-293.13"/>
</g>
<!-- Metamodel::EnumHOW&#45;&gt;Any -->
<g id="edge2" class="edge"><title>Metamodel::EnumHOW&#45;&gt;Any</title>
<path fill="none" stroke="#000000" d="M158.341,316.373C315.795,259.454 838.758,70.402 977.018,20.4209"/>
<polygon fill="#000000" stroke="#000000" points="976.069,17.0423 986.663,16.9341 978.448,23.6254 976.069,17.0423"/>
</g>
<!-- Metamodel::EnumHOW&#45;&gt;Metamodel::Naming -->
<g id="edge6" class="edge"><title>Metamodel::EnumHOW&#45;&gt;Metamodel::Naming</title>
<path fill="none" stroke="#6666ff" d="M95.6903,314.674C36.3305,253.661 -157.25,54.6903 -225.799,-15.7681"/>
<polygon fill="#6666ff" stroke="#6666ff" points="-228.317,-13.3371 -232.782,-22.9453 -223.3,-18.2185 -228.317,-13.3371"/>
</g>
<!-- Metamodel::EnumHOW&#45;&gt;Metamodel::Stashing -->
<g id="edge7" class="edge"><title>Metamodel::EnumHOW&#45;&gt;Metamodel::Stashing</title>
<path fill="none" stroke="#6666ff" d="M214.865,328.233C287.466,325.053 384.726,320.792 457.279,317.613"/>
<polygon fill="#6666ff" stroke="#6666ff" points="457.204,314.113 467.348,317.172 457.511,321.107 457.204,314.113"/>
</g>
<!-- Metamodel::EnumHOW&#45;&gt;Metamodel::MethodContainer -->
<g id="edge9" class="edge"><title>Metamodel::EnumHOW&#45;&gt;Metamodel::MethodContainer</title>
<path fill="none" stroke="#6666ff" d="M115.582,314.618C123.015,257.871 145.402,86.9636 145.402,86.9636 145.402,86.9636 199.146,-134.782 218.431,-214.354"/>
<polygon fill="#6666ff" stroke="#6666ff" points="215.055,-215.285 220.812,-224.179 221.858,-213.636 215.055,-215.285"/>
</g>
<!-- Metamodel::EnumHOW&#45;&gt;Metamodel::MultiMethodContainer -->
<g id="edge10" class="edge"><title>Metamodel::EnumHOW&#45;&gt;Metamodel::MultiMethodContainer</title>
<path fill="none" stroke="#6666ff" d="M107.123,314.433C89.1851,260.692 36.4765,102.778 14.9494,38.283"/>
<polygon fill="#6666ff" stroke="#6666ff" points="11.5016,39.008 11.6554,28.4143 18.1415,36.7917 11.5016,39.008"/>
</g>
<!-- Metamodel::EnumHOW&#45;&gt;Metamodel::RoleContainer -->
<g id="edge11" class="edge"><title>Metamodel::EnumHOW&#45;&gt;Metamodel::RoleContainer</title>
<path fill="none" stroke="#6666ff" d="M124.207,314.611C150.229,271.814 215.718,164.113 246.38,113.687"/>
<polygon fill="#6666ff" stroke="#6666ff" points="243.497,111.692 251.683,104.966 249.478,115.329 243.497,111.692"/>
</g>
<!-- Metamodel::EnumHOW&#45;&gt;Metamodel::BaseType -->
<g id="edge12" class="edge"><title>Metamodel::EnumHOW&#45;&gt;Metamodel::BaseType</title>
<path fill="none" stroke="#6666ff" d="M136.355,350.342C212.476,408.425 455.203,593.63 542.126,659.954"/>
<polygon fill="#6666ff" stroke="#6666ff" points="544.452,657.327 550.279,666.175 540.206,662.892 544.452,657.327"/>
</g>
<!-- Metamodel::EnumHOW&#45;&gt;Metamodel::MROBasedMethodDispatch -->
<g id="edge13" class="edge"><title>Metamodel::EnumHOW&#45;&gt;Metamodel::MROBasedMethodDispatch</title>
<path fill="none" stroke="#6666ff" d="M101.081,350.621C63.6554,405.938 -50.1317,574.118 -94.4926,639.685"/>
<polygon fill="#6666ff" stroke="#6666ff" points="-91.7736,641.913 -100.276,648.234 -97.5713,637.99 -91.7736,641.913"/>
</g>
<!-- Metamodel::EnumHOW&#45;&gt;Metamodel::MROBasedTypeChecking -->
<g id="edge14" class="edge"><title>Metamodel::EnumHOW&#45;&gt;Metamodel::MROBasedTypeChecking</title>
<path fill="none" stroke="#6666ff" d="M83.565,350.088C-14.2414,407.488 -326.694,590.859 -437.288,655.764"/>
<polygon fill="#6666ff" stroke="#6666ff" points="-435.731,658.908 -446.127,660.951 -439.274,652.871 -435.731,658.908"/>
</g>
<!-- Metamodel::EnumHOW&#45;&gt;Metamodel::BUILDPLAN -->
<g id="edge15" class="edge"><title>Metamodel::EnumHOW&#45;&gt;Metamodel::BUILDPLAN</title>
<path fill="none" stroke="#6666ff" d="M31.7426,321.322C-13.1594,315.058 -69.1033,307.255 -115.825,300.737"/>
<polygon fill="#6666ff" stroke="#6666ff" points="-116.533,304.173 -125.953,299.325 -115.566,297.24 -116.533,304.173"/>
</g>
<!-- Metamodel::EnumHOW&#45;&gt;Metamodel::BoolificationProtocol -->
<g id="edge16" class="edge"><title>Metamodel::EnumHOW&#45;&gt;Metamodel::BoolificationProtocol</title>
<path fill="none" stroke="#6666ff" d="M118.644,350.955C134.968,405.888 183.687,569.837 203.281,635.775"/>
<polygon fill="#6666ff" stroke="#6666ff" points="206.672,634.902 206.166,645.485 199.962,636.896 206.672,634.902"/>
</g>
<!-- Metamodel::Documenting -->
<g id="node15" class="node"><title>Metamodel::Documenting</title>
<g id="a_node15"><a xlink:href="/type/Metamodel::Documenting" xlink:title="Metamodel::Documenting">
<ellipse fill="none" stroke="#6666ff" cx="-470.197" cy="-669.691" rx="111.28" ry="18"/>
<text text-anchor="middle" x="-470.197" y="-665.991" font-family="FreeSans" font-size="14.00" fill="#6666ff">Metamodel::Documenting</text>
</a>
</g>
</g>
<!-- Metamodel::Versioning -->
<g id="node16" class="node"><title>Metamodel::Versioning</title>
<g id="a_node16"><a xlink:href="/type/Metamodel::Versioning" xlink:title="Metamodel::Versioning">
<ellipse fill="none" stroke="#6666ff" cx="559.83" cy="3.34487" rx="100.983" ry="18"/>
<text text-anchor="middle" x="559.83" y="7.04487" font-family="FreeSans" font-size="14.00" fill="#6666ff">Metamodel::Versioning</text>
</a>
</g>
</g>
<!-- Metamodel::Finalization -->
<g id="node17" class="node"><title>Metamodel::Finalization</title>
<g id="a_node17"><a xlink:href="/type/Metamodel::Finalization" xlink:title="Metamodel::Finalization">
<ellipse fill="none" stroke="#6666ff" cx="-959.473" cy="638.214" rx="103.982" ry="18"/>
<text text-anchor="middle" x="-959.473" y="641.914" font-family="FreeSans" font-size="14.00" fill="#6666ff">Metamodel::Finalization</text>
</a>
</g>
</g>
<!-- Metamodel::PrivateMethodContainer -->
<g id="node18" class="node"><title>Metamodel::PrivateMethodContainer</title>
<g id="a_node18"><a xlink:href="/type/Metamodel::PrivateMethodContainer" xlink:title="Metamodel::PrivateMethodContainer">
<ellipse fill="none" stroke="#6666ff" cx="-99.1185" cy="-680.957" rx="154.873" ry="18"/>
<text text-anchor="middle" x="-99.1185" y="-677.257" font-family="FreeSans" font-size="14.00" fill="#6666ff">Metamodel::PrivateMethodContainer</text>
</a>
</g>
</g>
<!-- Metamodel::MultipleInheritance -->
<g id="node19" class="node"><title>Metamodel::MultipleInheritance</title>
<g id="a_node19"><a xlink:href="/type/Metamodel::MultipleInheritance" xlink:title="Metamodel::MultipleInheritance">
<ellipse fill="none" stroke="#6666ff" cx="-98.3094" cy="-323.461" rx="133.776" ry="18"/>
<text text-anchor="middle" x="-98.3094" y="-319.761" font-family="FreeSans" font-size="14.00" fill="#6666ff">Metamodel::MultipleInheritance</text>
</a>
</g>
</g>
<!-- Metamodel::DefaultParent -->
<g id="node20" class="node"><title>Metamodel::DefaultParent</title>
<g id="a_node20"><a xlink:href="/type/Metamodel::DefaultParent" xlink:title="Metamodel::DefaultParent">
<ellipse fill="none" stroke="#6666ff" cx="-972.817" cy="-218.583" rx="113.18" ry="18"/>
<text text-anchor="middle" x="-972.817" y="-214.883" font-family="FreeSans" font-size="14.00" fill="#6666ff">Metamodel::DefaultParent</text>
</a>
</g>
</g>
<!-- Metamodel::C3MRO -->
<g id="node21" class="node"><title>Metamodel::C3MRO</title>
<g id="a_node21"><a xlink:href="/type/Metamodel::C3MRO" xlink:title="Metamodel::C3MRO">
<ellipse fill="none" stroke="#6666ff" cx="-559.287" cy="319.31" rx="92.0841" ry="18"/>
<text text-anchor="middle" x="-559.287" y="323.01" font-family="FreeSans" font-size="14.00" fill="#6666ff">Metamodel::C3MRO</text>
</a>
</g>
</g>
<!-- Metamodel::Trusting -->
<g id="node22" class="node"><title>Metamodel::Trusting</title>
<g id="a_node22"><a xlink:href="/type/Metamodel::Trusting" xlink:title="Metamodel::Trusting">
<ellipse fill="none" stroke="#6666ff" cx="-994.59" cy="191.433" rx="91.784" ry="18"/>
<text text-anchor="middle" x="-994.59" y="195.133" font-family="FreeSans" font-size="14.00" fill="#6666ff">Metamodel::Trusting</text>
</a>
</g>
</g>
<!-- Metamodel::Mixins -->
<g id="node23" class="node"><title>Metamodel::Mixins</title>
<g id="a_node23"><a xlink:href="/type/Metamodel::Mixins" xlink:title="Metamodel::Mixins">
<ellipse fill="none" stroke="#6666ff" cx="-952.331" cy="-639.007" rx="85.2851" ry="18"/>
<text text-anchor="middle" x="-952.331" y="-635.307" font-family="FreeSans" font-size="14.00" fill="#6666ff">Metamodel::Mixins</text>
</a>
</g>
</g>
<!-- Metamodel::ClassHOW -->
<g id="node24" class="node"><title>Metamodel::ClassHOW</title>
<g id="a_node24"><a xlink:href="/type/Metamodel::ClassHOW" xlink:title="Metamodel::ClassHOW">
<ellipse fill="none" stroke="#000000" cx="-571.391" cy="-5.03523" rx="103.982" ry="18"/>
<text text-anchor="middle" x="-571.391" y="-1.33523" font-family="FreeSans" font-size="14.00" fill="#000000">Metamodel::ClassHOW</text>
</a>
</g>
</g>
<!-- Metamodel::ClassHOW&#45;&gt;Metamodel::AttributeContainer -->
<g id="edge21" class="edge"><title>Metamodel::ClassHOW&#45;&gt;Metamodel::AttributeContainer</title>
<path fill="none" stroke="#6666ff" d="M-566.812,-23.3376C-553.612,-76.0902 -515.422,-228.711 -499.573,-292.054"/>
<polygon fill="#6666ff" stroke="#6666ff" points="-502.964,-292.919 -497.141,-301.77 -496.174,-291.22 -502.964,-292.919"/>
</g>
<!-- Metamodel::ClassHOW&#45;&gt;Any -->
<g id="edge3" class="edge"><title>Metamodel::ClassHOW&#45;&gt;Any</title>
<path fill="none" stroke="#000000" d="M-467.536,-6.06565C-187.981,-8.83929 559.445,-16.255 559.445,-16.255 559.445,-16.255 865.283,0.324669 973.443,6.18808"/>
<polygon fill="#000000" stroke="#000000" points="973.776,2.7009 983.571,6.73718 973.397,9.69064 973.776,2.7009"/>
</g>
<!-- Metamodel::ClassHOW&#45;&gt;Metamodel::Naming -->
<g id="edge17" class="edge"><title>Metamodel::ClassHOW&#45;&gt;Metamodel::Naming</title>
<path fill="none" stroke="#6666ff" d="M-483.606,-14.802C-438.699,-19.7981 -384.156,-25.8664 -339.084,-30.8809"/>
<polygon fill="#6666ff" stroke="#6666ff" points="-339.355,-34.3723 -329.029,-31.9996 -338.581,-27.4153 -339.355,-34.3723"/>
</g>
<!-- Metamodel::ClassHOW&#45;&gt;Metamodel::Stashing -->
<g id="edge20" class="edge"><title>Metamodel::ClassHOW&#45;&gt;Metamodel::Stashing</title>
<path fill="none" stroke="#6666ff" d="M-516.884,10.3124C-328.382,63.3887 295.295,238.997 495.947,295.494"/>
<polygon fill="#6666ff" stroke="#6666ff" points="497.066,292.173 505.744,298.252 495.169,298.911 497.066,292.173"/>
</g>
<!-- Metamodel::ClassHOW&#45;&gt;Metamodel::MethodContainer -->
<g id="edge23" class="edge"><title>Metamodel::ClassHOW&#45;&gt;Metamodel::MethodContainer</title>
<path fill="none" stroke="#6666ff" d="M-519.124,-20.6064C-378.646,-62.4561 6.8018,-177.285 160.604,-223.105"/>
<polygon fill="#6666ff" stroke="#6666ff" points="159.811,-226.52 170.394,-226.021 161.81,-219.812 159.811,-226.52"/>
</g>
<!-- Metamodel::ClassHOW&#45;&gt;Metamodel::MultiMethodContainer -->
<g id="edge25" class="edge"><title>Metamodel::ClassHOW&#45;&gt;Metamodel::MultiMethodContainer</title>
<path fill="none" stroke="#6666ff" d="M-468.564,-2.2915C-379.354,0.088876 -248.962,3.56811 -147.478,6.27601"/>
<polygon fill="#6666ff" stroke="#6666ff" points="-147.342,2.7783 -137.439,6.54389 -147.528,9.77581 -147.342,2.7783"/>
</g>
<!-- Metamodel::ClassHOW&#45;&gt;Metamodel::RoleContainer -->
<g id="edge26" class="edge"><title>Metamodel::ClassHOW&#45;&gt;Metamodel::RoleContainer</title>
<path fill="none" stroke="#6666ff" d="M-483.313,4.66918C-328.474,21.7294 -8.20125,57.0169 157.801,75.3071"/>
<polygon fill="#6666ff" stroke="#6666ff" points="158.466,71.859 168.023,76.4332 157.699,78.8169 158.466,71.859"/>
</g>
<!-- Metamodel::ClassHOW&#45;&gt;Metamodel::MROBasedMethodDispatch -->
<g id="edge30" class="edge"><title>Metamodel::ClassHOW&#45;&gt;Metamodel::MROBasedMethodDispatch</title>
<path fill="none" stroke="#6666ff" d="M-559.116,12.9202C-495.762,105.593 -205.817,529.713 -130.427,639.99"/>
<polygon fill="#6666ff" stroke="#6666ff" points="-127.537,638.015 -124.783,648.246 -133.316,641.966 -127.537,638.015"/>
</g>
<!-- Metamodel::ClassHOW&#45;&gt;Metamodel::MROBasedTypeChecking -->
<g id="edge31" class="edge"><title>Metamodel::ClassHOW&#45;&gt;Metamodel::MROBasedTypeChecking</title>
<path fill="none" stroke="#6666ff" d="M-565.389,13.3301C-542.966,81.9351 -465.395,319.271 -465.395,319.271 -465.395,319.271 -473.019,565.182 -475.656,650.252"/>
<polygon fill="#6666ff" stroke="#6666ff" points="-472.165,650.591 -475.974,660.477 -479.162,650.374 -472.165,650.591"/>
</g>
<!-- Metamodel::ClassHOW&#45;&gt;Metamodel::BUILDPLAN -->
<g id="edge33" class="edge"><title>Metamodel::ClassHOW&#45;&gt;Metamodel::BUILDPLAN</title>
<path fill="none" stroke="#6666ff" d="M-549.577,12.6144C-487.634,62.7326 -310.576,205.991 -239.607,263.412"/>
<polygon fill="#6666ff" stroke="#6666ff" points="-237.065,260.966 -231.493,269.977 -241.468,266.408 -237.065,260.966"/>
</g>
<!-- Metamodel::ClassHOW&#45;&gt;Metamodel::BoolificationProtocol -->
<g id="edge35" class="edge"><title>Metamodel::ClassHOW&#45;&gt;Metamodel::BoolificationProtocol</title>
<path fill="none" stroke="#6666ff" d="M-556.11,12.8414C-501.766,76.4175 -321.088,287.788 -321.088,287.788 -321.088,287.788 61.0228,557.448 177.973,639.981"/>
<polygon fill="#6666ff" stroke="#6666ff" points="180.092,637.193 186.244,645.818 176.056,642.912 180.092,637.193"/>
</g>
<!-- Metamodel::ClassHOW&#45;&gt;Metamodel::Documenting -->
<g id="edge18" class="edge"><title>Metamodel::ClassHOW&#45;&gt;Metamodel::Documenting</title>
<path fill="none" stroke="#6666ff" d="M-574.455,-23.3322C-585.712,-90.5598 -624.136,-320.03 -624.136,-320.03 -624.136,-320.03 -518.679,-559.568 -482.334,-642.121"/>
<polygon fill="#6666ff" stroke="#6666ff" points="-485.489,-643.642 -478.257,-651.384 -479.083,-640.821 -485.489,-643.642"/>
</g>
<!-- Metamodel::ClassHOW&#45;&gt;Metamodel::Versioning -->
<g id="edge19" class="edge"><title>Metamodel::ClassHOW&#45;&gt;Metamodel::Versioning</title>
<path fill="none" stroke="#6666ff" d="M-467.383,-5.79394C-301.421,-7.0046 4.78737,-9.23831 4.78737,-9.23831 4.78737,-9.23831 287.788,-2.82249 449.634,0.846668"/>
<polygon fill="#6666ff" stroke="#6666ff" points="449.719,-2.65241 459.637,1.07344 449.56,4.34579 449.719,-2.65241"/>
</g>
<!-- Metamodel::ClassHOW&#45;&gt;Metamodel::Finalization -->
<g id="edge22" class="edge"><title>Metamodel::ClassHOW&#45;&gt;Metamodel::Finalization</title>
<path fill="none" stroke="#6666ff" d="M-582.381,13.1798C-636.916,103.572 -878.443,503.907 -943.362,611.51"/>
<polygon fill="#6666ff" stroke="#6666ff" points="-940.417,613.404 -948.579,620.158 -946.41,609.788 -940.417,613.404"/>
</g>
<!-- Metamodel::ClassHOW&#45;&gt;Metamodel::PrivateMethodContainer -->
<g id="edge24" class="edge"><title>Metamodel::ClassHOW&#45;&gt;Metamodel::PrivateMethodContainer</title>
<path fill="none" stroke="#6666ff" d="M-558.759,-23.1145C-493.561,-116.426 -195.181,-543.472 -117.598,-654.509"/>
<polygon fill="#6666ff" stroke="#6666ff" points="-120.386,-656.63 -111.79,-662.822 -114.648,-652.62 -120.386,-656.63"/>
</g>
<!-- Metamodel::ClassHOW&#45;&gt;Metamodel::MultipleInheritance -->
<g id="edge27" class="edge"><title>Metamodel::ClassHOW&#45;&gt;Metamodel::MultipleInheritance</title>
<path fill="none" stroke="#6666ff" d="M-545.282,-22.6087C-465.33,-76.4237 -223.8,-238.995 -133.169,-299.997"/>
<polygon fill="#6666ff" stroke="#6666ff" points="-134.879,-303.066 -124.628,-305.746 -130.97,-297.258 -134.879,-303.066"/>
</g>
<!-- Metamodel::ClassHOW&#45;&gt;Metamodel::DefaultParent -->
<g id="edge28" class="edge"><title>Metamodel::ClassHOW&#45;&gt;Metamodel::DefaultParent</title>
<path fill="none" stroke="#6666ff" d="M-603.902,-22.3298C-676.421,-60.908 -851.315,-153.947 -931.452,-196.578"/>
<polygon fill="#6666ff" stroke="#6666ff" points="-933.099,-193.49 -940.284,-201.276 -929.812,-199.67 -933.099,-193.49"/>
</g>
<!-- Metamodel::ClassHOW&#45;&gt;Metamodel::C3MRO -->
<g id="edge29" class="edge"><title>Metamodel::ClassHOW&#45;&gt;Metamodel::C3MRO</title>
<path fill="none" stroke="#6666ff" d="M-570.706,13.3323C-568.692,67.2985 -562.782,225.659 -560.35,290.81"/>
<polygon fill="#6666ff" stroke="#6666ff" points="-556.84,291.02 -559.965,301.144 -563.835,291.281 -556.84,291.02"/>
</g>
<!-- Metamodel::ClassHOW&#45;&gt;Metamodel::Trusting -->
<g id="edge32" class="edge"><title>Metamodel::ClassHOW&#45;&gt;Metamodel::Trusting</title>
<path fill="none" stroke="#6666ff" d="M-607.839,11.8856C-685.061,47.7352 -864.961,131.253 -949.359,170.434"/>
<polygon fill="#6666ff" stroke="#6666ff" points="-948.136,173.725 -958.68,174.762 -951.083,167.376 -948.136,173.725"/>
</g>
<!-- Metamodel::ClassHOW&#45;&gt;Metamodel::Mixins -->
<g id="edge34" class="edge"><title>Metamodel::ClassHOW&#45;&gt;Metamodel::Mixins</title>
<path fill="none" stroke="#6666ff" d="M-582.178,-22.9876C-635.597,-111.889 -871.796,-504.979 -936.112,-612.016"/>
<polygon fill="#6666ff" stroke="#6666ff" points="-939.306,-610.535 -941.456,-620.909 -933.306,-614.141 -939.306,-610.535"/>
</g>
<!-- Metamodel::ConcreteRoleHOW -->
<g id="node25" class="node"><title>Metamodel::ConcreteRoleHOW</title>
<g id="a_node25"><a xlink:href="/type/Metamodel::ConcreteRoleHOW" xlink:title="Metamodel::ConcreteRoleHOW">
<ellipse fill="none" stroke="#000000" cx="599.716" cy="-299.029" rx="135.676" ry="18"/>
<text text-anchor="middle" x="599.716" y="-295.329" font-family="FreeSans" font-size="14.00" fill="#000000">Metamodel::ConcreteRoleHOW</text>
</a>
</g>
</g>
<!-- Metamodel::ConcreteRoleHOW&#45;&gt;Metamodel::AttributeContainer -->
<g id="edge41" class="edge"><title>Metamodel::ConcreteRoleHOW&#45;&gt;Metamodel::AttributeContainer</title>
<path fill="none" stroke="#6666ff" d="M464.061,-299.97C261.256,-301.375 -97.4172,-303.861 -97.4172,-303.861 -97.4172,-303.861 -243.082,-309.856 -357.526,-314.566"/>
<polygon fill="#6666ff" stroke="#6666ff" points="-357.951,-311.081 -367.798,-314.989 -357.663,-318.075 -357.951,-311.081"/>
</g>
<!-- Metamodel::ConcreteRoleHOW&#45;&gt;Any -->
<g id="edge4" class="edge"><title>Metamodel::ConcreteRoleHOW&#45;&gt;Any</title>
<path fill="none" stroke="#000000" d="M623.593,-281.183C695.531,-227.415 909.822,-67.2511 984.652,-11.3225"/>
<polygon fill="#000000" stroke="#000000" points="986.751,-14.1229 992.666,-5.33265 982.56,-8.51594 986.751,-14.1229"/>
</g>
<!-- Metamodel::ConcreteRoleHOW&#45;&gt;Metamodel::Naming -->
<g id="edge36" class="edge"><title>Metamodel::ConcreteRoleHOW&#45;&gt;Metamodel::Naming</title>
<path fill="none" stroke="#6666ff" d="M545.261,-282.482C393.625,-236.402 -32.6648,-106.861 -190.435,-58.918"/>
<polygon fill="#6666ff" stroke="#6666ff" points="-189.847,-55.4387 -200.433,-55.8799 -191.883,-62.1362 -189.847,-55.4387"/>
</g>
<!-- Metamodel::ConcreteRoleHOW&#45;&gt;Metamodel::MethodContainer -->
<g id="edge39" class="edge"><title>Metamodel::ConcreteRoleHOW&#45;&gt;Metamodel::MethodContainer</title>
<path fill="none" stroke="#6666ff" d="M510.014,-285.454C453.352,-276.879 380.156,-265.802 322.158,-257.024"/>
<polygon fill="#6666ff" stroke="#6666ff" points="322.662,-253.561 312.251,-255.525 321.615,-260.482 322.662,-253.561"/>
</g>
<!-- Metamodel::ConcreteRoleHOW&#45;&gt;Metamodel::MultiMethodContainer -->
<g id="edge40" class="edge"><title>Metamodel::ConcreteRoleHOW&#45;&gt;Metamodel::MultiMethodContainer</title>
<path fill="none" stroke="#6666ff" d="M566.073,-281.509C464.486,-228.604 160.938,-70.5208 48.3083,-11.865"/>
<polygon fill="#6666ff" stroke="#6666ff" points="49.7568,-8.67319 39.2708,-7.1584 46.5235,-14.8817 49.7568,-8.67319"/>
</g>
<!-- Metamodel::ConcreteRoleHOW&#45;&gt;Metamodel::RoleContainer -->
<g id="edge42" class="edge"><title>Metamodel::ConcreteRoleHOW&#45;&gt;Metamodel::RoleContainer</title>
<path fill="none" stroke="#6666ff" d="M583.912,-280.934C529.403,-218.521 349.1,-12.0748 285.303,60.9727"/>
<polygon fill="#6666ff" stroke="#6666ff" points="287.674,63.5785 278.46,68.808 282.402,58.9738 287.674,63.5785"/>
</g>
<!-- Metamodel::ConcreteRoleHOW&#45;&gt;Metamodel::Versioning -->
<g id="edge37" class="edge"><title>Metamodel::ConcreteRoleHOW&#45;&gt;Metamodel::Versioning</title>
<path fill="none" stroke="#6666ff" d="M597.34,-281.02C590.664,-230.406 571.692,-86.5846 563.582,-25.099"/>
<polygon fill="#6666ff" stroke="#6666ff" points="567.021,-24.4088 562.243,-14.9524 560.081,-25.3243 567.021,-24.4088"/>
</g>
<!-- Metamodel::ConcreteRoleHOW&#45;&gt;Metamodel::PrivateMethodContainer -->
<g id="edge38" class="edge"><title>Metamodel::ConcreteRoleHOW&#45;&gt;Metamodel::PrivateMethodContainer</title>
<path fill="none" stroke="#6666ff" d="M567.411,-316.684C453.361,-379.015 69.6202,-588.738 -57.6871,-658.314"/>
<polygon fill="#6666ff" stroke="#6666ff" points="-59.6581,-655.403 -66.7546,-663.27 -56.3011,-661.545 -59.6581,-655.403"/>
</g>
<!-- Metamodel::ConcreteRoleHOW&#45;&gt;Metamodel::MultipleInheritance -->
<g id="edge43" class="edge"><title>Metamodel::ConcreteRoleHOW&#45;&gt;Metamodel::MultipleInheritance</title>
<path fill="none" stroke="#6666ff" d="M468.012,-303.639C346.291,-307.899 166.001,-314.21 41.7011,-318.56"/>
<polygon fill="#6666ff" stroke="#6666ff" points="41.2247,-315.075 31.3533,-318.923 41.4696,-322.07 41.2247,-315.075"/>
</g>
<!-- Metamodel::TypePretense -->
<g id="node26" class="node"><title>Metamodel::TypePretense</title>
<g id="a_node26"><a xlink:href="/type/Metamodel::TypePretense" xlink:title="Metamodel::TypePretense">
<ellipse fill="none" stroke="#6666ff" cx="1012.58" cy="-569.342" rx="114.28" ry="18"/>
<text text-anchor="middle" x="1012.58" y="-565.642" font-family="FreeSans" font-size="14.00" fill="#6666ff">Metamodel::TypePretense</text>
</a>
</g>
</g>
<!-- Metamodel::RolePunning -->
<g id="node27" class="node"><title>Metamodel::RolePunning</title>
<g id="a_node27"><a xlink:href="/type/Metamodel::RolePunning" xlink:title="Metamodel::RolePunning">
<ellipse fill="none" stroke="#6666ff" cx="560.874" cy="-680.42" rx="109.681" ry="18"/>
<text text-anchor="middle" x="560.874" y="-676.72" font-family="FreeSans" font-size="14.00" fill="#6666ff">Metamodel::RolePunning</text>
</a>
</g>
</g>
<!-- Metamodel::ParametricRoleHOW -->
<g id="node28" class="node"><title>Metamodel::ParametricRoleHOW</title>
<g id="a_node28"><a xlink:href="/type/Metamodel::ParametricRoleHOW" xlink:title="Metamodel::ParametricRoleHOW">
<ellipse fill="none" stroke="#000000" cx="209.122" cy="-621.167" rx="142.175" ry="18"/>
<text text-anchor="middle" x="209.122" y="-617.467" font-family="FreeSans" font-size="14.00" fill="#000000">Metamodel::ParametricRoleHOW</text>
</a>
</g>
</g>
<!-- Metamodel::ParametricRoleHOW&#45;&gt;Metamodel::AttributeContainer -->
<g id="edge50" class="edge"><title>Metamodel::ParametricRoleHOW&#45;&gt;Metamodel::AttributeContainer</title>
<path fill="none" stroke="#6666ff" d="M168.877,-603.9C48.1373,-552.098 -310.81,-398.096 -442.978,-341.391"/>
<polygon fill="#6666ff" stroke="#6666ff" points="-441.897,-338.046 -452.467,-337.32 -444.657,-344.479 -441.897,-338.046"/>
</g>
<!-- Metamodel::ParametricRoleHOW&#45;&gt;Any -->
<g id="edge5" class="edge"><title>Metamodel::ParametricRoleHOW&#45;&gt;Any</title>
<path fill="none" stroke="#000000" d="M238.264,-603.391C348.959,-535.87 737.153,-299.082 737.153,-299.082 737.153,-299.082 926.227,-86.7509 990.041,-15.0872"/>
<polygon fill="#000000" stroke="#000000" points="992.806,-17.2445 996.843,-7.4486 987.579,-12.5893 992.806,-17.2445"/>
</g>
<!-- Metamodel::ParametricRoleHOW&#45;&gt;Metamodel::Naming -->
<g id="edge44" class="edge"><title>Metamodel::ParametricRoleHOW&#45;&gt;Metamodel::Naming</title>
<path fill="none" stroke="#6666ff" d="M198.625,-603C161.293,-538.392 37.1758,-323.59 37.1758,-323.59 37.1758,-323.59 -155.001,-134.42 -225.008,-65.5077"/>
<polygon fill="#6666ff" stroke="#6666ff" points="-222.577,-62.9895 -232.159,-58.4687 -227.488,-67.9781 -222.577,-62.9895"/>
</g>
<!-- Metamodel::ParametricRoleHOW&#45;&gt;Metamodel::Stashing -->
<g id="edge53" class="edge"><title>Metamodel::ParametricRoleHOW&#45;&gt;Metamodel::Stashing</title>
<path fill="none" stroke="#6666ff" d="M216.022,-603.157C244.854,-527.9 354.203,-242.481 354.203,-242.481 354.203,-242.481 507.09,172.895 548.489,285.371"/>
<polygon fill="#6666ff" stroke="#6666ff" points="551.863,284.404 552.032,294.998 545.294,286.822 551.863,284.404"/>
</g>
<!-- Metamodel::ParametricRoleHOW&#45;&gt;Metamodel::MethodContainer -->
<g id="edge47" class="edge"><title>Metamodel::ParametricRoleHOW&#45;&gt;Metamodel::MethodContainer</title>
<path fill="none" stroke="#6666ff" d="M209.888,-603.151C212.467,-542.453 220.852,-345.09 224.004,-270.897"/>
<polygon fill="#6666ff" stroke="#6666ff" points="227.519,-270.62 224.447,-260.48 220.526,-270.322 227.519,-270.62"/>
</g>
<!-- Metamodel::ParametricRoleHOW&#45;&gt;Metamodel::MultiMethodContainer -->
<g id="edge49" class="edge"><title>Metamodel::ParametricRoleHOW&#45;&gt;Metamodel::MultiMethodContainer</title>
<path fill="none" stroke="#6666ff" d="M203.252,-602.947C174.588,-513.992 49.3223,-125.236 14.5885,-17.4416"/>
<polygon fill="#6666ff" stroke="#6666ff" points="17.825,-16.0738 11.4267,-7.62913 11.1623,-18.2207 17.825,-16.0738"/>
</g>
<!-- Metamodel::ParametricRoleHOW&#45;&gt;Metamodel::RoleContainer -->
<g id="edge51" class="edge"><title>Metamodel::ParametricRoleHOW&#45;&gt;Metamodel::RoleContainer</title>
<path fill="none" stroke="#6666ff" d="M216.022,-603.157C244.854,-527.9 354.203,-242.481 354.203,-242.481 354.203,-242.481 292.583,-20.7164 270.471,58.8617"/>
<polygon fill="#6666ff" stroke="#6666ff" points="273.79,59.9897 267.741,68.6876 267.046,58.1156 273.79,59.9897"/>
</g>
<!-- Metamodel::ParametricRoleHOW&#45;&gt;Metamodel::Documenting -->
<g id="edge45" class="edge"><title>Metamodel::ParametricRoleHOW&#45;&gt;Metamodel::Documenting</title>
<path fill="none" stroke="#6666ff" d="M84.9198,-630.038C-41.6947,-639.083 -236.338,-652.986 -358.307,-661.698"/>
<polygon fill="#6666ff" stroke="#6666ff" points="-358.693,-658.217 -368.418,-662.421 -358.195,-665.199 -358.693,-658.217"/>
</g>
<!-- Metamodel::ParametricRoleHOW&#45;&gt;Metamodel::Versioning -->
<g id="edge46" class="edge"><title>Metamodel::ParametricRoleHOW&#45;&gt;Metamodel::Versioning</title>
<path fill="none" stroke="#6666ff" d="M219.24,-603.15C268.734,-515.014 485.359,-129.266 544.734,-23.5371"/>
<polygon fill="#6666ff" stroke="#6666ff" points="547.826,-25.1782 549.671,-14.7451 541.723,-21.7506 547.826,-25.1782"/>
</g>
<!-- Metamodel::ParametricRoleHOW&#45;&gt;Metamodel::PrivateMethodContainer -->
<g id="edge48" class="edge"><title>Metamodel::ParametricRoleHOW&#45;&gt;Metamodel::PrivateMethodContainer</title>
<path fill="none" stroke="#6666ff" d="M131.34,-636.254C88.4789,-644.568 35.0796,-654.926 -9.52182,-663.578"/>
<polygon fill="#6666ff" stroke="#6666ff" points="-10.3316,-660.17 -19.4821,-665.51 -8.9986,-667.042 -10.3316,-660.17"/>
</g>
<!-- Metamodel::ParametricRoleHOW&#45;&gt;Metamodel::MultipleInheritance -->
<g id="edge52" class="edge"><title>Metamodel::ParametricRoleHOW&#45;&gt;Metamodel::MultipleInheritance</title>
<path fill="none" stroke="#6666ff" d="M190.354,-602.992C137.595,-551.903 -12.1042,-406.939 -72.5369,-348.418"/>
<polygon fill="#6666ff" stroke="#6666ff" points="-70.168,-345.84 -79.7866,-341.398 -75.0375,-350.869 -70.168,-345.84"/>
</g>
<!-- Metamodel::ParametricRoleHOW&#45;&gt;Metamodel::TypePretense -->
<g id="edge54" class="edge"><title>Metamodel::ParametricRoleHOW&#45;&gt;Metamodel::TypePretense</title>
<path fill="none" stroke="#6666ff" d="M335.989,-612.983C489.985,-603.05 747.506,-586.439 896.479,-576.83"/>
<polygon fill="#6666ff" stroke="#6666ff" points="896.819,-580.316 906.573,-576.179 896.369,-573.33 896.819,-580.316"/>
</g>
<!-- Metamodel::ParametricRoleHOW&#45;&gt;Metamodel::RolePunning -->
<g id="edge55" class="edge"><title>Metamodel::ParametricRoleHOW&#45;&gt;Metamodel::RolePunning</title>
<path fill="none" stroke="#6666ff" d="M294.721,-635.586C349.186,-644.761 419.499,-656.605 474.176,-665.816"/>
<polygon fill="#6666ff" stroke="#6666ff" points="473.754,-669.294 484.196,-667.503 474.917,-662.391 473.754,-669.294"/>
</g>
</g>
</svg>
