<?xml version="1.0" encoding="UTF-8" standalone="no"?>
<!DOCTYPE svg PUBLIC "-//W3C//DTD SVG 1.1//EN"
 "http://www.w3.org/Graphics/SVG/1.1/DTD/svg11.dtd">
<!-- Generated by graphviz version 2.38.0 (20140413.2041)
 -->
<!-- Title: perl6&#45;type&#45;graph Pages: 1 -->
<svg width="632pt" height="332pt"
 viewBox="0.00 0.00 631.79 332.00" xmlns="http://www.w3.org/2000/svg" xmlns:xlink="http://www.w3.org/1999/xlink">
<g id="graph0" class="graph" transform="scale(1 1) rotate(0) translate(4 328)">
<title>perl6&#45;type&#45;graph</title>
<polygon fill="white" stroke="none" points="-4,4 -4,-328 627.787,-328 627.787,4 -4,4"/>
<!-- IO -->
<g id="node1" class="node"><title>IO</title>
<g id="a_node1"><a xlink:href="/type/IO" xlink:title="IO">
<ellipse fill="none" stroke="#6666ff" cx="244.343" cy="-162" rx="27" ry="18"/>
<text text-anchor="middle" x="244.343" y="-158.3" font-family="FreeSans" font-size="14.00" fill="#6666ff">IO</text>
</a>
</g>
</g>
<!-- Mu -->
<g id="node2" class="node"><title>Mu</title>
<g id="a_node2"><a xlink:href="/type/Mu" xlink:title="Mu">
<ellipse fill="none" stroke="#000000" cx="253.343" cy="-306" rx="27" ry="18"/>
<text text-anchor="middle" x="253.343" y="-302.3" font-family="FreeSans" font-size="14.00" fill="#000000">Mu</text>
</a>
</g>
</g>
<!-- Any -->
<g id="node3" class="node"><title>Any</title>
<g id="a_node3"><a xlink:href="/type/Any" xlink:title="Any">
<ellipse fill="none" stroke="#000000" cx="253.343" cy="-234" rx="27" ry="18"/>
<text text-anchor="middle" x="253.343" y="-230.3" font-family="FreeSans" font-size="14.00" fill="#000000">Any</text>
</a>
</g>
</g>
<!-- Any&#45;&gt;Mu -->
<g id="edge1" class="edge"><title>Any&#45;&gt;Mu</title>
<path fill="none" stroke="#000000" d="M253.343,-252.303C253.343,-260.017 253.343,-269.288 253.343,-277.888"/>
<polygon fill="#000000" stroke="#000000" points="249.843,-277.896 253.343,-287.896 256.843,-277.896 249.843,-277.896"/>
</g>
<!-- Cool -->
<g id="node4" class="node"><title>Cool</title>
<g id="a_node4"><a xlink:href="/type/Cool" xlink:title="Cool">
<ellipse fill="none" stroke="#000000" cx="318.343" cy="-162" rx="28.6953" ry="18"/>
<text text-anchor="middle" x="318.343" y="-158.3" font-family="FreeSans" font-size="14.00" fill="#000000">Cool</text>
</a>
</g>
</g>
<!-- Cool&#45;&gt;Any -->
<g id="edge2" class="edge"><title>Cool&#45;&gt;Any</title>
<path fill="none" stroke="#000000" d="M304.558,-177.845C295.682,-187.404 283.98,-200.006 274.003,-210.751"/>
<polygon fill="#000000" stroke="#000000" points="271.348,-208.467 267.108,-218.176 276.477,-213.23 271.348,-208.467"/>
</g>
<!-- IO::Path -->
<g id="node5" class="node"><title>IO::Path</title>
<g id="a_node5"><a xlink:href="/type/IO::Path" xlink:title="IO::Path">
<ellipse fill="none" stroke="#000000" cx="314.343" cy="-90" rx="43.5923" ry="18"/>
<text text-anchor="middle" x="314.343" y="-86.3" font-family="FreeSans" font-size="14.00" fill="#000000">IO::Path</text>
</a>
</g>
</g>
<!-- IO::Path&#45;&gt;IO -->
<g id="edge9" class="edge"><title>IO::Path&#45;&gt;IO</title>
<path fill="none" stroke="#6666ff" d="M298.459,-106.884C288.851,-116.492 276.471,-128.872 265.977,-139.366"/>
<polygon fill="#6666ff" stroke="#6666ff" points="263.332,-137.061 258.736,-146.607 268.282,-142.011 263.332,-137.061"/>
</g>
<!-- IO::Path&#45;&gt;Cool -->
<g id="edge3" class="edge"><title>IO::Path&#45;&gt;Cool</title>
<path fill="none" stroke="#000000" d="M315.332,-108.303C315.773,-116.017 316.302,-125.288 316.794,-133.888"/>
<polygon fill="#000000" stroke="#000000" points="313.301,-134.112 317.366,-143.896 320.289,-133.712 313.301,-134.112"/>
</g>
<!-- IO::Special -->
<g id="node6" class="node"><title>IO::Special</title>
<g id="a_node6"><a xlink:href="/type/IO::Special" xlink:title="IO::Special">
<ellipse fill="none" stroke="#000000" cx="192.343" cy="-90" rx="53.8905" ry="18"/>
<text text-anchor="middle" x="192.343" y="-86.3" font-family="FreeSans" font-size="14.00" fill="#000000">IO::Special</text>
</a>
</g>
</g>
<!-- IO::Special&#45;&gt;IO -->
<g id="edge10" class="edge"><title>IO::Special&#45;&gt;IO</title>
<path fill="none" stroke="#6666ff" d="M204.666,-107.589C211.263,-116.47 219.503,-127.561 226.761,-137.332"/>
<polygon fill="#6666ff" stroke="#6666ff" points="224.048,-139.549 232.821,-145.489 229.667,-135.375 224.048,-139.549"/>
</g>
<!-- IO::Special&#45;&gt;Any -->
<g id="edge4" class="edge"><title>IO::Special&#45;&gt;Any</title>
<path fill="none" stroke="#000000" d="M195.428,-108.16C200.078,-134.022 208.343,-180 208.343,-180 208.343,-180 221.813,-195.865 234.014,-210.235"/>
<polygon fill="#000000" stroke="#000000" points="231.428,-212.596 240.568,-217.954 236.764,-208.066 231.428,-212.596"/>
</g>
<!-- IO::Path::Cygwin -->
<g id="node7" class="node"><title>IO::Path::Cygwin</title>
<g id="a_node7"><a xlink:href="/type/IO::Path::Cygwin" xlink:title="IO::Path::Cygwin">
<ellipse fill="none" stroke="#000000" cx="77.3431" cy="-18" rx="77.1866" ry="18"/>
<text text-anchor="middle" x="77.3431" y="-14.3" font-family="FreeSans" font-size="14.00" fill="#000000">IO::Path::Cygwin</text>
</a>
</g>
</g>
<!-- IO::Path::Cygwin&#45;&gt;IO::Path -->
<g id="edge5" class="edge"><title>IO::Path::Cygwin&#45;&gt;IO::Path</title>
<path fill="none" stroke="#000000" d="M123.32,-32.5797C165.816,-45.1311 228.53,-63.6542 270.373,-76.0131"/>
<polygon fill="#000000" stroke="#000000" points="269.432,-79.3844 280.013,-78.8604 271.414,-72.6711 269.432,-79.3844"/>
</g>
<!-- IO::Path::Unix -->
<g id="node8" class="node"><title>IO::Path::Unix</title>
<g id="a_node8"><a xlink:href="/type/IO::Path::Unix" xlink:title="IO::Path::Unix">
<ellipse fill="none" stroke="#000000" cx="238.343" cy="-18" rx="65.7887" ry="18"/>
<text text-anchor="middle" x="238.343" y="-14.3" font-family="FreeSans" font-size="14.00" fill="#000000">IO::Path::Unix</text>
</a>
</g>
</g>
<!-- IO::Path::Unix&#45;&gt;IO::Path -->
<g id="edge6" class="edge"><title>IO::Path::Unix&#45;&gt;IO::Path</title>
<path fill="none" stroke="#000000" d="M256.354,-35.589C266.315,-44.7634 278.837,-56.2971 289.694,-66.2967"/>
<polygon fill="#000000" stroke="#000000" points="287.518,-69.0507 297.244,-73.2511 292.26,-63.9019 287.518,-69.0507"/>
</g>
<!-- IO::Path::QNX -->
<g id="node9" class="node"><title>IO::Path::QNX</title>
<g id="a_node9"><a xlink:href="/type/IO::Path::QNX" xlink:title="IO::Path::QNX">
<ellipse fill="none" stroke="#000000" cx="390.343" cy="-18" rx="68.4888" ry="18"/>
<text text-anchor="middle" x="390.343" y="-14.3" font-family="FreeSans" font-size="14.00" fill="#000000">IO::Path::QNX</text>
</a>
</g>
</g>
<!-- IO::Path::QNX&#45;&gt;IO::Path -->
<g id="edge7" class="edge"><title>IO::Path::QNX&#45;&gt;IO::Path</title>
<path fill="none" stroke="#000000" d="M372.332,-35.589C362.371,-44.7634 349.849,-56.2971 338.992,-66.2967"/>
<polygon fill="#000000" stroke="#000000" points="336.426,-63.9019 331.442,-73.2511 341.169,-69.0507 336.426,-63.9019"/>
</g>
<!-- IO::Path::Win32 -->
<g id="node10" class="node"><title>IO::Path::Win32</title>
<g id="a_node10"><a xlink:href="/type/IO::Path::Win32" xlink:title="IO::Path::Win32">
<ellipse fill="none" stroke="#000000" cx="550.343" cy="-18" rx="73.387" ry="18"/>
<text text-anchor="middle" x="550.343" y="-14.3" font-family="FreeSans" font-size="14.00" fill="#000000">IO::Path::Win32</text>
</a>
</g>
</g>
<!-- IO::Path::Win32&#45;&gt;IO::Path -->
<g id="edge8" class="edge"><title>IO::Path::Win32&#45;&gt;IO::Path</title>
<path fill="none" stroke="#000000" d="M505.398,-32.3312C463.178,-44.854 400.388,-63.4782 358.445,-75.9189"/>
<polygon fill="#000000" stroke="#000000" points="357.373,-72.5862 348.781,-78.7854 359.363,-79.2972 357.373,-72.5862"/>
</g>
</g>
</svg>
