<?xml version="1.0" encoding="UTF-8" standalone="no"?>
<!DOCTYPE svg PUBLIC "-//W3C//DTD SVG 1.1//EN"
 "http://www.w3.org/Graphics/SVG/1.1/DTD/svg11.dtd">
<!-- Generated by graphviz version 2.38.0 (20140413.2041)
 -->
<!-- Title: perl6&#45;type&#45;graph Pages: 1 -->
<svg width="2433pt" height="957pt"
 viewBox="0.00 0.00 2433.21 957.12" xmlns="http://www.w3.org/2000/svg" xmlns:xlink="http://www.w3.org/1999/xlink">
<g id="graph0" class="graph" transform="scale(1 1) rotate(0) translate(1199.04 472.855)">
<title>perl6&#45;type&#45;graph</title>
<polygon fill="white" stroke="none" points="-1199.04,484.264 -1199.04,-472.855 1234.18,-472.855 1234.18,484.264 -1199.04,484.264"/>
<!-- Metamodel::MultipleInheritance -->
<g id="node1" class="node"><title>Metamodel::MultipleInheritance</title>
<g id="a_node1"><a xlink:href="/type/Metamodel::MultipleInheritance" xlink:title="Metamodel::MultipleInheritance">
<ellipse fill="none" stroke="#6666ff" cx="1.78417" cy="-81.7851" rx="133.776" ry="18"/>
<text text-anchor="middle" x="1.78417" y="-78.0851" font-family="FreeSans" font-size="14.00" fill="#6666ff">Metamodel::MultipleInheritance</text>
</a>
</g>
</g>
<!-- Mu -->
<g id="node2" class="node"><title>Mu</title>
<g id="a_node2"><a xlink:href="/type/Mu" xlink:title="Mu">
<ellipse fill="none" stroke="#000000" cx="1080.4" cy="406.63" rx="27" ry="18"/>
<text text-anchor="middle" x="1080.4" y="410.33" font-family="FreeSans" font-size="14.00" fill="#000000">Mu</text>
</a>
</g>
</g>
<!-- Any -->
<g id="node3" class="node"><title>Any</title>
<g id="a_node3"><a xlink:href="/type/Any" xlink:title="Any">
<ellipse fill="none" stroke="#000000" cx="624.904" cy="413.843" rx="27" ry="18"/>
<text text-anchor="middle" x="624.904" y="417.543" font-family="FreeSans" font-size="14.00" fill="#000000">Any</text>
</a>
</g>
</g>
<!-- Any&#45;&gt;Mu -->
<g id="edge1" class="edge"><title>Any&#45;&gt;Mu</title>
<path fill="none" stroke="#000000" d="M652.033,413.414C729.79,412.182 953.581,408.638 1042.92,407.224"/>
<polygon fill="#000000" stroke="#000000" points="1043.07,403.721 1053.12,407.062 1043.18,410.72 1043.07,403.721"/>
</g>
<!-- Metamodel::Naming -->
<g id="node4" class="node"><title>Metamodel::Naming</title>
<g id="a_node4"><a xlink:href="/type/Metamodel::Naming" xlink:title="Metamodel::Naming">
<ellipse fill="none" stroke="#6666ff" cx="122.307" cy="135.409" rx="90.1842" ry="18"/>
<text text-anchor="middle" x="122.307" y="139.109" font-family="FreeSans" font-size="14.00" fill="#6666ff">Metamodel::Naming</text>
</a>
</g>
</g>
<!-- Metamodel::Documenting -->
<g id="node5" class="node"><title>Metamodel::Documenting</title>
<g id="a_node5"><a xlink:href="/type/Metamodel::Documenting" xlink:title="Metamodel::Documenting">
<ellipse fill="none" stroke="#6666ff" cx="291.431" cy="462.264" rx="111.28" ry="18"/>
<text text-anchor="middle" x="291.431" y="465.964" font-family="FreeSans" font-size="14.00" fill="#6666ff">Metamodel::Documenting</text>
</a>
</g>
</g>
<!-- Metamodel::Versioning -->
<g id="node6" class="node"><title>Metamodel::Versioning</title>
<g id="a_node6"><a xlink:href="/type/Metamodel::Versioning" xlink:title="Metamodel::Versioning">
<ellipse fill="none" stroke="#6666ff" cx="369.521" cy="165.395" rx="100.983" ry="18"/>
<text text-anchor="middle" x="369.521" y="169.095" font-family="FreeSans" font-size="14.00" fill="#6666ff">Metamodel::Versioning</text>
</a>
</g>
</g>
<!-- Metamodel::Stashing -->
<g id="node7" class="node"><title>Metamodel::Stashing</title>
<g id="a_node7"><a xlink:href="/type/Metamodel::Stashing" xlink:title="Metamodel::Stashing">
<ellipse fill="none" stroke="#6666ff" cx="-123.842" cy="139.594" rx="93.6835" ry="18"/>
<text text-anchor="middle" x="-123.842" y="143.294" font-family="FreeSans" font-size="14.00" fill="#6666ff">Metamodel::Stashing</text>
</a>
</g>
</g>
<!-- Metamodel::C3MRO -->
<g id="node8" class="node"><title>Metamodel::C3MRO</title>
<g id="a_node8"><a xlink:href="/type/Metamodel::C3MRO" xlink:title="Metamodel::C3MRO">
<ellipse fill="none" stroke="#6666ff" cx="-254.557" cy="458.154" rx="92.0841" ry="18"/>
<text text-anchor="middle" x="-254.557" y="461.854" font-family="FreeSans" font-size="14.00" fill="#6666ff">Metamodel::C3MRO</text>
</a>
</g>
</g>
<!-- Metamodel::MROBasedMethodDispatch -->
<g id="node9" class="node"><title>Metamodel::MROBasedMethodDispatch</title>
<g id="a_node9"><a xlink:href="/type/Metamodel::MROBasedMethodDispatch" xlink:title="Metamodel::MROBasedMethodDispatch">
<ellipse fill="none" stroke="#6666ff" cx="-369.5" cy="161.429" rx="169.77" ry="18"/>
<text text-anchor="middle" x="-369.5" y="165.129" font-family="FreeSans" font-size="14.00" fill="#6666ff">Metamodel::MROBasedMethodDispatch</text>
</a>
</g>
</g>
<!-- Metamodel::MROBasedTypeChecking -->
<g id="node10" class="node"><title>Metamodel::MROBasedTypeChecking</title>
<g id="a_node10"><a xlink:href="/type/Metamodel::MROBasedTypeChecking" xlink:title="Metamodel::MROBasedTypeChecking">
<ellipse fill="none" stroke="#6666ff" cx="-598.419" cy="425.203" rx="163.271" ry="18"/>
<text text-anchor="middle" x="-598.419" y="428.903" font-family="FreeSans" font-size="14.00" fill="#6666ff">Metamodel::MROBasedTypeChecking</text>
</a>
</g>
</g>
<!-- Metamodel::NativeHOW -->
<g id="node11" class="node"><title>Metamodel::NativeHOW</title>
<g id="a_node11"><a xlink:href="/type/Metamodel::NativeHOW" xlink:title="Metamodel::NativeHOW">
<ellipse fill="none" stroke="#000000" cx="19.2211" cy="437.605" rx="107.482" ry="18"/>
<text text-anchor="middle" x="19.2211" y="441.305" font-family="FreeSans" font-size="14.00" fill="#000000">Metamodel::NativeHOW</text>
</a>
</g>
</g>
<!-- Metamodel::NativeHOW&#45;&gt;Metamodel::MultipleInheritance -->
<g id="edge10" class="edge"><title>Metamodel::NativeHOW&#45;&gt;Metamodel::MultipleInheritance</title>
<path fill="none" stroke="#6666ff" d="M18.6108,419.424C16.0161,342.137 5.89063,40.5331 2.7312,-53.576"/>
<polygon fill="#6666ff" stroke="#6666ff" points="-0.772821,-53.64 2.38958,-63.7518 6.22324,-53.8749 -0.772821,-53.64"/>
</g>
<!-- Metamodel::NativeHOW&#45;&gt;Any -->
<g id="edge2" class="edge"><title>Metamodel::NativeHOW&#45;&gt;Any</title>
<path fill="none" stroke="#000000" d="M123.686,433.507C261.381,428.105 496.77,418.87 587.614,415.306"/>
<polygon fill="#000000" stroke="#000000" points="587.581,411.805 597.71,414.91 587.855,418.799 587.581,411.805"/>
</g>
<!-- Metamodel::NativeHOW&#45;&gt;Metamodel::Naming -->
<g id="edge6" class="edge"><title>Metamodel::NativeHOW&#45;&gt;Metamodel::Naming</title>
<path fill="none" stroke="#6666ff" d="M25.3609,419.606C42.6521,368.917 91.8515,224.69 112.74,163.455"/>
<polygon fill="#6666ff" stroke="#6666ff" points="109.528,162.03 116.069,153.695 116.153,164.29 109.528,162.03"/>
</g>
<!-- Metamodel::NativeHOW&#45;&gt;Metamodel::Documenting -->
<g id="edge7" class="edge"><title>Metamodel::NativeHOW&#45;&gt;Metamodel::Documenting</title>
<path fill="none" stroke="#6666ff" d="M113.663,446.16C136.402,448.22 160.859,450.436 184.137,452.545"/>
<polygon fill="#6666ff" stroke="#6666ff" points="184.741,449.085 194.384,453.473 184.109,456.056 184.741,449.085"/>
</g>
<!-- Metamodel::NativeHOW&#45;&gt;Metamodel::Versioning -->
<g id="edge8" class="edge"><title>Metamodel::NativeHOW&#45;&gt;Metamodel::Versioning</title>
<path fill="none" stroke="#6666ff" d="M41.9354,419.954C102.833,372.632 269.798,242.888 338.927,189.169"/>
<polygon fill="#6666ff" stroke="#6666ff" points="336.814,186.378 346.858,183.006 341.11,191.905 336.814,186.378"/>
</g>
<!-- Metamodel::NativeHOW&#45;&gt;Metamodel::Stashing -->
<g id="edge9" class="edge"><title>Metamodel::NativeHOW&#45;&gt;Metamodel::Stashing</title>
<path fill="none" stroke="#6666ff" d="M10.4873,419.412C-13.7638,368.895 -82.0305,226.69 -110.799,166.762"/>
<polygon fill="#6666ff" stroke="#6666ff" points="-114.05,168.079 -115.222,157.549 -107.739,165.049 -114.05,168.079"/>
</g>
<!-- Metamodel::NativeHOW&#45;&gt;Metamodel::C3MRO -->
<g id="edge11" class="edge"><title>Metamodel::NativeHOW&#45;&gt;Metamodel::C3MRO</title>
<path fill="none" stroke="#6666ff" d="M-78.8458,444.966C-104.582,446.897 -132.314,448.979 -157.971,450.904"/>
<polygon fill="#6666ff" stroke="#6666ff" points="-157.836,454.404 -168.07,451.662 -158.36,447.424 -157.836,454.404"/>
</g>
<!-- Metamodel::NativeHOW&#45;&gt;Metamodel::MROBasedMethodDispatch -->
<g id="edge12" class="edge"><title>Metamodel::NativeHOW&#45;&gt;Metamodel::MROBasedMethodDispatch</title>
<path fill="none" stroke="#6666ff" d="M-5.68644,419.909C-73.1305,371.992 -259.363,239.679 -335.944,185.27"/>
<polygon fill="#6666ff" stroke="#6666ff" points="-338.171,187.981 -344.296,179.336 -334.117,182.274 -338.171,187.981"/>
</g>
<!-- Metamodel::NativeHOW&#45;&gt;Metamodel::MROBasedTypeChecking -->
<g id="edge13" class="edge"><title>Metamodel::NativeHOW&#45;&gt;Metamodel::MROBasedTypeChecking</title>
<path fill="none" stroke="#6666ff" d="M-87.3066,435.466C-180.922,433.586 -318.822,430.817 -427.798,428.629"/>
<polygon fill="#6666ff" stroke="#6666ff" points="-427.989,432.126 -437.917,428.426 -427.849,425.127 -427.989,432.126"/>
</g>
<!-- Metamodel::AttributeContainer -->
<g id="node12" class="node"><title>Metamodel::AttributeContainer</title>
<g id="a_node12"><a xlink:href="/type/Metamodel::AttributeContainer" xlink:title="Metamodel::AttributeContainer">
<ellipse fill="none" stroke="#6666ff" cx="-167.908" cy="-170.511" rx="129.977" ry="18"/>
<text text-anchor="middle" x="-167.908" y="-166.811" font-family="FreeSans" font-size="14.00" fill="#6666ff">Metamodel::AttributeContainer</text>
</a>
</g>
</g>
<!-- Metamodel::Finalization -->
<g id="node13" class="node"><title>Metamodel::Finalization</title>
<g id="a_node13"><a xlink:href="/type/Metamodel::Finalization" xlink:title="Metamodel::Finalization">
<ellipse fill="none" stroke="#6666ff" cx="-294.822" cy="-450.855" rx="103.982" ry="18"/>
<text text-anchor="middle" x="-294.822" y="-447.155" font-family="FreeSans" font-size="14.00" fill="#6666ff">Metamodel::Finalization</text>
</a>
</g>
</g>
<!-- Metamodel::MethodContainer -->
<g id="node14" class="node"><title>Metamodel::MethodContainer</title>
<g id="a_node14"><a xlink:href="/type/Metamodel::MethodContainer" xlink:title="Metamodel::MethodContainer">
<ellipse fill="none" stroke="#6666ff" cx="288.225" cy="-448.869" rx="127.277" ry="18"/>
<text text-anchor="middle" x="288.225" y="-445.169" font-family="FreeSans" font-size="14.00" fill="#6666ff">Metamodel::MethodContainer</text>
</a>
</g>
</g>
<!-- Metamodel::PrivateMethodContainer -->
<g id="node15" class="node"><title>Metamodel::PrivateMethodContainer</title>
<g id="a_node15"><a xlink:href="/type/Metamodel::PrivateMethodContainer" xlink:title="Metamodel::PrivateMethodContainer">
<ellipse fill="none" stroke="#6666ff" cx="-2.37765" cy="-439.762" rx="154.873" ry="18"/>
<text text-anchor="middle" x="-2.37765" y="-436.062" font-family="FreeSans" font-size="14.00" fill="#6666ff">Metamodel::PrivateMethodContainer</text>
</a>
</g>
</g>
<!-- Metamodel::MultiMethodContainer -->
<g id="node16" class="node"><title>Metamodel::MultiMethodContainer</title>
<g id="a_node16"><a xlink:href="/type/Metamodel::MultiMethodContainer" xlink:title="Metamodel::MultiMethodContainer">
<ellipse fill="none" stroke="#6666ff" cx="174.012" cy="-170.924" rx="146.474" ry="18"/>
<text text-anchor="middle" x="174.012" y="-167.224" font-family="FreeSans" font-size="14.00" fill="#6666ff">Metamodel::MultiMethodContainer</text>
</a>
</g>
</g>
<!-- Metamodel::RoleContainer -->
<g id="node17" class="node"><title>Metamodel::RoleContainer</title>
<g id="a_node17"><a xlink:href="/type/Metamodel::RoleContainer" xlink:title="Metamodel::RoleContainer">
<ellipse fill="none" stroke="#6666ff" cx="399.384" cy="-114.118" rx="115.88" ry="18"/>
<text text-anchor="middle" x="399.384" y="-110.418" font-family="FreeSans" font-size="14.00" fill="#6666ff">Metamodel::RoleContainer</text>
</a>
</g>
</g>
<!-- Metamodel::DefaultParent -->
<g id="node18" class="node"><title>Metamodel::DefaultParent</title>
<g id="a_node18"><a xlink:href="/type/Metamodel::DefaultParent" xlink:title="Metamodel::DefaultParent">
<ellipse fill="none" stroke="#6666ff" cx="-623.02" cy="-396.772" rx="113.18" ry="18"/>
<text text-anchor="middle" x="-623.02" y="-393.072" font-family="FreeSans" font-size="14.00" fill="#6666ff">Metamodel::DefaultParent</text>
</a>
</g>
</g>
<!-- Metamodel::Trusting -->
<g id="node19" class="node"><title>Metamodel::Trusting</title>
<g id="a_node19"><a xlink:href="/type/Metamodel::Trusting" xlink:title="Metamodel::Trusting">
<ellipse fill="none" stroke="#6666ff" cx="-1103.4" cy="4.30878" rx="91.784" ry="18"/>
<text text-anchor="middle" x="-1103.4" y="8.00878" font-family="FreeSans" font-size="14.00" fill="#6666ff">Metamodel::Trusting</text>
</a>
</g>
</g>
<!-- Metamodel::BUILDPLAN -->
<g id="node20" class="node"><title>Metamodel::BUILDPLAN</title>
<g id="a_node20"><a xlink:href="/type/Metamodel::BUILDPLAN" xlink:title="Metamodel::BUILDPLAN">
<ellipse fill="none" stroke="#6666ff" cx="-1069.1" cy="-397.297" rx="109.681" ry="18"/>
<text text-anchor="middle" x="-1069.1" y="-393.597" font-family="FreeSans" font-size="14.00" fill="#6666ff">Metamodel::BUILDPLAN</text>
</a>
</g>
</g>
<!-- Metamodel::Mixins -->
<g id="node21" class="node"><title>Metamodel::Mixins</title>
<g id="a_node21"><a xlink:href="/type/Metamodel::Mixins" xlink:title="Metamodel::Mixins">
<ellipse fill="none" stroke="#6666ff" cx="-1062.92" cy="407.374" rx="85.2851" ry="18"/>
<text text-anchor="middle" x="-1062.92" y="411.074" font-family="FreeSans" font-size="14.00" fill="#6666ff">Metamodel::Mixins</text>
</a>
</g>
</g>
<!-- Metamodel::BoolificationProtocol -->
<g id="node22" class="node"><title>Metamodel::BoolificationProtocol</title>
<g id="a_node22"><a xlink:href="/type/Metamodel::BoolificationProtocol" xlink:title="Metamodel::BoolificationProtocol">
<ellipse fill="none" stroke="#6666ff" cx="-675.796" cy="25.4036" rx="139.175" ry="18"/>
<text text-anchor="middle" x="-675.796" y="29.1036" font-family="FreeSans" font-size="14.00" fill="#6666ff">Metamodel::BoolificationProtocol</text>
</a>
</g>
</g>
<!-- Metamodel::ClassHOW -->
<g id="node23" class="node"><title>Metamodel::ClassHOW</title>
<g id="a_node23"><a xlink:href="/type/Metamodel::ClassHOW" xlink:title="Metamodel::ClassHOW">
<ellipse fill="none" stroke="#000000" cx="-396.305" cy="-123.242" rx="103.982" ry="18"/>
<text text-anchor="middle" x="-396.305" y="-119.542" font-family="FreeSans" font-size="14.00" fill="#000000">Metamodel::ClassHOW</text>
</a>
</g>
</g>
<!-- Metamodel::ClassHOW&#45;&gt;Metamodel::MultipleInheritance -->
<g id="edge24" class="edge"><title>Metamodel::ClassHOW&#45;&gt;Metamodel::MultipleInheritance</title>
<path fill="none" stroke="#6666ff" d="M-306.966,-113.938C-250.073,-108.013 -175.79,-100.278 -114.344,-93.8786"/>
<polygon fill="#6666ff" stroke="#6666ff" points="-113.79,-97.3399 -104.206,-92.8229 -114.515,-90.3776 -113.79,-97.3399"/>
</g>
<!-- Metamodel::ClassHOW&#45;&gt;Any -->
<g id="edge3" class="edge"><title>Metamodel::ClassHOW&#45;&gt;Any</title>
<path fill="none" stroke="#000000" d="M-367.648,-105.866C-271.983,-47.8613 30.3657,135.462 30.3657,135.462 30.3657,135.462 57.4719,149.306 57.4719,149.306 57.4719,149.306 474.001,343.492 593.318,399.118"/>
<polygon fill="#000000" stroke="#000000" points="595.075,396.075 602.66,403.473 592.117,402.42 595.075,396.075"/>
</g>
<!-- Metamodel::ClassHOW&#45;&gt;Metamodel::Naming -->
<g id="edge14" class="edge"><title>Metamodel::ClassHOW&#45;&gt;Metamodel::Naming</title>
<path fill="none" stroke="#6666ff" d="M-361.876,-106.071C-270.284,-60.3908 -20.7956,64.0382 79.6078,114.113"/>
<polygon fill="#6666ff" stroke="#6666ff" points="81.1792,110.986 88.5659,118.581 78.055,117.25 81.1792,110.986"/>
</g>
<!-- Metamodel::ClassHOW&#45;&gt;Metamodel::Documenting -->
<g id="edge15" class="edge"><title>Metamodel::ClassHOW&#45;&gt;Metamodel::Documenting</title>
<path fill="none" stroke="#6666ff" d="M-371.612,-105.596C-289.179,-46.6883 -28.6515,139.488 -28.6515,139.488 -28.6515,139.488 191.297,361.288 266.54,437.164"/>
<polygon fill="#6666ff" stroke="#6666ff" points="269.209,434.885 273.766,444.451 264.239,439.814 269.209,434.885"/>
</g>
<!-- Metamodel::ClassHOW&#45;&gt;Metamodel::Versioning -->
<g id="edge16" class="edge"><title>Metamodel::ClassHOW&#45;&gt;Metamodel::Versioning</title>
<path fill="none" stroke="#6666ff" d="M-352.659,-106.792C-220.754,-57.0773 173.456,91.4987 316.729,145.498"/>
<polygon fill="#6666ff" stroke="#6666ff" points="318.078,142.266 326.202,149.068 315.61,148.816 318.078,142.266"/>
</g>
<!-- Metamodel::ClassHOW&#45;&gt;Metamodel::Stashing -->
<g id="edge17" class="edge"><title>Metamodel::ClassHOW&#45;&gt;Metamodel::Stashing</title>
<path fill="none" stroke="#6666ff" d="M-377.578,-105.176C-330.022,-59.3005 -204.506,61.7802 -149.869,114.486"/>
<polygon fill="#6666ff" stroke="#6666ff" points="-147.107,112.287 -142.34,121.749 -151.967,117.325 -147.107,112.287"/>
</g>
<!-- Metamodel::ClassHOW&#45;&gt;Metamodel::C3MRO -->
<g id="edge26" class="edge"><title>Metamodel::ClassHOW&#45;&gt;Metamodel::C3MRO</title>
<path fill="none" stroke="#6666ff" d="M-384.121,-105.169C-344.07,-45.763 -219.032,139.7 -219.032,139.7 -219.032,139.7 -198.267,161.318 -198.267,161.318 -198.267,161.318 -235.179,355.968 -249.222,430.019"/>
<polygon fill="#6666ff" stroke="#6666ff" points="-245.819,430.859 -251.121,440.032 -252.696,429.555 -245.819,430.859"/>
</g>
<!-- Metamodel::ClassHOW&#45;&gt;Metamodel::MROBasedMethodDispatch -->
<g id="edge27" class="edge"><title>Metamodel::ClassHOW&#45;&gt;Metamodel::MROBasedMethodDispatch</title>
<path fill="none" stroke="#6666ff" d="M-394.588,-105.002C-390.039,-56.6972 -377.656,74.8125 -372.173,133.038"/>
<polygon fill="#6666ff" stroke="#6666ff" points="-368.656,133.057 -371.203,143.341 -375.625,133.713 -368.656,133.057"/>
</g>
<!-- Metamodel::ClassHOW&#45;&gt;Metamodel::MROBasedTypeChecking -->
<g id="edge28" class="edge"><title>Metamodel::ClassHOW&#45;&gt;Metamodel::MROBasedTypeChecking</title>
<path fill="none" stroke="#6666ff" d="M-405.56,-104.994C-437.436,-42.1397 -540.732,161.541 -540.732,161.541 -540.732,161.541 -577.393,329.103 -592.264,397.068"/>
<polygon fill="#6666ff" stroke="#6666ff" points="-588.898,398.059 -594.454,407.08 -595.736,396.563 -588.898,398.059"/>
</g>
<!-- Metamodel::ClassHOW&#45;&gt;Metamodel::AttributeContainer -->
<g id="edge18" class="edge"><title>Metamodel::ClassHOW&#45;&gt;Metamodel::AttributeContainer</title>
<path fill="none" stroke="#6666ff" d="M-329.322,-137.105C-304.578,-142.226 -276.244,-148.09 -250.293,-153.461"/>
<polygon fill="#6666ff" stroke="#6666ff" points="-250.978,-156.893 -240.476,-155.492 -249.559,-150.038 -250.978,-156.893"/>
</g>
<!-- Metamodel::ClassHOW&#45;&gt;Metamodel::Finalization -->
<g id="edge19" class="edge"><title>Metamodel::ClassHOW&#45;&gt;Metamodel::Finalization</title>
<path fill="none" stroke="#6666ff" d="M-390.705,-141.323C-373.863,-195.692 -323.598,-357.959 -303.383,-423.221"/>
<polygon fill="#6666ff" stroke="#6666ff" points="-306.708,-424.314 -300.406,-432.83 -300.022,-422.242 -306.708,-424.314"/>
</g>
<!-- Metamodel::ClassHOW&#45;&gt;Metamodel::MethodContainer -->
<g id="edge20" class="edge"><title>Metamodel::ClassHOW&#45;&gt;Metamodel::MethodContainer</title>
<path fill="none" stroke="#6666ff" d="M-361.355,-140.301C-333.625,-153.836 -299.496,-170.494 -299.496,-170.494 -299.496,-170.494 104.037,-361.628 242.354,-427.142"/>
<polygon fill="#6666ff" stroke="#6666ff" points="240.924,-430.338 251.46,-431.455 243.921,-424.012 240.924,-430.338"/>
</g>
<!-- Metamodel::ClassHOW&#45;&gt;Metamodel::PrivateMethodContainer -->
<g id="edge21" class="edge"><title>Metamodel::ClassHOW&#45;&gt;Metamodel::PrivateMethodContainer</title>
<path fill="none" stroke="#6666ff" d="M-374.282,-140.938C-307.841,-194.323 -109.272,-353.872 -32.8347,-415.29"/>
<polygon fill="#6666ff" stroke="#6666ff" points="-34.9656,-418.067 -24.9779,-421.603 -30.5811,-412.611 -34.9656,-418.067"/>
</g>
<!-- Metamodel::ClassHOW&#45;&gt;Metamodel::MultiMethodContainer -->
<g id="edge22" class="edge"><title>Metamodel::ClassHOW&#45;&gt;Metamodel::MultiMethodContainer</title>
<path fill="none" stroke="#6666ff" d="M-302.449,-131.089C-208.333,-138.958 -62.6196,-151.14 42.8923,-159.961"/>
<polygon fill="#6666ff" stroke="#6666ff" points="42.7177,-163.459 52.9746,-160.804 43.301,-156.483 42.7177,-163.459"/>
</g>
<!-- Metamodel::ClassHOW&#45;&gt;Metamodel::RoleContainer -->
<g id="edge23" class="edge"><title>Metamodel::ClassHOW&#45;&gt;Metamodel::RoleContainer</title>
<path fill="none" stroke="#6666ff" d="M-292.283,-122.049C-146.776,-120.381 117.207,-117.353 273.582,-115.56"/>
<polygon fill="#6666ff" stroke="#6666ff" points="273.765,-119.059 283.724,-115.444 273.684,-112.059 273.765,-119.059"/>
</g>
<!-- Metamodel::ClassHOW&#45;&gt;Metamodel::DefaultParent -->
<g id="edge25" class="edge"><title>Metamodel::ClassHOW&#45;&gt;Metamodel::DefaultParent</title>
<path fill="none" stroke="#6666ff" d="M-411.181,-141.189C-450.254,-188.331 -555.921,-315.817 -601.554,-370.873"/>
<polygon fill="#6666ff" stroke="#6666ff" points="-604.403,-368.826 -608.089,-378.759 -599.013,-373.293 -604.403,-368.826"/>
</g>
<!-- Metamodel::ClassHOW&#45;&gt;Metamodel::Trusting -->
<g id="edge29" class="edge"><title>Metamodel::ClassHOW&#45;&gt;Metamodel::Trusting</title>
<path fill="none" stroke="#6666ff" d="M-468.325,-110.251C-602.078,-86.123 -887.747,-34.5917 -1025.69,-9.70934"/>
<polygon fill="#6666ff" stroke="#6666ff" points="-1025.3,-6.2231 -1035.76,-7.8922 -1026.54,-13.1119 -1025.3,-6.2231"/>
</g>
<!-- Metamodel::ClassHOW&#45;&gt;Metamodel::BUILDPLAN -->
<g id="edge30" class="edge"><title>Metamodel::ClassHOW&#45;&gt;Metamodel::BUILDPLAN</title>
<path fill="none" stroke="#6666ff" d="M-437.128,-139.87C-554.083,-187.51 -890.196,-324.421 -1018.5,-376.684"/>
<polygon fill="#6666ff" stroke="#6666ff" points="-1020.16,-373.579 -1028.1,-380.593 -1017.51,-380.062 -1020.16,-373.579"/>
</g>
<!-- Metamodel::ClassHOW&#45;&gt;Metamodel::Mixins -->
<g id="edge31" class="edge"><title>Metamodel::ClassHOW&#45;&gt;Metamodel::Mixins</title>
<path fill="none" stroke="#6666ff" d="M-413.049,-105.334C-449.968,-65.8478 -535.115,25.2197 -535.115,25.2197 -535.115,25.2197 -915.536,300.662 -1030.44,383.858"/>
<polygon fill="#6666ff" stroke="#6666ff" points="-1028.72,386.931 -1038.87,389.961 -1032.82,381.261 -1028.72,386.931"/>
</g>
<!-- Metamodel::ClassHOW&#45;&gt;Metamodel::BoolificationProtocol -->
<g id="edge32" class="edge"><title>Metamodel::ClassHOW&#45;&gt;Metamodel::BoolificationProtocol</title>
<path fill="none" stroke="#6666ff" d="M-428.639,-106.045C-479.41,-79.043 -577.812,-26.7086 -633.926,3.13518"/>
<polygon fill="#6666ff" stroke="#6666ff" points="-632.416,6.2965 -642.889,7.90205 -635.703,0.116203 -632.416,6.2965"/>
</g>
<!-- Metamodel::ConcreteRoleHOW -->
<g id="node24" class="node"><title>Metamodel::ConcreteRoleHOW</title>
<g id="a_node24"><a xlink:href="/type/Metamodel::ConcreteRoleHOW" xlink:title="Metamodel::ConcreteRoleHOW">
<ellipse fill="none" stroke="#000000" cx="617.598" cy="-402.501" rx="135.676" ry="18"/>
<text text-anchor="middle" x="617.598" y="-398.801" font-family="FreeSans" font-size="14.00" fill="#000000">Metamodel::ConcreteRoleHOW</text>
</a>
</g>
</g>
<!-- Metamodel::ConcreteRoleHOW&#45;&gt;Metamodel::MultipleInheritance -->
<g id="edge40" class="edge"><title>Metamodel::ConcreteRoleHOW&#45;&gt;Metamodel::MultipleInheritance</title>
<path fill="none" stroke="#6666ff" d="M594.882,-384.724C525.628,-330.528 321.846,-171.055 321.846,-171.055 321.846,-171.055 279.247,-157.158 279.247,-157.158 279.247,-157.158 153.284,-122.94 71.1008,-100.615"/>
<polygon fill="#6666ff" stroke="#6666ff" points="71.8748,-97.1984 61.3069,-97.9544 70.0397,-103.954 71.8748,-97.1984"/>
</g>
<!-- Metamodel::ConcreteRoleHOW&#45;&gt;Any -->
<g id="edge4" class="edge"><title>Metamodel::ConcreteRoleHOW&#45;&gt;Any</title>
<path fill="none" stroke="#000000" d="M614.322,-384.495C599.861,-305.03 542.465,10.3639 542.465,10.3639 542.465,10.3639 600.606,294.921 619.234,386.095"/>
<polygon fill="#000000" stroke="#000000" points="622.682,385.487 621.255,395.986 615.824,386.889 622.682,385.487"/>
</g>
<!-- Metamodel::ConcreteRoleHOW&#45;&gt;Metamodel::Naming -->
<g id="edge33" class="edge"><title>Metamodel::ConcreteRoleHOW&#45;&gt;Metamodel::Naming</title>
<path fill="none" stroke="#6666ff" d="M596.865,-384.671C523.718,-321.771 282.097,-113.999 282.097,-113.999 282.097,-113.999 180.66,44.329 139.427,108.688"/>
<polygon fill="#6666ff" stroke="#6666ff" points="142.141,110.94 133.799,117.472 136.247,107.164 142.141,110.94"/>
</g>
<!-- Metamodel::ConcreteRoleHOW&#45;&gt;Metamodel::Versioning -->
<g id="edge34" class="edge"><title>Metamodel::ConcreteRoleHOW&#45;&gt;Metamodel::Versioning</title>
<path fill="none" stroke="#6666ff" d="M611.285,-384.468C589.19,-321.36 516.672,-114.237 516.672,-114.237 516.672,-114.237 421.114,67.3532 384.008,137.866"/>
<polygon fill="#6666ff" stroke="#6666ff" points="386.93,139.828 379.176,147.048 380.735,136.568 386.93,139.828"/>
</g>
<!-- Metamodel::ConcreteRoleHOW&#45;&gt;Metamodel::AttributeContainer -->
<g id="edge38" class="edge"><title>Metamodel::ConcreteRoleHOW&#45;&gt;Metamodel::AttributeContainer</title>
<path fill="none" stroke="#6666ff" d="M561.736,-386.003C420.176,-344.194 47.9241,-234.254 -102.978,-189.687"/>
<polygon fill="#6666ff" stroke="#6666ff" points="-102.011,-186.324 -112.593,-186.848 -103.994,-193.037 -102.011,-186.324"/>
</g>
<!-- Metamodel::ConcreteRoleHOW&#45;&gt;Metamodel::MethodContainer -->
<g id="edge36" class="edge"><title>Metamodel::ConcreteRoleHOW&#45;&gt;Metamodel::MethodContainer</title>
<path fill="none" stroke="#6666ff" d="M524.094,-415.664C481.747,-421.625 431.625,-428.682 388.498,-434.753"/>
<polygon fill="#6666ff" stroke="#6666ff" points="387.969,-431.293 378.554,-436.153 388.944,-438.224 387.969,-431.293"/>
</g>
<!-- Metamodel::ConcreteRoleHOW&#45;&gt;Metamodel::PrivateMethodContainer -->
<g id="edge35" class="edge"><title>Metamodel::ConcreteRoleHOW&#45;&gt;Metamodel::PrivateMethodContainer</title>
<path fill="none" stroke="#6666ff" d="M493.627,-409.951C393.24,-415.985 251.551,-424.501 145.299,-430.886"/>
<polygon fill="#6666ff" stroke="#6666ff" points="144.902,-427.404 135.13,-431.498 145.322,-434.391 144.902,-427.404"/>
</g>
<!-- Metamodel::ConcreteRoleHOW&#45;&gt;Metamodel::MultiMethodContainer -->
<g id="edge37" class="edge"><title>Metamodel::ConcreteRoleHOW&#45;&gt;Metamodel::MultiMethodContainer</title>
<path fill="none" stroke="#6666ff" d="M583.893,-384.905C504.222,-343.312 304.397,-238.992 216.56,-193.136"/>
<polygon fill="#6666ff" stroke="#6666ff" points="218.15,-190.018 207.666,-188.493 214.911,-196.224 218.15,-190.018"/>
</g>
<!-- Metamodel::ConcreteRoleHOW&#45;&gt;Metamodel::RoleContainer -->
<g id="edge39" class="edge"><title>Metamodel::ConcreteRoleHOW&#45;&gt;Metamodel::RoleContainer</title>
<path fill="none" stroke="#6666ff" d="M603.948,-384.461C566.673,-335.2 463.027,-198.226 419.277,-140.407"/>
<polygon fill="#6666ff" stroke="#6666ff" points="421.854,-138.013 413.029,-132.151 416.272,-142.237 421.854,-138.013"/>
</g>
<!-- Metamodel::TypePretense -->
<g id="node25" class="node"><title>Metamodel::TypePretense</title>
<g id="a_node25"><a xlink:href="/type/Metamodel::TypePretense" xlink:title="Metamodel::TypePretense">
<ellipse fill="none" stroke="#6666ff" cx="1075.71" cy="-399.376" rx="114.28" ry="18"/>
<text text-anchor="middle" x="1075.71" y="-395.676" font-family="FreeSans" font-size="14.00" fill="#6666ff">Metamodel::TypePretense</text>
</a>
</g>
</g>
<!-- Metamodel::RolePunning -->
<g id="node26" class="node"><title>Metamodel::RolePunning</title>
<g id="a_node26"><a xlink:href="/type/Metamodel::RolePunning" xlink:title="Metamodel::RolePunning">
<ellipse fill="none" stroke="#6666ff" cx="1120.34" cy="1.68805" rx="109.681" ry="18"/>
<text text-anchor="middle" x="1120.34" y="5.38805" font-family="FreeSans" font-size="14.00" fill="#6666ff">Metamodel::RolePunning</text>
</a>
</g>
</g>
<!-- Metamodel::ParametricRoleHOW -->
<g id="node27" class="node"><title>Metamodel::ParametricRoleHOW</title>
<g id="a_node27"><a xlink:href="/type/Metamodel::ParametricRoleHOW" xlink:title="Metamodel::ParametricRoleHOW">
<ellipse fill="none" stroke="#000000" cx="686.402" cy="10.3115" rx="142.175" ry="18"/>
<text text-anchor="middle" x="686.402" y="14.0115" font-family="FreeSans" font-size="14.00" fill="#000000">Metamodel::ParametricRoleHOW</text>
</a>
</g>
</g>
<!-- Metamodel::ParametricRoleHOW&#45;&gt;Metamodel::MultipleInheritance -->
<g id="edge49" class="edge"><title>Metamodel::ParametricRoleHOW&#45;&gt;Metamodel::MultipleInheritance</title>
<path fill="none" stroke="#6666ff" d="M588.677,-2.83479C460.853,-20.03 237.783,-50.0379 106.563,-67.6899"/>
<polygon fill="#6666ff" stroke="#6666ff" points="105.942,-64.2419 96.4977,-69.044 106.875,-71.1794 105.942,-64.2419"/>
</g>
<!-- Metamodel::ParametricRoleHOW&#45;&gt;Any -->
<g id="edge5" class="edge"><title>Metamodel::ParametricRoleHOW&#45;&gt;Any</title>
<path fill="none" stroke="#000000" d="M683.64,28.4343C673.885,92.442 641.003,308.202 629.182,385.772"/>
<polygon fill="#000000" stroke="#000000" points="632.625,386.412 627.658,395.77 625.705,385.357 632.625,386.412"/>
</g>
<!-- Metamodel::ParametricRoleHOW&#45;&gt;Metamodel::Naming -->
<g id="edge41" class="edge"><title>Metamodel::ParametricRoleHOW&#45;&gt;Metamodel::Naming</title>
<path fill="none" stroke="#6666ff" d="M615.815,25.9653C507.452,49.9967 301.299,95.7145 192.92,119.749"/>
<polygon fill="#6666ff" stroke="#6666ff" points="193.582,123.187 183.061,121.936 192.066,116.353 193.582,123.187"/>
</g>
<!-- Metamodel::ParametricRoleHOW&#45;&gt;Metamodel::Documenting -->
<g id="edge42" class="edge"><title>Metamodel::ParametricRoleHOW&#45;&gt;Metamodel::Documenting</title>
<path fill="none" stroke="#6666ff" d="M670.675,28.3074C609.302,98.5344 385.768,354.317 313.869,436.588"/>
<polygon fill="#6666ff" stroke="#6666ff" points="316.418,438.99 307.203,444.217 311.148,434.384 316.418,438.99"/>
</g>
<!-- Metamodel::ParametricRoleHOW&#45;&gt;Metamodel::Versioning -->
<g id="edge43" class="edge"><title>Metamodel::ParametricRoleHOW&#45;&gt;Metamodel::Versioning</title>
<path fill="none" stroke="#6666ff" d="M650.668,27.8C592.318,56.3567 476.759,112.912 413.478,143.882"/>
<polygon fill="#6666ff" stroke="#6666ff" points="414.681,147.19 404.16,148.442 411.604,140.903 414.681,147.19"/>
</g>
<!-- Metamodel::ParametricRoleHOW&#45;&gt;Metamodel::Stashing -->
<g id="edge50" class="edge"><title>Metamodel::ParametricRoleHOW&#45;&gt;Metamodel::Stashing</title>
<path fill="none" stroke="#6666ff" d="M597.762,24.4548C439.811,49.6574 111.893,101.98 -41.4489,126.447"/>
<polygon fill="#6666ff" stroke="#6666ff" points="-41.3116,129.969 -51.7382,128.089 -42.4146,123.057 -41.3116,129.969"/>
</g>
<!-- Metamodel::ParametricRoleHOW&#45;&gt;Metamodel::AttributeContainer -->
<g id="edge47" class="edge"><title>Metamodel::ParametricRoleHOW&#45;&gt;Metamodel::AttributeContainer</title>
<path fill="none" stroke="#6666ff" d="M613.195,-5.18354C454.465,-38.7802 79.5879,-118.126 -86.3919,-153.257"/>
<polygon fill="#6666ff" stroke="#6666ff" points="-87.4803,-149.91 -96.5388,-155.405 -86.0307,-156.759 -87.4803,-149.91"/>
</g>
<!-- Metamodel::ParametricRoleHOW&#45;&gt;Metamodel::MethodContainer -->
<g id="edge44" class="edge"><title>Metamodel::ParametricRoleHOW&#45;&gt;Metamodel::MethodContainer</title>
<path fill="none" stroke="#6666ff" d="M670.793,-7.68896C609.149,-78.7766 382.5,-340.15 310.402,-423.294"/>
<polygon fill="#6666ff" stroke="#6666ff" points="307.633,-421.145 303.726,-430.993 312.921,-425.731 307.633,-421.145"/>
</g>
<!-- Metamodel::ParametricRoleHOW&#45;&gt;Metamodel::PrivateMethodContainer -->
<g id="edge45" class="edge"><title>Metamodel::ParametricRoleHOW&#45;&gt;Metamodel::PrivateMethodContainer</title>
<path fill="none" stroke="#6666ff" d="M662.084,-7.53325C615.152,-41.9719 516.672,-114.237 516.672,-114.237 516.672,-114.237 153.387,-342.073 34.6673,-416.529"/>
<polygon fill="#6666ff" stroke="#6666ff" points="32.5095,-413.751 25.8973,-422.029 36.2287,-419.681 32.5095,-413.751"/>
</g>
<!-- Metamodel::ParametricRoleHOW&#45;&gt;Metamodel::MultiMethodContainer -->
<g id="edge46" class="edge"><title>Metamodel::ParametricRoleHOW&#45;&gt;Metamodel::MultiMethodContainer</title>
<path fill="none" stroke="#6666ff" d="M630.692,-6.34903C527.483,-37.2143 316.953,-100.175 316.953,-100.175 316.953,-100.175 282.097,-113.999 282.097,-113.999 282.097,-113.999 246.768,-132.605 216.507,-148.543"/>
<polygon fill="#6666ff" stroke="#6666ff" points="214.54,-145.623 207.323,-153.38 217.802,-151.817 214.54,-145.623"/>
</g>
<!-- Metamodel::ParametricRoleHOW&#45;&gt;Metamodel::RoleContainer -->
<g id="edge48" class="edge"><title>Metamodel::ParametricRoleHOW&#45;&gt;Metamodel::RoleContainer</title>
<path fill="none" stroke="#6666ff" d="M646.493,-6.98988C594.511,-29.5255 503.697,-68.8956 447.826,-93.1171"/>
<polygon fill="#6666ff" stroke="#6666ff" points="446.277,-89.9737 438.494,-97.1625 449.061,-96.3961 446.277,-89.9737"/>
</g>
<!-- Metamodel::ParametricRoleHOW&#45;&gt;Metamodel::TypePretense -->
<g id="edge51" class="edge"><title>Metamodel::ParametricRoleHOW&#45;&gt;Metamodel::TypePretense</title>
<path fill="none" stroke="#6666ff" d="M703.632,-7.82094C765.946,-73.3963 979.7,-298.339 1051.77,-374.18"/>
<polygon fill="#6666ff" stroke="#6666ff" points="1049.25,-376.615 1058.68,-381.453 1054.33,-371.793 1049.25,-376.615"/>
</g>
<!-- Metamodel::ParametricRoleHOW&#45;&gt;Metamodel::RolePunning -->
<g id="edge52" class="edge"><title>Metamodel::ParametricRoleHOW&#45;&gt;Metamodel::RolePunning</title>
<path fill="none" stroke="#6666ff" d="M827.288,7.51169C883.318,6.39823 947.099,5.13074 1000.82,4.06318"/>
<polygon fill="#6666ff" stroke="#6666ff" points="1001.01,0.558829 1011.08,3.85936 1001.15,7.55745 1001.01,0.558829"/>
</g>
</g>
</svg>
