<?xml version="1.0" encoding="UTF-8" standalone="no"?>
<!DOCTYPE svg PUBLIC "-//W3C//DTD SVG 1.1//EN"
 "http://www.w3.org/Graphics/SVG/1.1/DTD/svg11.dtd">
<!-- Generated by graphviz version 2.38.0 (20140413.2041)
 -->
<!-- Title: perl6&#45;type&#45;graph Pages: 1 -->
<svg width="2727pt" height="1854pt"
 viewBox="0.00 0.00 2727.50 1854.43" xmlns="http://www.w3.org/2000/svg" xmlns:xlink="http://www.w3.org/1999/xlink">
<g id="graph0" class="graph" transform="scale(1 1) rotate(0) translate(1383.03 898.57)">
<title>perl6&#45;type&#45;graph</title>
<polygon fill="white" stroke="none" points="-1383.03,955.856 -1383.03,-898.57 1344.47,-898.57 1344.47,955.856 -1383.03,955.856"/>
<!-- Metamodel::Stashing -->
<g id="node1" class="node"><title>Metamodel::Stashing</title>
<g id="a_node1"><a xlink:href="/type/Metamodel::Stashing" xlink:title="Metamodel::Stashing">
<ellipse fill="none" stroke="#6666ff" cx="-12.889" cy="-2.28153" rx="93.6835" ry="18"/>
<text text-anchor="middle" x="-12.889" y="1.41847" font-family="FreeSans" font-size="14.00" fill="#6666ff">Metamodel::Stashing</text>
</a>
</g>
</g>
<!-- Mu -->
<g id="node2" class="node"><title>Mu</title>
<g id="a_node2"><a xlink:href="/type/Mu" xlink:title="Mu">
<ellipse fill="none" stroke="#000000" cx="1188.76" cy="868.436" rx="27" ry="18"/>
<text text-anchor="middle" x="1188.76" y="872.136" font-family="FreeSans" font-size="14.00" fill="#000000">Mu</text>
</a>
</g>
</g>
<!-- Any -->
<g id="node3" class="node"><title>Any</title>
<g id="a_node3"><a xlink:href="/type/Any" xlink:title="Any">
<ellipse fill="none" stroke="#000000" cx="207.583" cy="512.819" rx="27" ry="18"/>
<text text-anchor="middle" x="207.583" y="516.519" font-family="FreeSans" font-size="14.00" fill="#000000">Any</text>
</a>
</g>
</g>
<!-- Any&#45;&gt;Mu -->
<g id="edge1" class="edge"><title>Any&#45;&gt;Mu</title>
<path fill="none" stroke="#000000" d="M231.35,521.433C362.938,569.126 1001.76,800.661 1155.45,856.365"/>
<polygon fill="#000000" stroke="#000000" points="1156.66,853.078 1164.87,859.776 1154.27,859.659 1156.66,853.078"/>
</g>
<!-- Metamodel::Naming -->
<g id="node4" class="node"><title>Metamodel::Naming</title>
<g id="a_node4"><a xlink:href="/type/Metamodel::Naming" xlink:title="Metamodel::Naming">
<ellipse fill="none" stroke="#6666ff" cx="-4.36946" cy="270.974" rx="90.1842" ry="18"/>
<text text-anchor="middle" x="-4.36946" y="274.674" font-family="FreeSans" font-size="14.00" fill="#6666ff">Metamodel::Naming</text>
</a>
</g>
</g>
<!-- Metamodel::Documenting -->
<g id="node5" class="node"><title>Metamodel::Documenting</title>
<g id="a_node5"><a xlink:href="/type/Metamodel::Documenting" xlink:title="Metamodel::Documenting">
<ellipse fill="none" stroke="#6666ff" cx="-213.845" cy="522.024" rx="111.28" ry="18"/>
<text text-anchor="middle" x="-213.845" y="525.724" font-family="FreeSans" font-size="14.00" fill="#6666ff">Metamodel::Documenting</text>
</a>
</g>
</g>
<!-- Metamodel::Versioning -->
<g id="node6" class="node"><title>Metamodel::Versioning</title>
<g id="a_node6"><a xlink:href="/type/Metamodel::Versioning" xlink:title="Metamodel::Versioning">
<ellipse fill="none" stroke="#6666ff" cx="-683.933" cy="17.9197" rx="100.983" ry="18"/>
<text text-anchor="middle" x="-683.933" y="21.6197" font-family="FreeSans" font-size="14.00" fill="#6666ff">Metamodel::Versioning</text>
</a>
</g>
</g>
<!-- Metamodel::TypePretense -->
<g id="node7" class="node"><title>Metamodel::TypePretense</title>
<g id="a_node7"><a xlink:href="/type/Metamodel::TypePretense" xlink:title="Metamodel::TypePretense">
<ellipse fill="none" stroke="#6666ff" cx="-1193.96" cy="862.476" rx="114.28" ry="18"/>
<text text-anchor="middle" x="-1193.96" y="866.176" font-family="FreeSans" font-size="14.00" fill="#6666ff">Metamodel::TypePretense</text>
</a>
</g>
</g>
<!-- Metamodel::MethodDelegation -->
<g id="node8" class="node"><title>Metamodel::MethodDelegation</title>
<g id="a_node8"><a xlink:href="/type/Metamodel::MethodDelegation" xlink:title="Metamodel::MethodDelegation">
<ellipse fill="none" stroke="#6666ff" cx="-3.49048" cy="933.856" rx="131.077" ry="18"/>
<text text-anchor="middle" x="-3.49048" y="937.556" font-family="FreeSans" font-size="14.00" fill="#6666ff">Metamodel::MethodDelegation</text>
</a>
</g>
</g>
<!-- Metamodel::ModuleHOW -->
<g id="node9" class="node"><title>Metamodel::ModuleHOW</title>
<g id="a_node9"><a xlink:href="/type/Metamodel::ModuleHOW" xlink:title="Metamodel::ModuleHOW">
<ellipse fill="none" stroke="#000000" cx="-517.698" cy="919.638" rx="111.28" ry="18"/>
<text text-anchor="middle" x="-517.698" y="923.338" font-family="FreeSans" font-size="14.00" fill="#000000">Metamodel::ModuleHOW</text>
</a>
</g>
</g>
<!-- Metamodel::ModuleHOW&#45;&gt;Metamodel::Stashing -->
<g id="edge12" class="edge"><title>Metamodel::ModuleHOW&#45;&gt;Metamodel::Stashing</title>
<path fill="none" stroke="#6666ff" d="M-508.989,901.527C-471.601,823.771 -326.582,522.173 -326.582,522.173 -326.582,522.173 -92.6799,131.119 -28.8268,24.3644"/>
<polygon fill="#6666ff" stroke="#6666ff" points="-31.8239,22.5568 -23.687,15.7714 -25.8165,26.15 -31.8239,22.5568"/>
</g>
<!-- Metamodel::ModuleHOW&#45;&gt;Any -->
<g id="edge2" class="edge"><title>Metamodel::ModuleHOW&#45;&gt;Any</title>
<path fill="none" stroke="#000000" d="M-486.533,902.158C-367.078,835.154 60.7466,595.181 177.797,529.527"/>
<polygon fill="#000000" stroke="#000000" points="176.176,526.422 186.61,524.583 179.601,532.528 176.176,526.422"/>
</g>
<!-- Metamodel::ModuleHOW&#45;&gt;Metamodel::Naming -->
<g id="edge9" class="edge"><title>Metamodel::ModuleHOW&#45;&gt;Metamodel::Naming</title>
<path fill="none" stroke="#6666ff" d="M-498.988,901.775C-417.927,824.377 -101.108,521.875 -101.108,521.875 -101.108,521.875 -40.1993,363.902 -15.0424,298.655"/>
<polygon fill="#6666ff" stroke="#6666ff" points="-18.1899,297.09 -11.3267,289.018 -11.6586,299.608 -18.1899,297.09"/>
</g>
<!-- Metamodel::ModuleHOW&#45;&gt;Metamodel::Documenting -->
<g id="edge10" class="edge"><title>Metamodel::ModuleHOW&#45;&gt;Metamodel::Documenting</title>
<path fill="none" stroke="#6666ff" d="M-503.852,901.521C-455.112,837.74 -291.319,623.405 -233.921,548.295"/>
<polygon fill="#6666ff" stroke="#6666ff" points="-236.625,546.069 -227.772,540.248 -231.063,550.319 -236.625,546.069"/>
</g>
<!-- Metamodel::ModuleHOW&#45;&gt;Metamodel::Versioning -->
<g id="edge11" class="edge"><title>Metamodel::ModuleHOW&#45;&gt;Metamodel::Versioning</title>
<path fill="none" stroke="#6666ff" d="M-516.605,901.483C-511.247,812.421 -487.998,425.98 -487.998,425.98 -487.998,425.98 -627.026,136.437 -670.86,45.146"/>
<polygon fill="#6666ff" stroke="#6666ff" points="-674.088,46.5097 -675.261,35.9801 -667.778,43.4798 -674.088,46.5097"/>
</g>
<!-- Metamodel::ModuleHOW&#45;&gt;Metamodel::TypePretense -->
<g id="edge13" class="edge"><title>Metamodel::ModuleHOW&#45;&gt;Metamodel::TypePretense</title>
<path fill="none" stroke="#6666ff" d="M-616.394,911.296C-740.518,900.804 -953.051,882.84 -1082.79,871.874"/>
<polygon fill="#6666ff" stroke="#6666ff" points="-1083.47,875.328 -1093.14,870.998 -1082.88,868.353 -1083.47,875.328"/>
</g>
<!-- Metamodel::ModuleHOW&#45;&gt;Metamodel::MethodDelegation -->
<g id="edge14" class="edge"><title>Metamodel::ModuleHOW&#45;&gt;Metamodel::MethodDelegation</title>
<path fill="none" stroke="#6666ff" d="M-408.018,922.671C-330.499,924.814 -225.974,927.704 -142.593,930.01"/>
<polygon fill="#6666ff" stroke="#6666ff" points="-142.432,926.513 -132.533,930.288 -142.626,933.51 -142.432,926.513"/>
</g>
<!-- Metamodel::AttributeContainer -->
<g id="node10" class="node"><title>Metamodel::AttributeContainer</title>
<g id="a_node10"><a xlink:href="/type/Metamodel::AttributeContainer" xlink:title="Metamodel::AttributeContainer">
<ellipse fill="none" stroke="#6666ff" cx="640.476" cy="434.164" rx="129.977" ry="18"/>
<text text-anchor="middle" x="640.476" y="437.864" font-family="FreeSans" font-size="14.00" fill="#6666ff">Metamodel::AttributeContainer</text>
</a>
</g>
</g>
<!-- Metamodel::MethodContainer -->
<g id="node11" class="node"><title>Metamodel::MethodContainer</title>
<g id="a_node11"><a xlink:href="/type/Metamodel::MethodContainer" xlink:title="Metamodel::MethodContainer">
<ellipse fill="none" stroke="#6666ff" cx="292.123" cy="179.828" rx="127.277" ry="18"/>
<text text-anchor="middle" x="292.123" y="183.528" font-family="FreeSans" font-size="14.00" fill="#6666ff">Metamodel::MethodContainer</text>
</a>
</g>
</g>
<!-- Metamodel::MultiMethodContainer -->
<g id="node12" class="node"><title>Metamodel::MultiMethodContainer</title>
<g id="a_node12"><a xlink:href="/type/Metamodel::MultiMethodContainer" xlink:title="Metamodel::MultiMethodContainer">
<ellipse fill="none" stroke="#6666ff" cx="-574.328" cy="-363.332" rx="146.474" ry="18"/>
<text text-anchor="middle" x="-574.328" y="-359.632" font-family="FreeSans" font-size="14.00" fill="#6666ff">Metamodel::MultiMethodContainer</text>
</a>
</g>
</g>
<!-- Metamodel::RoleContainer -->
<g id="node13" class="node"><title>Metamodel::RoleContainer</title>
<g id="a_node13"><a xlink:href="/type/Metamodel::RoleContainer" xlink:title="Metamodel::RoleContainer">
<ellipse fill="none" stroke="#6666ff" cx="0.302997" cy="-408.292" rx="115.88" ry="18"/>
<text text-anchor="middle" x="0.302997" y="-404.592" font-family="FreeSans" font-size="14.00" fill="#6666ff">Metamodel::RoleContainer</text>
</a>
</g>
</g>
<!-- Metamodel::BaseType -->
<g id="node14" class="node"><title>Metamodel::BaseType</title>
<g id="a_node14"><a xlink:href="/type/Metamodel::BaseType" xlink:title="Metamodel::BaseType">
<ellipse fill="none" stroke="#6666ff" cx="1241.03" cy="293.452" rx="99.3824" ry="18"/>
<text text-anchor="middle" x="1241.03" y="297.152" font-family="FreeSans" font-size="14.00" fill="#6666ff">Metamodel::BaseType</text>
</a>
</g>
</g>
<!-- Metamodel::MROBasedMethodDispatch -->
<g id="node15" class="node"><title>Metamodel::MROBasedMethodDispatch</title>
<g id="a_node15"><a xlink:href="/type/Metamodel::MROBasedMethodDispatch" xlink:title="Metamodel::MROBasedMethodDispatch">
<ellipse fill="none" stroke="#6666ff" cx="296.816" cy="-418.073" rx="169.77" ry="18"/>
<text text-anchor="middle" x="296.816" y="-414.373" font-family="FreeSans" font-size="14.00" fill="#6666ff">Metamodel::MROBasedMethodDispatch</text>
</a>
</g>
</g>
<!-- Metamodel::MROBasedTypeChecking -->
<g id="node16" class="node"><title>Metamodel::MROBasedTypeChecking</title>
<g id="a_node16"><a xlink:href="/type/Metamodel::MROBasedTypeChecking" xlink:title="Metamodel::MROBasedTypeChecking">
<ellipse fill="none" stroke="#6666ff" cx="668.559" cy="-334.317" rx="163.271" ry="18"/>
<text text-anchor="middle" x="668.559" y="-330.617" font-family="FreeSans" font-size="14.00" fill="#6666ff">Metamodel::MROBasedTypeChecking</text>
</a>
</g>
</g>
<!-- Metamodel::BUILDPLAN -->
<g id="node17" class="node"><title>Metamodel::BUILDPLAN</title>
<g id="a_node17"><a xlink:href="/type/Metamodel::BUILDPLAN" xlink:title="Metamodel::BUILDPLAN">
<ellipse fill="none" stroke="#6666ff" cx="1212.53" cy="-794.03" rx="109.681" ry="18"/>
<text text-anchor="middle" x="1212.53" y="-790.33" font-family="FreeSans" font-size="14.00" fill="#6666ff">Metamodel::BUILDPLAN</text>
</a>
</g>
</g>
<!-- Metamodel::BoolificationProtocol -->
<g id="node18" class="node"><title>Metamodel::BoolificationProtocol</title>
<g id="a_node18"><a xlink:href="/type/Metamodel::BoolificationProtocol" xlink:title="Metamodel::BoolificationProtocol">
<ellipse fill="none" stroke="#6666ff" cx="-318.825" cy="-49.2725" rx="139.175" ry="18"/>
<text text-anchor="middle" x="-318.825" y="-45.5725" font-family="FreeSans" font-size="14.00" fill="#6666ff">Metamodel::BoolificationProtocol</text>
</a>
</g>
</g>
<!-- Metamodel::EnumHOW -->
<g id="node19" class="node"><title>Metamodel::EnumHOW</title>
<g id="a_node19"><a xlink:href="/type/Metamodel::EnumHOW" xlink:title="Metamodel::EnumHOW">
<ellipse fill="none" stroke="#000000" cx="655.855" cy="45.0676" rx="104.782" ry="18"/>
<text text-anchor="middle" x="655.855" y="48.7676" font-family="FreeSans" font-size="14.00" fill="#000000">Metamodel::EnumHOW</text>
</a>
</g>
</g>
<!-- Metamodel::EnumHOW&#45;&gt;Metamodel::Stashing -->
<g id="edge16" class="edge"><title>Metamodel::EnumHOW&#45;&gt;Metamodel::Stashing</title>
<path fill="none" stroke="#6666ff" d="M558.971,38.208C432.445,29.2496 212.154,13.6522 85.0902,4.65571"/>
<polygon fill="#6666ff" stroke="#6666ff" points="84.7037,8.1372 74.9759,3.93958 85.1981,1.15468 84.7037,8.1372"/>
</g>
<!-- Metamodel::EnumHOW&#45;&gt;Any -->
<g id="edge3" class="edge"><title>Metamodel::EnumHOW&#45;&gt;Any</title>
<path fill="none" stroke="#000000" d="M638.829,62.8329C569.407,135.272 307.711,408.34 229.677,489.765"/>
<polygon fill="#000000" stroke="#000000" points="231.748,492.662 222.302,497.46 226.694,487.818 231.748,492.662"/>
</g>
<!-- Metamodel::EnumHOW&#45;&gt;Metamodel::Naming -->
<g id="edge15" class="edge"><title>Metamodel::EnumHOW&#45;&gt;Metamodel::Naming</title>
<path fill="none" stroke="#6666ff" d="M598.622,60.2689C476.273,92.7649 200.316,166.06 200.316,166.06 200.316,166.06 163.137,179.957 163.137,179.957 163.137,179.957 85.1913,222.31 35.6412,249.234"/>
<polygon fill="#6666ff" stroke="#6666ff" points="37.2024,252.369 26.7447,254.068 33.8604,246.218 37.2024,252.369"/>
</g>
<!-- Metamodel::EnumHOW&#45;&gt;Metamodel::AttributeContainer -->
<g id="edge17" class="edge"><title>Metamodel::EnumHOW&#45;&gt;Metamodel::AttributeContainer</title>
<path fill="none" stroke="#6666ff" d="M655.134,63.3127C652.671,125.606 644.585,330.197 641.598,405.776"/>
<polygon fill="#6666ff" stroke="#6666ff" points="645.088,406.104 641.195,415.958 638.093,405.828 645.088,406.104"/>
</g>
<!-- Metamodel::EnumHOW&#45;&gt;Metamodel::MethodContainer -->
<g id="edge18" class="edge"><title>Metamodel::EnumHOW&#45;&gt;Metamodel::MethodContainer</title>
<path fill="none" stroke="#6666ff" d="M611.618,61.4571C545.121,86.0938 419.506,132.633 347.175,159.431"/>
<polygon fill="#6666ff" stroke="#6666ff" points="348.358,162.725 337.765,162.918 345.926,156.161 348.358,162.725"/>
</g>
<!-- Metamodel::EnumHOW&#45;&gt;Metamodel::MultiMethodContainer -->
<g id="edge19" class="edge"><title>Metamodel::EnumHOW&#45;&gt;Metamodel::MultiMethodContainer</title>
<path fill="none" stroke="#6666ff" d="M602.491,29.4154C478.734,-6.88402 182.643,-93.7313 182.643,-93.7313 182.643,-93.7313 -340.054,-279.893 -516.757,-342.827"/>
<polygon fill="#6666ff" stroke="#6666ff" points="-518.156,-339.61 -526.402,-346.263 -515.807,-346.204 -518.156,-339.61"/>
</g>
<!-- Metamodel::EnumHOW&#45;&gt;Metamodel::RoleContainer -->
<g id="edge20" class="edge"><title>Metamodel::EnumHOW&#45;&gt;Metamodel::RoleContainer</title>
<path fill="none" stroke="#6666ff" d="M630.558,27.5732C528.965,-42.6852 150.54,-304.393 34.4105,-384.704"/>
<polygon fill="#6666ff" stroke="#6666ff" points="32.1119,-382.038 25.8779,-390.605 36.0935,-387.796 32.1119,-382.038"/>
</g>
<!-- Metamodel::EnumHOW&#45;&gt;Metamodel::BaseType -->
<g id="edge21" class="edge"><title>Metamodel::EnumHOW&#45;&gt;Metamodel::BaseType</title>
<path fill="none" stroke="#6666ff" d="M695.158,61.7505C798.741,105.718 1079,224.68 1192.41,272.817"/>
<polygon fill="#6666ff" stroke="#6666ff" points="1194.06,269.713 1201.89,276.842 1191.32,276.157 1194.06,269.713"/>
</g>
<!-- Metamodel::EnumHOW&#45;&gt;Metamodel::MROBasedMethodDispatch -->
<g id="edge22" class="edge"><title>Metamodel::EnumHOW&#45;&gt;Metamodel::MROBasedMethodDispatch</title>
<path fill="none" stroke="#6666ff" d="M642,27.1957C586.805,-44.0032 382.412,-307.659 317.053,-391.968"/>
<polygon fill="#6666ff" stroke="#6666ff" points="314.184,-389.957 310.823,-400.005 319.716,-394.246 314.184,-389.957"/>
</g>
<!-- Metamodel::EnumHOW&#45;&gt;Metamodel::MROBasedTypeChecking -->
<g id="edge23" class="edge"><title>Metamodel::EnumHOW&#45;&gt;Metamodel::MROBasedTypeChecking</title>
<path fill="none" stroke="#6666ff" d="M656.459,27.0243C658.495,-33.7649 665.114,-231.425 667.602,-305.731"/>
<polygon fill="#6666ff" stroke="#6666ff" points="664.119,-306.286 667.951,-316.164 671.115,-306.052 664.119,-306.286"/>
</g>
<!-- Metamodel::EnumHOW&#45;&gt;Metamodel::BUILDPLAN -->
<g id="edge24" class="edge"><title>Metamodel::EnumHOW&#45;&gt;Metamodel::BUILDPLAN</title>
<path fill="none" stroke="#6666ff" d="M667.739,27.1537C738.984,-80.2371 1109.26,-638.37 1194.85,-767.392"/>
<polygon fill="#6666ff" stroke="#6666ff" points="1192.07,-769.529 1200.52,-775.928 1197.9,-765.66 1192.07,-769.529"/>
</g>
<!-- Metamodel::EnumHOW&#45;&gt;Metamodel::BoolificationProtocol -->
<g id="edge25" class="edge"><title>Metamodel::EnumHOW&#45;&gt;Metamodel::BoolificationProtocol</title>
<path fill="none" stroke="#6666ff" d="M565.794,35.8999C397.976,18.8169 54.2848,-16.169 54.2848,-16.169 54.2848,-16.169 -85.5683,-28.5772 -194.029,-38.2002"/>
<polygon fill="#6666ff" stroke="#6666ff" points="-194.438,-34.7227 -204.09,-39.0928 -193.819,-41.6953 -194.438,-34.7227"/>
</g>
<!-- Metamodel::MultipleInheritance -->
<g id="node20" class="node"><title>Metamodel::MultipleInheritance</title>
<g id="a_node20"><a xlink:href="/type/Metamodel::MultipleInheritance" xlink:title="Metamodel::MultipleInheritance">
<ellipse fill="none" stroke="#6666ff" cx="-1210.7" cy="-228.046" rx="133.776" ry="18"/>
<text text-anchor="middle" x="-1210.7" y="-224.346" font-family="FreeSans" font-size="14.00" fill="#6666ff">Metamodel::MultipleInheritance</text>
</a>
</g>
</g>
<!-- Metamodel::C3MRO -->
<g id="node21" class="node"><title>Metamodel::C3MRO</title>
<g id="a_node21"><a xlink:href="/type/Metamodel::C3MRO" xlink:title="Metamodel::C3MRO">
<ellipse fill="none" stroke="#6666ff" cx="-612.069" cy="-847.053" rx="92.0841" ry="18"/>
<text text-anchor="middle" x="-612.069" y="-843.353" font-family="FreeSans" font-size="14.00" fill="#6666ff">Metamodel::C3MRO</text>
</a>
</g>
</g>
<!-- Metamodel::NativeHOW -->
<g id="node22" class="node"><title>Metamodel::NativeHOW</title>
<g id="a_node22"><a xlink:href="/type/Metamodel::NativeHOW" xlink:title="Metamodel::NativeHOW">
<ellipse fill="none" stroke="#000000" cx="-201.271" cy="-278.021" rx="107.482" ry="18"/>
<text text-anchor="middle" x="-201.271" y="-274.321" font-family="FreeSans" font-size="14.00" fill="#000000">Metamodel::NativeHOW</text>
</a>
</g>
</g>
<!-- Metamodel::NativeHOW&#45;&gt;Metamodel::Stashing -->
<g id="edge29" class="edge"><title>Metamodel::NativeHOW&#45;&gt;Metamodel::Stashing</title>
<path fill="none" stroke="#6666ff" d="M-188.911,-259.929C-156.511,-212.504 -69.0035,-84.4174 -30.9598,-28.7322"/>
<polygon fill="#6666ff" stroke="#6666ff" points="-28.046,-30.6716 -25.2948,-20.4402 -33.8259,-26.7228 -28.046,-30.6716"/>
</g>
<!-- Metamodel::NativeHOW&#45;&gt;Any -->
<g id="edge4" class="edge"><title>Metamodel::NativeHOW&#45;&gt;Any</title>
<path fill="none" stroke="#000000" d="M-195.157,-259.926C-174.424,-198.573 -108.08,-2.24168 -108.08,-2.24168 -108.08,-2.24168 87.5702,270.836 87.5702,270.836 87.5702,270.836 163.133,423.194 194.342,486.122"/>
<polygon fill="#000000" stroke="#000000" points="197.644,484.902 198.952,495.416 191.373,488.013 197.644,484.902"/>
</g>
<!-- Metamodel::NativeHOW&#45;&gt;Metamodel::Naming -->
<g id="edge26" class="edge"><title>Metamodel::NativeHOW&#45;&gt;Metamodel::Naming</title>
<path fill="none" stroke="#6666ff" d="M-195.157,-259.926C-174.424,-198.573 -108.08,-2.24168 -108.08,-2.24168 -108.08,-2.24168 -41.3169,173.64 -14.9237,243.17"/>
<polygon fill="#6666ff" stroke="#6666ff" points="-11.612,242.032 -11.3353,252.623 -18.1564,244.517 -11.612,242.032"/>
</g>
<!-- Metamodel::NativeHOW&#45;&gt;Metamodel::Documenting -->
<g id="edge27" class="edge"><title>Metamodel::NativeHOW&#45;&gt;Metamodel::Documenting</title>
<path fill="none" stroke="#6666ff" d="M-199.418,-259.703C-193.93,-205.466 -178.144,-49.4593 -178.144,-49.4593 -178.144,-49.4593 -164.584,208.87 -164.584,208.87 -164.584,208.87 -197.319,416.963 -209.419,493.886"/>
<polygon fill="#6666ff" stroke="#6666ff" points="-205.972,494.499 -210.984,503.834 -212.887,493.411 -205.972,494.499"/>
</g>
<!-- Metamodel::NativeHOW&#45;&gt;Metamodel::Versioning -->
<g id="edge28" class="edge"><title>Metamodel::NativeHOW&#45;&gt;Metamodel::Versioning</title>
<path fill="none" stroke="#6666ff" d="M-229.662,-260.613C-312.482,-209.833 -553.8,-61.8704 -646.793,-4.85248"/>
<polygon fill="#6666ff" stroke="#6666ff" points="-645.224,-1.70927 -655.578,0.534084 -648.883,-7.67686 -645.224,-1.70927"/>
</g>
<!-- Metamodel::NativeHOW&#45;&gt;Metamodel::MROBasedMethodDispatch -->
<g id="edge32" class="edge"><title>Metamodel::NativeHOW&#45;&gt;Metamodel::MROBasedMethodDispatch</title>
<path fill="none" stroke="#6666ff" d="M-146.064,-293.544C-54.8778,-319.184 127.041,-370.336 227.012,-398.446"/>
<polygon fill="#6666ff" stroke="#6666ff" points="226.145,-401.838 236.72,-401.175 228.04,-395.099 226.145,-401.838"/>
</g>
<!-- Metamodel::NativeHOW&#45;&gt;Metamodel::MROBasedTypeChecking -->
<g id="edge33" class="edge"><title>Metamodel::NativeHOW&#45;&gt;Metamodel::MROBasedTypeChecking</title>
<path fill="none" stroke="#6666ff" d="M-101.066,-284.506C50.7754,-294.334 340.203,-313.066 517.618,-324.548"/>
<polygon fill="#6666ff" stroke="#6666ff" points="517.617,-328.055 527.822,-325.209 518.069,-321.07 517.617,-328.055"/>
</g>
<!-- Metamodel::NativeHOW&#45;&gt;Metamodel::MultipleInheritance -->
<g id="edge30" class="edge"><title>Metamodel::NativeHOW&#45;&gt;Metamodel::MultipleInheritance</title>
<path fill="none" stroke="#6666ff" d="M-304.554,-272.907C-487.879,-263.831 -870.049,-244.911 -1074.59,-234.785"/>
<polygon fill="#6666ff" stroke="#6666ff" points="-1074.64,-231.278 -1084.8,-234.279 -1074.98,-238.27 -1074.64,-231.278"/>
</g>
<!-- Metamodel::NativeHOW&#45;&gt;Metamodel::C3MRO -->
<g id="edge31" class="edge"><title>Metamodel::NativeHOW&#45;&gt;Metamodel::C3MRO</title>
<path fill="none" stroke="#6666ff" d="M-214.244,-295.991C-273.951,-378.695 -522.409,-722.856 -593.181,-820.889"/>
<polygon fill="#6666ff" stroke="#6666ff" points="-596.078,-818.922 -599.093,-829.079 -590.402,-823.019 -596.078,-818.922"/>
</g>
<!-- Metamodel::Finalization -->
<g id="node23" class="node"><title>Metamodel::Finalization</title>
<g id="a_node23"><a xlink:href="/type/Metamodel::Finalization" xlink:title="Metamodel::Finalization">
<ellipse fill="none" stroke="#6666ff" cx="142.159" cy="-876.57" rx="103.982" ry="18"/>
<text text-anchor="middle" x="142.159" y="-872.87" font-family="FreeSans" font-size="14.00" fill="#6666ff">Metamodel::Finalization</text>
</a>
</g>
</g>
<!-- Metamodel::PrivateMethodContainer -->
<g id="node24" class="node"><title>Metamodel::PrivateMethodContainer</title>
<g id="a_node24"><a xlink:href="/type/Metamodel::PrivateMethodContainer" xlink:title="Metamodel::PrivateMethodContainer">
<ellipse fill="none" stroke="#6666ff" cx="-1224.34" cy="-790.746" rx="154.873" ry="18"/>
<text text-anchor="middle" x="-1224.34" y="-787.046" font-family="FreeSans" font-size="14.00" fill="#6666ff">Metamodel::PrivateMethodContainer</text>
</a>
</g>
</g>
<!-- Metamodel::DefaultParent -->
<g id="node25" class="node"><title>Metamodel::DefaultParent</title>
<g id="a_node25"><a xlink:href="/type/Metamodel::DefaultParent" xlink:title="Metamodel::DefaultParent">
<ellipse fill="none" stroke="#6666ff" cx="-213.877" cy="-802.349" rx="113.18" ry="18"/>
<text text-anchor="middle" x="-213.877" y="-798.649" font-family="FreeSans" font-size="14.00" fill="#6666ff">Metamodel::DefaultParent</text>
</a>
</g>
</g>
<!-- Metamodel::Trusting -->
<g id="node26" class="node"><title>Metamodel::Trusting</title>
<g id="a_node26"><a xlink:href="/type/Metamodel::Trusting" xlink:title="Metamodel::Trusting">
<ellipse fill="none" stroke="#6666ff" cx="1243.53" cy="-205.828" rx="91.784" ry="18"/>
<text text-anchor="middle" x="1243.53" y="-202.128" font-family="FreeSans" font-size="14.00" fill="#6666ff">Metamodel::Trusting</text>
</a>
</g>
</g>
<!-- Metamodel::Mixins -->
<g id="node27" class="node"><title>Metamodel::Mixins</title>
<g id="a_node27"><a xlink:href="/type/Metamodel::Mixins" xlink:title="Metamodel::Mixins">
<ellipse fill="none" stroke="#6666ff" cx="585.916" cy="-842.624" rx="85.2851" ry="18"/>
<text text-anchor="middle" x="585.916" y="-838.924" font-family="FreeSans" font-size="14.00" fill="#6666ff">Metamodel::Mixins</text>
</a>
</g>
</g>
<!-- Metamodel::ClassHOW -->
<g id="node28" class="node"><title>Metamodel::ClassHOW</title>
<g id="a_node28"><a xlink:href="/type/Metamodel::ClassHOW" xlink:title="Metamodel::ClassHOW">
<ellipse fill="none" stroke="#000000" cx="256.941" cy="-107.658" rx="103.982" ry="18"/>
<text text-anchor="middle" x="256.941" y="-103.958" font-family="FreeSans" font-size="14.00" fill="#000000">Metamodel::ClassHOW</text>
</a>
</g>
</g>
<!-- Metamodel::ClassHOW&#45;&gt;Metamodel::Stashing -->
<g id="edge37" class="edge"><title>Metamodel::ClassHOW&#45;&gt;Metamodel::Stashing</title>
<path fill="none" stroke="#6666ff" d="M214.78,-91.1932C167.018,-72.5407 89.1966,-42.1491 38.0705,-22.1828"/>
<polygon fill="#6666ff" stroke="#6666ff" points="39.1214,-18.8358 28.5332,-18.4582 36.5749,-25.3562 39.1214,-18.8358"/>
</g>
<!-- Metamodel::ClassHOW&#45;&gt;Any -->
<g id="edge5" class="edge"><title>Metamodel::ClassHOW&#45;&gt;Any</title>
<path fill="none" stroke="#000000" d="M251.073,-89.6667C230.537,-26.7008 163.137,179.957 163.137,179.957 163.137,179.957 193.065,404.09 203.804,484.518"/>
<polygon fill="#000000" stroke="#000000" points="207.275,484.074 205.13,494.449 200.337,485 207.275,484.074"/>
</g>
<!-- Metamodel::ClassHOW&#45;&gt;Metamodel::Naming -->
<g id="edge34" class="edge"><title>Metamodel::ClassHOW&#45;&gt;Metamodel::Naming</title>
<path fill="none" stroke="#6666ff" d="M244.513,-89.6508C202.299,-28.4839 64.2569,171.536 14.0765,244.246"/>
<polygon fill="#6666ff" stroke="#6666ff" points="16.6951,246.614 8.13437,252.856 10.9339,242.638 16.6951,246.614"/>
</g>
<!-- Metamodel::ClassHOW&#45;&gt;Metamodel::Documenting -->
<g id="edge35" class="edge"><title>Metamodel::ClassHOW&#45;&gt;Metamodel::Documenting</title>
<path fill="none" stroke="#6666ff" d="M240.14,-89.6442C169.938,-14.3704 -96.3092,271.112 -96.3092,271.112 -96.3092,271.112 -170.617,429.743 -201.066,494.743"/>
<polygon fill="#6666ff" stroke="#6666ff" points="-197.981,496.408 -205.392,503.979 -204.32,493.438 -197.981,496.408"/>
</g>
<!-- Metamodel::ClassHOW&#45;&gt;Metamodel::Versioning -->
<g id="edge36" class="edge"><title>Metamodel::ClassHOW&#45;&gt;Metamodel::Versioning</title>
<path fill="none" stroke="#6666ff" d="M178.714,-95.7908C43.7824,-75.3208 -218.4,-35.5459 -218.4,-35.5459 -218.4,-35.5459 -452.928,-8.61083 -589.059,7.02355"/>
<polygon fill="#6666ff" stroke="#6666ff" points="-588.755,10.5115 -599.089,8.17547 -589.553,3.55726 -588.755,10.5115"/>
</g>
<!-- Metamodel::ClassHOW&#45;&gt;Metamodel::AttributeContainer -->
<g id="edge38" class="edge"><title>Metamodel::ClassHOW&#45;&gt;Metamodel::AttributeContainer</title>
<path fill="none" stroke="#6666ff" d="M269.702,-89.6309C326.295,-9.68058 554.773,313.092 621.865,407.873"/>
<polygon fill="#6666ff" stroke="#6666ff" points="624.746,405.884 627.667,416.069 619.033,409.929 624.746,405.884"/>
</g>
<!-- Metamodel::ClassHOW&#45;&gt;Metamodel::MethodContainer -->
<g id="edge40" class="edge"><title>Metamodel::ClassHOW&#45;&gt;Metamodel::MethodContainer</title>
<path fill="none" stroke="#6666ff" d="M259.195,-89.2374C265.177,-40.3541 281.486,92.9069 288.659,151.521"/>
<polygon fill="#6666ff" stroke="#6666ff" points="292.147,151.209 289.888,161.56 285.199,152.059 292.147,151.209"/>
</g>
<!-- Metamodel::ClassHOW&#45;&gt;Metamodel::MultiMethodContainer -->
<g id="edge42" class="edge"><title>Metamodel::ClassHOW&#45;&gt;Metamodel::MultiMethodContainer</title>
<path fill="none" stroke="#6666ff" d="M203.715,-123.229C68.4628,-162.794 -277.782,-264.081 -277.782,-264.081 -277.782,-264.081 -427.247,-314.105 -513.954,-343.125"/>
<polygon fill="#6666ff" stroke="#6666ff" points="-515.315,-339.89 -523.687,-346.383 -513.093,-346.528 -515.315,-339.89"/>
</g>
<!-- Metamodel::ClassHOW&#45;&gt;Metamodel::RoleContainer -->
<g id="edge43" class="edge"><title>Metamodel::ClassHOW&#45;&gt;Metamodel::RoleContainer</title>
<path fill="none" stroke="#6666ff" d="M241.655,-125.564C198.164,-176.512 73.585,-322.447 22.5324,-382.252"/>
<polygon fill="#6666ff" stroke="#6666ff" points="19.6633,-380.222 15.8327,-390.1 24.9873,-384.767 19.6633,-380.222"/>
</g>
<!-- Metamodel::ClassHOW&#45;&gt;Metamodel::MROBasedMethodDispatch -->
<g id="edge47" class="edge"><title>Metamodel::ClassHOW&#45;&gt;Metamodel::MROBasedMethodDispatch</title>
<path fill="none" stroke="#6666ff" d="M259.257,-125.689C265.919,-177.552 285.168,-327.398 293.214,-390.033"/>
<polygon fill="#6666ff" stroke="#6666ff" points="289.748,-390.52 294.493,-399.993 296.691,-389.628 289.748,-390.52"/>
</g>
<!-- Metamodel::ClassHOW&#45;&gt;Metamodel::MROBasedTypeChecking -->
<g id="edge48" class="edge"><title>Metamodel::ClassHOW&#45;&gt;Metamodel::MROBasedTypeChecking</title>
<path fill="none" stroke="#6666ff" d="M288.217,-124.881C361.651,-165.317 545.092,-266.33 627.426,-311.667"/>
<polygon fill="#6666ff" stroke="#6666ff" points="626.034,-314.896 636.482,-316.654 629.411,-308.764 626.034,-314.896"/>
</g>
<!-- Metamodel::ClassHOW&#45;&gt;Metamodel::BUILDPLAN -->
<g id="edge50" class="edge"><title>Metamodel::ClassHOW&#45;&gt;Metamodel::BUILDPLAN</title>
<path fill="none" stroke="#6666ff" d="M276.313,-125.435C334.514,-178.842 503.826,-334.206 503.826,-334.206 503.826,-334.206 1033.74,-678.026 1177.12,-771.058"/>
<polygon fill="#6666ff" stroke="#6666ff" points="1175.32,-774.059 1185.61,-776.566 1179.13,-768.187 1175.32,-774.059"/>
</g>
<!-- Metamodel::ClassHOW&#45;&gt;Metamodel::BoolificationProtocol -->
<g id="edge52" class="edge"><title>Metamodel::ClassHOW&#45;&gt;Metamodel::BoolificationProtocol</title>
<path fill="none" stroke="#6666ff" d="M166.977,-98.5355C68.3725,-88.5364 -90.2749,-72.4487 -199.282,-61.3949"/>
<polygon fill="#6666ff" stroke="#6666ff" points="-199.04,-57.9015 -209.342,-60.3747 -199.746,-64.8658 -199.04,-57.9015"/>
</g>
<!-- Metamodel::ClassHOW&#45;&gt;Metamodel::MultipleInheritance -->
<g id="edge44" class="edge"><title>Metamodel::ClassHOW&#45;&gt;Metamodel::MultipleInheritance</title>
<path fill="none" stroke="#6666ff" d="M162.901,-115.372C-92.357,-136.311 -798.288,-194.217 -1086.11,-217.826"/>
<polygon fill="#6666ff" stroke="#6666ff" points="-1086.49,-214.346 -1096.17,-218.652 -1085.91,-221.322 -1086.49,-214.346"/>
</g>
<!-- Metamodel::ClassHOW&#45;&gt;Metamodel::C3MRO -->
<g id="edge46" class="edge"><title>Metamodel::ClassHOW&#45;&gt;Metamodel::C3MRO</title>
<path fill="none" stroke="#6666ff" d="M234.946,-125.34C154.792,-189.774 -116.987,-408.253 -116.987,-408.253 -116.987,-408.253 -480.252,-730.221 -584.443,-822.568"/>
<polygon fill="#6666ff" stroke="#6666ff" points="-586.886,-820.056 -592.048,-829.308 -582.243,-825.294 -586.886,-820.056"/>
</g>
<!-- Metamodel::ClassHOW&#45;&gt;Metamodel::Finalization -->
<g id="edge39" class="edge"><title>Metamodel::ClassHOW&#45;&gt;Metamodel::Finalization</title>
<path fill="none" stroke="#6666ff" d="M249.31,-125.688C221.275,-191.935 125.581,-418.057 125.581,-418.057 125.581,-418.057 137.505,-747.846 141.127,-848.042"/>
<polygon fill="#6666ff" stroke="#6666ff" points="137.64,-848.446 141.499,-858.313 144.635,-848.193 137.64,-848.446"/>
</g>
<!-- Metamodel::ClassHOW&#45;&gt;Metamodel::PrivateMethodContainer -->
<g id="edge41" class="edge"><title>Metamodel::ClassHOW&#45;&gt;Metamodel::PrivateMethodContainer</title>
<path fill="none" stroke="#6666ff" d="M222.164,-124.628C133.794,-167.748 -92.4328,-278.135 -92.4328,-278.135 -92.4328,-278.135 -961.303,-671.622 -1176.55,-769.101"/>
<polygon fill="#6666ff" stroke="#6666ff" points="-1178.04,-765.936 -1185.71,-773.25 -1175.16,-772.312 -1178.04,-765.936"/>
</g>
<!-- Metamodel::ClassHOW&#45;&gt;Metamodel::DefaultParent -->
<g id="edge45" class="edge"><title>Metamodel::ClassHOW&#45;&gt;Metamodel::DefaultParent</title>
<path fill="none" stroke="#6666ff" d="M248.434,-126.014C218.179,-191.294 117.593,-408.33 117.593,-408.33 117.593,-408.33 -118.454,-688.919 -192.161,-776.535"/>
<polygon fill="#6666ff" stroke="#6666ff" points="-195.014,-774.49 -198.774,-784.395 -189.658,-778.996 -195.014,-774.49"/>
</g>
<!-- Metamodel::ClassHOW&#45;&gt;Metamodel::Trusting -->
<g id="edge49" class="edge"><title>Metamodel::ClassHOW&#45;&gt;Metamodel::Trusting</title>
<path fill="none" stroke="#6666ff" d="M347.109,-116.63C534.178,-135.245 962.732,-177.888 1151.44,-196.665"/>
<polygon fill="#6666ff" stroke="#6666ff" points="1151.31,-200.169 1161.61,-197.677 1152,-193.204 1151.31,-200.169"/>
</g>
<!-- Metamodel::ClassHOW&#45;&gt;Metamodel::Mixins -->
<g id="edge51" class="edge"><title>Metamodel::ClassHOW&#45;&gt;Metamodel::Mixins</title>
<path fill="none" stroke="#6666ff" d="M269.203,-125.69C314.259,-191.944 468.051,-418.089 468.051,-418.089 468.051,-418.089 552.075,-720.734 578.236,-814.962"/>
<polygon fill="#6666ff" stroke="#6666ff" points="574.879,-815.954 580.927,-824.653 581.624,-814.081 574.879,-815.954"/>
</g>
<!-- Metamodel::RolePunning -->
<g id="node29" class="node"><title>Metamodel::RolePunning</title>
<g id="a_node29"><a xlink:href="/type/Metamodel::RolePunning" xlink:title="Metamodel::RolePunning">
<ellipse fill="none" stroke="#6666ff" cx="-1259.15" cy="269.366" rx="109.681" ry="18"/>
<text text-anchor="middle" x="-1259.15" y="273.066" font-family="FreeSans" font-size="14.00" fill="#6666ff">Metamodel::RolePunning</text>
</a>
</g>
</g>
<!-- Metamodel::ParametricRoleGroupHOW -->
<g id="node30" class="node"><title>Metamodel::ParametricRoleGroupHOW</title>
<g id="a_node30"><a xlink:href="/type/Metamodel::ParametricRoleGroupHOW" xlink:title="Metamodel::ParametricRoleGroupHOW">
<ellipse fill="none" stroke="#000000" cx="-656.632" cy="426.044" rx="167.07" ry="18"/>
<text text-anchor="middle" x="-656.632" y="429.744" font-family="FreeSans" font-size="14.00" fill="#000000">Metamodel::ParametricRoleGroupHOW</text>
</a>
</g>
</g>
<!-- Metamodel::ParametricRoleGroupHOW&#45;&gt;Metamodel::Stashing -->
<g id="edge54" class="edge"><title>Metamodel::ParametricRoleGroupHOW&#45;&gt;Metamodel::Stashing</title>
<path fill="none" stroke="#6666ff" d="M-639.575,407.929C-590.502,355.811 -452.449,209.194 -452.449,209.194 -452.449,209.194 -168.506,72.587 -57.0431,18.9614"/>
<polygon fill="#6666ff" stroke="#6666ff" points="-58.2767,15.6709 -47.7479,14.4894 -55.2419,21.9788 -58.2767,15.6709"/>
</g>
<!-- Metamodel::ParametricRoleGroupHOW&#45;&gt;Any -->
<g id="edge6" class="edge"><title>Metamodel::ParametricRoleGroupHOW&#45;&gt;Any</title>
<path fill="none" stroke="#000000" d="M-534.187,438.339C-334.855,458.354 49.6927,496.966 170.397,509.085"/>
<polygon fill="#000000" stroke="#000000" points="170.992,505.627 180.593,510.109 170.293,512.592 170.992,505.627"/>
</g>
<!-- Metamodel::ParametricRoleGroupHOW&#45;&gt;Metamodel::Naming -->
<g id="edge53" class="edge"><title>Metamodel::ParametricRoleGroupHOW&#45;&gt;Metamodel::Naming</title>
<path fill="none" stroke="#6666ff" d="M-587.446,409.596C-461.673,379.694 -197.052,316.783 -72.2477,287.112"/>
<polygon fill="#6666ff" stroke="#6666ff" points="-72.9598,283.683 -62.4214,284.776 -71.3406,290.494 -72.9598,283.683"/>
</g>
<!-- Metamodel::ParametricRoleGroupHOW&#45;&gt;Metamodel::TypePretense -->
<g id="edge55" class="edge"><title>Metamodel::ParametricRoleGroupHOW&#45;&gt;Metamodel::TypePretense</title>
<path fill="none" stroke="#6666ff" d="M-678.698,443.967C-763.322,512.7 -1067.22,759.532 -1164.08,838.204"/>
<polygon fill="#6666ff" stroke="#6666ff" points="-1162.04,841.057 -1172.01,844.645 -1166.45,835.624 -1162.04,841.057"/>
</g>
<!-- Metamodel::ParametricRoleGroupHOW&#45;&gt;Metamodel::BoolificationProtocol -->
<g id="edge57" class="edge"><title>Metamodel::ParametricRoleGroupHOW&#45;&gt;Metamodel::BoolificationProtocol</title>
<path fill="none" stroke="#6666ff" d="M-643.802,407.992C-592.07,335.2 -398.653,63.0515 -337.49,-23.0091"/>
<polygon fill="#6666ff" stroke="#6666ff" points="-340.313,-25.0783 -331.668,-31.2019 -334.608,-21.0232 -340.313,-25.0783"/>
</g>
<!-- Metamodel::ParametricRoleGroupHOW&#45;&gt;Metamodel::RolePunning -->
<g id="edge56" class="edge"><title>Metamodel::ParametricRoleGroupHOW&#45;&gt;Metamodel::RolePunning</title>
<path fill="none" stroke="#6666ff" d="M-720.827,409.351C-835.145,379.624 -1072.99,317.774 -1190.46,287.227"/>
<polygon fill="#6666ff" stroke="#6666ff" points="-1191.62,290.542 -1200.42,284.638 -1189.86,283.767 -1191.62,290.542"/>
</g>
<!-- Metamodel::ParametricRoleHOW -->
<g id="node31" class="node"><title>Metamodel::ParametricRoleHOW</title>
<g id="a_node31"><a xlink:href="/type/Metamodel::ParametricRoleHOW" xlink:title="Metamodel::ParametricRoleHOW">
<ellipse fill="none" stroke="#000000" cx="-308.517" cy="209.032" rx="142.175" ry="18"/>
<text text-anchor="middle" x="-308.517" y="212.732" font-family="FreeSans" font-size="14.00" fill="#000000">Metamodel::ParametricRoleHOW</text>
</a>
</g>
</g>
<!-- Metamodel::ParametricRoleHOW&#45;&gt;Metamodel::Stashing -->
<g id="edge67" class="edge"><title>Metamodel::ParametricRoleHOW&#45;&gt;Metamodel::Stashing</title>
<path fill="none" stroke="#6666ff" d="M-283.567,191.198C-230.23,153.073 -105.135,63.6554 -45.5524,21.0662"/>
<polygon fill="#6666ff" stroke="#6666ff" points="-47.4239,18.1018 -37.2532,15.134 -43.3533,23.7965 -47.4239,18.1018"/>
</g>
<!-- Metamodel::ParametricRoleHOW&#45;&gt;Any -->
<g id="edge7" class="edge"><title>Metamodel::ParametricRoleHOW&#45;&gt;Any</title>
<path fill="none" stroke="#000000" d="M-278.538,226.678C-187.011,280.553 88.0596,442.465 178.448,495.67"/>
<polygon fill="#000000" stroke="#000000" points="180.492,492.811 187.334,500.9 176.941,498.844 180.492,492.811"/>
</g>
<!-- Metamodel::ParametricRoleHOW&#45;&gt;Metamodel::Naming -->
<g id="edge58" class="edge"><title>Metamodel::ParametricRoleHOW&#45;&gt;Metamodel::Naming</title>
<path fill="none" stroke="#6666ff" d="M-233.334,224.344C-185.872,234.01 -124.849,246.438 -77.7379,256.032"/>
<polygon fill="#6666ff" stroke="#6666ff" points="-77.0063,252.609 -67.9059,258.034 -78.4033,259.468 -77.0063,252.609"/>
</g>
<!-- Metamodel::ParametricRoleHOW&#45;&gt;Metamodel::Documenting -->
<g id="edge59" class="edge"><title>Metamodel::ParametricRoleHOW&#45;&gt;Metamodel::Documenting</title>
<path fill="none" stroke="#6666ff" d="M-303.018,227.213C-287.168,279.614 -241.311,431.22 -222.279,494.141"/>
<polygon fill="#6666ff" stroke="#6666ff" points="-218.904,493.208 -219.359,503.793 -225.605,495.235 -218.904,493.208"/>
</g>
<!-- Metamodel::ParametricRoleHOW&#45;&gt;Metamodel::Versioning -->
<g id="edge60" class="edge"><title>Metamodel::ParametricRoleHOW&#45;&gt;Metamodel::Versioning</title>
<path fill="none" stroke="#6666ff" d="M-343.162,191.395C-412.095,156.304 -566.243,77.8321 -641.273,39.6369"/>
<polygon fill="#6666ff" stroke="#6666ff" points="-643.129,42.6195 -650.453,34.9637 -639.953,36.3813 -643.129,42.6195"/>
</g>
<!-- Metamodel::ParametricRoleHOW&#45;&gt;Metamodel::TypePretense -->
<g id="edge68" class="edge"><title>Metamodel::ParametricRoleHOW&#45;&gt;Metamodel::TypePretense</title>
<path fill="none" stroke="#6666ff" d="M-323.511,227.156C-366.647,279.297 -487.998,425.98 -487.998,425.98 -487.998,425.98 -1011.2,749.475 -1156.77,839.483"/>
<polygon fill="#6666ff" stroke="#6666ff" points="-1155.07,842.542 -1165.41,844.824 -1158.75,836.588 -1155.07,842.542"/>
</g>
<!-- Metamodel::ParametricRoleHOW&#45;&gt;Metamodel::AttributeContainer -->
<g id="edge64" class="edge"><title>Metamodel::ParametricRoleHOW&#45;&gt;Metamodel::AttributeContainer</title>
<path fill="none" stroke="#6666ff" d="M-255.64,225.782C-185.082,248.134 -68.9225,284.931 -68.9225,284.931 -68.9225,284.931 372.37,377.763 558.85,416.992"/>
<polygon fill="#6666ff" stroke="#6666ff" points="559.814,413.619 568.88,419.102 558.373,420.469 559.814,413.619"/>
</g>
<!-- Metamodel::ParametricRoleHOW&#45;&gt;Metamodel::MethodContainer -->
<g id="edge61" class="edge"><title>Metamodel::ParametricRoleHOW&#45;&gt;Metamodel::MethodContainer</title>
<path fill="none" stroke="#6666ff" d="M-175.588,202.569C-75.2835,197.692 61.6248,191.035 161.39,186.184"/>
<polygon fill="#6666ff" stroke="#6666ff" points="161.376,182.681 171.534,185.691 161.716,189.672 161.376,182.681"/>
</g>
<!-- Metamodel::ParametricRoleHOW&#45;&gt;Metamodel::MultiMethodContainer -->
<g id="edge63" class="edge"><title>Metamodel::ParametricRoleHOW&#45;&gt;Metamodel::MultiMethodContainer</title>
<path fill="none" stroke="#6666ff" d="M-319.134,190.882C-353.503,132.129 -459.506,-49.0857 -459.506,-49.0857 -459.506,-49.0857 -536.119,-258.76 -564.183,-335.567"/>
<polygon fill="#6666ff" stroke="#6666ff" points="-567.514,-334.484 -567.658,-345.078 -560.939,-336.887 -567.514,-334.484"/>
</g>
<!-- Metamodel::ParametricRoleHOW&#45;&gt;Metamodel::RoleContainer -->
<g id="edge65" class="edge"><title>Metamodel::ParametricRoleHOW&#45;&gt;Metamodel::RoleContainer</title>
<path fill="none" stroke="#6666ff" d="M-299.349,190.856C-269.674,132.017 -178.144,-49.4593 -178.144,-49.4593 -178.144,-49.4593 -55.0925,-296.899 -13.3542,-380.829"/>
<polygon fill="#6666ff" stroke="#6666ff" points="-16.3782,-382.608 -8.79152,-390.004 -10.1105,-379.491 -16.3782,-382.608"/>
</g>
<!-- Metamodel::ParametricRoleHOW&#45;&gt;Metamodel::MultipleInheritance -->
<g id="edge66" class="edge"><title>Metamodel::ParametricRoleHOW&#45;&gt;Metamodel::MultipleInheritance</title>
<path fill="none" stroke="#6666ff" d="M-351.812,191.884C-464.066,147.424 -755.812,31.8717 -755.812,31.8717 -755.812,31.8717 -786.272,18.0512 -786.272,18.0512 -786.272,18.0512 -1066.3,-144.317 -1171.44,-205.282"/>
<polygon fill="#6666ff" stroke="#6666ff" points="-1173.28,-202.304 -1180.17,-210.348 -1169.77,-208.359 -1173.28,-202.304"/>
</g>
<!-- Metamodel::ParametricRoleHOW&#45;&gt;Metamodel::PrivateMethodContainer -->
<g id="edge62" class="edge"><title>Metamodel::ParametricRoleHOW&#45;&gt;Metamodel::PrivateMethodContainer</title>
<path fill="none" stroke="#6666ff" d="M-325.195,190.826C-436.428,69.3953 -1070.38,-622.672 -1200.86,-765.113"/>
<polygon fill="#6666ff" stroke="#6666ff" points="-1203.54,-762.857 -1207.72,-772.595 -1198.38,-767.585 -1203.54,-762.857"/>
</g>
<!-- Metamodel::ParametricRoleHOW&#45;&gt;Metamodel::RolePunning -->
<g id="edge69" class="edge"><title>Metamodel::ParametricRoleHOW&#45;&gt;Metamodel::RolePunning</title>
<path fill="none" stroke="#6666ff" d="M-435.737,217.107C-622.594,228.966 -968.331,250.909 -1146.5,262.217"/>
<polygon fill="#6666ff" stroke="#6666ff" points="-1146.49,265.722 -1156.69,262.863 -1146.93,258.736 -1146.49,265.722"/>
</g>
<!-- Metamodel::PackageHOW -->
<g id="node32" class="node"><title>Metamodel::PackageHOW</title>
<g id="a_node32"><a xlink:href="/type/Metamodel::PackageHOW" xlink:title="Metamodel::PackageHOW">
<ellipse fill="none" stroke="#000000" cx="508.187" cy="920.119" rx="116.18" ry="18"/>
<text text-anchor="middle" x="508.187" y="923.819" font-family="FreeSans" font-size="14.00" fill="#000000">Metamodel::PackageHOW</text>
</a>
</g>
</g>
<!-- Metamodel::PackageHOW&#45;&gt;Metamodel::Stashing -->
<g id="edge72" class="edge"><title>Metamodel::PackageHOW&#45;&gt;Metamodel::Stashing</title>
<path fill="none" stroke="#6666ff" d="M498.011,902.107C433.362,787.666 80.072,162.277 2.27104,24.5545"/>
<polygon fill="#6666ff" stroke="#6666ff" points="-0.777447,26.2739 -2.64869,15.8457 5.3173,22.8309 -0.777447,26.2739"/>
</g>
<!-- Metamodel::PackageHOW&#45;&gt;Any -->
<g id="edge8" class="edge"><title>Metamodel::PackageHOW&#45;&gt;Any</title>
<path fill="none" stroke="#000000" d="M494.882,902.092C446.731,836.85 281.471,612.933 225.946,537.7"/>
<polygon fill="#000000" stroke="#000000" points="222.856,539.408 219.734,529.283 228.488,535.251 222.856,539.408"/>
</g>
<!-- Metamodel::PackageHOW&#45;&gt;Metamodel::Naming -->
<g id="edge70" class="edge"><title>Metamodel::PackageHOW&#45;&gt;Metamodel::Naming</title>
<path fill="none" stroke="#6666ff" d="M493.57,902.193C430.818,825.232 187.416,526.717 187.416,526.717 187.416,526.717 64.0935,362.268 15.23,297.11"/>
<polygon fill="#6666ff" stroke="#6666ff" points="12.316,299.058 9.11654,288.958 17.9163,294.858 12.316,299.058"/>
</g>
<!-- Metamodel::PackageHOW&#45;&gt;Metamodel::Documenting -->
<g id="edge71" class="edge"><title>Metamodel::PackageHOW&#45;&gt;Metamodel::Documenting</title>
<path fill="none" stroke="#6666ff" d="M476.697,902.757C360.599,838.746 -43.4642,615.964 -173.322,544.366"/>
<polygon fill="#6666ff" stroke="#6666ff" points="-175.123,547.37 -182.19,539.477 -171.743,541.24 -175.123,547.37"/>
</g>
<!-- Metamodel::PackageHOW&#45;&gt;Metamodel::TypePretense -->
<g id="edge73" class="edge"><title>Metamodel::PackageHOW&#45;&gt;Metamodel::TypePretense</title>
<path fill="none" stroke="#6666ff" d="M394.524,916.27C87.7182,905.88 -755.408,877.328 -1071.84,866.612"/>
<polygon fill="#6666ff" stroke="#6666ff" points="-1072.08,870.106 -1081.96,866.269 -1071.84,863.11 -1072.08,870.106"/>
</g>
<!-- Metamodel::PackageHOW&#45;&gt;Metamodel::MethodDelegation -->
<g id="edge74" class="edge"><title>Metamodel::PackageHOW&#45;&gt;Metamodel::MethodDelegation</title>
<path fill="none" stroke="#6666ff" d="M393.356,923.202C317.064,925.25 216.444,927.951 135.613,930.121"/>
<polygon fill="#6666ff" stroke="#6666ff" points="135.444,933.627 125.354,930.397 135.256,926.63 135.444,933.627"/>
</g>
</g>
</svg>
