<?xml version="1.0" encoding="UTF-8" standalone="no"?>
<!DOCTYPE svg PUBLIC "-//W3C//DTD SVG 1.1//EN"
 "http://www.w3.org/Graphics/SVG/1.1/DTD/svg11.dtd">
<!-- Generated by graphviz version 2.38.0 (20140413.2041)
 -->
<!-- Title: perl6&#45;type&#45;graph Pages: 1 -->
<svg width="1420pt" height="332pt"
 viewBox="0.00 0.00 1419.53 332.00" xmlns="http://www.w3.org/2000/svg" xmlns:xlink="http://www.w3.org/1999/xlink">
<g id="graph0" class="graph" transform="scale(1 1) rotate(0) translate(4 328)">
<title>perl6&#45;type&#45;graph</title>
<polygon fill="white" stroke="none" points="-4,4 -4,-328 1415.53,-328 1415.53,4 -4,4"/>
<!-- X::Proc::Async -->
<g id="node1" class="node"><title>X::Proc::Async</title>
<g id="a_node1"><a xlink:href="/type/X::Proc::Async" xlink:title="X::Proc::Async">
<ellipse fill="none" stroke="#6666ff" cx="674.838" cy="-90" rx="68.4888" ry="18"/>
<text text-anchor="middle" x="674.838" y="-86.3" font-family="FreeSans" font-size="14.00" fill="#6666ff">X::Proc::Async</text>
</a>
</g>
</g>
<!-- Exception -->
<g id="node4" class="node"><title>Exception</title>
<g id="a_node4"><a xlink:href="/type/Exception" xlink:title="Exception">
<ellipse fill="none" stroke="#000000" cx="722.838" cy="-162" rx="49.2915" ry="18"/>
<text text-anchor="middle" x="722.838" y="-158.3" font-family="FreeSans" font-size="14.00" fill="#000000">Exception</text>
</a>
</g>
</g>
<!-- X::Proc::Async&#45;&gt;Exception -->
<g id="edge1" class="edge"><title>X::Proc::Async&#45;&gt;Exception</title>
<path fill="none" stroke="#000000" d="M686.457,-107.945C692.176,-116.285 699.187,-126.509 705.522,-135.748"/>
<polygon fill="#000000" stroke="#000000" points="702.784,-137.943 711.325,-144.211 708.557,-133.984 702.784,-137.943"/>
</g>
<!-- Mu -->
<g id="node2" class="node"><title>Mu</title>
<g id="a_node2"><a xlink:href="/type/Mu" xlink:title="Mu">
<ellipse fill="none" stroke="#000000" cx="722.838" cy="-306" rx="27" ry="18"/>
<text text-anchor="middle" x="722.838" y="-302.3" font-family="FreeSans" font-size="14.00" fill="#000000">Mu</text>
</a>
</g>
</g>
<!-- Any -->
<g id="node3" class="node"><title>Any</title>
<g id="a_node3"><a xlink:href="/type/Any" xlink:title="Any">
<ellipse fill="none" stroke="#000000" cx="722.838" cy="-234" rx="27" ry="18"/>
<text text-anchor="middle" x="722.838" y="-230.3" font-family="FreeSans" font-size="14.00" fill="#000000">Any</text>
</a>
</g>
</g>
<!-- Any&#45;&gt;Mu -->
<g id="edge2" class="edge"><title>Any&#45;&gt;Mu</title>
<path fill="none" stroke="#000000" d="M722.838,-252.303C722.838,-260.017 722.838,-269.288 722.838,-277.888"/>
<polygon fill="#000000" stroke="#000000" points="719.338,-277.896 722.838,-287.896 726.338,-277.896 719.338,-277.896"/>
</g>
<!-- Exception&#45;&gt;Any -->
<g id="edge3" class="edge"><title>Exception&#45;&gt;Any</title>
<path fill="none" stroke="#000000" d="M722.838,-180.303C722.838,-188.017 722.838,-197.288 722.838,-205.888"/>
<polygon fill="#000000" stroke="#000000" points="719.338,-205.896 722.838,-215.896 726.338,-205.896 719.338,-205.896"/>
</g>
<!-- X::Proc::Async::OpenForWriting -->
<g id="node5" class="node"><title>X::Proc::Async::OpenForWriting</title>
<g id="a_node5"><a xlink:href="/type/X::Proc::Async::OpenForWriting" xlink:title="X::Proc::Async::OpenForWriting">
<ellipse fill="none" stroke="#000000" cx="135.838" cy="-18" rx="135.676" ry="18"/>
<text text-anchor="middle" x="135.838" y="-14.3" font-family="FreeSans" font-size="14.00" fill="#000000">X::Proc::Async::OpenForWriting</text>
</a>
</g>
</g>
<!-- X::Proc::Async::OpenForWriting&#45;&gt;X::Proc::Async -->
<g id="edge9" class="edge"><title>X::Proc::Async::OpenForWriting&#45;&gt;X::Proc::Async</title>
<path fill="none" stroke="#6666ff" d="M229.109,-31.1132C335.946,-44.9881 508.582,-67.4083 604.64,-79.8833"/>
<polygon fill="#6666ff" stroke="#6666ff" points="604.461,-83.3894 614.828,-81.2065 605.362,-76.4477 604.461,-83.3894"/>
</g>
<!-- X::Proc::Async::OpenForWriting&#45;&gt;Exception -->
<g id="edge4" class="edge"><title>X::Proc::Async::OpenForWriting&#45;&gt;Exception</title>
<path fill="none" stroke="#000000" d="M198.101,-34.0621C315.153,-62.3778 565.835,-123.02 672.801,-148.896"/>
<polygon fill="#000000" stroke="#000000" points="672.152,-152.34 682.695,-151.289 673.798,-145.536 672.152,-152.34"/>
</g>
<!-- X::Proc::Async::TapBeforeSpawn -->
<g id="node6" class="node"><title>X::Proc::Async::TapBeforeSpawn</title>
<g id="a_node6"><a xlink:href="/type/X::Proc::Async::TapBeforeSpawn" xlink:title="X::Proc::Async::TapBeforeSpawn">
<ellipse fill="none" stroke="#000000" cx="431.838" cy="-18" rx="141.875" ry="18"/>
<text text-anchor="middle" x="431.838" y="-14.3" font-family="FreeSans" font-size="14.00" fill="#000000">X::Proc::Async::TapBeforeSpawn</text>
</a>
</g>
</g>
<!-- X::Proc::Async::TapBeforeSpawn&#45;&gt;X::Proc::Async -->
<g id="edge10" class="edge"><title>X::Proc::Async::TapBeforeSpawn&#45;&gt;X::Proc::Async</title>
<path fill="none" stroke="#6666ff" d="M486.372,-34.7094C526.49,-46.2661 580.775,-61.9036 620.781,-73.4279"/>
<polygon fill="#6666ff" stroke="#6666ff" points="620.048,-76.8593 630.627,-76.2642 621.986,-70.1328 620.048,-76.8593"/>
</g>
<!-- X::Proc::Async::TapBeforeSpawn&#45;&gt;Exception -->
<g id="edge5" class="edge"><title>X::Proc::Async::TapBeforeSpawn&#45;&gt;Exception</title>
<path fill="none" stroke="#000000" d="M463.061,-35.7402C511.147,-61.5213 597.838,-108 597.838,-108 597.838,-108 645.942,-128.396 682.467,-143.883"/>
<polygon fill="#000000" stroke="#000000" points="681.366,-147.218 691.939,-147.899 684.099,-140.773 681.366,-147.218"/>
</g>
<!-- X::Proc::Async::AlreadyStarted -->
<g id="node7" class="node"><title>X::Proc::Async::AlreadyStarted</title>
<g id="a_node7"><a xlink:href="/type/X::Proc::Async::AlreadyStarted" xlink:title="X::Proc::Async::AlreadyStarted">
<ellipse fill="none" stroke="#000000" cx="722.838" cy="-18" rx="131.077" ry="18"/>
<text text-anchor="middle" x="722.838" y="-14.3" font-family="FreeSans" font-size="14.00" fill="#000000">X::Proc::Async::AlreadyStarted</text>
</a>
</g>
</g>
<!-- X::Proc::Async::AlreadyStarted&#45;&gt;X::Proc::Async -->
<g id="edge11" class="edge"><title>X::Proc::Async::AlreadyStarted&#45;&gt;X::Proc::Async</title>
<path fill="none" stroke="#6666ff" d="M711.218,-35.945C705.499,-44.2853 698.489,-54.5092 692.153,-63.7483"/>
<polygon fill="#6666ff" stroke="#6666ff" points="689.119,-61.9843 686.35,-72.211 694.892,-65.9431 689.119,-61.9843"/>
</g>
<!-- X::Proc::Async::AlreadyStarted&#45;&gt;Exception -->
<g id="edge6" class="edge"><title>X::Proc::Async::AlreadyStarted&#45;&gt;Exception</title>
<path fill="none" stroke="#000000" d="M732.173,-36.0613C740.651,-51.5549 751.838,-72 751.838,-72 751.838,-72 751.838,-108 751.838,-108 751.838,-108 744.36,-121.667 736.998,-135.121"/>
<polygon fill="#000000" stroke="#000000" points="733.743,-133.778 732.014,-144.23 739.884,-137.138 733.743,-133.778"/>
</g>
<!-- X::Proc::Async::MustBeStarted -->
<g id="node8" class="node"><title>X::Proc::Async::MustBeStarted</title>
<g id="a_node8"><a xlink:href="/type/X::Proc::Async::MustBeStarted" xlink:title="X::Proc::Async::MustBeStarted">
<ellipse fill="none" stroke="#000000" cx="1003.84" cy="-18" rx="131.877" ry="18"/>
<text text-anchor="middle" x="1003.84" y="-14.3" font-family="FreeSans" font-size="14.00" fill="#000000">X::Proc::Async::MustBeStarted</text>
</a>
</g>
</g>
<!-- X::Proc::Async::MustBeStarted&#45;&gt;X::Proc::Async -->
<g id="edge12" class="edge"><title>X::Proc::Async::MustBeStarted&#45;&gt;X::Proc::Async</title>
<path fill="none" stroke="#6666ff" d="M935.669,-33.504C876.898,-46.0084 792.799,-63.9018 736.125,-75.9602"/>
<polygon fill="#6666ff" stroke="#6666ff" points="735.277,-72.5622 726.224,-78.0667 736.734,-79.4089 735.277,-72.5622"/>
</g>
<!-- X::Proc::Async::MustBeStarted&#45;&gt;Exception -->
<g id="edge7" class="edge"><title>X::Proc::Async::MustBeStarted&#45;&gt;Exception</title>
<path fill="none" stroke="#000000" d="M971.054,-35.5671C918.364,-62.1934 815.162,-114.345 759.883,-142.28"/>
<polygon fill="#000000" stroke="#000000" points="758.136,-139.241 750.789,-146.875 761.293,-145.489 758.136,-139.241"/>
</g>
<!-- X::Proc::Async::CharsOrBytes -->
<g id="node9" class="node"><title>X::Proc::Async::CharsOrBytes</title>
<g id="a_node9"><a xlink:href="/type/X::Proc::Async::CharsOrBytes" xlink:title="X::Proc::Async::CharsOrBytes">
<ellipse fill="none" stroke="#000000" cx="1282.84" cy="-18" rx="128.877" ry="18"/>
<text text-anchor="middle" x="1282.84" y="-14.3" font-family="FreeSans" font-size="14.00" fill="#000000">X::Proc::Async::CharsOrBytes</text>
</a>
</g>
</g>
<!-- X::Proc::Async::CharsOrBytes&#45;&gt;X::Proc::Async -->
<g id="edge13" class="edge"><title>X::Proc::Async::CharsOrBytes&#45;&gt;X::Proc::Async</title>
<path fill="none" stroke="#6666ff" d="M1189.64,-30.4806C1164.86,-33.5341 1144.84,-36 1144.84,-36 1144.84,-36 877.778,-66.1153 746.277,-80.9441"/>
<polygon fill="#6666ff" stroke="#6666ff" points="745.827,-77.4726 736.282,-82.0712 746.611,-84.4285 745.827,-77.4726"/>
</g>
<!-- X::Proc::Async::CharsOrBytes&#45;&gt;Exception -->
<g id="edge8" class="edge"><title>X::Proc::Async::CharsOrBytes&#45;&gt;Exception</title>
<path fill="none" stroke="#000000" d="M1223.7,-33.995C1112.69,-62.145 875.017,-122.412 772.067,-148.517"/>
<polygon fill="#000000" stroke="#000000" points="771.073,-145.158 762.24,-151.009 772.794,-151.943 771.073,-145.158"/>
</g>
</g>
</svg>
