<?xml version="1.0" encoding="UTF-8" standalone="no"?>
<!DOCTYPE svg PUBLIC "-//W3C//DTD SVG 1.1//EN"
 "http://www.w3.org/Graphics/SVG/1.1/DTD/svg11.dtd">
<!-- Generated by graphviz version 2.38.0 (20140413.2041)
 -->
<!-- Title: perl6&#45;type&#45;graph Pages: 1 -->
<svg width="1601pt" height="260pt"
 viewBox="0.00 0.00 1601.39 260.00" xmlns="http://www.w3.org/2000/svg" xmlns:xlink="http://www.w3.org/1999/xlink">
<g id="graph0" class="graph" transform="scale(1 1) rotate(0) translate(4 256)">
<title>perl6&#45;type&#45;graph</title>
<polygon fill="white" stroke="none" points="-4,4 -4,-256 1597.39,-256 1597.39,4 -4,4"/>
<!-- Pod::Block -->
<g id="node1" class="node"><title>Pod::Block</title>
<g id="a_node1"><a xlink:href="/type/Pod::Block" xlink:title="Pod::Block">
<ellipse fill="none" stroke="#000000" cx="788.693" cy="-90" rx="53.0913" ry="18"/>
<text text-anchor="middle" x="788.693" y="-86.3" font-family="FreeSans" font-size="14.00" fill="#000000">Pod::Block</text>
</a>
</g>
</g>
<!-- Any -->
<g id="node3" class="node"><title>Any</title>
<g id="a_node3"><a xlink:href="/type/Any" xlink:title="Any">
<ellipse fill="none" stroke="#000000" cx="788.693" cy="-162" rx="27" ry="18"/>
<text text-anchor="middle" x="788.693" y="-158.3" font-family="FreeSans" font-size="14.00" fill="#000000">Any</text>
</a>
</g>
</g>
<!-- Pod::Block&#45;&gt;Any -->
<g id="edge1" class="edge"><title>Pod::Block&#45;&gt;Any</title>
<path fill="none" stroke="#000000" d="M788.693,-108.303C788.693,-116.017 788.693,-125.288 788.693,-133.888"/>
<polygon fill="#000000" stroke="#000000" points="785.193,-133.896 788.693,-143.896 792.193,-133.896 785.193,-133.896"/>
</g>
<!-- Mu -->
<g id="node2" class="node"><title>Mu</title>
<g id="a_node2"><a xlink:href="/type/Mu" xlink:title="Mu">
<ellipse fill="none" stroke="#000000" cx="788.693" cy="-234" rx="27" ry="18"/>
<text text-anchor="middle" x="788.693" y="-230.3" font-family="FreeSans" font-size="14.00" fill="#000000">Mu</text>
</a>
</g>
</g>
<!-- Any&#45;&gt;Mu -->
<g id="edge2" class="edge"><title>Any&#45;&gt;Mu</title>
<path fill="none" stroke="#000000" d="M788.693,-180.303C788.693,-188.017 788.693,-197.288 788.693,-205.888"/>
<polygon fill="#000000" stroke="#000000" points="785.193,-205.896 788.693,-215.896 792.193,-205.896 785.193,-205.896"/>
</g>
<!-- Pod::Block::Para -->
<g id="node4" class="node"><title>Pod::Block::Para</title>
<g id="a_node4"><a xlink:href="/type/Pod::Block::Para" xlink:title="Pod::Block::Para">
<ellipse fill="none" stroke="#000000" cx="76.6932" cy="-18" rx="76.8869" ry="18"/>
<text text-anchor="middle" x="76.6932" y="-14.3" font-family="FreeSans" font-size="14.00" fill="#000000">Pod::Block::Para</text>
</a>
</g>
</g>
<!-- Pod::Block::Para&#45;&gt;Pod::Block -->
<g id="edge3" class="edge"><title>Pod::Block::Para&#45;&gt;Pod::Block</title>
<path fill="none" stroke="#000000" d="M132.916,-30.2446C148.723,-33.406 161.693,-36 161.693,-36 161.693,-36 570.015,-70.5152 727.636,-83.8389"/>
<polygon fill="#000000" stroke="#000000" points="727.39,-87.3304 737.649,-84.6853 727.979,-80.3553 727.39,-87.3304"/>
</g>
<!-- Pod::Block::Declarator -->
<g id="node5" class="node"><title>Pod::Block::Declarator</title>
<g id="a_node5"><a xlink:href="/type/Pod::Block::Declarator" xlink:title="Pod::Block::Declarator">
<ellipse fill="none" stroke="#000000" cx="269.693" cy="-18" rx="98.5829" ry="18"/>
<text text-anchor="middle" x="269.693" y="-14.3" font-family="FreeSans" font-size="14.00" fill="#000000">Pod::Block::Declarator</text>
</a>
</g>
</g>
<!-- Pod::Block::Declarator&#45;&gt;Pod::Block -->
<g id="edge4" class="edge"><title>Pod::Block::Declarator&#45;&gt;Pod::Block</title>
<path fill="none" stroke="#000000" d="M341.731,-30.3392C361.542,-33.4576 377.693,-36 377.693,-36 377.693,-36 616.434,-66.7865 730.001,-81.4315"/>
<polygon fill="#000000" stroke="#000000" points="729.567,-84.9043 739.932,-82.7121 730.462,-77.9618 729.567,-84.9043"/>
</g>
<!-- Pod::Block::Named -->
<g id="node6" class="node"><title>Pod::Block::Named</title>
<g id="a_node6"><a xlink:href="/type/Pod::Block::Named" xlink:title="Pod::Block::Named">
<ellipse fill="none" stroke="#000000" cx="473.693" cy="-18" rx="87.1846" ry="18"/>
<text text-anchor="middle" x="473.693" y="-14.3" font-family="FreeSans" font-size="14.00" fill="#000000">Pod::Block::Named</text>
</a>
</g>
</g>
<!-- Pod::Block::Named&#45;&gt;Pod::Block -->
<g id="edge5" class="edge"><title>Pod::Block::Named&#45;&gt;Pod::Block</title>
<path fill="none" stroke="#000000" d="M530.737,-31.6765C588.941,-44.6106 678.557,-64.5254 735.374,-77.1514"/>
<polygon fill="#000000" stroke="#000000" points="734.719,-80.591 745.24,-79.3437 736.237,-73.7577 734.719,-80.591"/>
</g>
<!-- Pod::Item -->
<g id="node7" class="node"><title>Pod::Item</title>
<g id="a_node7"><a xlink:href="/type/Pod::Item" xlink:title="Pod::Item">
<ellipse fill="none" stroke="#000000" cx="626.693" cy="-18" rx="48.1917" ry="18"/>
<text text-anchor="middle" x="626.693" y="-14.3" font-family="FreeSans" font-size="14.00" fill="#000000">Pod::Item</text>
</a>
</g>
</g>
<!-- Pod::Item&#45;&gt;Pod::Block -->
<g id="edge6" class="edge"><title>Pod::Item&#45;&gt;Pod::Block</title>
<path fill="none" stroke="#000000" d="M657.164,-32.1665C682.856,-43.268 719.841,-59.249 748.052,-71.439"/>
<polygon fill="#000000" stroke="#000000" points="746.686,-74.6614 757.254,-75.4151 749.462,-68.2356 746.686,-74.6614"/>
</g>
<!-- Pod::Block::Comment -->
<g id="node8" class="node"><title>Pod::Block::Comment</title>
<g id="a_node8"><a xlink:href="/type/Pod::Block::Comment" xlink:title="Pod::Block::Comment">
<ellipse fill="none" stroke="#000000" cx="788.693" cy="-18" rx="96.3833" ry="18"/>
<text text-anchor="middle" x="788.693" y="-14.3" font-family="FreeSans" font-size="14.00" fill="#000000">Pod::Block::Comment</text>
</a>
</g>
</g>
<!-- Pod::Block::Comment&#45;&gt;Pod::Block -->
<g id="edge7" class="edge"><title>Pod::Block::Comment&#45;&gt;Pod::Block</title>
<path fill="none" stroke="#000000" d="M788.693,-36.3034C788.693,-44.0173 788.693,-53.2875 788.693,-61.8876"/>
<polygon fill="#000000" stroke="#000000" points="785.193,-61.8956 788.693,-71.8957 792.193,-61.8957 785.193,-61.8956"/>
</g>
<!-- Pod::Block::Table -->
<g id="node9" class="node"><title>Pod::Block::Table</title>
<g id="a_node9"><a xlink:href="/type/Pod::Block::Table" xlink:title="Pod::Block::Table">
<ellipse fill="none" stroke="#000000" cx="983.693" cy="-18" rx="80.6858" ry="18"/>
<text text-anchor="middle" x="983.693" y="-14.3" font-family="FreeSans" font-size="14.00" fill="#000000">Pod::Block::Table</text>
</a>
</g>
</g>
<!-- Pod::Block::Table&#45;&gt;Pod::Block -->
<g id="edge8" class="edge"><title>Pod::Block::Table&#45;&gt;Pod::Block</title>
<path fill="none" stroke="#000000" d="M942.815,-33.6743C910.934,-45.1188 866.692,-61.0005 833.784,-72.8136"/>
<polygon fill="#000000" stroke="#000000" points="832.191,-69.6668 823.961,-76.3397 834.556,-76.2552 832.191,-69.6668"/>
</g>
<!-- Pod::FormattingCode -->
<g id="node10" class="node"><title>Pod::FormattingCode</title>
<g id="a_node10"><a xlink:href="/type/Pod::FormattingCode" xlink:title="Pod::FormattingCode">
<ellipse fill="none" stroke="#000000" cx="1176.69" cy="-18" rx="94.4839" ry="18"/>
<text text-anchor="middle" x="1176.69" y="-14.3" font-family="FreeSans" font-size="14.00" fill="#000000">Pod::FormattingCode</text>
</a>
</g>
</g>
<!-- Pod::FormattingCode&#45;&gt;Pod::Block -->
<g id="edge9" class="edge"><title>Pod::FormattingCode&#45;&gt;Pod::Block</title>
<path fill="none" stroke="#000000" d="M1110.43,-30.9539C1035.55,-44.4641 914.952,-66.2213 844.618,-78.9105"/>
<polygon fill="#000000" stroke="#000000" points="843.837,-75.4948 834.617,-80.7148 845.08,-82.3836 843.837,-75.4948"/>
</g>
<!-- Pod::Block::Code -->
<g id="node11" class="node"><title>Pod::Block::Code</title>
<g id="a_node11"><a xlink:href="/type/Pod::Block::Code" xlink:title="Pod::Block::Code">
<ellipse fill="none" stroke="#000000" cx="1368.69" cy="-18" rx="79.0865" ry="18"/>
<text text-anchor="middle" x="1368.69" y="-14.3" font-family="FreeSans" font-size="14.00" fill="#000000">Pod::Block::Code</text>
</a>
</g>
</g>
<!-- Pod::Block::Code&#45;&gt;Pod::Block -->
<g id="edge10" class="edge"><title>Pod::Block::Code&#45;&gt;Pod::Block</title>
<path fill="none" stroke="#000000" d="M1309.82,-30.2446C1293.27,-33.406 1279.69,-36 1279.69,-36 1279.69,-36 980.495,-68.2963 849.218,-82.4668"/>
<polygon fill="#000000" stroke="#000000" points="848.498,-79.0241 838.931,-83.5771 849.249,-85.9836 848.498,-79.0241"/>
</g>
<!-- Pod::Heading -->
<g id="node12" class="node"><title>Pod::Heading</title>
<g id="a_node12"><a xlink:href="/type/Pod::Heading" xlink:title="Pod::Heading">
<ellipse fill="none" stroke="#000000" cx="1529.69" cy="-18" rx="63.8893" ry="18"/>
<text text-anchor="middle" x="1529.69" y="-14.3" font-family="FreeSans" font-size="14.00" fill="#000000">Pod::Heading</text>
</a>
</g>
</g>
<!-- Pod::Heading&#45;&gt;Pod::Block -->
<g id="edge11" class="edge"><title>Pod::Heading&#45;&gt;Pod::Block</title>
<path fill="none" stroke="#000000" d="M1482.23,-30.0542C1468.28,-33.3012 1456.69,-36 1456.69,-36 1456.69,-36 1015.11,-71.0361 850.001,-84.1357"/>
<polygon fill="#000000" stroke="#000000" points="849.693,-80.6491 840.001,-84.9292 850.246,-87.6272 849.693,-80.6491"/>
</g>
</g>
</svg>
