<?xml version="1.0" encoding="UTF-8" standalone="no"?>
<!DOCTYPE svg PUBLIC "-//W3C//DTD SVG 1.1//EN"
 "http://www.w3.org/Graphics/SVG/1.1/DTD/svg11.dtd">
<!-- Generated by graphviz version 2.38.0 (20140413.2041)
 -->
<!-- Title: perl6&#45;type&#45;graph Pages: 1 -->
<svg width="655pt" height="332pt"
 viewBox="0.00 0.00 655.44 332.00" xmlns="http://www.w3.org/2000/svg" xmlns:xlink="http://www.w3.org/1999/xlink">
<g id="graph0" class="graph" transform="scale(1 1) rotate(0) translate(4 328)">
<title>perl6&#45;type&#45;graph</title>
<polygon fill="white" stroke="none" points="-4,4 -4,-328 651.441,-328 651.441,4 -4,4"/>
<!-- Int -->
<g id="node1" class="node"><title>Int</title>
<g id="a_node1"><a xlink:href="/type/Int" xlink:title="Int">
<ellipse fill="none" stroke="#000000" cx="369.594" cy="-90" rx="27" ry="18"/>
<text text-anchor="middle" x="369.594" y="-86.3" font-family="FreeSans" font-size="14.00" fill="#000000">Int</text>
</a>
</g>
</g>
<!-- Cool -->
<g id="node4" class="node"><title>Cool</title>
<g id="a_node4"><a xlink:href="/type/Cool" xlink:title="Cool">
<ellipse fill="none" stroke="#000000" cx="478.594" cy="-162" rx="28.6953" ry="18"/>
<text text-anchor="middle" x="478.594" y="-158.3" font-family="FreeSans" font-size="14.00" fill="#000000">Cool</text>
</a>
</g>
</g>
<!-- Int&#45;&gt;Cool -->
<g id="edge1" class="edge"><title>Int&#45;&gt;Cool</title>
<path fill="none" stroke="#000000" d="M388.58,-103.193C405.718,-114.199 431.154,-130.534 450.619,-143.034"/>
<polygon fill="#000000" stroke="#000000" points="448.786,-146.017 459.091,-148.475 452.568,-140.127 448.786,-146.017"/>
</g>
<!-- Real -->
<g id="node6" class="node"><title>Real</title>
<g id="a_node6"><a xlink:href="/type/Real" xlink:title="Real">
<ellipse fill="none" stroke="#6666ff" cx="369.594" cy="-162" rx="28.6953" ry="18"/>
<text text-anchor="middle" x="369.594" y="-158.3" font-family="FreeSans" font-size="14.00" fill="#6666ff">Real</text>
</a>
</g>
</g>
<!-- Int&#45;&gt;Real -->
<g id="edge13" class="edge"><title>Int&#45;&gt;Real</title>
<path fill="none" stroke="#6666ff" d="M369.594,-108.303C369.594,-116.017 369.594,-125.288 369.594,-133.888"/>
<polygon fill="#6666ff" stroke="#6666ff" points="366.094,-133.896 369.594,-143.896 373.094,-133.896 366.094,-133.896"/>
</g>
<!-- Mu -->
<g id="node2" class="node"><title>Mu</title>
<g id="a_node2"><a xlink:href="/type/Mu" xlink:title="Mu">
<ellipse fill="none" stroke="#000000" cx="478.594" cy="-306" rx="27" ry="18"/>
<text text-anchor="middle" x="478.594" y="-302.3" font-family="FreeSans" font-size="14.00" fill="#000000">Mu</text>
</a>
</g>
</g>
<!-- Any -->
<g id="node3" class="node"><title>Any</title>
<g id="a_node3"><a xlink:href="/type/Any" xlink:title="Any">
<ellipse fill="none" stroke="#000000" cx="478.594" cy="-234" rx="27" ry="18"/>
<text text-anchor="middle" x="478.594" y="-230.3" font-family="FreeSans" font-size="14.00" fill="#000000">Any</text>
</a>
</g>
</g>
<!-- Any&#45;&gt;Mu -->
<g id="edge2" class="edge"><title>Any&#45;&gt;Mu</title>
<path fill="none" stroke="#000000" d="M478.594,-252.303C478.594,-260.017 478.594,-269.288 478.594,-277.888"/>
<polygon fill="#000000" stroke="#000000" points="475.094,-277.896 478.594,-287.896 482.094,-277.896 475.094,-277.896"/>
</g>
<!-- Cool&#45;&gt;Any -->
<g id="edge3" class="edge"><title>Cool&#45;&gt;Any</title>
<path fill="none" stroke="#000000" d="M478.594,-180.303C478.594,-188.017 478.594,-197.288 478.594,-205.888"/>
<polygon fill="#000000" stroke="#000000" points="475.094,-205.896 478.594,-215.896 482.094,-205.896 475.094,-205.896"/>
</g>
<!-- Numeric -->
<g id="node5" class="node"><title>Numeric</title>
<g id="a_node5"><a xlink:href="/type/Numeric" xlink:title="Numeric">
<ellipse fill="none" stroke="#6666ff" cx="369.594" cy="-234" rx="44.393" ry="18"/>
<text text-anchor="middle" x="369.594" y="-230.3" font-family="FreeSans" font-size="14.00" fill="#6666ff">Numeric</text>
</a>
</g>
</g>
<!-- Real&#45;&gt;Numeric -->
<g id="edge14" class="edge"><title>Real&#45;&gt;Numeric</title>
<path fill="none" stroke="#6666ff" d="M369.594,-180.303C369.594,-188.017 369.594,-197.288 369.594,-205.888"/>
<polygon fill="#6666ff" stroke="#6666ff" points="366.094,-205.896 369.594,-215.896 373.094,-205.896 366.094,-205.896"/>
</g>
<!-- PromiseStatus -->
<g id="node7" class="node"><title>PromiseStatus</title>
<g id="a_node7"><a xlink:href="/type/PromiseStatus" xlink:title="PromiseStatus">
<ellipse fill="none" stroke="#33bb33" cx="67.594" cy="-18" rx="67.6881" ry="18"/>
<text text-anchor="middle" x="67.594" y="-14.3" font-family="FreeSans" font-size="14.00" fill="#33bb33">PromiseStatus</text>
</a>
</g>
</g>
<!-- PromiseStatus&#45;&gt;Int -->
<g id="edge4" class="edge"><title>PromiseStatus&#45;&gt;Int</title>
<path fill="none" stroke="#000000" d="M116.788,-30.4025C177.898,-44.5671 280.649,-68.3836 334.405,-80.8436"/>
<polygon fill="#000000" stroke="#000000" points="333.944,-84.3295 344.476,-83.178 335.525,-77.5103 333.944,-84.3295"/>
</g>
<!-- Bool -->
<g id="node8" class="node"><title>Bool</title>
<g id="a_node8"><a xlink:href="/type/Bool" xlink:title="Bool">
<ellipse fill="none" stroke="#33bb33" cx="181.594" cy="-18" rx="28.6953" ry="18"/>
<text text-anchor="middle" x="181.594" y="-14.3" font-family="FreeSans" font-size="14.00" fill="#33bb33">Bool</text>
</a>
</g>
</g>
<!-- Bool&#45;&gt;Int -->
<g id="edge5" class="edge"><title>Bool&#45;&gt;Int</title>
<path fill="none" stroke="#000000" d="M203.971,-29.2811C211.763,-32.8613 218.594,-36 218.594,-36 218.594,-36 292.39,-61.9019 336.803,-77.4906"/>
<polygon fill="#000000" stroke="#000000" points="335.736,-80.8255 346.331,-80.8349 338.055,-74.2205 335.736,-80.8255"/>
</g>
<!-- Stringy -->
<g id="node9" class="node"><title>Stringy</title>
<g id="a_node9"><a xlink:href="/type/Stringy" xlink:title="Stringy">
<ellipse fill="none" stroke="#6666ff" cx="604.594" cy="-162" rx="38.1938" ry="18"/>
<text text-anchor="middle" x="604.594" y="-158.3" font-family="FreeSans" font-size="14.00" fill="#6666ff">Stringy</text>
</a>
</g>
</g>
<!-- Str -->
<g id="node10" class="node"><title>Str</title>
<g id="a_node10"><a xlink:href="/type/Str" xlink:title="Str">
<ellipse fill="none" stroke="#000000" cx="604.594" cy="-90" rx="27" ry="18"/>
<text text-anchor="middle" x="604.594" y="-86.3" font-family="FreeSans" font-size="14.00" fill="#000000">Str</text>
</a>
</g>
</g>
<!-- Str&#45;&gt;Cool -->
<g id="edge6" class="edge"><title>Str&#45;&gt;Cool</title>
<path fill="none" stroke="#000000" d="M584.35,-102.247C563.838,-113.642 531.877,-131.398 508.457,-144.41"/>
<polygon fill="#000000" stroke="#000000" points="506.67,-141.398 499.628,-149.314 510.069,-147.517 506.67,-141.398"/>
</g>
<!-- Str&#45;&gt;Stringy -->
<g id="edge15" class="edge"><title>Str&#45;&gt;Stringy</title>
<path fill="none" stroke="#6666ff" d="M604.594,-108.303C604.594,-116.017 604.594,-125.288 604.594,-133.888"/>
<polygon fill="#6666ff" stroke="#6666ff" points="601.094,-133.896 604.594,-143.896 608.094,-133.896 601.094,-133.896"/>
</g>
<!-- IntStr -->
<g id="node11" class="node"><title>IntStr</title>
<g id="a_node11"><a xlink:href="/type/IntStr" xlink:title="IntStr">
<ellipse fill="none" stroke="#000000" cx="615.594" cy="-18" rx="31.6951" ry="18"/>
<text text-anchor="middle" x="615.594" y="-14.3" font-family="FreeSans" font-size="14.00" fill="#000000">IntStr</text>
</a>
</g>
</g>
<!-- IntStr&#45;&gt;Int -->
<g id="edge7" class="edge"><title>IntStr&#45;&gt;Int</title>
<path fill="none" stroke="#000000" d="M590.328,-29.476C581.891,-32.9744 574.594,-36 574.594,-36 574.594,-36 462.687,-64.932 404.236,-80.0437"/>
<polygon fill="#000000" stroke="#000000" points="403.127,-76.7152 394.322,-82.607 404.88,-83.4924 403.127,-76.7152"/>
</g>
<!-- IntStr&#45;&gt;Str -->
<g id="edge8" class="edge"><title>IntStr&#45;&gt;Str</title>
<path fill="none" stroke="#000000" d="M612.931,-35.945C611.72,-43.6544 610.255,-52.9731 608.894,-61.6358"/>
<polygon fill="#000000" stroke="#000000" points="605.404,-61.3026 607.309,-71.7247 612.319,-62.3893 605.404,-61.3026"/>
</g>
<!-- Order -->
<g id="node12" class="node"><title>Order</title>
<g id="a_node12"><a xlink:href="/type/Order" xlink:title="Order">
<ellipse fill="none" stroke="#33bb33" cx="261.594" cy="-18" rx="33.5952" ry="18"/>
<text text-anchor="middle" x="261.594" y="-14.3" font-family="FreeSans" font-size="14.00" fill="#33bb33">Order</text>
</a>
</g>
</g>
<!-- Order&#45;&gt;Int -->
<g id="edge9" class="edge"><title>Order&#45;&gt;Int</title>
<path fill="none" stroke="#000000" d="M282.162,-32.3312C299.28,-43.4264 323.788,-59.3112 342.504,-71.4414"/>
<polygon fill="#000000" stroke="#000000" points="340.612,-74.3861 350.907,-76.8881 344.419,-68.5121 340.612,-74.3861"/>
</g>
<!-- atomicint -->
<g id="node13" class="node"><title>atomicint</title>
<g id="a_node13"><a xlink:href="/type/atomicint" xlink:title="atomicint">
<ellipse fill="none" stroke="#000000" cx="359.594" cy="-18" rx="46.2923" ry="18"/>
<text text-anchor="middle" x="359.594" y="-14.3" font-family="FreeSans" font-size="14.00" fill="#000000">atomicint</text>
</a>
</g>
</g>
<!-- atomicint&#45;&gt;Int -->
<g id="edge10" class="edge"><title>atomicint&#45;&gt;Int</title>
<path fill="none" stroke="#000000" d="M362.066,-36.3034C363.168,-44.0173 364.492,-53.2875 365.721,-61.8876"/>
<polygon fill="#000000" stroke="#000000" points="362.271,-62.4912 367.151,-71.8957 369.201,-61.5012 362.271,-62.4912"/>
</g>
<!-- Signal -->
<g id="node14" class="node"><title>Signal</title>
<g id="a_node14"><a xlink:href="/type/Signal" xlink:title="Signal">
<ellipse fill="none" stroke="#33bb33" cx="458.594" cy="-18" rx="35.194" ry="18"/>
<text text-anchor="middle" x="458.594" y="-14.3" font-family="FreeSans" font-size="14.00" fill="#33bb33">Signal</text>
</a>
</g>
</g>
<!-- Signal&#45;&gt;Int -->
<g id="edge11" class="edge"><title>Signal&#45;&gt;Int</title>
<path fill="none" stroke="#000000" d="M440.153,-33.504C426.959,-43.8815 409.046,-57.9707 394.57,-69.3559"/>
<polygon fill="#000000" stroke="#000000" points="392.202,-66.7652 386.506,-75.6984 396.53,-72.2673 392.202,-66.7652"/>
</g>
<!-- int -->
<g id="node15" class="node"><title>int</title>
<g id="a_node15"><a xlink:href="/type/int" xlink:title="int">
<ellipse fill="none" stroke="#000000" cx="538.594" cy="-18" rx="27" ry="18"/>
<text text-anchor="middle" x="538.594" y="-14.3" font-family="FreeSans" font-size="14.00" fill="#000000">int</text>
</a>
</g>
</g>
<!-- int&#45;&gt;Int -->
<g id="edge12" class="edge"><title>int&#45;&gt;Int</title>
<path fill="none" stroke="#000000" d="M517.237,-29.0854C509.485,-32.7461 502.594,-36 502.594,-36 502.594,-36 440.986,-60.5507 401.631,-76.2335"/>
<polygon fill="#000000" stroke="#000000" points="400.15,-73.056 392.156,-80.0093 402.741,-79.5587 400.15,-73.056"/>
</g>
</g>
</svg>
