<?xml version="1.0" encoding="UTF-8" standalone="no"?>
<!DOCTYPE svg PUBLIC "-//W3C//DTD SVG 1.1//EN"
 "http://www.w3.org/Graphics/SVG/1.1/DTD/svg11.dtd">
<!-- Generated by graphviz version 2.38.0 (20140413.2041)
 -->
<!-- Title: perl6&#45;type&#45;graph Pages: 1 -->
<svg width="2044pt" height="1195pt"
 viewBox="0.00 0.00 2043.74 1195.42" xmlns="http://www.w3.org/2000/svg" xmlns:xlink="http://www.w3.org/1999/xlink">
<g id="graph0" class="graph" transform="scale(1 1) rotate(0) translate(1001.37 568.36)">
<title>perl6&#45;type&#45;graph</title>
<polygon fill="white" stroke="none" points="-1001.37,627.059 -1001.37,-568.36 1042.37,-568.36 1042.37,627.059 -1001.37,627.059"/>
<!-- Metamodel::Versioning -->
<g id="node1" class="node"><title>Metamodel::Versioning</title>
<g id="a_node1"><a xlink:href="/type/Metamodel::Versioning" xlink:title="Metamodel::Versioning">
<ellipse fill="none" stroke="#6666ff" cx="-159.161" cy="39.5143" rx="100.983" ry="18"/>
<text text-anchor="middle" x="-159.161" y="43.2143" font-family="FreeSans" font-size="14.00" fill="#6666ff">Metamodel::Versioning</text>
</a>
</g>
</g>
<!-- Mu -->
<g id="node2" class="node"><title>Mu</title>
<g id="a_node2"><a xlink:href="/type/Mu" xlink:title="Mu">
<ellipse fill="none" stroke="#000000" cx="822.402" cy="574.058" rx="27" ry="18"/>
<text text-anchor="middle" x="822.402" y="577.758" font-family="FreeSans" font-size="14.00" fill="#000000">Mu</text>
</a>
</g>
</g>
<!-- Any -->
<g id="node3" class="node"><title>Any</title>
<g id="a_node3"><a xlink:href="/type/Any" xlink:title="Any">
<ellipse fill="none" stroke="#000000" cx="374.583" cy="601.687" rx="27" ry="18"/>
<text text-anchor="middle" x="374.583" y="605.387" font-family="FreeSans" font-size="14.00" fill="#000000">Any</text>
</a>
</g>
</g>
<!-- Any&#45;&gt;Mu -->
<g id="edge1" class="edge"><title>Any&#45;&gt;Mu</title>
<path fill="none" stroke="#000000" d="M401.587,600.02C478.27,595.289 697.461,581.766 785.318,576.346"/>
<polygon fill="#000000" stroke="#000000" points="785.166,572.849 795.362,575.726 785.597,579.836 785.166,572.849"/>
</g>
<!-- Metamodel::Naming -->
<g id="node4" class="node"><title>Metamodel::Naming</title>
<g id="a_node4"><a xlink:href="/type/Metamodel::Naming" xlink:title="Metamodel::Naming">
<ellipse fill="none" stroke="#6666ff" cx="-178.461" cy="322.383" rx="90.1842" ry="18"/>
<text text-anchor="middle" x="-178.461" y="326.083" font-family="FreeSans" font-size="14.00" fill="#6666ff">Metamodel::Naming</text>
</a>
</g>
</g>
<!-- Metamodel::Documenting -->
<g id="node5" class="node"><title>Metamodel::Documenting</title>
<g id="a_node5"><a xlink:href="/type/Metamodel::Documenting" xlink:title="Metamodel::Documenting">
<ellipse fill="none" stroke="#6666ff" cx="277.329" cy="102.597" rx="111.28" ry="18"/>
<text text-anchor="middle" x="277.329" y="106.297" font-family="FreeSans" font-size="14.00" fill="#6666ff">Metamodel::Documenting</text>
</a>
</g>
</g>
<!-- Metamodel::Stashing -->
<g id="node6" class="node"><title>Metamodel::Stashing</title>
<g id="a_node6"><a xlink:href="/type/Metamodel::Stashing" xlink:title="Metamodel::Stashing">
<ellipse fill="none" stroke="#6666ff" cx="141.599" cy="342.259" rx="93.6835" ry="18"/>
<text text-anchor="middle" x="141.599" y="345.959" font-family="FreeSans" font-size="14.00" fill="#6666ff">Metamodel::Stashing</text>
</a>
</g>
</g>
<!-- Metamodel::TypePretense -->
<g id="node7" class="node"><title>Metamodel::TypePretense</title>
<g id="a_node7"><a xlink:href="/type/Metamodel::TypePretense" xlink:title="Metamodel::TypePretense">
<ellipse fill="none" stroke="#6666ff" cx="-837.454" cy="539.893" rx="114.28" ry="18"/>
<text text-anchor="middle" x="-837.454" y="543.593" font-family="FreeSans" font-size="14.00" fill="#6666ff">Metamodel::TypePretense</text>
</a>
</g>
</g>
<!-- Metamodel::MethodDelegation -->
<g id="node8" class="node"><title>Metamodel::MethodDelegation</title>
<g id="a_node8"><a xlink:href="/type/Metamodel::MethodDelegation" xlink:title="Metamodel::MethodDelegation">
<ellipse fill="none" stroke="#6666ff" cx="-13.3986" cy="605.059" rx="131.077" ry="18"/>
<text text-anchor="middle" x="-13.3986" y="608.759" font-family="FreeSans" font-size="14.00" fill="#6666ff">Metamodel::MethodDelegation</text>
</a>
</g>
</g>
<!-- Metamodel::ModuleHOW -->
<g id="node9" class="node"><title>Metamodel::ModuleHOW</title>
<g id="a_node9"><a xlink:href="/type/Metamodel::ModuleHOW" xlink:title="Metamodel::ModuleHOW">
<ellipse fill="none" stroke="#000000" cx="-397.238" cy="598.396" rx="111.28" ry="18"/>
<text text-anchor="middle" x="-397.238" y="602.096" font-family="FreeSans" font-size="14.00" fill="#000000">Metamodel::ModuleHOW</text>
</a>
</g>
</g>
<!-- Metamodel::ModuleHOW&#45;&gt;Metamodel::Versioning -->
<g id="edge9" class="edge"><title>Metamodel::ModuleHOW&#45;&gt;Metamodel::Versioning</title>
<path fill="none" stroke="#6666ff" d="M-389.586,580.434C-354.96,499.149 -212.805,165.443 -170.862,66.9826"/>
<polygon fill="#6666ff" stroke="#6666ff" points="-174.043,65.5187 -166.904,57.6903 -167.603,68.2621 -174.043,65.5187"/>
</g>
<!-- Metamodel::ModuleHOW&#45;&gt;Any -->
<g id="edge2" class="edge"><title>Metamodel::ModuleHOW&#45;&gt;Any</title>
<path fill="none" stroke="#000000" d="M-288.305,594.724C-174.86,590.899 -13.5163,585.459 -13.5163,585.459 -13.5163,585.459 240.209,596.068 337.357,600.13"/>
<polygon fill="#000000" stroke="#000000" points="337.756,596.644 347.601,600.558 337.463,603.637 337.756,596.644"/>
</g>
<!-- Metamodel::ModuleHOW&#45;&gt;Metamodel::Naming -->
<g id="edge7" class="edge"><title>Metamodel::ModuleHOW&#45;&gt;Metamodel::Naming</title>
<path fill="none" stroke="#6666ff" d="M-382.883,580.286C-345.087,532.602 -242.722,403.455 -198.86,348.119"/>
<polygon fill="#6666ff" stroke="#6666ff" points="-201.539,345.864 -192.584,340.201 -196.053,350.212 -201.539,345.864"/>
</g>
<!-- Metamodel::ModuleHOW&#45;&gt;Metamodel::Documenting -->
<g id="edge8" class="edge"><title>Metamodel::ModuleHOW&#45;&gt;Metamodel::Documenting</title>
<path fill="none" stroke="#6666ff" d="M-373.23,580.75C-270.994,505.608 128.172,212.225 245.024,126.34"/>
<polygon fill="#6666ff" stroke="#6666ff" points="243.126,123.391 253.257,120.289 247.272,129.032 243.126,123.391"/>
</g>
<!-- Metamodel::ModuleHOW&#45;&gt;Metamodel::Stashing -->
<g id="edge10" class="edge"><title>Metamodel::ModuleHOW&#45;&gt;Metamodel::Stashing</title>
<path fill="none" stroke="#6666ff" d="M-361.046,581.193C-265.628,535.835 -7.3926,413.082 96.9552,363.481"/>
<polygon fill="#6666ff" stroke="#6666ff" points="95.7342,360.186 106.268,359.053 98.7394,366.508 95.7342,360.186"/>
</g>
<!-- Metamodel::ModuleHOW&#45;&gt;Metamodel::TypePretense -->
<g id="edge11" class="edge"><title>Metamodel::ModuleHOW&#45;&gt;Metamodel::TypePretense</title>
<path fill="none" stroke="#6666ff" d="M-483.161,586.977C-556.797,577.192 -662.832,563.1 -739.695,552.885"/>
<polygon fill="#6666ff" stroke="#6666ff" points="-740.414,556.321 -749.866,551.534 -739.492,549.382 -740.414,556.321"/>
</g>
<!-- Metamodel::ModuleHOW&#45;&gt;Metamodel::MethodDelegation -->
<g id="edge12" class="edge"><title>Metamodel::ModuleHOW&#45;&gt;Metamodel::MethodDelegation</title>
<path fill="none" stroke="#6666ff" d="M-286.473,600.319C-245.077,601.038 -197.507,601.863 -153.789,602.622"/>
<polygon fill="#6666ff" stroke="#6666ff" points="-153.585,599.125 -143.647,602.798 -153.707,606.124 -153.585,599.125"/>
</g>
<!-- Metamodel::MultipleInheritance -->
<g id="node10" class="node"><title>Metamodel::MultipleInheritance</title>
<g id="a_node10"><a xlink:href="/type/Metamodel::MultipleInheritance" xlink:title="Metamodel::MultipleInheritance">
<ellipse fill="none" stroke="#6666ff" cx="48.9548" cy="70.9917" rx="133.776" ry="18"/>
<text text-anchor="middle" x="48.9548" y="74.6917" font-family="FreeSans" font-size="14.00" fill="#6666ff">Metamodel::MultipleInheritance</text>
</a>
</g>
</g>
<!-- Metamodel::C3MRO -->
<g id="node11" class="node"><title>Metamodel::C3MRO</title>
<g id="a_node11"><a xlink:href="/type/Metamodel::C3MRO" xlink:title="Metamodel::C3MRO">
<ellipse fill="none" stroke="#6666ff" cx="866.913" cy="219.029" rx="92.0841" ry="18"/>
<text text-anchor="middle" x="866.913" y="222.729" font-family="FreeSans" font-size="14.00" fill="#6666ff">Metamodel::C3MRO</text>
</a>
</g>
</g>
<!-- Metamodel::MROBasedMethodDispatch -->
<g id="node12" class="node"><title>Metamodel::MROBasedMethodDispatch</title>
<g id="a_node12"><a xlink:href="/type/Metamodel::MROBasedMethodDispatch" xlink:title="Metamodel::MROBasedMethodDispatch">
<ellipse fill="none" stroke="#6666ff" cx="536.636" cy="5.01928" rx="169.77" ry="18"/>
<text text-anchor="middle" x="536.636" y="8.71928" font-family="FreeSans" font-size="14.00" fill="#6666ff">Metamodel::MROBasedMethodDispatch</text>
</a>
</g>
</g>
<!-- Metamodel::MROBasedTypeChecking -->
<g id="node13" class="node"><title>Metamodel::MROBasedTypeChecking</title>
<g id="a_node13"><a xlink:href="/type/Metamodel::MROBasedTypeChecking" xlink:title="Metamodel::MROBasedTypeChecking">
<ellipse fill="none" stroke="#6666ff" cx="875.23" cy="-131.316" rx="163.271" ry="18"/>
<text text-anchor="middle" x="875.23" y="-127.616" font-family="FreeSans" font-size="14.00" fill="#6666ff">Metamodel::MROBasedTypeChecking</text>
</a>
</g>
</g>
<!-- Metamodel::NativeHOW -->
<g id="node14" class="node"><title>Metamodel::NativeHOW</title>
<g id="a_node14"><a xlink:href="/type/Metamodel::NativeHOW" xlink:title="Metamodel::NativeHOW">
<ellipse fill="none" stroke="#000000" cx="499.042" cy="312.619" rx="107.482" ry="18"/>
<text text-anchor="middle" x="499.042" y="316.319" font-family="FreeSans" font-size="14.00" fill="#000000">Metamodel::NativeHOW</text>
</a>
</g>
</g>
<!-- Metamodel::NativeHOW&#45;&gt;Metamodel::Versioning -->
<g id="edge15" class="edge"><title>Metamodel::NativeHOW&#45;&gt;Metamodel::Versioning</title>
<path fill="none" stroke="#6666ff" d="M458.331,295.83C325.536,241.065 -86.53,71.1298 -86.53,71.1298 -86.53,71.1298 -97.8126,66.2186 -111.484,60.2675"/>
<polygon fill="#6666ff" stroke="#6666ff" points="-112.947,63.4482 -120.719,56.2478 -110.153,57.0299 -112.947,63.4482"/>
</g>
<!-- Metamodel::NativeHOW&#45;&gt;Any -->
<g id="edge3" class="edge"><title>Metamodel::NativeHOW&#45;&gt;Any</title>
<path fill="none" stroke="#000000" d="M491.257,330.702C470.027,380.009 411.051,516.987 386.036,575.087"/>
<polygon fill="#000000" stroke="#000000" points="389.218,576.545 382.049,584.346 382.789,573.777 389.218,576.545"/>
</g>
<!-- Metamodel::NativeHOW&#45;&gt;Metamodel::Naming -->
<g id="edge13" class="edge"><title>Metamodel::NativeHOW&#45;&gt;Metamodel::Naming</title>
<path fill="none" stroke="#6666ff" d="M392.064,314.161C262.999,316.021 47.699,319.124 -78.2568,320.939"/>
<polygon fill="#6666ff" stroke="#6666ff" points="-78.2405,324.439 -88.2899,321.084 -78.3414,317.44 -78.2405,324.439"/>
</g>
<!-- Metamodel::NativeHOW&#45;&gt;Metamodel::Documenting -->
<g id="edge14" class="edge"><title>Metamodel::NativeHOW&#45;&gt;Metamodel::Documenting</title>
<path fill="none" stroke="#6666ff" d="M480.139,294.713C440.542,257.204 348.815,170.313 303.554,127.439"/>
<polygon fill="#6666ff" stroke="#6666ff" points="301.037,129.876 296.184,120.458 305.851,124.794 301.037,129.876"/>
</g>
<!-- Metamodel::NativeHOW&#45;&gt;Metamodel::Stashing -->
<g id="edge16" class="edge"><title>Metamodel::NativeHOW&#45;&gt;Metamodel::Stashing</title>
<path fill="none" stroke="#6666ff" d="M402.784,320.601C351.607,324.845 288.875,330.047 237.719,334.289"/>
<polygon fill="#6666ff" stroke="#6666ff" points="237.904,337.785 227.649,335.124 237.325,330.809 237.904,337.785"/>
</g>
<!-- Metamodel::NativeHOW&#45;&gt;Metamodel::MultipleInheritance -->
<g id="edge17" class="edge"><title>Metamodel::NativeHOW&#45;&gt;Metamodel::MultipleInheritance</title>
<path fill="none" stroke="#6666ff" d="M467.034,295.436C387.313,252.638 179.905,141.292 90.7206,93.4135"/>
<polygon fill="#6666ff" stroke="#6666ff" points="88.8623,96.3884 81.7071,88.5746 92.1733,90.2209 88.8623,96.3884"/>
</g>
<!-- Metamodel::NativeHOW&#45;&gt;Metamodel::C3MRO -->
<g id="edge18" class="edge"><title>Metamodel::NativeHOW&#45;&gt;Metamodel::C3MRO</title>
<path fill="none" stroke="#6666ff" d="M558.147,297.582C624.449,280.715 731.723,253.423 800.77,235.857"/>
<polygon fill="#6666ff" stroke="#6666ff" points="800.116,232.412 810.671,233.338 801.842,239.195 800.116,232.412"/>
</g>
<!-- Metamodel::NativeHOW&#45;&gt;Metamodel::MROBasedMethodDispatch -->
<g id="edge19" class="edge"><title>Metamodel::NativeHOW&#45;&gt;Metamodel::MROBasedMethodDispatch</title>
<path fill="none" stroke="#6666ff" d="M501.282,294.299C507.589,242.688 525.54,95.8091 533.154,33.5115"/>
<polygon fill="#6666ff" stroke="#6666ff" points="529.721,32.7454 534.408,23.2439 536.669,33.5946 529.721,32.7454"/>
</g>
<!-- Metamodel::NativeHOW&#45;&gt;Metamodel::MROBasedTypeChecking -->
<g id="edge20" class="edge"><title>Metamodel::NativeHOW&#45;&gt;Metamodel::MROBasedTypeChecking</title>
<path fill="none" stroke="#6666ff" d="M514.255,294.667C572.862,225.506 784.175,-23.8635 853.229,-105.353"/>
<polygon fill="#6666ff" stroke="#6666ff" points="850.693,-107.774 859.828,-113.14 856.033,-103.248 850.693,-107.774"/>
</g>
<!-- Metamodel::AttributeContainer -->
<g id="node15" class="node"><title>Metamodel::AttributeContainer</title>
<g id="a_node15"><a xlink:href="/type/Metamodel::AttributeContainer" xlink:title="Metamodel::AttributeContainer">
<ellipse fill="none" stroke="#6666ff" cx="-32.3266" cy="-212.905" rx="129.977" ry="18"/>
<text text-anchor="middle" x="-32.3266" y="-209.205" font-family="FreeSans" font-size="14.00" fill="#6666ff">Metamodel::AttributeContainer</text>
</a>
</g>
</g>
<!-- Metamodel::Finalization -->
<g id="node16" class="node"><title>Metamodel::Finalization</title>
<g id="a_node16"><a xlink:href="/type/Metamodel::Finalization" xlink:title="Metamodel::Finalization">
<ellipse fill="none" stroke="#6666ff" cx="843.883" cy="-494.956" rx="103.982" ry="18"/>
<text text-anchor="middle" x="843.883" y="-491.256" font-family="FreeSans" font-size="14.00" fill="#6666ff">Metamodel::Finalization</text>
</a>
</g>
</g>
<!-- Metamodel::MethodContainer -->
<g id="node17" class="node"><title>Metamodel::MethodContainer</title>
<g id="a_node17"><a xlink:href="/type/Metamodel::MethodContainer" xlink:title="Metamodel::MethodContainer">
<ellipse fill="none" stroke="#6666ff" cx="-303.299" cy="-207.62" rx="127.277" ry="18"/>
<text text-anchor="middle" x="-303.299" y="-203.92" font-family="FreeSans" font-size="14.00" fill="#6666ff">Metamodel::MethodContainer</text>
</a>
</g>
</g>
<!-- Metamodel::PrivateMethodContainer -->
<g id="node18" class="node"><title>Metamodel::PrivateMethodContainer</title>
<g id="a_node18"><a xlink:href="/type/Metamodel::PrivateMethodContainer" xlink:title="Metamodel::PrivateMethodContainer">
<ellipse fill="none" stroke="#6666ff" cx="-552.627" cy="-504.019" rx="154.873" ry="18"/>
<text text-anchor="middle" x="-552.627" y="-500.319" font-family="FreeSans" font-size="14.00" fill="#6666ff">Metamodel::PrivateMethodContainer</text>
</a>
</g>
</g>
<!-- Metamodel::MultiMethodContainer -->
<g id="node19" class="node"><title>Metamodel::MultiMethodContainer</title>
<g id="a_node19"><a xlink:href="/type/Metamodel::MultiMethodContainer" xlink:title="Metamodel::MultiMethodContainer">
<ellipse fill="none" stroke="#6666ff" cx="-605.261" cy="-141.21" rx="146.474" ry="18"/>
<text text-anchor="middle" x="-605.261" y="-137.51" font-family="FreeSans" font-size="14.00" fill="#6666ff">Metamodel::MultiMethodContainer</text>
</a>
</g>
</g>
<!-- Metamodel::RoleContainer -->
<g id="node20" class="node"><title>Metamodel::RoleContainer</title>
<g id="a_node20"><a xlink:href="/type/Metamodel::RoleContainer" xlink:title="Metamodel::RoleContainer">
<ellipse fill="none" stroke="#6666ff" cx="-881.685" cy="-422.073" rx="115.88" ry="18"/>
<text text-anchor="middle" x="-881.685" y="-418.373" font-family="FreeSans" font-size="14.00" fill="#6666ff">Metamodel::RoleContainer</text>
</a>
</g>
</g>
<!-- Metamodel::DefaultParent -->
<g id="node21" class="node"><title>Metamodel::DefaultParent</title>
<g id="a_node21"><a xlink:href="/type/Metamodel::DefaultParent" xlink:title="Metamodel::DefaultParent">
<ellipse fill="none" stroke="#6666ff" cx="-41.2583" cy="-537.945" rx="113.18" ry="18"/>
<text text-anchor="middle" x="-41.2583" y="-534.245" font-family="FreeSans" font-size="14.00" fill="#6666ff">Metamodel::DefaultParent</text>
</a>
</g>
</g>
<!-- Metamodel::Trusting -->
<g id="node22" class="node"><title>Metamodel::Trusting</title>
<g id="a_node22"><a xlink:href="/type/Metamodel::Trusting" xlink:title="Metamodel::Trusting">
<ellipse fill="none" stroke="#6666ff" cx="-275.006" cy="-499.27" rx="91.784" ry="18"/>
<text text-anchor="middle" x="-275.006" y="-495.57" font-family="FreeSans" font-size="14.00" fill="#6666ff">Metamodel::Trusting</text>
</a>
</g>
</g>
<!-- Metamodel::BUILDPLAN -->
<g id="node23" class="node"><title>Metamodel::BUILDPLAN</title>
<g id="a_node23"><a xlink:href="/type/Metamodel::BUILDPLAN" xlink:title="Metamodel::BUILDPLAN">
<ellipse fill="none" stroke="#6666ff" cx="425.643" cy="-546.36" rx="109.681" ry="18"/>
<text text-anchor="middle" x="425.643" y="-542.66" font-family="FreeSans" font-size="14.00" fill="#6666ff">Metamodel::BUILDPLAN</text>
</a>
</g>
</g>
<!-- Metamodel::Mixins -->
<g id="node24" class="node"><title>Metamodel::Mixins</title>
<g id="a_node24"><a xlink:href="/type/Metamodel::Mixins" xlink:title="Metamodel::Mixins">
<ellipse fill="none" stroke="#6666ff" cx="526.633" cy="-282.179" rx="85.2851" ry="18"/>
<text text-anchor="middle" x="526.633" y="-278.479" font-family="FreeSans" font-size="14.00" fill="#6666ff">Metamodel::Mixins</text>
</a>
</g>
</g>
<!-- Metamodel::BoolificationProtocol -->
<g id="node25" class="node"><title>Metamodel::BoolificationProtocol</title>
<g id="a_node25"><a xlink:href="/type/Metamodel::BoolificationProtocol" xlink:title="Metamodel::BoolificationProtocol">
<ellipse fill="none" stroke="#6666ff" cx="165.249" cy="-452.298" rx="139.175" ry="18"/>
<text text-anchor="middle" x="165.249" y="-448.598" font-family="FreeSans" font-size="14.00" fill="#6666ff">Metamodel::BoolificationProtocol</text>
</a>
</g>
</g>
<!-- Metamodel::ClassHOW -->
<g id="node26" class="node"><title>Metamodel::ClassHOW</title>
<g id="a_node26"><a xlink:href="/type/Metamodel::ClassHOW" xlink:title="Metamodel::ClassHOW">
<ellipse fill="none" stroke="#000000" cx="240.277" cy="-170.044" rx="103.982" ry="18"/>
<text text-anchor="middle" x="240.277" y="-166.344" font-family="FreeSans" font-size="14.00" fill="#000000">Metamodel::ClassHOW</text>
</a>
</g>
</g>
<!-- Metamodel::ClassHOW&#45;&gt;Metamodel::Versioning -->
<g id="edge23" class="edge"><title>Metamodel::ClassHOW&#45;&gt;Metamodel::Versioning</title>
<path fill="none" stroke="#6666ff" d="M207.589,-152.895C135.434,-115.04 -37.3824,-24.3749 -117.308,17.557"/>
<polygon fill="#6666ff" stroke="#6666ff" points="-116.1,20.8757 -126.582,22.4222 -119.353,14.677 -116.1,20.8757"/>
</g>
<!-- Metamodel::ClassHOW&#45;&gt;Any -->
<g id="edge4" class="edge"><title>Metamodel::ClassHOW&#45;&gt;Any</title>
<path fill="none" stroke="#000000" d="M250.337,-151.74C283.922,-90.6353 390.067,102.485 390.067,102.485 390.067,102.485 378.735,467.813 375.46,573.417"/>
<polygon fill="#000000" stroke="#000000" points="378.952,573.738 375.143,583.625 371.955,573.521 378.952,573.738"/>
</g>
<!-- Metamodel::ClassHOW&#45;&gt;Metamodel::Naming -->
<g id="edge21" class="edge"><title>Metamodel::ClassHOW&#45;&gt;Metamodel::Naming</title>
<path fill="none" stroke="#6666ff" d="M216.51,-152.505C141.306,-97.0071 -86.53,71.1298 -86.53,71.1298 -86.53,71.1298 -144.412,229.325 -168.319,294.663"/>
<polygon fill="#6666ff" stroke="#6666ff" points="-165.127,296.125 -171.85,304.314 -171.701,293.72 -165.127,296.125"/>
</g>
<!-- Metamodel::ClassHOW&#45;&gt;Metamodel::Documenting -->
<g id="edge22" class="edge"><title>Metamodel::ClassHOW&#45;&gt;Metamodel::Documenting</title>
<path fill="none" stroke="#6666ff" d="M242.765,-151.732C249.106,-105.072 265.905,18.5373 273.502,74.4384"/>
<polygon fill="#6666ff" stroke="#6666ff" points="276.972,73.984 274.851,84.3642 270.036,74.9267 276.972,73.984"/>
</g>
<!-- Metamodel::ClassHOW&#45;&gt;Metamodel::Stashing -->
<g id="edge24" class="edge"><title>Metamodel::ClassHOW&#45;&gt;Metamodel::Stashing</title>
<path fill="none" stroke="#6666ff" d="M236.08,-151.938C223.094,-95.9143 184.44,70.8536 184.44,70.8536 184.44,70.8536 164.59,102.708 164.59,102.708 164.59,102.708 150.367,250.901 144.294,314.171"/>
<polygon fill="#6666ff" stroke="#6666ff" points="147.766,314.634 143.327,324.254 140.798,313.965 147.766,314.634"/>
</g>
<!-- Metamodel::ClassHOW&#45;&gt;Metamodel::MultipleInheritance -->
<g id="edge31" class="edge"><title>Metamodel::ClassHOW&#45;&gt;Metamodel::MultipleInheritance</title>
<path fill="none" stroke="#6666ff" d="M225.896,-151.927C192.297,-109.597 108.543,-4.08044 69.542,45.055"/>
<polygon fill="#6666ff" stroke="#6666ff" points="72.1994,47.3368 63.2409,52.9934 66.7166,42.9849 72.1994,47.3368"/>
</g>
<!-- Metamodel::ClassHOW&#45;&gt;Metamodel::C3MRO -->
<g id="edge33" class="edge"><title>Metamodel::ClassHOW&#45;&gt;Metamodel::C3MRO</title>
<path fill="none" stroke="#6666ff" d="M253.196,-151.955C285.166,-107.193 365.405,5.15072 365.405,5.15072 365.405,5.15072 693.634,145.131 819.016,198.603"/>
<polygon fill="#6666ff" stroke="#6666ff" points="820.568,195.459 828.393,202.602 817.822,201.898 820.568,195.459"/>
</g>
<!-- Metamodel::ClassHOW&#45;&gt;Metamodel::MROBasedMethodDispatch -->
<g id="edge34" class="edge"><title>Metamodel::ClassHOW&#45;&gt;Metamodel::MROBasedMethodDispatch</title>
<path fill="none" stroke="#6666ff" d="M269.776,-152.619C323.53,-120.865 437.416,-53.5911 497.552,-18.0678"/>
<polygon fill="#6666ff" stroke="#6666ff" points="499.543,-20.9569 506.373,-12.8572 495.983,-14.9298 499.543,-20.9569"/>
</g>
<!-- Metamodel::ClassHOW&#45;&gt;Metamodel::MROBasedTypeChecking -->
<g id="edge35" class="edge"><title>Metamodel::ClassHOW&#45;&gt;Metamodel::MROBasedTypeChecking</title>
<path fill="none" stroke="#6666ff" d="M338.444,-164.057C440.847,-157.811 602.781,-147.934 722.032,-140.66"/>
<polygon fill="#6666ff" stroke="#6666ff" points="722.58,-144.134 732.348,-140.031 722.153,-137.147 722.58,-144.134"/>
</g>
<!-- Metamodel::ClassHOW&#45;&gt;Metamodel::AttributeContainer -->
<g id="edge25" class="edge"><title>Metamodel::ClassHOW&#45;&gt;Metamodel::AttributeContainer</title>
<path fill="none" stroke="#6666ff" d="M163.253,-182.155C132.29,-187.023 96.2591,-192.688 63.621,-197.819"/>
<polygon fill="#6666ff" stroke="#6666ff" points="62.9453,-194.382 53.6103,-199.393 64.0326,-201.298 62.9453,-194.382"/>
</g>
<!-- Metamodel::ClassHOW&#45;&gt;Metamodel::Finalization -->
<g id="edge26" class="edge"><title>Metamodel::ClassHOW&#45;&gt;Metamodel::Finalization</title>
<path fill="none" stroke="#6666ff" d="M271.029,-187.291C327.024,-218.693 439.894,-281.992 439.894,-281.992 439.894,-281.992 464.715,-295.905 464.715,-295.905 464.715,-295.905 703.594,-421.309 802.141,-473.043"/>
<polygon fill="#6666ff" stroke="#6666ff" points="800.746,-476.263 811.227,-477.813 804,-470.065 800.746,-476.263"/>
</g>
<!-- Metamodel::ClassHOW&#45;&gt;Metamodel::MethodContainer -->
<g id="edge27" class="edge"><title>Metamodel::ClassHOW&#45;&gt;Metamodel::MethodContainer</title>
<path fill="none" stroke="#6666ff" d="M143.41,-176.74C53.6442,-182.946 -80.3834,-192.211 -178.208,-198.973"/>
<polygon fill="#6666ff" stroke="#6666ff" points="-178.72,-195.5 -188.454,-199.681 -178.237,-202.483 -178.72,-195.5"/>
</g>
<!-- Metamodel::ClassHOW&#45;&gt;Metamodel::PrivateMethodContainer -->
<g id="edge28" class="edge"><title>Metamodel::ClassHOW&#45;&gt;Metamodel::PrivateMethodContainer</title>
<path fill="none" stroke="#6666ff" d="M200.685,-186.72C68.8767,-242.239 -355.045,-420.797 -501.944,-482.671"/>
<polygon fill="#6666ff" stroke="#6666ff" points="-503.357,-479.468 -511.214,-486.576 -500.639,-485.919 -503.357,-479.468"/>
</g>
<!-- Metamodel::ClassHOW&#45;&gt;Metamodel::MultiMethodContainer -->
<g id="edge29" class="edge"><title>Metamodel::ClassHOW&#45;&gt;Metamodel::MultiMethodContainer</title>
<path fill="none" stroke="#6666ff" d="M137.864,-166.552C-9.675,-161.521 -283.029,-152.199 -453.904,-146.372"/>
<polygon fill="#6666ff" stroke="#6666ff" points="-453.879,-142.871 -463.992,-146.028 -454.117,-149.867 -453.879,-142.871"/>
</g>
<!-- Metamodel::ClassHOW&#45;&gt;Metamodel::RoleContainer -->
<g id="edge30" class="edge"><title>Metamodel::ClassHOW&#45;&gt;Metamodel::RoleContainer</title>
<path fill="none" stroke="#6666ff" d="M190.127,-185.864C136.857,-202.668 60.2426,-226.835 60.2426,-226.835 60.2426,-226.835 -575.099,-358.525 -802.187,-405.595"/>
<polygon fill="#6666ff" stroke="#6666ff" points="-802.959,-402.181 -812.04,-407.637 -801.538,-409.035 -802.959,-402.181"/>
</g>
<!-- Metamodel::ClassHOW&#45;&gt;Metamodel::DefaultParent -->
<g id="edge32" class="edge"><title>Metamodel::ClassHOW&#45;&gt;Metamodel::DefaultParent</title>
<path fill="none" stroke="#6666ff" d="M226.507,-188.038C180.572,-248.064 32.4568,-441.617 -21.4247,-512.027"/>
<polygon fill="#6666ff" stroke="#6666ff" points="-24.2175,-509.918 -27.5152,-519.986 -18.6585,-514.172 -24.2175,-509.918"/>
</g>
<!-- Metamodel::ClassHOW&#45;&gt;Metamodel::Trusting -->
<g id="edge36" class="edge"><title>Metamodel::ClassHOW&#45;&gt;Metamodel::Trusting</title>
<path fill="none" stroke="#6666ff" d="M212.937,-187.513C126.279,-242.88 -142.281,-414.469 -239.454,-476.555"/>
<polygon fill="#6666ff" stroke="#6666ff" points="-241.501,-473.709 -248.043,-482.043 -237.732,-479.608 -241.501,-473.709"/>
</g>
<!-- Metamodel::ClassHOW&#45;&gt;Metamodel::BUILDPLAN -->
<g id="edge37" class="edge"><title>Metamodel::ClassHOW&#45;&gt;Metamodel::BUILDPLAN</title>
<path fill="none" stroke="#6666ff" d="M249.217,-188.195C279.255,-249.176 376.663,-446.926 412.368,-519.41"/>
<polygon fill="#6666ff" stroke="#6666ff" points="409.233,-520.968 416.792,-528.392 415.513,-517.875 409.233,-520.968"/>
</g>
<!-- Metamodel::ClassHOW&#45;&gt;Metamodel::Mixins -->
<g id="edge38" class="edge"><title>Metamodel::ClassHOW&#45;&gt;Metamodel::Mixins</title>
<path fill="none" stroke="#6666ff" d="M282.529,-186.59C334.19,-206.82 421.518,-241.017 476.518,-262.554"/>
<polygon fill="#6666ff" stroke="#6666ff" points="475.473,-265.904 486.061,-266.291 478.025,-259.386 475.473,-265.904"/>
</g>
<!-- Metamodel::ClassHOW&#45;&gt;Metamodel::BoolificationProtocol -->
<g id="edge39" class="edge"><title>Metamodel::ClassHOW&#45;&gt;Metamodel::BoolificationProtocol</title>
<path fill="none" stroke="#6666ff" d="M235.469,-188.13C222.742,-236.009 188.1,-366.335 172.747,-424.093"/>
<polygon fill="#6666ff" stroke="#6666ff" points="169.3,-423.434 170.114,-433.997 176.066,-425.232 169.3,-423.434"/>
</g>
<!-- Metamodel::ConcreteRoleHOW -->
<g id="node27" class="node"><title>Metamodel::ConcreteRoleHOW</title>
<g id="a_node27"><a xlink:href="/type/Metamodel::ConcreteRoleHOW" xlink:title="Metamodel::ConcreteRoleHOW">
<ellipse fill="none" stroke="#000000" cx="-395.543" cy="75.6135" rx="135.676" ry="18"/>
<text text-anchor="middle" x="-395.543" y="79.3135" font-family="FreeSans" font-size="14.00" fill="#000000">Metamodel::ConcreteRoleHOW</text>
</a>
</g>
</g>
<!-- Metamodel::ConcreteRoleHOW&#45;&gt;Metamodel::Versioning -->
<g id="edge41" class="edge"><title>Metamodel::ConcreteRoleHOW&#45;&gt;Metamodel::Versioning</title>
<path fill="none" stroke="#6666ff" d="M-306.514,62.0174C-286.788,59.0049 -265.906,55.8159 -246.258,52.8153"/>
<polygon fill="#6666ff" stroke="#6666ff" points="-246.522,49.3152 -236.108,51.2654 -245.465,56.235 -246.522,49.3152"/>
</g>
<!-- Metamodel::ConcreteRoleHOW&#45;&gt;Any -->
<g id="edge5" class="edge"><title>Metamodel::ConcreteRoleHOW&#45;&gt;Any</title>
<path fill="none" stroke="#000000" d="M-369.478,93.4183C-252.078,173.614 227.084,500.93 347.184,582.97"/>
<polygon fill="#000000" stroke="#000000" points="349.231,580.13 355.514,588.661 345.283,585.91 349.231,580.13"/>
</g>
<!-- Metamodel::ConcreteRoleHOW&#45;&gt;Metamodel::Naming -->
<g id="edge40" class="edge"><title>Metamodel::ConcreteRoleHOW&#45;&gt;Metamodel::Naming</title>
<path fill="none" stroke="#6666ff" d="M-379.581,93.7591C-341.46,137.093 -245.024,246.718 -201,296.762"/>
<polygon fill="#6666ff" stroke="#6666ff" points="-198.132,294.724 -194.154,304.544 -203.387,299.347 -198.132,294.724"/>
</g>
<!-- Metamodel::ConcreteRoleHOW&#45;&gt;Metamodel::MultipleInheritance -->
<g id="edge47" class="edge"><title>Metamodel::ConcreteRoleHOW&#45;&gt;Metamodel::MultipleInheritance</title>
<path fill="none" stroke="#6666ff" d="M-260.066,74.2048C-207.768,73.661 -147.864,73.0382 -94.8078,72.4865"/>
<polygon fill="#6666ff" stroke="#6666ff" points="-94.6746,68.985 -84.6387,72.3808 -94.6018,75.9846 -94.6746,68.985"/>
</g>
<!-- Metamodel::ConcreteRoleHOW&#45;&gt;Metamodel::AttributeContainer -->
<g id="edge45" class="edge"><title>Metamodel::ConcreteRoleHOW&#45;&gt;Metamodel::AttributeContainer</title>
<path fill="none" stroke="#6666ff" d="M-373.096,57.7831C-310.674,8.19824 -134.919,-131.411 -63.2924,-188.307"/>
<polygon fill="#6666ff" stroke="#6666ff" points="-65.0955,-191.345 -55.0883,-194.824 -60.7416,-185.864 -65.0955,-191.345"/>
</g>
<!-- Metamodel::ConcreteRoleHOW&#45;&gt;Metamodel::MethodContainer -->
<g id="edge43" class="edge"><title>Metamodel::ConcreteRoleHOW&#45;&gt;Metamodel::MethodContainer</title>
<path fill="none" stroke="#6666ff" d="M-389.632,57.4651C-373.915,9.20491 -331.011,-122.53 -312.265,-180.091"/>
<polygon fill="#6666ff" stroke="#6666ff" points="-315.585,-181.198 -309.16,-189.623 -308.929,-179.031 -315.585,-181.198"/>
</g>
<!-- Metamodel::ConcreteRoleHOW&#45;&gt;Metamodel::PrivateMethodContainer -->
<g id="edge42" class="edge"><title>Metamodel::ConcreteRoleHOW&#45;&gt;Metamodel::PrivateMethodContainer</title>
<path fill="none" stroke="#6666ff" d="M-400.504,57.3089C-423.245,-26.6053 -517.597,-374.759 -545.082,-476.18"/>
<polygon fill="#6666ff" stroke="#6666ff" points="-548.505,-475.43 -547.743,-485.998 -541.749,-477.261 -548.505,-475.43"/>
</g>
<!-- Metamodel::ConcreteRoleHOW&#45;&gt;Metamodel::MultiMethodContainer -->
<g id="edge44" class="edge"><title>Metamodel::ConcreteRoleHOW&#45;&gt;Metamodel::MultiMethodContainer</title>
<path fill="none" stroke="#6666ff" d="M-413.063,57.5002C-450.396,18.9021 -537.867,-71.5332 -580.722,-115.84"/>
<polygon fill="#6666ff" stroke="#6666ff" points="-583.502,-113.68 -587.938,-123.301 -578.47,-118.546 -583.502,-113.68"/>
</g>
<!-- Metamodel::ConcreteRoleHOW&#45;&gt;Metamodel::RoleContainer -->
<g id="edge46" class="edge"><title>Metamodel::ConcreteRoleHOW&#45;&gt;Metamodel::RoleContainer</title>
<path fill="none" stroke="#6666ff" d="M-424.803,57.873C-510.198,6.09834 -753.097,-141.172 -753.097,-141.172 -753.097,-141.172 -836.988,-324.432 -869.25,-394.909"/>
<polygon fill="#6666ff" stroke="#6666ff" points="-872.466,-393.525 -873.446,-404.074 -866.101,-396.438 -872.466,-393.525"/>
</g>
<!-- Metamodel::RolePunning -->
<g id="node28" class="node"><title>Metamodel::RolePunning</title>
<g id="a_node28"><a xlink:href="/type/Metamodel::RolePunning" xlink:title="Metamodel::RolePunning">
<ellipse fill="none" stroke="#6666ff" cx="-877.558" cy="81.1827" rx="109.681" ry="18"/>
<text text-anchor="middle" x="-877.558" y="84.8827" font-family="FreeSans" font-size="14.00" fill="#6666ff">Metamodel::RolePunning</text>
</a>
</g>
</g>
<!-- Metamodel::ParametricRoleHOW -->
<g id="node29" class="node"><title>Metamodel::ParametricRoleHOW</title>
<g id="a_node29"><a xlink:href="/type/Metamodel::ParametricRoleHOW" xlink:title="Metamodel::ParametricRoleHOW">
<ellipse fill="none" stroke="#000000" cx="-546.054" cy="295.563" rx="142.175" ry="18"/>
<text text-anchor="middle" x="-546.054" y="299.263" font-family="FreeSans" font-size="14.00" fill="#000000">Metamodel::ParametricRoleHOW</text>
</a>
</g>
</g>
<!-- Metamodel::ParametricRoleHOW&#45;&gt;Metamodel::Versioning -->
<g id="edge50" class="edge"><title>Metamodel::ParametricRoleHOW&#45;&gt;Metamodel::Versioning</title>
<path fill="none" stroke="#6666ff" d="M-519.156,277.762C-450.761,232.498 -270.242,113.029 -193.967,62.5495"/>
<polygon fill="#6666ff" stroke="#6666ff" points="-195.896,59.629 -185.626,57.0287 -192.033,65.4664 -195.896,59.629"/>
</g>
<!-- Metamodel::ParametricRoleHOW&#45;&gt;Any -->
<g id="edge6" class="edge"><title>Metamodel::ParametricRoleHOW&#45;&gt;Any</title>
<path fill="none" stroke="#000000" d="M-495.245,312.458C-328.286,367.974 200.743,543.883 340.467,590.343"/>
<polygon fill="#000000" stroke="#000000" points="341.829,587.107 350.214,593.583 339.62,593.749 341.829,587.107"/>
</g>
<!-- Metamodel::ParametricRoleHOW&#45;&gt;Metamodel::Naming -->
<g id="edge48" class="edge"><title>Metamodel::ParametricRoleHOW&#45;&gt;Metamodel::Naming</title>
<path fill="none" stroke="#6666ff" d="M-422.629,304.569C-373.958,308.12 -318.933,312.134 -273.456,315.452"/>
<polygon fill="#6666ff" stroke="#6666ff" points="-273.027,311.974 -263.308,316.193 -273.537,318.956 -273.027,311.974"/>
</g>
<!-- Metamodel::ParametricRoleHOW&#45;&gt;Metamodel::Documenting -->
<g id="edge49" class="edge"><title>Metamodel::ParametricRoleHOW&#45;&gt;Metamodel::Documenting</title>
<path fill="none" stroke="#6666ff" d="M-478.323,279.69C-325.401,243.851 45.5769,156.91 203.826,119.823"/>
<polygon fill="#6666ff" stroke="#6666ff" points="203.402,116.327 213.937,117.453 205,123.142 203.402,116.327"/>
</g>
<!-- Metamodel::ParametricRoleHOW&#45;&gt;Metamodel::Stashing -->
<g id="edge57" class="edge"><title>Metamodel::ParametricRoleHOW&#45;&gt;Metamodel::Stashing</title>
<path fill="none" stroke="#6666ff" d="M-405.213,298.334C-301.718,300.37 -179.057,302.784 -179.057,302.784 -179.057,302.784 -113.871,308.434 -113.871,308.434 -113.871,308.434 -19.9757,320.866 53.9666,330.657"/>
<polygon fill="#6666ff" stroke="#6666ff" points="54.8019,327.237 64.256,332.019 53.883,334.176 54.8019,327.237"/>
</g>
<!-- Metamodel::ParametricRoleHOW&#45;&gt;Metamodel::TypePretense -->
<g id="edge58" class="edge"><title>Metamodel::ParametricRoleHOW&#45;&gt;Metamodel::TypePretense</title>
<path fill="none" stroke="#6666ff" d="M-567.482,313.53C-618.95,356.684 -749.607,466.236 -808.219,515.381"/>
<polygon fill="#6666ff" stroke="#6666ff" points="-806.084,518.158 -815.996,521.901 -810.581,512.794 -806.084,518.158"/>
</g>
<!-- Metamodel::ParametricRoleHOW&#45;&gt;Metamodel::MultipleInheritance -->
<g id="edge56" class="edge"><title>Metamodel::ParametricRoleHOW&#45;&gt;Metamodel::MultipleInheritance</title>
<path fill="none" stroke="#6666ff" d="M-500.353,278.315C-392.361,237.556 -121.774,135.429 -5.51952,91.5517"/>
<polygon fill="#6666ff" stroke="#6666ff" points="-6.67958,88.2486 3.91215,87.9919 -4.20775,94.7976 -6.67958,88.2486"/>
</g>
<!-- Metamodel::ParametricRoleHOW&#45;&gt;Metamodel::AttributeContainer -->
<g id="edge54" class="edge"><title>Metamodel::ParametricRoleHOW&#45;&gt;Metamodel::AttributeContainer</title>
<path fill="none" stroke="#6666ff" d="M-522.49,277.559C-453.72,225.012 -258.106,75.5472 -258.106,75.5472 -258.106,75.5472 -261.498,39.6984 -261.498,39.6984 -261.498,39.6984 -114.222,-122.636 -55.7983,-187.033"/>
<polygon fill="#6666ff" stroke="#6666ff" points="-58.1195,-189.684 -48.808,-194.738 -52.9351,-184.98 -58.1195,-189.684"/>
</g>
<!-- Metamodel::ParametricRoleHOW&#45;&gt;Metamodel::MethodContainer -->
<g id="edge51" class="edge"><title>Metamodel::ParametricRoleHOW&#45;&gt;Metamodel::MethodContainer</title>
<path fill="none" stroke="#6666ff" d="M-544.962,277.194C-541.82,224.348 -532.98,75.6798 -532.98,75.6798 -532.98,75.6798 -381.292,-111.42 -324.46,-181.519"/>
<polygon fill="#6666ff" stroke="#6666ff" points="-327.032,-183.904 -318.016,-189.467 -321.595,-179.495 -327.032,-183.904"/>
</g>
<!-- Metamodel::ParametricRoleHOW&#45;&gt;Metamodel::PrivateMethodContainer -->
<g id="edge52" class="edge"><title>Metamodel::ParametricRoleHOW&#45;&gt;Metamodel::PrivateMethodContainer</title>
<path fill="none" stroke="#6666ff" d="M-544.962,277.194C-541.82,224.348 -532.98,75.6798 -532.98,75.6798 -532.98,75.6798 -457.424,-141.248 -457.424,-141.248 -457.424,-141.248 -522.806,-390.389 -545.204,-475.736"/>
<polygon fill="#6666ff" stroke="#6666ff" points="-548.622,-474.969 -547.775,-485.53 -541.851,-476.746 -548.622,-474.969"/>
</g>
<!-- Metamodel::ParametricRoleHOW&#45;&gt;Metamodel::MultiMethodContainer -->
<g id="edge53" class="edge"><title>Metamodel::ParametricRoleHOW&#45;&gt;Metamodel::MultiMethodContainer</title>
<path fill="none" stroke="#6666ff" d="M-548.523,277.352C-557.748,209.297 -590.24,-30.4031 -601.436,-112.994"/>
<polygon fill="#6666ff" stroke="#6666ff" points="-604.906,-112.541 -602.782,-122.921 -597.97,-113.482 -604.906,-112.541"/>
</g>
<!-- Metamodel::ParametricRoleHOW&#45;&gt;Metamodel::RoleContainer -->
<g id="edge55" class="edge"><title>Metamodel::ParametricRoleHOW&#45;&gt;Metamodel::RoleContainer</title>
<path fill="none" stroke="#6666ff" d="M-554.687,277.353C-593.872,194.698 -753.097,-141.172 -753.097,-141.172 -753.097,-141.172 -836.988,-324.432 -869.25,-394.909"/>
<polygon fill="#6666ff" stroke="#6666ff" points="-872.466,-393.525 -873.446,-404.074 -866.101,-396.438 -872.466,-393.525"/>
</g>
<!-- Metamodel::ParametricRoleHOW&#45;&gt;Metamodel::RolePunning -->
<g id="edge59" class="edge"><title>Metamodel::ParametricRoleHOW&#45;&gt;Metamodel::RolePunning</title>
<path fill="none" stroke="#6666ff" d="M-573.465,277.837C-633.145,239.242 -774.836,147.612 -841.592,104.442"/>
<polygon fill="#6666ff" stroke="#6666ff" points="-843.619,107.299 -850.116,98.9294 -839.818,101.421 -843.619,107.299"/>
</g>
</g>
</svg>
