<?xml version="1.0" encoding="UTF-8" standalone="no"?>
<!DOCTYPE svg PUBLIC "-//W3C//DTD SVG 1.1//EN"
 "http://www.w3.org/Graphics/SVG/1.1/DTD/svg11.dtd">
<!-- Generated by graphviz version 2.38.0 (20140413.2041)
 -->
<!-- Title: perl6&#45;type&#45;graph Pages: 1 -->
<svg width="886pt" height="332pt"
 viewBox="0.00 0.00 885.88 332.00" xmlns="http://www.w3.org/2000/svg" xmlns:xlink="http://www.w3.org/1999/xlink">
<g id="graph0" class="graph" transform="scale(1 1) rotate(0) translate(4 328)">
<title>perl6&#45;type&#45;graph</title>
<polygon fill="white" stroke="none" points="-4,4 -4,-328 881.882,-328 881.882,4 -4,4"/>
<!-- X::TypeCheck -->
<g id="node1" class="node"><title>X::TypeCheck</title>
<g id="a_node1"><a xlink:href="/type/X::TypeCheck" xlink:title="X::TypeCheck">
<ellipse fill="none" stroke="#000000" cx="425.141" cy="-90" rx="66.8882" ry="18"/>
<text text-anchor="middle" x="425.141" y="-86.3" font-family="FreeSans" font-size="14.00" fill="#000000">X::TypeCheck</text>
</a>
</g>
</g>
<!-- Exception -->
<g id="node4" class="node"><title>Exception</title>
<g id="a_node4"><a xlink:href="/type/Exception" xlink:title="Exception">
<ellipse fill="none" stroke="#000000" cx="425.141" cy="-162" rx="49.2915" ry="18"/>
<text text-anchor="middle" x="425.141" y="-158.3" font-family="FreeSans" font-size="14.00" fill="#000000">Exception</text>
</a>
</g>
</g>
<!-- X::TypeCheck&#45;&gt;Exception -->
<g id="edge1" class="edge"><title>X::TypeCheck&#45;&gt;Exception</title>
<path fill="none" stroke="#000000" d="M425.141,-108.303C425.141,-116.017 425.141,-125.288 425.141,-133.888"/>
<polygon fill="#000000" stroke="#000000" points="421.641,-133.896 425.141,-143.896 428.641,-133.896 421.641,-133.896"/>
</g>
<!-- Mu -->
<g id="node2" class="node"><title>Mu</title>
<g id="a_node2"><a xlink:href="/type/Mu" xlink:title="Mu">
<ellipse fill="none" stroke="#000000" cx="425.141" cy="-306" rx="27" ry="18"/>
<text text-anchor="middle" x="425.141" y="-302.3" font-family="FreeSans" font-size="14.00" fill="#000000">Mu</text>
</a>
</g>
</g>
<!-- Any -->
<g id="node3" class="node"><title>Any</title>
<g id="a_node3"><a xlink:href="/type/Any" xlink:title="Any">
<ellipse fill="none" stroke="#000000" cx="425.141" cy="-234" rx="27" ry="18"/>
<text text-anchor="middle" x="425.141" y="-230.3" font-family="FreeSans" font-size="14.00" fill="#000000">Any</text>
</a>
</g>
</g>
<!-- Any&#45;&gt;Mu -->
<g id="edge2" class="edge"><title>Any&#45;&gt;Mu</title>
<path fill="none" stroke="#000000" d="M425.141,-252.303C425.141,-260.017 425.141,-269.288 425.141,-277.888"/>
<polygon fill="#000000" stroke="#000000" points="421.641,-277.896 425.141,-287.896 428.641,-277.896 421.641,-277.896"/>
</g>
<!-- Exception&#45;&gt;Any -->
<g id="edge3" class="edge"><title>Exception&#45;&gt;Any</title>
<path fill="none" stroke="#000000" d="M425.141,-180.303C425.141,-188.017 425.141,-197.288 425.141,-205.888"/>
<polygon fill="#000000" stroke="#000000" points="421.641,-205.896 425.141,-215.896 428.641,-205.896 421.641,-205.896"/>
</g>
<!-- X::TypeCheck::Return -->
<g id="node5" class="node"><title>X::TypeCheck::Return</title>
<g id="a_node5"><a xlink:href="/type/X::TypeCheck::Return" xlink:title="X::TypeCheck::Return">
<ellipse fill="none" stroke="#000000" cx="98.1413" cy="-18" rx="98.2828" ry="18"/>
<text text-anchor="middle" x="98.1413" y="-14.3" font-family="FreeSans" font-size="14.00" fill="#000000">X::TypeCheck::Return</text>
</a>
</g>
</g>
<!-- X::TypeCheck::Return&#45;&gt;X::TypeCheck -->
<g id="edge4" class="edge"><title>X::TypeCheck::Return&#45;&gt;X::TypeCheck</title>
<path fill="none" stroke="#000000" d="M159.264,-32.0843C217.978,-44.6532 306.167,-63.5315 364.664,-76.0538"/>
<polygon fill="#000000" stroke="#000000" points="363.996,-79.49 374.507,-78.1609 365.461,-72.6451 363.996,-79.49"/>
</g>
<!-- X::TypeCheck::Splice -->
<g id="node6" class="node"><title>X::TypeCheck::Splice</title>
<g id="a_node6"><a xlink:href="/type/X::TypeCheck::Splice" xlink:title="X::TypeCheck::Splice">
<ellipse fill="none" stroke="#000000" cx="310.141" cy="-18" rx="95.5831" ry="18"/>
<text text-anchor="middle" x="310.141" y="-14.3" font-family="FreeSans" font-size="14.00" fill="#000000">X::TypeCheck::Splice</text>
</a>
</g>
</g>
<!-- X::TypeCheck::Splice&#45;&gt;X::TypeCheck -->
<g id="edge5" class="edge"><title>X::TypeCheck::Splice&#45;&gt;X::TypeCheck</title>
<path fill="none" stroke="#000000" d="M337.104,-35.4119C353.046,-45.116 373.401,-57.5057 390.521,-67.927"/>
<polygon fill="#000000" stroke="#000000" points="388.777,-70.9628 399.139,-73.1726 392.417,-64.9834 388.777,-70.9628"/>
</g>
<!-- X::TypeCheck::Assignment -->
<g id="node7" class="node"><title>X::TypeCheck::Assignment</title>
<g id="a_node7"><a xlink:href="/type/X::TypeCheck::Assignment" xlink:title="X::TypeCheck::Assignment">
<ellipse fill="none" stroke="#000000" cx="541.141" cy="-18" rx="117.779" ry="18"/>
<text text-anchor="middle" x="541.141" y="-14.3" font-family="FreeSans" font-size="14.00" fill="#000000">X::TypeCheck::Assignment</text>
</a>
</g>
</g>
<!-- X::TypeCheck::Assignment&#45;&gt;X::TypeCheck -->
<g id="edge6" class="edge"><title>X::TypeCheck::Assignment&#45;&gt;X::TypeCheck</title>
<path fill="none" stroke="#000000" d="M513.651,-35.589C497.562,-45.2978 477.095,-57.6488 459.895,-68.0278"/>
<polygon fill="#000000" stroke="#000000" points="457.993,-65.0877 451.239,-73.2511 461.61,-71.0811 457.993,-65.0877"/>
</g>
<!-- X::TypeCheck::Binding -->
<g id="node8" class="node"><title>X::TypeCheck::Binding</title>
<g id="a_node8"><a xlink:href="/type/X::TypeCheck::Binding" xlink:title="X::TypeCheck::Binding">
<ellipse fill="none" stroke="#000000" cx="777.141" cy="-18" rx="100.983" ry="18"/>
<text text-anchor="middle" x="777.141" y="-14.3" font-family="FreeSans" font-size="14.00" fill="#000000">X::TypeCheck::Binding</text>
</a>
</g>
</g>
<!-- X::TypeCheck::Binding&#45;&gt;X::TypeCheck -->
<g id="edge7" class="edge"><title>X::TypeCheck::Binding&#45;&gt;X::TypeCheck</title>
<path fill="none" stroke="#000000" d="M712.579,-31.8391C648.336,-44.6147 550.441,-64.0825 487.119,-76.6749"/>
<polygon fill="#000000" stroke="#000000" points="486.389,-73.2515 477.264,-78.6348 487.754,-80.117 486.389,-73.2515"/>
</g>
</g>
</svg>
