<?xml version="1.0" encoding="UTF-8" standalone="no"?>
<!DOCTYPE svg PUBLIC "-//W3C//DTD SVG 1.1//EN"
 "http://www.w3.org/Graphics/SVG/1.1/DTD/svg11.dtd">
<!-- Generated by graphviz version 2.38.0 (20140413.2041)
 -->
<!-- Title: perl6&#45;type&#45;graph Pages: 1 -->
<svg width="1416pt" height="332pt"
 viewBox="0.00 0.00 1415.90 332.00" xmlns="http://www.w3.org/2000/svg" xmlns:xlink="http://www.w3.org/1999/xlink">
<g id="graph0" class="graph" transform="scale(1 1) rotate(0) translate(4 328)">
<title>perl6&#45;type&#45;graph</title>
<polygon fill="white" stroke="none" points="-4,4 -4,-328 1411.9,-328 1411.9,4 -4,4"/>
<!-- Cool -->
<g id="node1" class="node"><title>Cool</title>
<g id="a_node1"><a xlink:href="/type/Cool" xlink:title="Cool">
<ellipse fill="none" stroke="#000000" cx="656.896" cy="-162" rx="28.6953" ry="18"/>
<text text-anchor="middle" x="656.896" y="-158.3" font-family="FreeSans" font-size="14.00" fill="#000000">Cool</text>
</a>
</g>
</g>
<!-- Any -->
<g id="node3" class="node"><title>Any</title>
<g id="a_node3"><a xlink:href="/type/Any" xlink:title="Any">
<ellipse fill="none" stroke="#000000" cx="611.896" cy="-234" rx="27" ry="18"/>
<text text-anchor="middle" x="611.896" y="-230.3" font-family="FreeSans" font-size="14.00" fill="#000000">Any</text>
</a>
</g>
</g>
<!-- Cool&#45;&gt;Any -->
<g id="edge1" class="edge"><title>Cool&#45;&gt;Any</title>
<path fill="none" stroke="#000000" d="M646.685,-178.884C641.047,-187.655 633.923,-198.736 627.592,-208.584"/>
<polygon fill="#000000" stroke="#000000" points="624.53,-206.874 622.067,-217.179 630.419,-210.66 624.53,-206.874"/>
</g>
<!-- Mu -->
<g id="node2" class="node"><title>Mu</title>
<g id="a_node2"><a xlink:href="/type/Mu" xlink:title="Mu">
<ellipse fill="none" stroke="#000000" cx="611.896" cy="-306" rx="27" ry="18"/>
<text text-anchor="middle" x="611.896" y="-302.3" font-family="FreeSans" font-size="14.00" fill="#000000">Mu</text>
</a>
</g>
</g>
<!-- Any&#45;&gt;Mu -->
<g id="edge2" class="edge"><title>Any&#45;&gt;Mu</title>
<path fill="none" stroke="#000000" d="M611.896,-252.303C611.896,-260.017 611.896,-269.288 611.896,-277.888"/>
<polygon fill="#000000" stroke="#000000" points="608.396,-277.896 611.896,-287.896 615.396,-277.896 608.396,-277.896"/>
</g>
<!-- Nil -->
<g id="node4" class="node"><title>Nil</title>
<g id="a_node4"><a xlink:href="/type/Nil" xlink:title="Nil">
<ellipse fill="none" stroke="#000000" cx="712.896" cy="-90" rx="27" ry="18"/>
<text text-anchor="middle" x="712.896" y="-86.3" font-family="FreeSans" font-size="14.00" fill="#000000">Nil</text>
</a>
</g>
</g>
<!-- Nil&#45;&gt;Cool -->
<g id="edge3" class="edge"><title>Nil&#45;&gt;Cool</title>
<path fill="none" stroke="#000000" d="M700.745,-106.189C693.435,-115.327 683.976,-127.151 675.715,-137.476"/>
<polygon fill="#000000" stroke="#000000" points="672.925,-135.361 669.411,-145.356 678.391,-139.734 672.925,-135.361"/>
</g>
<!-- Numeric -->
<g id="node5" class="node"><title>Numeric</title>
<g id="a_node5"><a xlink:href="/type/Numeric" xlink:title="Numeric">
<ellipse fill="none" stroke="#6666ff" cx="258.896" cy="-234" rx="44.393" ry="18"/>
<text text-anchor="middle" x="258.896" y="-230.3" font-family="FreeSans" font-size="14.00" fill="#6666ff">Numeric</text>
</a>
</g>
</g>
<!-- Real -->
<g id="node6" class="node"><title>Real</title>
<g id="a_node6"><a xlink:href="/type/Real" xlink:title="Real">
<ellipse fill="none" stroke="#6666ff" cx="286.896" cy="-162" rx="28.6953" ry="18"/>
<text text-anchor="middle" x="286.896" y="-158.3" font-family="FreeSans" font-size="14.00" fill="#6666ff">Real</text>
</a>
</g>
</g>
<!-- Real&#45;&gt;Numeric -->
<g id="edge20" class="edge"><title>Real&#45;&gt;Numeric</title>
<path fill="none" stroke="#6666ff" d="M280.261,-179.589C277.03,-187.665 273.069,-197.569 269.438,-206.645"/>
<polygon fill="#6666ff" stroke="#6666ff" points="266.143,-205.459 265.679,-216.044 272.642,-208.059 266.143,-205.459"/>
</g>
<!-- Num -->
<g id="node7" class="node"><title>Num</title>
<g id="a_node7"><a xlink:href="/type/Num" xlink:title="Num">
<ellipse fill="none" stroke="#000000" cx="313.896" cy="-90" rx="29.795" ry="18"/>
<text text-anchor="middle" x="313.896" y="-86.3" font-family="FreeSans" font-size="14.00" fill="#000000">Num</text>
</a>
</g>
</g>
<!-- Num&#45;&gt;Cool -->
<g id="edge4" class="edge"><title>Num&#45;&gt;Cool</title>
<path fill="none" stroke="#000000" d="M337.482,-101.281C345.696,-104.861 352.896,-108 352.896,-108 352.896,-108 618.896,-144 618.896,-144 618.896,-144 621.327,-145.088 624.959,-146.712"/>
<polygon fill="#000000" stroke="#000000" points="623.795,-150.026 634.352,-150.915 626.653,-143.636 623.795,-150.026"/>
</g>
<!-- Num&#45;&gt;Real -->
<g id="edge21" class="edge"><title>Num&#45;&gt;Real</title>
<path fill="none" stroke="#6666ff" d="M307.498,-107.589C304.383,-115.665 300.563,-125.569 297.062,-134.645"/>
<polygon fill="#6666ff" stroke="#6666ff" points="293.77,-133.454 293.436,-144.044 300.301,-135.973 293.77,-133.454"/>
</g>
<!-- Stringy -->
<g id="node8" class="node"><title>Stringy</title>
<g id="a_node8"><a xlink:href="/type/Stringy" xlink:title="Stringy">
<ellipse fill="none" stroke="#6666ff" cx="741.896" cy="-162" rx="38.1938" ry="18"/>
<text text-anchor="middle" x="741.896" y="-158.3" font-family="FreeSans" font-size="14.00" fill="#6666ff">Stringy</text>
</a>
</g>
</g>
<!-- Str -->
<g id="node9" class="node"><title>Str</title>
<g id="a_node9"><a xlink:href="/type/Str" xlink:title="Str">
<ellipse fill="none" stroke="#000000" cx="822.896" cy="-90" rx="27" ry="18"/>
<text text-anchor="middle" x="822.896" y="-86.3" font-family="FreeSans" font-size="14.00" fill="#000000">Str</text>
</a>
</g>
</g>
<!-- Str&#45;&gt;Cool -->
<g id="edge5" class="edge"><title>Str&#45;&gt;Cool</title>
<path fill="none" stroke="#000000" d="M800.477,-100.296C790.905,-104.265 781.896,-108 781.896,-108 781.896,-108 694.896,-144 694.896,-144 694.896,-144 692.465,-145.088 688.833,-146.712"/>
<polygon fill="#000000" stroke="#000000" points="687.139,-143.636 679.44,-150.915 689.998,-150.026 687.139,-143.636"/>
</g>
<!-- Str&#45;&gt;Stringy -->
<g id="edge22" class="edge"><title>Str&#45;&gt;Stringy</title>
<path fill="none" stroke="#6666ff" d="M806.893,-104.83C795.592,-114.597 780.214,-127.886 767.253,-139.087"/>
<polygon fill="#6666ff" stroke="#6666ff" points="764.831,-136.554 759.553,-145.741 769.408,-141.85 764.831,-136.554"/>
</g>
<!-- Int -->
<g id="node10" class="node"><title>Int</title>
<g id="a_node10"><a xlink:href="/type/Int" xlink:title="Int">
<ellipse fill="none" stroke="#000000" cx="238.896" cy="-90" rx="27" ry="18"/>
<text text-anchor="middle" x="238.896" y="-86.3" font-family="FreeSans" font-size="14.00" fill="#000000">Int</text>
</a>
</g>
</g>
<!-- Int&#45;&gt;Cool -->
<g id="edge6" class="edge"><title>Int&#45;&gt;Cool</title>
<path fill="none" stroke="#000000" d="M260.254,-101.085C268.006,-104.746 274.896,-108 274.896,-108 274.896,-108 618.896,-144 618.896,-144 618.896,-144 621.327,-145.088 624.959,-146.712"/>
<polygon fill="#000000" stroke="#000000" points="623.795,-150.026 634.352,-150.915 626.653,-143.636 623.795,-150.026"/>
</g>
<!-- Int&#45;&gt;Real -->
<g id="edge23" class="edge"><title>Int&#45;&gt;Real</title>
<path fill="none" stroke="#6666ff" d="M249.788,-106.884C255.864,-115.745 263.556,-126.963 270.36,-136.885"/>
<polygon fill="#6666ff" stroke="#6666ff" points="267.505,-138.911 276.047,-145.179 273.279,-134.952 267.505,-138.911"/>
</g>
<!-- Complex -->
<g id="node11" class="node"><title>Complex</title>
<g id="a_node11"><a xlink:href="/type/Complex" xlink:title="Complex">
<ellipse fill="none" stroke="#000000" cx="148.896" cy="-90" rx="45.4919" ry="18"/>
<text text-anchor="middle" x="148.896" y="-86.3" font-family="FreeSans" font-size="14.00" fill="#000000">Complex</text>
</a>
</g>
</g>
<!-- Complex&#45;&gt;Cool -->
<g id="edge7" class="edge"><title>Complex&#45;&gt;Cool</title>
<path fill="none" stroke="#000000" d="M183.401,-101.863C193.984,-105.194 202.896,-108 202.896,-108 202.896,-108 618.896,-144 618.896,-144 618.896,-144 621.327,-145.088 624.959,-146.712"/>
<polygon fill="#000000" stroke="#000000" points="623.795,-150.026 634.352,-150.915 626.653,-143.636 623.795,-150.026"/>
</g>
<!-- Complex&#45;&gt;Numeric -->
<g id="edge24" class="edge"><title>Complex&#45;&gt;Numeric</title>
<path fill="none" stroke="#6666ff" d="M161.73,-107.567C181.021,-132.471 217.61,-179.703 239.969,-208.567"/>
<polygon fill="#6666ff" stroke="#6666ff" points="237.253,-210.776 246.144,-216.538 242.787,-206.489 237.253,-210.776"/>
</g>
<!-- Iterable -->
<g id="node12" class="node"><title>Iterable</title>
<g id="a_node12"><a xlink:href="/type/Iterable" xlink:title="Iterable">
<ellipse fill="none" stroke="#6666ff" cx="1166.9" cy="-162" rx="40.0939" ry="18"/>
<text text-anchor="middle" x="1166.9" y="-158.3" font-family="FreeSans" font-size="14.00" fill="#6666ff">Iterable</text>
</a>
</g>
</g>
<!-- PositionalBindFailover -->
<g id="node13" class="node"><title>PositionalBindFailover</title>
<g id="a_node13"><a xlink:href="/type/PositionalBindFailover" xlink:title="PositionalBindFailover">
<ellipse fill="none" stroke="#6666ff" cx="895.896" cy="-162" rx="97.4827" ry="18"/>
<text text-anchor="middle" x="895.896" y="-158.3" font-family="FreeSans" font-size="14.00" fill="#6666ff">PositionalBindFailover</text>
</a>
</g>
</g>
<!-- Seq -->
<g id="node14" class="node"><title>Seq</title>
<g id="a_node14"><a xlink:href="/type/Seq" xlink:title="Seq">
<ellipse fill="none" stroke="#000000" cx="895.896" cy="-90" rx="27" ry="18"/>
<text text-anchor="middle" x="895.896" y="-86.3" font-family="FreeSans" font-size="14.00" fill="#000000">Seq</text>
</a>
</g>
</g>
<!-- Seq&#45;&gt;Cool -->
<g id="edge8" class="edge"><title>Seq&#45;&gt;Cool</title>
<path fill="none" stroke="#000000" d="M874.373,-100.889C866.233,-104.629 858.896,-108 858.896,-108 858.896,-108 694.896,-144 694.896,-144 694.896,-144 692.465,-145.088 688.833,-146.712"/>
<polygon fill="#000000" stroke="#000000" points="687.139,-143.636 679.44,-150.915 689.998,-150.026 687.139,-143.636"/>
</g>
<!-- Seq&#45;&gt;Iterable -->
<g id="edge25" class="edge"><title>Seq&#45;&gt;Iterable</title>
<path fill="none" stroke="#6666ff" d="M919.86,-98.407C934.681,-102.988 950.896,-108 950.896,-108 950.896,-108 1117.9,-144 1117.9,-144 1117.9,-144 1121.34,-145.196 1126.41,-146.954"/>
<polygon fill="#6666ff" stroke="#6666ff" points="1125.55,-150.359 1136.14,-150.33 1127.84,-143.746 1125.55,-150.359"/>
</g>
<!-- Seq&#45;&gt;PositionalBindFailover -->
<g id="edge26" class="edge"><title>Seq&#45;&gt;PositionalBindFailover</title>
<path fill="none" stroke="#6666ff" d="M895.896,-108.303C895.896,-116.017 895.896,-125.288 895.896,-133.888"/>
<polygon fill="#6666ff" stroke="#6666ff" points="892.396,-133.896 895.896,-143.896 899.396,-133.896 892.396,-133.896"/>
</g>
<!-- Rational -->
<g id="node15" class="node"><title>Rational</title>
<g id="a_node15"><a xlink:href="/type/Rational" xlink:title="Rational">
<ellipse fill="none" stroke="#6666ff" cx="42.8962" cy="-90" rx="42.7926" ry="18"/>
<text text-anchor="middle" x="42.8962" y="-86.3" font-family="FreeSans" font-size="14.00" fill="#6666ff">Rational</text>
</a>
</g>
</g>
<!-- Rational&#45;&gt;Real -->
<g id="edge27" class="edge"><title>Rational&#45;&gt;Real</title>
<path fill="none" stroke="#6666ff" d="M75.8286,-101.766C86.1483,-105.14 94.8962,-108 94.8962,-108 94.8962,-108 195.661,-135.815 251.194,-151.145"/>
<polygon fill="#6666ff" stroke="#6666ff" points="250.431,-154.565 261.002,-153.852 252.294,-147.817 250.431,-154.565"/>
</g>
<!-- FatRat -->
<g id="node16" class="node"><title>FatRat</title>
<g id="a_node16"><a xlink:href="/type/FatRat" xlink:title="FatRat">
<ellipse fill="none" stroke="#000000" cx="599.896" cy="-18" rx="37.0935" ry="18"/>
<text text-anchor="middle" x="599.896" y="-14.3" font-family="FreeSans" font-size="14.00" fill="#000000">FatRat</text>
</a>
</g>
</g>
<!-- FatRat&#45;&gt;Cool -->
<g id="edge9" class="edge"><title>FatRat&#45;&gt;Cool</title>
<path fill="none" stroke="#000000" d="M628.979,-29.3448C672.34,-44.7687 748.896,-72 748.896,-72 748.896,-72 748.896,-108 748.896,-108 748.896,-108 712.994,-128.683 686.045,-144.208"/>
<polygon fill="#000000" stroke="#000000" points="684.232,-141.213 677.314,-149.238 687.726,-147.278 684.232,-141.213"/>
</g>
<!-- FatRat&#45;&gt;Rational -->
<g id="edge28" class="edge"><title>FatRat&#45;&gt;Rational</title>
<path fill="none" stroke="#6666ff" d="M563.983,-22.7691C448.611,-34.8775 94.8962,-72 94.8962,-72 94.8962,-72 91.1288,-73.2316 85.6221,-75.0319"/>
<polygon fill="#6666ff" stroke="#6666ff" points="84.2459,-71.7995 75.8286,-78.2336 86.4212,-78.4529 84.2459,-71.7995"/>
</g>
<!-- Positional -->
<g id="node17" class="node"><title>Positional</title>
<g id="a_node17"><a xlink:href="/type/Positional" xlink:title="Positional">
<ellipse fill="none" stroke="#6666ff" cx="1059.9" cy="-162" rx="48.9926" ry="18"/>
<text text-anchor="middle" x="1059.9" y="-158.3" font-family="FreeSans" font-size="14.00" fill="#6666ff">Positional</text>
</a>
</g>
</g>
<!-- Range -->
<g id="node18" class="node"><title>Range</title>
<g id="a_node18"><a xlink:href="/type/Range" xlink:title="Range">
<ellipse fill="none" stroke="#000000" cx="995.896" cy="-90" rx="36.2938" ry="18"/>
<text text-anchor="middle" x="995.896" y="-86.3" font-family="FreeSans" font-size="14.00" fill="#000000">Range</text>
</a>
</g>
</g>
<!-- Range&#45;&gt;Cool -->
<g id="edge10" class="edge"><title>Range&#45;&gt;Cool</title>
<path fill="none" stroke="#000000" d="M964.646,-99.3008C948.4,-103.616 931.896,-108 931.896,-108 931.896,-108 694.896,-144 694.896,-144 694.896,-144 692.465,-145.088 688.833,-146.712"/>
<polygon fill="#000000" stroke="#000000" points="687.139,-143.636 679.44,-150.915 689.998,-150.026 687.139,-143.636"/>
</g>
<!-- Range&#45;&gt;Iterable -->
<g id="edge30" class="edge"><title>Range&#45;&gt;Iterable</title>
<path fill="none" stroke="#6666ff" d="M1022.99,-102.092C1051.5,-113.761 1096.59,-132.221 1128.7,-145.365"/>
<polygon fill="#6666ff" stroke="#6666ff" points="1127.64,-148.71 1138.22,-149.26 1130.29,-142.232 1127.64,-148.71"/>
</g>
<!-- Range&#45;&gt;Positional -->
<g id="edge29" class="edge"><title>Range&#45;&gt;Positional</title>
<path fill="none" stroke="#6666ff" d="M1010.42,-106.884C1018.57,-115.796 1028.9,-127.094 1038.01,-137.058"/>
<polygon fill="#6666ff" stroke="#6666ff" points="1035.66,-139.674 1044.99,-144.693 1040.82,-134.951 1035.66,-139.674"/>
</g>
<!-- Associative -->
<g id="node19" class="node"><title>Associative</title>
<g id="a_node19"><a xlink:href="/type/Associative" xlink:title="Associative">
<ellipse fill="none" stroke="#6666ff" cx="1280.9" cy="-162" rx="55.4913" ry="18"/>
<text text-anchor="middle" x="1280.9" y="-158.3" font-family="FreeSans" font-size="14.00" fill="#6666ff">Associative</text>
</a>
</g>
</g>
<!-- Map -->
<g id="node20" class="node"><title>Map</title>
<g id="a_node20"><a xlink:href="/type/Map" xlink:title="Map">
<ellipse fill="none" stroke="#000000" cx="1166.9" cy="-90" rx="28.6953" ry="18"/>
<text text-anchor="middle" x="1166.9" y="-86.3" font-family="FreeSans" font-size="14.00" fill="#000000">Map</text>
</a>
</g>
</g>
<!-- Map&#45;&gt;Cool -->
<g id="edge11" class="edge"><title>Map&#45;&gt;Cool</title>
<path fill="none" stroke="#000000" d="M1141.79,-98.9028C1127.69,-103.342 1112.9,-108 1112.9,-108 1112.9,-108 694.896,-144 694.896,-144 694.896,-144 692.465,-145.088 688.833,-146.712"/>
<polygon fill="#000000" stroke="#000000" points="687.139,-143.636 679.44,-150.915 689.998,-150.026 687.139,-143.636"/>
</g>
<!-- Map&#45;&gt;Iterable -->
<g id="edge31" class="edge"><title>Map&#45;&gt;Iterable</title>
<path fill="none" stroke="#6666ff" d="M1166.9,-108.303C1166.9,-116.017 1166.9,-125.288 1166.9,-133.888"/>
<polygon fill="#6666ff" stroke="#6666ff" points="1163.4,-133.896 1166.9,-143.896 1170.4,-133.896 1163.4,-133.896"/>
</g>
<!-- Map&#45;&gt;Associative -->
<g id="edge32" class="edge"><title>Map&#45;&gt;Associative</title>
<path fill="none" stroke="#6666ff" d="M1186.75,-103.193C1203.46,-113.452 1227.71,-128.34 1247.41,-140.438"/>
<polygon fill="#6666ff" stroke="#6666ff" points="1245.75,-143.523 1256.1,-145.773 1249.41,-137.558 1245.75,-143.523"/>
</g>
<!-- List -->
<g id="node21" class="node"><title>List</title>
<g id="a_node21"><a xlink:href="/type/List" xlink:title="List">
<ellipse fill="none" stroke="#000000" cx="1076.9" cy="-90" rx="27" ry="18"/>
<text text-anchor="middle" x="1076.9" y="-86.3" font-family="FreeSans" font-size="14.00" fill="#000000">List</text>
</a>
</g>
</g>
<!-- List&#45;&gt;Cool -->
<g id="edge12" class="edge"><title>List&#45;&gt;Cool</title>
<path fill="none" stroke="#000000" d="M1055.54,-101.085C1047.79,-104.746 1040.9,-108 1040.9,-108 1040.9,-108 694.896,-144 694.896,-144 694.896,-144 692.465,-145.088 688.833,-146.712"/>
<polygon fill="#000000" stroke="#000000" points="687.139,-143.636 679.44,-150.915 689.998,-150.026 687.139,-143.636"/>
</g>
<!-- List&#45;&gt;Iterable -->
<g id="edge34" class="edge"><title>List&#45;&gt;Iterable</title>
<path fill="none" stroke="#6666ff" d="M1093.82,-104.166C1106.71,-114.191 1124.72,-128.195 1139.63,-139.793"/>
<polygon fill="#6666ff" stroke="#6666ff" points="1137.5,-142.572 1147.54,-145.948 1141.8,-137.046 1137.5,-142.572"/>
</g>
<!-- List&#45;&gt;Positional -->
<g id="edge33" class="edge"><title>List&#45;&gt;Positional</title>
<path fill="none" stroke="#6666ff" d="M1072.78,-107.945C1070.89,-115.739 1068.6,-125.178 1066.47,-133.921"/>
<polygon fill="#6666ff" stroke="#6666ff" points="1063.05,-133.181 1064.09,-143.725 1069.85,-134.833 1063.05,-133.181"/>
</g>
<!-- Duration -->
<g id="node22" class="node"><title>Duration</title>
<g id="a_node22"><a xlink:href="/type/Duration" xlink:title="Duration">
<ellipse fill="none" stroke="#000000" cx="405.896" cy="-90" rx="44.393" ry="18"/>
<text text-anchor="middle" x="405.896" y="-86.3" font-family="FreeSans" font-size="14.00" fill="#000000">Duration</text>
</a>
</g>
</g>
<!-- Duration&#45;&gt;Cool -->
<g id="edge13" class="edge"><title>Duration&#45;&gt;Cool</title>
<path fill="none" stroke="#000000" d="M439.462,-101.766C449.98,-105.14 458.896,-108 458.896,-108 458.896,-108 618.896,-144 618.896,-144 618.896,-144 621.327,-145.088 624.959,-146.712"/>
<polygon fill="#000000" stroke="#000000" points="623.795,-150.026 634.352,-150.915 626.653,-143.636 623.795,-150.026"/>
</g>
<!-- Duration&#45;&gt;Real -->
<g id="edge35" class="edge"><title>Duration&#45;&gt;Real</title>
<path fill="none" stroke="#6666ff" d="M381.815,-105.166C362.733,-116.39 336.01,-132.11 315.778,-144.011"/>
<polygon fill="#6666ff" stroke="#6666ff" points="313.835,-141.093 306.99,-149.18 317.384,-147.126 313.835,-141.093"/>
</g>
<!-- IO -->
<g id="node23" class="node"><title>IO</title>
<g id="a_node23"><a xlink:href="/type/IO" xlink:title="IO">
<ellipse fill="none" stroke="#6666ff" cx="1380.9" cy="-162" rx="27" ry="18"/>
<text text-anchor="middle" x="1380.9" y="-158.3" font-family="FreeSans" font-size="14.00" fill="#6666ff">IO</text>
</a>
</g>
</g>
<!-- IO::Path -->
<g id="node24" class="node"><title>IO::Path</title>
<g id="a_node24"><a xlink:href="/type/IO::Path" xlink:title="IO::Path">
<ellipse fill="none" stroke="#000000" cx="1318.9" cy="-90" rx="43.5923" ry="18"/>
<text text-anchor="middle" x="1318.9" y="-86.3" font-family="FreeSans" font-size="14.00" fill="#000000">IO::Path</text>
</a>
</g>
</g>
<!-- IO::Path&#45;&gt;Cool -->
<g id="edge14" class="edge"><title>IO::Path&#45;&gt;Cool</title>
<path fill="none" stroke="#000000" d="M1278.7,-96.9936C1245.88,-101.888 1204.9,-108 1204.9,-108 1204.9,-108 694.896,-144 694.896,-144 694.896,-144 692.465,-145.088 688.833,-146.712"/>
<polygon fill="#000000" stroke="#000000" points="687.139,-143.636 679.44,-150.915 689.998,-150.026 687.139,-143.636"/>
</g>
<!-- IO::Path&#45;&gt;IO -->
<g id="edge36" class="edge"><title>IO::Path&#45;&gt;IO</title>
<path fill="none" stroke="#6666ff" d="M1333.28,-107.235C1341.41,-116.414 1351.7,-128.036 1360.64,-138.125"/>
<polygon fill="#6666ff" stroke="#6666ff" points="1358.19,-140.646 1367.44,-145.811 1363.43,-136.005 1358.19,-140.646"/>
</g>
<!-- Rat -->
<g id="node25" class="node"><title>Rat</title>
<g id="a_node25"><a xlink:href="/type/Rat" xlink:title="Rat">
<ellipse fill="none" stroke="#000000" cx="349.896" cy="-18" rx="27" ry="18"/>
<text text-anchor="middle" x="349.896" y="-14.3" font-family="FreeSans" font-size="14.00" fill="#000000">Rat</text>
</a>
</g>
</g>
<!-- Rat&#45;&gt;Cool -->
<g id="edge15" class="edge"><title>Rat&#45;&gt;Cool</title>
<path fill="none" stroke="#000000" d="M375.543,-23.7034C446.272,-36.6745 638.896,-72 638.896,-72 638.896,-72 646.143,-107.833 651.441,-134.025"/>
<polygon fill="#000000" stroke="#000000" points="648.013,-134.732 653.426,-143.84 654.874,-133.345 648.013,-134.732"/>
</g>
<!-- Rat&#45;&gt;Rational -->
<g id="edge37" class="edge"><title>Rat&#45;&gt;Rational</title>
<path fill="none" stroke="#6666ff" d="M324.514,-24.2756C260.014,-37.6813 94.8962,-72 94.8962,-72 94.8962,-72 91.1288,-73.2316 85.6221,-75.0319"/>
<polygon fill="#6666ff" stroke="#6666ff" points="84.2459,-71.7995 75.8286,-78.2336 86.4212,-78.4529 84.2459,-71.7995"/>
</g>
<!-- Instant -->
<g id="node26" class="node"><title>Instant</title>
<g id="a_node26"><a xlink:href="/type/Instant" xlink:title="Instant">
<ellipse fill="none" stroke="#000000" cx="504.896" cy="-90" rx="37.0935" ry="18"/>
<text text-anchor="middle" x="504.896" y="-86.3" font-family="FreeSans" font-size="14.00" fill="#000000">Instant</text>
</a>
</g>
</g>
<!-- Instant&#45;&gt;Cool -->
<g id="edge16" class="edge"><title>Instant&#45;&gt;Cool</title>
<path fill="none" stroke="#000000" d="M531.026,-103.033C557.145,-115.062 597.335,-133.571 625.247,-146.425"/>
<polygon fill="#000000" stroke="#000000" points="624.018,-149.712 634.565,-150.716 626.946,-143.354 624.018,-149.712"/>
</g>
<!-- Instant&#45;&gt;Real -->
<g id="edge38" class="edge"><title>Instant&#45;&gt;Real</title>
<path fill="none" stroke="#6666ff" d="M476.287,-101.573C466.932,-105.03 458.896,-108 458.896,-108 458.896,-108 372.443,-134.64 322.121,-150.146"/>
<polygon fill="#6666ff" stroke="#6666ff" points="320.801,-146.89 312.275,-153.18 322.863,-153.58 320.801,-146.89"/>
</g>
<!-- Capture -->
<g id="node27" class="node"><title>Capture</title>
<g id="a_node27"><a xlink:href="/type/Capture" xlink:title="Capture">
<ellipse fill="none" stroke="#000000" cx="567.896" cy="-162" rx="42.4939" ry="18"/>
<text text-anchor="middle" x="567.896" y="-158.3" font-family="FreeSans" font-size="14.00" fill="#000000">Capture</text>
</a>
</g>
</g>
<!-- Capture&#45;&gt;Any -->
<g id="edge17" class="edge"><title>Capture&#45;&gt;Any</title>
<path fill="none" stroke="#000000" d="M578.324,-179.589C583.716,-188.168 590.405,-198.809 596.39,-208.33"/>
<polygon fill="#000000" stroke="#000000" points="593.562,-210.408 601.847,-217.012 599.488,-206.683 593.562,-210.408"/>
</g>
<!-- Match -->
<g id="node28" class="node"><title>Match</title>
<g id="a_node28"><a xlink:href="/type/Match" xlink:title="Match">
<ellipse fill="none" stroke="#000000" cx="594.896" cy="-90" rx="35.194" ry="18"/>
<text text-anchor="middle" x="594.896" y="-86.3" font-family="FreeSans" font-size="14.00" fill="#000000">Match</text>
</a>
</g>
</g>
<!-- Match&#45;&gt;Cool -->
<g id="edge19" class="edge"><title>Match&#45;&gt;Cool</title>
<path fill="none" stroke="#000000" d="M608.965,-106.884C617.084,-116.051 627.438,-127.741 636.444,-137.909"/>
<polygon fill="#000000" stroke="#000000" points="634.059,-140.495 643.309,-145.66 639.299,-135.853 634.059,-140.495"/>
</g>
<!-- Match&#45;&gt;Capture -->
<g id="edge18" class="edge"><title>Match&#45;&gt;Capture</title>
<path fill="none" stroke="#000000" d="M588.36,-107.945C585.276,-115.941 581.524,-125.669 578.079,-134.6"/>
<polygon fill="#000000" stroke="#000000" points="574.705,-133.621 574.372,-144.211 581.236,-136.141 574.705,-133.621"/>
</g>
</g>
</svg>
