<?xml version="1.0" encoding="UTF-8" standalone="no"?>
<!DOCTYPE svg PUBLIC "-//W3C//DTD SVG 1.1//EN"
 "http://www.w3.org/Graphics/SVG/1.1/DTD/svg11.dtd">
<!-- Generated by graphviz version 2.38.0 (20140413.2041)
 -->
<!-- Title: perl6&#45;type&#45;graph Pages: 1 -->
<svg width="2214pt" height="1427pt"
 viewBox="0.00 0.00 2213.77 1427.34" xmlns="http://www.w3.org/2000/svg" xmlns:xlink="http://www.w3.org/1999/xlink">
<g id="graph0" class="graph" transform="scale(1 1) rotate(0) translate(1089.48 722.142)">
<title>perl6&#45;type&#45;graph</title>
<polygon fill="white" stroke="none" points="-1089.48,705.203 -1089.48,-722.142 1124.29,-722.142 1124.29,705.203 -1089.48,705.203"/>
<!-- Metamodel::RoleContainer -->
<g id="node1" class="node"><title>Metamodel::RoleContainer</title>
<g id="a_node1"><a xlink:href="/type/Metamodel::RoleContainer" xlink:title="Metamodel::RoleContainer">
<ellipse fill="none" stroke="#6666ff" cx="-495.65" cy="-321.429" rx="115.88" ry="18"/>
<text text-anchor="middle" x="-495.65" y="-317.729" font-family="FreeSans" font-size="14.00" fill="#6666ff">Metamodel::RoleContainer</text>
</a>
</g>
</g>
<!-- Mu -->
<g id="node2" class="node"><title>Mu</title>
<g id="a_node2"><a xlink:href="/type/Mu" xlink:title="Mu">
<ellipse fill="none" stroke="#000000" cx="1009.09" cy="573.781" rx="27" ry="18"/>
<text text-anchor="middle" x="1009.09" y="577.481" font-family="FreeSans" font-size="14.00" fill="#000000">Mu</text>
</a>
</g>
</g>
<!-- Any -->
<g id="node3" class="node"><title>Any</title>
<g id="a_node3"><a xlink:href="/type/Any" xlink:title="Any">
<ellipse fill="none" stroke="#000000" cx="1007.38" cy="5.68486" rx="27" ry="18"/>
<text text-anchor="middle" x="1007.38" y="9.38486" font-family="FreeSans" font-size="14.00" fill="#000000">Any</text>
</a>
</g>
</g>
<!-- Any&#45;&gt;Mu -->
<g id="edge1" class="edge"><title>Any&#45;&gt;Mu</title>
<path fill="none" stroke="#000000" d="M1007.43,23.943C1007.68,106.493 1008.7,445.158 1009,545.586"/>
<polygon fill="#000000" stroke="#000000" points="1012.5,545.58 1009.03,555.591 1005.5,545.602 1012.5,545.58"/>
</g>
<!-- Metamodel::Naming -->
<g id="node4" class="node"><title>Metamodel::Naming</title>
<g id="a_node4"><a xlink:href="/type/Metamodel::Naming" xlink:title="Metamodel::Naming">
<ellipse fill="none" stroke="#6666ff" cx="-243.251" cy="-47.4054" rx="90.1842" ry="18"/>
<text text-anchor="middle" x="-243.251" y="-43.7054" font-family="FreeSans" font-size="14.00" fill="#6666ff">Metamodel::Naming</text>
</a>
</g>
</g>
<!-- Metamodel::Stashing -->
<g id="node5" class="node"><title>Metamodel::Stashing</title>
<g id="a_node5"><a xlink:href="/type/Metamodel::Stashing" xlink:title="Metamodel::Stashing">
<ellipse fill="none" stroke="#6666ff" cx="561.662" cy="309.883" rx="93.6835" ry="18"/>
<text text-anchor="middle" x="561.662" y="313.583" font-family="FreeSans" font-size="14.00" fill="#6666ff">Metamodel::Stashing</text>
</a>
</g>
</g>
<!-- Metamodel::AttributeContainer -->
<g id="node6" class="node"><title>Metamodel::AttributeContainer</title>
<g id="a_node6"><a xlink:href="/type/Metamodel::AttributeContainer" xlink:title="Metamodel::AttributeContainer">
<ellipse fill="none" stroke="#6666ff" cx="214.66" cy="-208.633" rx="129.977" ry="18"/>
<text text-anchor="middle" x="214.66" y="-204.933" font-family="FreeSans" font-size="14.00" fill="#6666ff">Metamodel::AttributeContainer</text>
</a>
</g>
</g>
<!-- Metamodel::MethodContainer -->
<g id="node7" class="node"><title>Metamodel::MethodContainer</title>
<g id="a_node7"><a xlink:href="/type/Metamodel::MethodContainer" xlink:title="Metamodel::MethodContainer">
<ellipse fill="none" stroke="#6666ff" cx="2.01015" cy="17.2994" rx="127.277" ry="18"/>
<text text-anchor="middle" x="2.01015" y="20.9994" font-family="FreeSans" font-size="14.00" fill="#6666ff">Metamodel::MethodContainer</text>
</a>
</g>
</g>
<!-- Metamodel::MultiMethodContainer -->
<g id="node8" class="node"><title>Metamodel::MultiMethodContainer</title>
<g id="a_node8"><a xlink:href="/type/Metamodel::MultiMethodContainer" xlink:title="Metamodel::MultiMethodContainer">
<ellipse fill="none" stroke="#6666ff" cx="255.937" cy="110.871" rx="146.474" ry="18"/>
<text text-anchor="middle" x="255.937" y="114.571" font-family="FreeSans" font-size="14.00" fill="#6666ff">Metamodel::MultiMethodContainer</text>
</a>
</g>
</g>
<!-- Metamodel::BaseType -->
<g id="node9" class="node"><title>Metamodel::BaseType</title>
<g id="a_node9"><a xlink:href="/type/Metamodel::BaseType" xlink:title="Metamodel::BaseType">
<ellipse fill="none" stroke="#6666ff" cx="565.98" cy="683.203" rx="99.3824" ry="18"/>
<text text-anchor="middle" x="565.98" y="686.903" font-family="FreeSans" font-size="14.00" fill="#6666ff">Metamodel::BaseType</text>
</a>
</g>
</g>
<!-- Metamodel::MROBasedMethodDispatch -->
<g id="node10" class="node"><title>Metamodel::MROBasedMethodDispatch</title>
<g id="a_node10"><a xlink:href="/type/Metamodel::MROBasedMethodDispatch" xlink:title="Metamodel::MROBasedMethodDispatch">
<ellipse fill="none" stroke="#6666ff" cx="-113.91" cy="667.948" rx="169.77" ry="18"/>
<text text-anchor="middle" x="-113.91" y="671.648" font-family="FreeSans" font-size="14.00" fill="#6666ff">Metamodel::MROBasedMethodDispatch</text>
</a>
</g>
</g>
<!-- Metamodel::MROBasedTypeChecking -->
<g id="node11" class="node"><title>Metamodel::MROBasedTypeChecking</title>
<g id="a_node11"><a xlink:href="/type/Metamodel::MROBasedTypeChecking" xlink:title="Metamodel::MROBasedTypeChecking">
<ellipse fill="none" stroke="#6666ff" cx="-475.694" cy="677.83" rx="163.271" ry="18"/>
<text text-anchor="middle" x="-475.694" y="681.53" font-family="FreeSans" font-size="14.00" fill="#6666ff">Metamodel::MROBasedTypeChecking</text>
</a>
</g>
</g>
<!-- Metamodel::BUILDPLAN -->
<g id="node12" class="node"><title>Metamodel::BUILDPLAN</title>
<g id="a_node12"><a xlink:href="/type/Metamodel::BUILDPLAN" xlink:title="Metamodel::BUILDPLAN">
<ellipse fill="none" stroke="#6666ff" cx="-214.571" cy="285.127" rx="109.681" ry="18"/>
<text text-anchor="middle" x="-214.571" y="288.827" font-family="FreeSans" font-size="14.00" fill="#6666ff">Metamodel::BUILDPLAN</text>
</a>
</g>
</g>
<!-- Metamodel::BoolificationProtocol -->
<g id="node13" class="node"><title>Metamodel::BoolificationProtocol</title>
<g id="a_node13"><a xlink:href="/type/Metamodel::BoolificationProtocol" xlink:title="Metamodel::BoolificationProtocol">
<ellipse fill="none" stroke="#6666ff" cx="207.646" cy="661.419" rx="139.175" ry="18"/>
<text text-anchor="middle" x="207.646" y="665.119" font-family="FreeSans" font-size="14.00" fill="#6666ff">Metamodel::BoolificationProtocol</text>
</a>
</g>
</g>
<!-- Metamodel::EnumHOW -->
<g id="node14" class="node"><title>Metamodel::EnumHOW</title>
<g id="a_node14"><a xlink:href="/type/Metamodel::EnumHOW" xlink:title="Metamodel::EnumHOW">
<ellipse fill="none" stroke="#000000" cx="101.356" cy="338.573" rx="104.782" ry="18"/>
<text text-anchor="middle" x="101.356" y="342.273" font-family="FreeSans" font-size="14.00" fill="#000000">Metamodel::EnumHOW</text>
</a>
</g>
</g>
<!-- Metamodel::EnumHOW&#45;&gt;Metamodel::RoleContainer -->
<g id="edge11" class="edge"><title>Metamodel::EnumHOW&#45;&gt;Metamodel::RoleContainer</title>
<path fill="none" stroke="#6666ff" d="M81.176,320.733C-4.67996,244.833 -335.193,-47.3546 -335.193,-47.3546 -335.193,-47.3546 -439.392,-225.335 -479.853,-294.446"/>
<polygon fill="#6666ff" stroke="#6666ff" points="-483.09,-293.048 -485.122,-303.446 -477.049,-296.584 -483.09,-293.048"/>
</g>
<!-- Metamodel::EnumHOW&#45;&gt;Any -->
<g id="edge2" class="edge"><title>Metamodel::EnumHOW&#45;&gt;Any</title>
<path fill="none" stroke="#000000" d="M145.977,322.179C303.904,264.153 834.339,69.2615 973.637,18.081"/>
<polygon fill="#000000" stroke="#000000" points="972.754,14.6766 983.348,14.513 975.168,21.2471 972.754,14.6766"/>
</g>
<!-- Metamodel::EnumHOW&#45;&gt;Metamodel::Naming -->
<g id="edge6" class="edge"><title>Metamodel::EnumHOW&#45;&gt;Metamodel::Naming</title>
<path fill="none" stroke="#6666ff" d="M85.4261,320.731C29.9817,258.63 -154.716,51.7587 -220.081,-21.4538"/>
<polygon fill="#6666ff" stroke="#6666ff" points="-223.044,-19.5165 -227.093,-29.3071 -217.822,-24.1785 -223.044,-19.5165"/>
</g>
<!-- Metamodel::EnumHOW&#45;&gt;Metamodel::Stashing -->
<g id="edge7" class="edge"><title>Metamodel::EnumHOW&#45;&gt;Metamodel::Stashing</title>
<path fill="none" stroke="#6666ff" d="M199.821,332.436C277.164,327.616 384.409,320.931 462.046,316.092"/>
<polygon fill="#6666ff" stroke="#6666ff" points="462.121,312.581 472.319,315.452 462.556,319.567 462.121,312.581"/>
</g>
<!-- Metamodel::EnumHOW&#45;&gt;Metamodel::AttributeContainer -->
<g id="edge8" class="edge"><title>Metamodel::EnumHOW&#45;&gt;Metamodel::AttributeContainer</title>
<path fill="none" stroke="#6666ff" d="M101.897,320.332C103.498,266.323 108.102,110.971 108.102,110.971 108.102,110.971 179.526,-103.255 205.423,-180.929"/>
<polygon fill="#6666ff" stroke="#6666ff" points="202.142,-182.154 208.626,-190.534 208.783,-179.94 202.142,-182.154"/>
</g>
<!-- Metamodel::EnumHOW&#45;&gt;Metamodel::MethodContainer -->
<g id="edge9" class="edge"><title>Metamodel::EnumHOW&#45;&gt;Metamodel::MethodContainer</title>
<path fill="none" stroke="#6666ff" d="M95.7302,320.38C79.1663,266.814 30.4945,109.415 10.6161,45.13"/>
<polygon fill="#6666ff" stroke="#6666ff" points="7.18488,45.8812 7.57436,35.2935 13.8724,43.8131 7.18488,45.8812"/>
</g>
<!-- Metamodel::EnumHOW&#45;&gt;Metamodel::MultiMethodContainer -->
<g id="edge10" class="edge"><title>Metamodel::EnumHOW&#45;&gt;Metamodel::MultiMethodContainer</title>
<path fill="none" stroke="#6666ff" d="M113.745,320.324C141.004,280.171 206.272,184.029 238.005,137.285"/>
<polygon fill="#6666ff" stroke="#6666ff" points="235.191,135.199 243.704,128.891 240.983,139.13 235.191,135.199"/>
</g>
<!-- Metamodel::EnumHOW&#45;&gt;Metamodel::BaseType -->
<g id="edge12" class="edge"><title>Metamodel::EnumHOW&#45;&gt;Metamodel::BaseType</title>
<path fill="none" stroke="#6666ff" d="M125.036,356.137C202.17,413.351 446.275,594.412 534.106,659.56"/>
<polygon fill="#6666ff" stroke="#6666ff" points="536.402,656.905 542.348,665.674 532.231,662.527 536.402,656.905"/>
</g>
<!-- Metamodel::EnumHOW&#45;&gt;Metamodel::MROBasedMethodDispatch -->
<g id="edge13" class="edge"><title>Metamodel::EnumHOW&#45;&gt;Metamodel::MROBasedMethodDispatch</title>
<path fill="none" stroke="#6666ff" d="M89.4759,356.751C53.5304,411.751 -54.1892,576.571 -96.5385,641.368"/>
<polygon fill="#6666ff" stroke="#6666ff" points="-93.6654,643.37 -102.066,649.826 -99.5249,639.54 -93.6654,643.37"/>
</g>
<!-- Metamodel::EnumHOW&#45;&gt;Metamodel::MROBasedTypeChecking -->
<g id="edge14" class="edge"><title>Metamodel::EnumHOW&#45;&gt;Metamodel::MROBasedTypeChecking</title>
<path fill="none" stroke="#6666ff" d="M71.9467,355.864C-23.9997,412.272 -327.962,590.976 -436.612,654.853"/>
<polygon fill="#6666ff" stroke="#6666ff" points="-434.909,657.912 -445.304,659.963 -438.457,651.878 -434.909,657.912"/>
</g>
<!-- Metamodel::EnumHOW&#45;&gt;Metamodel::BUILDPLAN -->
<g id="edge15" class="edge"><title>Metamodel::EnumHOW&#45;&gt;Metamodel::BUILDPLAN</title>
<path fill="none" stroke="#6666ff" d="M26.4859,325.907C-19.8497,318.069 -79.52,307.974 -127.9,299.79"/>
<polygon fill="#6666ff" stroke="#6666ff" points="-128.767,303.193 -138.043,298.074 -127.6,296.291 -128.767,303.193"/>
</g>
<!-- Metamodel::EnumHOW&#45;&gt;Metamodel::BoolificationProtocol -->
<g id="edge16" class="edge"><title>Metamodel::EnumHOW&#45;&gt;Metamodel::BoolificationProtocol</title>
<path fill="none" stroke="#6666ff" d="M107.375,356.856C125.097,410.684 177.171,568.853 198.439,633.452"/>
<polygon fill="#6666ff" stroke="#6666ff" points="201.89,632.744 201.693,643.337 195.241,634.933 201.89,632.744"/>
</g>
<!-- Metamodel::Documenting -->
<g id="node15" class="node"><title>Metamodel::Documenting</title>
<g id="a_node15"><a xlink:href="/type/Metamodel::Documenting" xlink:title="Metamodel::Documenting">
<ellipse fill="none" stroke="#6666ff" cx="-446.109" cy="-669.287" rx="111.28" ry="18"/>
<text text-anchor="middle" x="-446.109" y="-665.587" font-family="FreeSans" font-size="14.00" fill="#6666ff">Metamodel::Documenting</text>
</a>
</g>
</g>
<!-- Metamodel::Versioning -->
<g id="node16" class="node"><title>Metamodel::Versioning</title>
<g id="a_node16"><a xlink:href="/type/Metamodel::Versioning" xlink:title="Metamodel::Versioning">
<ellipse fill="none" stroke="#6666ff" cx="543.937" cy="-0.25288" rx="100.983" ry="18"/>
<text text-anchor="middle" x="543.937" y="3.44712" font-family="FreeSans" font-size="14.00" fill="#6666ff">Metamodel::Versioning</text>
</a>
</g>
</g>
<!-- Metamodel::Finalization -->
<g id="node17" class="node"><title>Metamodel::Finalization</title>
<g id="a_node17"><a xlink:href="/type/Metamodel::Finalization" xlink:title="Metamodel::Finalization">
<ellipse fill="none" stroke="#6666ff" cx="-958.94" cy="636.877" rx="103.982" ry="18"/>
<text text-anchor="middle" x="-958.94" y="640.577" font-family="FreeSans" font-size="14.00" fill="#6666ff">Metamodel::Finalization</text>
</a>
</g>
</g>
<!-- Metamodel::PrivateMethodContainer -->
<g id="node18" class="node"><title>Metamodel::PrivateMethodContainer</title>
<g id="a_node18"><a xlink:href="/type/Metamodel::PrivateMethodContainer" xlink:title="Metamodel::PrivateMethodContainer">
<ellipse fill="none" stroke="#6666ff" cx="-51.3154" cy="-700.142" rx="154.873" ry="18"/>
<text text-anchor="middle" x="-51.3154" y="-696.442" font-family="FreeSans" font-size="14.00" fill="#6666ff">Metamodel::PrivateMethodContainer</text>
</a>
</g>
</g>
<!-- Metamodel::MultipleInheritance -->
<g id="node19" class="node"><title>Metamodel::MultipleInheritance</title>
<g id="a_node19"><a xlink:href="/type/Metamodel::MultipleInheritance" xlink:title="Metamodel::MultipleInheritance">
<ellipse fill="none" stroke="#6666ff" cx="-103.785" cy="-329.857" rx="133.776" ry="18"/>
<text text-anchor="middle" x="-103.785" y="-326.157" font-family="FreeSans" font-size="14.00" fill="#6666ff">Metamodel::MultipleInheritance</text>
</a>
</g>
</g>
<!-- Metamodel::DefaultParent -->
<g id="node20" class="node"><title>Metamodel::DefaultParent</title>
<g id="a_node20"><a xlink:href="/type/Metamodel::DefaultParent" xlink:title="Metamodel::DefaultParent">
<ellipse fill="none" stroke="#6666ff" cx="-972.39" cy="-222.238" rx="113.18" ry="18"/>
<text text-anchor="middle" x="-972.39" y="-218.538" font-family="FreeSans" font-size="14.00" fill="#6666ff">Metamodel::DefaultParent</text>
</a>
</g>
</g>
<!-- Metamodel::C3MRO -->
<g id="node21" class="node"><title>Metamodel::C3MRO</title>
<g id="a_node21"><a xlink:href="/type/Metamodel::C3MRO" xlink:title="Metamodel::C3MRO">
<ellipse fill="none" stroke="#6666ff" cx="-560.154" cy="317.456" rx="92.0841" ry="18"/>
<text text-anchor="middle" x="-560.154" y="321.156" font-family="FreeSans" font-size="14.00" fill="#6666ff">Metamodel::C3MRO</text>
</a>
</g>
</g>
<!-- Metamodel::Trusting -->
<g id="node22" class="node"><title>Metamodel::Trusting</title>
<g id="a_node22"><a xlink:href="/type/Metamodel::Trusting" xlink:title="Metamodel::Trusting">
<ellipse fill="none" stroke="#6666ff" cx="-992.817" cy="187.565" rx="91.784" ry="18"/>
<text text-anchor="middle" x="-992.817" y="191.265" font-family="FreeSans" font-size="14.00" fill="#6666ff">Metamodel::Trusting</text>
</a>
</g>
</g>
<!-- Metamodel::Mixins -->
<g id="node23" class="node"><title>Metamodel::Mixins</title>
<g id="a_node23"><a xlink:href="/type/Metamodel::Mixins" xlink:title="Metamodel::Mixins">
<ellipse fill="none" stroke="#6666ff" cx="-944.735" cy="-641.966" rx="85.2851" ry="18"/>
<text text-anchor="middle" x="-944.735" y="-638.266" font-family="FreeSans" font-size="14.00" fill="#6666ff">Metamodel::Mixins</text>
</a>
</g>
</g>
<!-- Metamodel::ClassHOW -->
<g id="node24" class="node"><title>Metamodel::ClassHOW</title>
<g id="a_node24"><a xlink:href="/type/Metamodel::ClassHOW" xlink:title="Metamodel::ClassHOW">
<ellipse fill="none" stroke="#000000" cx="-562.497" cy="-5.85976" rx="103.982" ry="18"/>
<text text-anchor="middle" x="-562.497" y="-2.15976" font-family="FreeSans" font-size="14.00" fill="#000000">Metamodel::ClassHOW</text>
</a>
</g>
</g>
<!-- Metamodel::ClassHOW&#45;&gt;Metamodel::RoleContainer -->
<g id="edge26" class="edge"><title>Metamodel::ClassHOW&#45;&gt;Metamodel::RoleContainer</title>
<path fill="none" stroke="#6666ff" d="M-558.614,-24.1901C-547.446,-76.9142 -515.177,-229.247 -501.688,-292.923"/>
<polygon fill="#6666ff" stroke="#6666ff" points="-505.04,-293.99 -499.543,-303.048 -498.192,-292.539 -505.04,-293.99"/>
</g>
<!-- Metamodel::ClassHOW&#45;&gt;Any -->
<g id="edge3" class="edge"><title>Metamodel::ClassHOW&#45;&gt;Any</title>
<path fill="none" stroke="#000000" d="M-458.436,-5.20275C-295.537,-4.17425 1.27521,-2.30026 1.27521,-2.30026 1.27521,-2.30026 544.321,19.347 544.321,19.347 544.321,19.347 859.537,10.0467 969.821,6.79286"/>
<polygon fill="#000000" stroke="#000000" points="970.039,3.28501 980.138,6.48848 970.245,10.282 970.039,3.28501"/>
</g>
<!-- Metamodel::ClassHOW&#45;&gt;Metamodel::Naming -->
<g id="edge17" class="edge"><title>Metamodel::ClassHOW&#45;&gt;Metamodel::Naming</title>
<path fill="none" stroke="#6666ff" d="M-479.036,-16.7211C-432.909,-22.724 -375.699,-30.1692 -329.184,-36.2224"/>
<polygon fill="#6666ff" stroke="#6666ff" points="-329.494,-39.7114 -319.126,-37.5313 -328.591,-32.77 -329.494,-39.7114"/>
</g>
<!-- Metamodel::ClassHOW&#45;&gt;Metamodel::Stashing -->
<g id="edge20" class="edge"><title>Metamodel::ClassHOW&#45;&gt;Metamodel::Stashing</title>
<path fill="none" stroke="#6666ff" d="M-507.897,9.47589C-320.018,62.2453 299.184,236.161 498.942,292.267"/>
<polygon fill="#6666ff" stroke="#6666ff" points="500.015,288.933 508.696,295.007 498.122,295.672 500.015,288.933"/>
</g>
<!-- Metamodel::ClassHOW&#45;&gt;Metamodel::AttributeContainer -->
<g id="edge21" class="edge"><title>Metamodel::ClassHOW&#45;&gt;Metamodel::AttributeContainer</title>
<path fill="none" stroke="#6666ff" d="M-504.719,-20.9351C-364.881,-57.4211 -8.53565,-150.398 143.824,-190.151"/>
<polygon fill="#6666ff" stroke="#6666ff" points="143.001,-193.553 153.56,-192.691 144.768,-186.78 143.001,-193.553"/>
</g>
<!-- Metamodel::ClassHOW&#45;&gt;Metamodel::MethodContainer -->
<g id="edge23" class="edge"><title>Metamodel::ClassHOW&#45;&gt;Metamodel::MethodContainer</title>
<path fill="none" stroke="#6666ff" d="M-461.249,-1.706C-368.918,2.08194 -231.889,7.70358 -130.8,11.8508"/>
<polygon fill="#6666ff" stroke="#6666ff" points="-130.364,8.36568 -120.516,12.2727 -130.651,15.3598 -130.364,8.36568"/>
</g>
<!-- Metamodel::ClassHOW&#45;&gt;Metamodel::MultiMethodContainer -->
<g id="edge25" class="edge"><title>Metamodel::ClassHOW&#45;&gt;Metamodel::MultiMethodContainer</title>
<path fill="none" stroke="#6666ff" d="M-482.158,5.59882C-333.631,26.7828 -16.1467,72.0646 149.85,95.7403"/>
<polygon fill="#6666ff" stroke="#6666ff" points="150.669,92.3216 160.075,97.1986 149.681,99.2515 150.669,92.3216"/>
</g>
<!-- Metamodel::ClassHOW&#45;&gt;Metamodel::MROBasedMethodDispatch -->
<g id="edge30" class="edge"><title>Metamodel::ClassHOW&#45;&gt;Metamodel::MROBasedMethodDispatch</title>
<path fill="none" stroke="#6666ff" d="M-550.499,12.163C-488.633,105.09 -205.723,530.039 -131.685,641.248"/>
<polygon fill="#6666ff" stroke="#6666ff" points="-128.574,639.605 -125.945,649.869 -134.4,643.485 -128.574,639.605"/>
</g>
<!-- Metamodel::ClassHOW&#45;&gt;Metamodel::MROBasedTypeChecking -->
<g id="edge31" class="edge"><title>Metamodel::ClassHOW&#45;&gt;Metamodel::MROBasedTypeChecking</title>
<path fill="none" stroke="#6666ff" d="M-557.048,12.4473C-536.69,80.8345 -466.263,317.418 -466.263,317.418 -466.263,317.418 -472.714,563.932 -474.945,649.212"/>
<polygon fill="#6666ff" stroke="#6666ff" points="-471.453,649.557 -475.214,659.462 -478.451,649.374 -471.453,649.557"/>
</g>
<!-- Metamodel::ClassHOW&#45;&gt;Metamodel::BUILDPLAN -->
<g id="edge33" class="edge"><title>Metamodel::ClassHOW&#45;&gt;Metamodel::BUILDPLAN</title>
<path fill="none" stroke="#6666ff" d="M-541.257,11.9047C-481.569,61.8242 -312.245,203.438 -243.807,260.675"/>
<polygon fill="#6666ff" stroke="#6666ff" points="-241.401,258.125 -235.975,267.225 -245.892,263.495 -241.401,258.125"/>
</g>
<!-- Metamodel::ClassHOW&#45;&gt;Metamodel::BoolificationProtocol -->
<g id="edge35" class="edge"><title>Metamodel::ClassHOW&#45;&gt;Metamodel::BoolificationProtocol</title>
<path fill="none" stroke="#6666ff" d="M-547.704,12.3514C-495.931,76.0858 -326.008,285.265 -326.008,285.265 -326.008,285.265 56.8119,555.101 173.979,637.688"/>
<polygon fill="#6666ff" stroke="#6666ff" points="176.109,634.907 182.266,643.529 172.076,640.629 176.109,634.907"/>
</g>
<!-- Metamodel::ClassHOW&#45;&gt;Metamodel::Documenting -->
<g id="edge18" class="edge"><title>Metamodel::ClassHOW&#45;&gt;Metamodel::Documenting</title>
<path fill="none" stroke="#6666ff" d="M-565.427,-24.1847C-576.192,-91.5149 -612.938,-321.336 -612.938,-321.336 -612.938,-321.336 -498.65,-559.702 -459.263,-641.852"/>
<polygon fill="#6666ff" stroke="#6666ff" points="-462.323,-643.565 -454.844,-651.069 -456.011,-640.539 -462.323,-643.565"/>
</g>
<!-- Metamodel::ClassHOW&#45;&gt;Metamodel::Versioning -->
<g id="edge19" class="edge"><title>Metamodel::ClassHOW&#45;&gt;Metamodel::Versioning</title>
<path fill="none" stroke="#6666ff" d="M-458.407,-5.33228C-249.633,-4.27431 218.537,-1.90185 432.915,-0.815487"/>
<polygon fill="#6666ff" stroke="#6666ff" points="432.947,-4.31547 442.93,-0.764738 432.912,2.68444 432.947,-4.31547"/>
</g>
<!-- Metamodel::ClassHOW&#45;&gt;Metamodel::Finalization -->
<g id="edge22" class="edge"><title>Metamodel::ClassHOW&#45;&gt;Metamodel::Finalization</title>
<path fill="none" stroke="#6666ff" d="M-573.723,12.3408C-629.433,102.661 -876.165,502.676 -942.482,610.194"/>
<polygon fill="#6666ff" stroke="#6666ff" points="-939.583,612.161 -947.812,618.835 -945.541,608.486 -939.583,612.161"/>
</g>
<!-- Metamodel::ClassHOW&#45;&gt;Metamodel::PrivateMethodContainer -->
<g id="edge24" class="edge"><title>Metamodel::ClassHOW&#45;&gt;Metamodel::PrivateMethodContainer</title>
<path fill="none" stroke="#6666ff" d="M-549.348,-23.7196C-479.668,-118.358 -153.64,-561.167 -70.5993,-673.951"/>
<polygon fill="#6666ff" stroke="#6666ff" points="-73.3603,-676.104 -64.6128,-682.082 -67.7234,-671.954 -73.3603,-676.104"/>
</g>
<!-- Metamodel::ClassHOW&#45;&gt;Metamodel::MultipleInheritance -->
<g id="edge27" class="edge"><title>Metamodel::ClassHOW&#45;&gt;Metamodel::MultipleInheritance</title>
<path fill="none" stroke="#6666ff" d="M-537.509,-23.5093C-460.25,-78.0787 -225.166,-244.123 -137.349,-306.15"/>
<polygon fill="#6666ff" stroke="#6666ff" points="-139.265,-309.082 -129.077,-311.993 -135.226,-303.365 -139.265,-309.082"/>
</g>
<!-- Metamodel::ClassHOW&#45;&gt;Metamodel::DefaultParent -->
<g id="edge28" class="edge"><title>Metamodel::ClassHOW&#45;&gt;Metamodel::DefaultParent</title>
<path fill="none" stroke="#6666ff" d="M-595.003,-23.0194C-668.754,-61.9516 -848.69,-156.938 -930.577,-200.165"/>
<polygon fill="#6666ff" stroke="#6666ff" points="-932.387,-197.162 -939.596,-204.926 -929.119,-203.353 -932.387,-197.162"/>
</g>
<!-- Metamodel::ClassHOW&#45;&gt;Metamodel::C3MRO -->
<g id="edge29" class="edge"><title>Metamodel::ClassHOW&#45;&gt;Metamodel::C3MRO</title>
<path fill="none" stroke="#6666ff" d="M-562.365,12.4494C-561.975,66.2444 -560.831,224.102 -560.36,289.047"/>
<polygon fill="#6666ff" stroke="#6666ff" points="-556.858,289.322 -560.285,299.347 -563.858,289.373 -556.858,289.322"/>
</g>
<!-- Metamodel::ClassHOW&#45;&gt;Metamodel::Trusting -->
<g id="edge32" class="edge"><title>Metamodel::ClassHOW&#45;&gt;Metamodel::Trusting</title>
<path fill="none" stroke="#6666ff" d="M-599.933,10.9671C-678.671,46.3593 -861.199,128.404 -946.864,166.91"/>
<polygon fill="#6666ff" stroke="#6666ff" points="-945.524,170.145 -956.079,171.052 -948.393,163.76 -945.524,170.145"/>
</g>
<!-- Metamodel::ClassHOW&#45;&gt;Metamodel::Mixins -->
<g id="edge34" class="edge"><title>Metamodel::ClassHOW&#45;&gt;Metamodel::Mixins</title>
<path fill="none" stroke="#6666ff" d="M-573.321,-23.8725C-626.976,-113.163 -864.403,-508.28 -928.655,-615.207"/>
<polygon fill="#6666ff" stroke="#6666ff" points="-931.673,-613.433 -933.823,-623.807 -925.673,-617.038 -931.673,-613.433"/>
</g>
<!-- Metamodel::ConcreteRoleHOW -->
<g id="node25" class="node"><title>Metamodel::ConcreteRoleHOW</title>
<g id="a_node25"><a xlink:href="/type/Metamodel::ConcreteRoleHOW" xlink:title="Metamodel::ConcreteRoleHOW">
<ellipse fill="none" stroke="#000000" cx="593.329" cy="-300.144" rx="135.676" ry="18"/>
<text text-anchor="middle" x="593.329" y="-296.444" font-family="FreeSans" font-size="14.00" fill="#000000">Metamodel::ConcreteRoleHOW</text>
</a>
</g>
</g>
<!-- Metamodel::ConcreteRoleHOW&#45;&gt;Metamodel::RoleContainer -->
<g id="edge42" class="edge"><title>Metamodel::ConcreteRoleHOW&#45;&gt;Metamodel::RoleContainer</title>
<path fill="none" stroke="#6666ff" d="M458.265,-302.106C255.8,-305.047 -102.893,-310.257 -102.893,-310.257 -102.893,-310.257 -256.399,-314.624 -371.475,-317.897"/>
<polygon fill="#6666ff" stroke="#6666ff" points="-371.888,-314.407 -381.785,-318.19 -371.689,-321.404 -371.888,-314.407"/>
</g>
<!-- Metamodel::ConcreteRoleHOW&#45;&gt;Any -->
<g id="edge4" class="edge"><title>Metamodel::ConcreteRoleHOW&#45;&gt;Any</title>
<path fill="none" stroke="#000000" d="M617.38,-282.38C689.838,-228.86 905.679,-69.4319 981.049,-13.7605"/>
<polygon fill="#000000" stroke="#000000" points="983.157,-16.5548 989.121,-7.79813 978.998,-10.9242 983.157,-16.5548"/>
</g>
<!-- Metamodel::ConcreteRoleHOW&#45;&gt;Metamodel::Naming -->
<g id="edge36" class="edge"><title>Metamodel::ConcreteRoleHOW&#45;&gt;Metamodel::Naming</title>
<path fill="none" stroke="#6666ff" d="M547.434,-283.17C475.979,-256.742 346.246,-208.76 346.246,-208.76 346.246,-208.76 308.308,-194.864 308.308,-194.864 308.308,-194.864 -34.2189,-103.29 -179.419,-64.4708"/>
<polygon fill="#6666ff" stroke="#6666ff" points="-178.544,-61.0819 -189.109,-61.8803 -180.352,-67.8444 -178.544,-61.0819"/>
</g>
<!-- Metamodel::ConcreteRoleHOW&#45;&gt;Metamodel::AttributeContainer -->
<g id="edge41" class="edge"><title>Metamodel::ConcreteRoleHOW&#45;&gt;Metamodel::AttributeContainer</title>
<path fill="none" stroke="#6666ff" d="M527.802,-284.309C461.424,-268.267 358.893,-243.489 289.391,-226.693"/>
<polygon fill="#6666ff" stroke="#6666ff" points="289.927,-223.222 279.385,-224.275 288.283,-230.026 289.927,-223.222"/>
</g>
<!-- Metamodel::ConcreteRoleHOW&#45;&gt;Metamodel::MethodContainer -->
<g id="edge39" class="edge"><title>Metamodel::ConcreteRoleHOW&#45;&gt;Metamodel::MethodContainer</title>
<path fill="none" stroke="#6666ff" d="M560.695,-282.625C460.138,-228.642 155.099,-64.8846 43.4889,-4.96802"/>
<polygon fill="#6666ff" stroke="#6666ff" points="45.0096,-1.81198 34.5435,-0.165751 41.6987,-7.97946 45.0096,-1.81198"/>
</g>
<!-- Metamodel::ConcreteRoleHOW&#45;&gt;Metamodel::MultiMethodContainer -->
<g id="edge40" class="edge"><title>Metamodel::ConcreteRoleHOW&#45;&gt;Metamodel::MultiMethodContainer</title>
<path fill="none" stroke="#6666ff" d="M578.615,-282.219C525.015,-216.923 340.065,8.38549 277.112,85.0755"/>
<polygon fill="#6666ff" stroke="#6666ff" points="279.779,87.343 270.729,92.8517 274.368,82.9016 279.779,87.343"/>
</g>
<!-- Metamodel::ConcreteRoleHOW&#45;&gt;Metamodel::Versioning -->
<g id="edge37" class="edge"><title>Metamodel::ConcreteRoleHOW&#45;&gt;Metamodel::Versioning</title>
<path fill="none" stroke="#6666ff" d="M590.314,-281.836C581.976,-231.21 558.566,-89.0771 548.564,-28.3433"/>
<polygon fill="#6666ff" stroke="#6666ff" points="551.992,-27.6196 546.913,-18.3214 545.085,-28.7573 551.992,-27.6196"/>
</g>
<!-- Metamodel::ConcreteRoleHOW&#45;&gt;Metamodel::PrivateMethodContainer -->
<g id="edge38" class="edge"><title>Metamodel::ConcreteRoleHOW&#45;&gt;Metamodel::PrivateMethodContainer</title>
<path fill="none" stroke="#6666ff" d="M557.063,-317.599C438.768,-374.535 71.6952,-551.208 71.6952,-551.208 71.6952,-551.208 5.10021,-631.837 -30.0909,-674.445"/>
<polygon fill="#6666ff" stroke="#6666ff" points="-32.8078,-672.238 -36.4774,-682.177 -27.4107,-676.696 -32.8078,-672.238"/>
</g>
<!-- Metamodel::ConcreteRoleHOW&#45;&gt;Metamodel::MultipleInheritance -->
<g id="edge43" class="edge"><title>Metamodel::ConcreteRoleHOW&#45;&gt;Metamodel::MultipleInheritance</title>
<path fill="none" stroke="#6666ff" d="M463.841,-305.663C341.642,-310.872 159.032,-318.655 34.1432,-323.978"/>
<polygon fill="#6666ff" stroke="#6666ff" points="33.9679,-320.482 24.1261,-324.405 34.2661,-327.476 33.9679,-320.482"/>
</g>
<!-- Metamodel::TypePretense -->
<g id="node26" class="node"><title>Metamodel::TypePretense</title>
<g id="a_node26"><a xlink:href="/type/Metamodel::TypePretense" xlink:title="Metamodel::TypePretense">
<ellipse fill="none" stroke="#6666ff" cx="1005.9" cy="-571.446" rx="114.28" ry="18"/>
<text text-anchor="middle" x="1005.9" y="-567.746" font-family="FreeSans" font-size="14.00" fill="#6666ff">Metamodel::TypePretense</text>
</a>
</g>
</g>
<!-- Metamodel::RolePunning -->
<g id="node27" class="node"><title>Metamodel::RolePunning</title>
<g id="a_node27"><a xlink:href="/type/Metamodel::RolePunning" xlink:title="Metamodel::RolePunning">
<ellipse fill="none" stroke="#6666ff" cx="534.295" cy="-691.114" rx="109.681" ry="18"/>
<text text-anchor="middle" x="534.295" y="-687.414" font-family="FreeSans" font-size="14.00" fill="#6666ff">Metamodel::RolePunning</text>
</a>
</g>
</g>
<!-- Metamodel::ParametricRoleHOW -->
<g id="node28" class="node"><title>Metamodel::ParametricRoleHOW</title>
<g id="a_node28"><a xlink:href="/type/Metamodel::ParametricRoleHOW" xlink:title="Metamodel::ParametricRoleHOW">
<ellipse fill="none" stroke="#000000" cx="215.628" cy="-551.365" rx="142.175" ry="18"/>
<text text-anchor="middle" x="215.628" y="-547.665" font-family="FreeSans" font-size="14.00" fill="#000000">Metamodel::ParametricRoleHOW</text>
</a>
</g>
</g>
<!-- Metamodel::ParametricRoleHOW&#45;&gt;Metamodel::RoleContainer -->
<g id="edge51" class="edge"><title>Metamodel::ParametricRoleHOW&#45;&gt;Metamodel::RoleContainer</title>
<path fill="none" stroke="#6666ff" d="M163.614,-534.55C34.8912,-492.938 -298.024,-385.316 -435.202,-340.97"/>
<polygon fill="#6666ff" stroke="#6666ff" points="-434.535,-337.507 -445.127,-337.761 -436.688,-344.168 -434.535,-337.507"/>
</g>
<!-- Metamodel::ParametricRoleHOW&#45;&gt;Any -->
<g id="edge5" class="edge"><title>Metamodel::ParametricRoleHOW&#45;&gt;Any</title>
<path fill="none" stroke="#000000" d="M232.907,-533.294C287.997,-475.679 455.892,-300.092 455.892,-300.092 455.892,-300.092 862.511,-74.6367 977.444,-10.911"/>
<polygon fill="#000000" stroke="#000000" points="979.381,-13.8387 986.43,-5.92856 975.987,-7.71676 979.381,-13.8387"/>
</g>
<!-- Metamodel::ParametricRoleHOW&#45;&gt;Metamodel::Naming -->
<g id="edge44" class="edge"><title>Metamodel::ParametricRoleHOW&#45;&gt;Metamodel::Naming</title>
<path fill="none" stroke="#6666ff" d="M200.576,-533.249C156.649,-480.377 31.6997,-329.986 31.6997,-329.986 31.6997,-329.986 -151.468,-141.736 -218.8,-72.5349"/>
<polygon fill="#6666ff" stroke="#6666ff" points="-216.57,-69.8085 -226.052,-65.0821 -221.587,-74.6901 -216.57,-69.8085"/>
</g>
<!-- Metamodel::ParametricRoleHOW&#45;&gt;Metamodel::Stashing -->
<g id="edge53" class="edge"><title>Metamodel::ParametricRoleHOW&#45;&gt;Metamodel::Stashing</title>
<path fill="none" stroke="#6666ff" d="M222.855,-533.377C266.698,-424.257 496.915,148.733 550.506,282.117"/>
<polygon fill="#6666ff" stroke="#6666ff" points="553.848,281.047 554.329,291.631 547.353,283.657 553.848,281.047"/>
</g>
<!-- Metamodel::ParametricRoleHOW&#45;&gt;Metamodel::AttributeContainer -->
<g id="edge50" class="edge"><title>Metamodel::ParametricRoleHOW&#45;&gt;Metamodel::AttributeContainer</title>
<path fill="none" stroke="#6666ff" d="M215.576,-532.938C215.416,-476.435 214.933,-305.324 214.74,-237.13"/>
<polygon fill="#6666ff" stroke="#6666ff" points="218.239,-236.725 214.711,-226.735 211.239,-236.745 218.239,-236.725"/>
</g>
<!-- Metamodel::ParametricRoleHOW&#45;&gt;Metamodel::MethodContainer -->
<g id="edge47" class="edge"><title>Metamodel::ParametricRoleHOW&#45;&gt;Metamodel::MethodContainer</title>
<path fill="none" stroke="#6666ff" d="M208.501,-532.932C180.968,-461.716 83.0743,-208.506 83.0743,-208.506 83.0743,-208.506 33.6295,-70.7769 11.9718,-10.4489"/>
<polygon fill="#6666ff" stroke="#6666ff" points="15.18,-9.02674 8.50694,-0.797491 8.59171,-11.392 15.18,-9.02674"/>
</g>
<!-- Metamodel::ParametricRoleHOW&#45;&gt;Metamodel::MultiMethodContainer -->
<g id="edge49" class="edge"><title>Metamodel::ParametricRoleHOW&#45;&gt;Metamodel::MultiMethodContainer</title>
<path fill="none" stroke="#6666ff" d="M222.65,-532.945C249.781,-461.783 346.246,-208.76 346.246,-208.76 346.246,-208.76 285.96,4.61091 263.9,82.6878"/>
<polygon fill="#6666ff" stroke="#6666ff" points="267.138,84.099 261.051,92.7706 260.402,82.1957 267.138,84.099"/>
</g>
<!-- Metamodel::ParametricRoleHOW&#45;&gt;Metamodel::Documenting -->
<g id="edge45" class="edge"><title>Metamodel::ParametricRoleHOW&#45;&gt;Metamodel::Documenting</title>
<path fill="none" stroke="#6666ff" d="M133.156,-566.062C6.82636,-588.574 -233.356,-631.374 -361.158,-654.148"/>
<polygon fill="#6666ff" stroke="#6666ff" points="-362.058,-650.754 -371.289,-655.954 -360.83,-657.645 -362.058,-650.754"/>
</g>
<!-- Metamodel::ParametricRoleHOW&#45;&gt;Metamodel::Versioning -->
<g id="edge46" class="edge"><title>Metamodel::ParametricRoleHOW&#45;&gt;Metamodel::Versioning</title>
<path fill="none" stroke="#6666ff" d="M226.365,-533.342C274.487,-452.562 470.467,-123.583 527.991,-27.0199"/>
<polygon fill="#6666ff" stroke="#6666ff" points="531.005,-28.7992 533.116,-18.4168 524.992,-25.2166 531.005,-28.7992"/>
</g>
<!-- Metamodel::ParametricRoleHOW&#45;&gt;Metamodel::PrivateMethodContainer -->
<g id="edge48" class="edge"><title>Metamodel::ParametricRoleHOW&#45;&gt;Metamodel::PrivateMethodContainer</title>
<path fill="none" stroke="#6666ff" d="M183.958,-569.016C135.392,-596.084 42.5526,-647.826 -10.8334,-677.58"/>
<polygon fill="#6666ff" stroke="#6666ff" points="-12.6554,-674.589 -19.6864,-682.514 -9.24751,-680.703 -12.6554,-674.589"/>
</g>
<!-- Metamodel::ParametricRoleHOW&#45;&gt;Metamodel::MultipleInheritance -->
<g id="edge52" class="edge"><title>Metamodel::ParametricRoleHOW&#45;&gt;Metamodel::MultipleInheritance</title>
<path fill="none" stroke="#6666ff" d="M190.029,-533.613C132.908,-494 -4.98657,-398.372 -69.469,-353.655"/>
<polygon fill="#6666ff" stroke="#6666ff" points="-67.8526,-350.517 -78.0645,-347.694 -71.8417,-356.269 -67.8526,-350.517"/>
</g>
<!-- Metamodel::ParametricRoleHOW&#45;&gt;Metamodel::TypePretense -->
<g id="edge54" class="edge"><title>Metamodel::ParametricRoleHOW&#45;&gt;Metamodel::TypePretense</title>
<path fill="none" stroke="#6666ff" d="M355.548,-554.92C505.127,-558.721 739.99,-564.689 882.778,-568.317"/>
<polygon fill="#6666ff" stroke="#6666ff" points="882.811,-571.819 892.897,-568.574 882.989,-564.821 882.811,-571.819"/>
</g>
<!-- Metamodel::ParametricRoleHOW&#45;&gt;Metamodel::RolePunning -->
<g id="edge55" class="edge"><title>Metamodel::ParametricRoleHOW&#45;&gt;Metamodel::RolePunning</title>
<path fill="none" stroke="#6666ff" d="M255.343,-568.782C313.902,-594.463 423.262,-642.422 486.255,-670.047"/>
<polygon fill="#6666ff" stroke="#6666ff" points="485.013,-673.324 495.577,-674.135 487.824,-666.913 485.013,-673.324"/>
</g>
</g>
</svg>
