<?xml version="1.0" encoding="UTF-8" standalone="no"?>
<!DOCTYPE svg PUBLIC "-//W3C//DTD SVG 1.1//EN"
 "http://www.w3.org/Graphics/SVG/1.1/DTD/svg11.dtd">
<!-- Generated by graphviz version 2.38.0 (20140413.2041)
 -->
<!-- Title: perl6&#45;type&#45;graph Pages: 1 -->
<svg width="504pt" height="332pt"
 viewBox="0.00 0.00 504.25 332.00" xmlns="http://www.w3.org/2000/svg" xmlns:xlink="http://www.w3.org/1999/xlink">
<g id="graph0" class="graph" transform="scale(1 1) rotate(0) translate(4 328)">
<title>perl6&#45;type&#45;graph</title>
<polygon fill="white" stroke="none" points="-4,4 -4,-328 500.247,-328 500.247,4 -4,4"/>
<!-- QuantHash -->
<g id="node1" class="node"><title>QuantHash</title>
<g id="a_node1"><a xlink:href="/type/QuantHash" xlink:title="QuantHash">
<ellipse fill="none" stroke="#6666ff" cx="326" cy="-234" rx="55.7903" ry="18"/>
<text text-anchor="middle" x="326" y="-230.3" font-family="FreeSans" font-size="14.00" fill="#6666ff">QuantHash</text>
</a>
</g>
</g>
<!-- Associative -->
<g id="node2" class="node"><title>Associative</title>
<g id="a_node2"><a xlink:href="/type/Associative" xlink:title="Associative">
<ellipse fill="none" stroke="#6666ff" cx="326" cy="-306" rx="55.4913" ry="18"/>
<text text-anchor="middle" x="326" y="-302.3" font-family="FreeSans" font-size="14.00" fill="#6666ff">Associative</text>
</a>
</g>
</g>
<!-- QuantHash&#45;&gt;Associative -->
<g id="edge8" class="edge"><title>QuantHash&#45;&gt;Associative</title>
<path fill="none" stroke="#6666ff" d="M326,-252.303C326,-260.017 326,-269.288 326,-277.888"/>
<polygon fill="#6666ff" stroke="#6666ff" points="322.5,-277.896 326,-287.896 329.5,-277.896 322.5,-277.896"/>
</g>
<!-- Baggy -->
<g id="node3" class="node"><title>Baggy</title>
<g id="a_node3"><a xlink:href="/type/Baggy" xlink:title="Baggy">
<ellipse fill="none" stroke="#6666ff" cx="357" cy="-162" rx="35.9954" ry="18"/>
<text text-anchor="middle" x="357" y="-158.3" font-family="FreeSans" font-size="14.00" fill="#6666ff">Baggy</text>
</a>
</g>
</g>
<!-- Baggy&#45;&gt;QuantHash -->
<g id="edge9" class="edge"><title>Baggy&#45;&gt;QuantHash</title>
<path fill="none" stroke="#6666ff" d="M349.496,-179.945C345.969,-187.909 341.682,-197.589 337.74,-206.49"/>
<polygon fill="#6666ff" stroke="#6666ff" points="334.5,-205.164 333.65,-215.725 340.9,-207.998 334.5,-205.164"/>
</g>
<!-- Setty -->
<g id="node4" class="node"><title>Setty</title>
<g id="a_node4"><a xlink:href="/type/Setty" xlink:title="Setty">
<ellipse fill="none" stroke="#6666ff" cx="116" cy="-162" rx="30.5947" ry="18"/>
<text text-anchor="middle" x="116" y="-158.3" font-family="FreeSans" font-size="14.00" fill="#6666ff">Setty</text>
</a>
</g>
</g>
<!-- Setty&#45;&gt;QuantHash -->
<g id="edge10" class="edge"><title>Setty&#45;&gt;QuantHash</title>
<path fill="none" stroke="#6666ff" d="M142.172,-171.724C176.343,-183.114 236.764,-203.255 278.976,-217.325"/>
<polygon fill="#6666ff" stroke="#6666ff" points="277.894,-220.654 288.487,-220.496 280.107,-214.013 277.894,-220.654"/>
</g>
<!-- Mixy -->
<g id="node5" class="node"><title>Mixy</title>
<g id="a_node5"><a xlink:href="/type/Mixy" xlink:title="Mixy">
<ellipse fill="none" stroke="#6666ff" cx="467" cy="-90" rx="29.4969" ry="18"/>
<text text-anchor="middle" x="467" y="-86.3" font-family="FreeSans" font-size="14.00" fill="#6666ff">Mixy</text>
</a>
</g>
</g>
<!-- Mixy&#45;&gt;Baggy -->
<g id="edge11" class="edge"><title>Mixy&#45;&gt;Baggy</title>
<path fill="none" stroke="#6666ff" d="M447.334,-103.515C430.583,-114.174 406.248,-129.66 387.056,-141.874"/>
<polygon fill="#6666ff" stroke="#6666ff" points="384.932,-139.077 378.374,-147.398 388.69,-144.982 384.932,-139.077"/>
</g>
<!-- Mu -->
<g id="node6" class="node"><title>Mu</title>
<g id="a_node6"><a xlink:href="/type/Mu" xlink:title="Mu">
<ellipse fill="none" stroke="#000000" cx="209" cy="-234" rx="27" ry="18"/>
<text text-anchor="middle" x="209" y="-230.3" font-family="FreeSans" font-size="14.00" fill="#000000">Mu</text>
</a>
</g>
</g>
<!-- Any -->
<g id="node7" class="node"><title>Any</title>
<g id="a_node7"><a xlink:href="/type/Any" xlink:title="Any">
<ellipse fill="none" stroke="#000000" cx="209" cy="-162" rx="27" ry="18"/>
<text text-anchor="middle" x="209" y="-158.3" font-family="FreeSans" font-size="14.00" fill="#000000">Any</text>
</a>
</g>
</g>
<!-- Any&#45;&gt;Mu -->
<g id="edge1" class="edge"><title>Any&#45;&gt;Mu</title>
<path fill="none" stroke="#000000" d="M209,-180.303C209,-188.017 209,-197.288 209,-205.888"/>
<polygon fill="#000000" stroke="#000000" points="205.5,-205.896 209,-215.896 212.5,-205.896 205.5,-205.896"/>
</g>
<!-- BagHash -->
<g id="node8" class="node"><title>BagHash</title>
<g id="a_node8"><a xlink:href="/type/BagHash" xlink:title="BagHash">
<ellipse fill="none" stroke="#000000" cx="373" cy="-90" rx="46.5926" ry="18"/>
<text text-anchor="middle" x="373" y="-86.3" font-family="FreeSans" font-size="14.00" fill="#000000">BagHash</text>
</a>
</g>
</g>
<!-- BagHash&#45;&gt;Baggy -->
<g id="edge12" class="edge"><title>BagHash&#45;&gt;Baggy</title>
<path fill="none" stroke="#6666ff" d="M369.127,-107.945C367.345,-115.739 365.188,-125.178 363.189,-133.921"/>
<polygon fill="#6666ff" stroke="#6666ff" points="359.765,-133.196 360.949,-143.725 366.589,-134.756 359.765,-133.196"/>
</g>
<!-- BagHash&#45;&gt;Any -->
<g id="edge2" class="edge"><title>BagHash&#45;&gt;Any</title>
<path fill="none" stroke="#000000" d="M342.92,-103.839C314.008,-116.179 270.468,-134.764 240.946,-147.364"/>
<polygon fill="#000000" stroke="#000000" points="239.336,-144.246 231.513,-151.391 242.084,-150.684 239.336,-144.246"/>
</g>
<!-- Bag -->
<g id="node9" class="node"><title>Bag</title>
<g id="a_node9"><a xlink:href="/type/Bag" xlink:title="Bag">
<ellipse fill="none" stroke="#000000" cx="281" cy="-90" rx="27" ry="18"/>
<text text-anchor="middle" x="281" y="-86.3" font-family="FreeSans" font-size="14.00" fill="#000000">Bag</text>
</a>
</g>
</g>
<!-- Bag&#45;&gt;Baggy -->
<g id="edge13" class="edge"><title>Bag&#45;&gt;Baggy</title>
<path fill="none" stroke="#6666ff" d="M296.38,-105.166C306.911,-114.866 321.088,-127.923 333.083,-138.972"/>
<polygon fill="#6666ff" stroke="#6666ff" points="330.864,-141.686 340.591,-145.886 335.607,-136.537 330.864,-141.686"/>
</g>
<!-- Bag&#45;&gt;Any -->
<g id="edge3" class="edge"><title>Bag&#45;&gt;Any</title>
<path fill="none" stroke="#000000" d="M266.43,-105.166C256.25,-115.062 242.476,-128.454 230.969,-139.641"/>
<polygon fill="#000000" stroke="#000000" points="228.526,-137.135 223.796,-146.615 233.405,-142.154 228.526,-137.135"/>
</g>
<!-- Set -->
<g id="node10" class="node"><title>Set</title>
<g id="a_node10"><a xlink:href="/type/Set" xlink:title="Set">
<ellipse fill="none" stroke="#000000" cx="27" cy="-90" rx="27" ry="18"/>
<text text-anchor="middle" x="27" y="-86.3" font-family="FreeSans" font-size="14.00" fill="#000000">Set</text>
</a>
</g>
</g>
<!-- Set&#45;&gt;Setty -->
<g id="edge14" class="edge"><title>Set&#45;&gt;Setty</title>
<path fill="none" stroke="#6666ff" d="M43.7402,-104.166C56.9109,-114.525 75.4832,-129.133 90.5009,-140.945"/>
<polygon fill="#6666ff" stroke="#6666ff" points="88.3976,-143.743 98.4214,-147.174 92.7251,-138.241 88.3976,-143.743"/>
</g>
<!-- Set&#45;&gt;Any -->
<g id="edge4" class="edge"><title>Set&#45;&gt;Any</title>
<path fill="none" stroke="#000000" d="M48.3574,-101.085C56.1094,-104.746 63,-108 63,-108 63,-108 133.317,-133.526 176.352,-149.148"/>
<polygon fill="#000000" stroke="#000000" points="175.272,-152.48 185.866,-152.602 177.66,-145.9 175.272,-152.48"/>
</g>
<!-- SetHash -->
<g id="node11" class="node"><title>SetHash</title>
<g id="a_node11"><a xlink:href="/type/SetHash" xlink:title="SetHash">
<ellipse fill="none" stroke="#000000" cx="116" cy="-90" rx="44.393" ry="18"/>
<text text-anchor="middle" x="116" y="-86.3" font-family="FreeSans" font-size="14.00" fill="#000000">SetHash</text>
</a>
</g>
</g>
<!-- SetHash&#45;&gt;Setty -->
<g id="edge15" class="edge"><title>SetHash&#45;&gt;Setty</title>
<path fill="none" stroke="#6666ff" d="M116,-108.303C116,-116.017 116,-125.288 116,-133.888"/>
<polygon fill="#6666ff" stroke="#6666ff" points="112.5,-133.896 116,-143.896 119.5,-133.896 112.5,-133.896"/>
</g>
<!-- SetHash&#45;&gt;Any -->
<g id="edge5" class="edge"><title>SetHash&#45;&gt;Any</title>
<path fill="none" stroke="#000000" d="M136.18,-106.189C150.023,-116.609 168.508,-130.522 183.389,-141.723"/>
<polygon fill="#000000" stroke="#000000" points="181.578,-144.741 191.673,-147.958 185.788,-139.148 181.578,-144.741"/>
</g>
<!-- Mix -->
<g id="node12" class="node"><title>Mix</title>
<g id="a_node12"><a xlink:href="/type/Mix" xlink:title="Mix">
<ellipse fill="none" stroke="#000000" cx="419" cy="-18" rx="27" ry="18"/>
<text text-anchor="middle" x="419" y="-14.3" font-family="FreeSans" font-size="14.00" fill="#000000">Mix</text>
</a>
</g>
</g>
<!-- Mix&#45;&gt;Mixy -->
<g id="edge16" class="edge"><title>Mix&#45;&gt;Mixy</title>
<path fill="none" stroke="#6666ff" d="M429.892,-34.8841C435.968,-43.7445 443.66,-54.9627 450.464,-64.8848"/>
<polygon fill="#6666ff" stroke="#6666ff" points="447.609,-66.9108 456.151,-73.1788 453.382,-62.9521 447.609,-66.9108"/>
</g>
<!-- Mix&#45;&gt;Any -->
<g id="edge6" class="edge"><title>Mix&#45;&gt;Any</title>
<path fill="none" stroke="#000000" d="M394.806,-26.3694C346.996,-40.9324 245,-72 245,-72 245,-72 230.218,-108.545 219.598,-134.799"/>
<polygon fill="#000000" stroke="#000000" points="216.277,-133.677 215.771,-144.26 222.766,-136.302 216.277,-133.677"/>
</g>
<!-- MixHash -->
<g id="node13" class="node"><title>MixHash</title>
<g id="a_node13"><a xlink:href="/type/MixHash" xlink:title="MixHash">
<ellipse fill="none" stroke="#000000" cx="282" cy="-18" rx="45.4919" ry="18"/>
<text text-anchor="middle" x="282" y="-14.3" font-family="FreeSans" font-size="14.00" fill="#000000">MixHash</text>
</a>
</g>
</g>
<!-- MixHash&#45;&gt;Mixy -->
<g id="edge17" class="edge"><title>MixHash&#45;&gt;Mixy</title>
<path fill="none" stroke="#6666ff" d="M314.624,-30.7624C357.931,-46.3766 429,-72 429,-72 429,-72 431.345,-73.0491 434.87,-74.626"/>
<polygon fill="#6666ff" stroke="#6666ff" points="433.461,-77.83 444.019,-78.7189 436.32,-71.4403 433.461,-77.83"/>
</g>
<!-- MixHash&#45;&gt;Any -->
<g id="edge7" class="edge"><title>MixHash&#45;&gt;Any</title>
<path fill="none" stroke="#000000" d="M261.753,-34.3298C241.079,-49.9827 212,-72 212,-72 212,-72 210.803,-107.517 209.921,-133.677"/>
<polygon fill="#000000" stroke="#000000" points="206.417,-133.728 209.578,-143.84 213.413,-133.964 206.417,-133.728"/>
</g>
</g>
</svg>
