<?xml version="1.0" encoding="UTF-8" standalone="no"?>
<!DOCTYPE svg PUBLIC "-//W3C//DTD SVG 1.1//EN"
 "http://www.w3.org/Graphics/SVG/1.1/DTD/svg11.dtd">
<!-- Generated by graphviz version 2.38.0 (20140413.2041)
 -->
<!-- Title: perl6&#45;type&#45;graph Pages: 1 -->
<svg width="1051pt" height="332pt"
 viewBox="0.00 0.00 1050.54 332.00" xmlns="http://www.w3.org/2000/svg" xmlns:xlink="http://www.w3.org/1999/xlink">
<g id="graph0" class="graph" transform="scale(1 1) rotate(0) translate(4 328)">
<title>perl6&#45;type&#45;graph</title>
<polygon fill="white" stroke="none" points="-4,4 -4,-328 1046.54,-328 1046.54,4 -4,4"/>
<!-- Numeric -->
<g id="node1" class="node"><title>Numeric</title>
<g id="a_node1"><a xlink:href="/type/Numeric" xlink:title="Numeric">
<ellipse fill="none" stroke="#6666ff" cx="771" cy="-234" rx="44.393" ry="18"/>
<text text-anchor="middle" x="771" y="-230.3" font-family="FreeSans" font-size="14.00" fill="#6666ff">Numeric</text>
</a>
</g>
</g>
<!-- Mu -->
<g id="node2" class="node"><title>Mu</title>
<g id="a_node2"><a xlink:href="/type/Mu" xlink:title="Mu">
<ellipse fill="none" stroke="#000000" cx="519" cy="-306" rx="27" ry="18"/>
<text text-anchor="middle" x="519" y="-302.3" font-family="FreeSans" font-size="14.00" fill="#000000">Mu</text>
</a>
</g>
</g>
<!-- Any -->
<g id="node3" class="node"><title>Any</title>
<g id="a_node3"><a xlink:href="/type/Any" xlink:title="Any">
<ellipse fill="none" stroke="#000000" cx="519" cy="-234" rx="27" ry="18"/>
<text text-anchor="middle" x="519" y="-230.3" font-family="FreeSans" font-size="14.00" fill="#000000">Any</text>
</a>
</g>
</g>
<!-- Any&#45;&gt;Mu -->
<g id="edge1" class="edge"><title>Any&#45;&gt;Mu</title>
<path fill="none" stroke="#000000" d="M519,-252.303C519,-260.017 519,-269.288 519,-277.888"/>
<polygon fill="#000000" stroke="#000000" points="515.5,-277.896 519,-287.896 522.5,-277.896 515.5,-277.896"/>
</g>
<!-- Cool -->
<g id="node4" class="node"><title>Cool</title>
<g id="a_node4"><a xlink:href="/type/Cool" xlink:title="Cool">
<ellipse fill="none" stroke="#000000" cx="519" cy="-162" rx="28.6953" ry="18"/>
<text text-anchor="middle" x="519" y="-158.3" font-family="FreeSans" font-size="14.00" fill="#000000">Cool</text>
</a>
</g>
</g>
<!-- Cool&#45;&gt;Any -->
<g id="edge2" class="edge"><title>Cool&#45;&gt;Any</title>
<path fill="none" stroke="#000000" d="M519,-180.303C519,-188.017 519,-197.288 519,-205.888"/>
<polygon fill="#000000" stroke="#000000" points="515.5,-205.896 519,-215.896 522.5,-205.896 515.5,-205.896"/>
</g>
<!-- Complex -->
<g id="node5" class="node"><title>Complex</title>
<g id="a_node5"><a xlink:href="/type/Complex" xlink:title="Complex">
<ellipse fill="none" stroke="#000000" cx="870" cy="-90" rx="45.4919" ry="18"/>
<text text-anchor="middle" x="870" y="-86.3" font-family="FreeSans" font-size="14.00" fill="#000000">Complex</text>
</a>
</g>
</g>
<!-- Complex&#45;&gt;Numeric -->
<g id="edge23" class="edge"><title>Complex&#45;&gt;Numeric</title>
<path fill="none" stroke="#6666ff" d="M861.912,-107.74C849.456,-133.521 827,-180 827,-180 827,-180 810.537,-195.581 795.463,-209.847"/>
<polygon fill="#6666ff" stroke="#6666ff" points="792.659,-207.682 787.802,-217.098 797.471,-212.766 792.659,-207.682"/>
</g>
<!-- Complex&#45;&gt;Cool -->
<g id="edge3" class="edge"><title>Complex&#45;&gt;Cool</title>
<path fill="none" stroke="#000000" d="M835.495,-101.863C824.912,-105.194 816,-108 816,-108 816,-108 635.989,-140.123 556.252,-154.352"/>
<polygon fill="#000000" stroke="#000000" points="555.374,-150.954 546.144,-156.156 556.603,-157.845 555.374,-150.954"/>
</g>
<!-- Real -->
<g id="node6" class="node"><title>Real</title>
<g id="a_node6"><a xlink:href="/type/Real" xlink:title="Real">
<ellipse fill="none" stroke="#6666ff" cx="413" cy="-162" rx="28.6953" ry="18"/>
<text text-anchor="middle" x="413" y="-158.3" font-family="FreeSans" font-size="14.00" fill="#6666ff">Real</text>
</a>
</g>
</g>
<!-- Real&#45;&gt;Numeric -->
<g id="edge24" class="edge"><title>Real&#45;&gt;Numeric</title>
<path fill="none" stroke="#6666ff" d="M439.096,-169.524C458.272,-174.318 481,-180 481,-180 481,-180 638.854,-208.849 721.638,-223.979"/>
<polygon fill="#6666ff" stroke="#6666ff" points="721.121,-227.442 731.588,-225.797 722.38,-220.556 721.121,-227.442"/>
</g>
<!-- Stringy -->
<g id="node7" class="node"><title>Stringy</title>
<g id="a_node7"><a xlink:href="/type/Stringy" xlink:title="Stringy">
<ellipse fill="none" stroke="#6666ff" cx="780" cy="-162" rx="38.1938" ry="18"/>
<text text-anchor="middle" x="780" y="-158.3" font-family="FreeSans" font-size="14.00" fill="#6666ff">Stringy</text>
</a>
</g>
</g>
<!-- Str -->
<g id="node8" class="node"><title>Str</title>
<g id="a_node8"><a xlink:href="/type/Str" xlink:title="Str">
<ellipse fill="none" stroke="#000000" cx="780" cy="-90" rx="27" ry="18"/>
<text text-anchor="middle" x="780" y="-86.3" font-family="FreeSans" font-size="14.00" fill="#000000">Str</text>
</a>
</g>
</g>
<!-- Str&#45;&gt;Cool -->
<g id="edge4" class="edge"><title>Str&#45;&gt;Cool</title>
<path fill="none" stroke="#000000" d="M755.446,-97.5854C709.071,-110.023 608.438,-137.013 554.628,-151.445"/>
<polygon fill="#000000" stroke="#000000" points="553.586,-148.1 544.835,-154.071 555.4,-154.861 553.586,-148.1"/>
</g>
<!-- Str&#45;&gt;Stringy -->
<g id="edge25" class="edge"><title>Str&#45;&gt;Stringy</title>
<path fill="none" stroke="#6666ff" d="M780,-108.303C780,-116.017 780,-125.288 780,-133.888"/>
<polygon fill="#6666ff" stroke="#6666ff" points="776.5,-133.896 780,-143.896 783.5,-133.896 776.5,-133.896"/>
</g>
<!-- ComplexStr -->
<g id="node9" class="node"><title>ComplexStr</title>
<g id="a_node9"><a xlink:href="/type/ComplexStr" xlink:title="ComplexStr">
<ellipse fill="none" stroke="#000000" cx="986" cy="-18" rx="56.59" ry="18"/>
<text text-anchor="middle" x="986" y="-14.3" font-family="FreeSans" font-size="14.00" fill="#000000">ComplexStr</text>
</a>
</g>
</g>
<!-- ComplexStr&#45;&gt;Complex -->
<g id="edge5" class="edge"><title>ComplexStr&#45;&gt;Complex</title>
<path fill="none" stroke="#000000" d="M960.83,-34.189C943.765,-44.4865 921.047,-58.1955 902.601,-69.327"/>
<polygon fill="#000000" stroke="#000000" points="900.686,-66.3949 893.932,-74.5583 904.302,-72.3883 900.686,-66.3949"/>
</g>
<!-- ComplexStr&#45;&gt;Str -->
<g id="edge6" class="edge"><title>ComplexStr&#45;&gt;Str</title>
<path fill="none" stroke="#000000" d="M946.999,-31.1593C896.809,-46.8067 816,-72 816,-72 816,-72 813.82,-73.0296 810.532,-74.5819"/>
<polygon fill="#000000" stroke="#000000" points="808.905,-71.4796 801.357,-78.9146 811.894,-77.8093 808.905,-71.4796"/>
</g>
<!-- Num -->
<g id="node10" class="node"><title>Num</title>
<g id="a_node10"><a xlink:href="/type/Num" xlink:title="Num">
<ellipse fill="none" stroke="#000000" cx="622" cy="-90" rx="29.795" ry="18"/>
<text text-anchor="middle" x="622" y="-86.3" font-family="FreeSans" font-size="14.00" fill="#000000">Num</text>
</a>
</g>
</g>
<!-- Num&#45;&gt;Cool -->
<g id="edge7" class="edge"><title>Num&#45;&gt;Cool</title>
<path fill="none" stroke="#000000" d="M602.626,-104.166C586.846,-114.891 564.365,-130.17 546.685,-142.185"/>
<polygon fill="#000000" stroke="#000000" points="544.242,-139.613 537.939,-148.129 548.177,-145.403 544.242,-139.613"/>
</g>
<!-- Num&#45;&gt;Real -->
<g id="edge26" class="edge"><title>Num&#45;&gt;Real</title>
<path fill="none" stroke="#6666ff" d="M598.414,-101.281C590.201,-104.861 583,-108 583,-108 583,-108 497.552,-134.64 447.815,-150.146"/>
<polygon fill="#6666ff" stroke="#6666ff" points="446.589,-146.862 438.084,-153.18 448.673,-153.545 446.589,-146.862"/>
</g>
<!-- Int -->
<g id="node11" class="node"><title>Int</title>
<g id="a_node11"><a xlink:href="/type/Int" xlink:title="Int">
<ellipse fill="none" stroke="#000000" cx="547" cy="-90" rx="27" ry="18"/>
<text text-anchor="middle" x="547" y="-86.3" font-family="FreeSans" font-size="14.00" fill="#000000">Int</text>
</a>
</g>
</g>
<!-- Int&#45;&gt;Cool -->
<g id="edge8" class="edge"><title>Int&#45;&gt;Cool</title>
<path fill="none" stroke="#000000" d="M540.364,-107.589C537.134,-115.665 533.172,-125.569 529.542,-134.645"/>
<polygon fill="#000000" stroke="#000000" points="526.247,-133.459 525.782,-144.044 532.746,-136.059 526.247,-133.459"/>
</g>
<!-- Int&#45;&gt;Real -->
<g id="edge27" class="edge"><title>Int&#45;&gt;Real</title>
<path fill="none" stroke="#6666ff" d="M526.356,-101.784C504.223,-113.346 468.852,-131.824 443.507,-145.064"/>
<polygon fill="#6666ff" stroke="#6666ff" points="441.575,-142.124 434.332,-149.856 444.816,-148.328 441.575,-142.124"/>
</g>
<!-- Rational -->
<g id="node12" class="node"><title>Rational</title>
<g id="a_node12"><a xlink:href="/type/Rational" xlink:title="Rational">
<ellipse fill="none" stroke="#6666ff" cx="109" cy="-90" rx="42.7926" ry="18"/>
<text text-anchor="middle" x="109" y="-86.3" font-family="FreeSans" font-size="14.00" fill="#6666ff">Rational</text>
</a>
</g>
</g>
<!-- Rational&#45;&gt;Real -->
<g id="edge28" class="edge"><title>Rational&#45;&gt;Real</title>
<path fill="none" stroke="#6666ff" d="M145.67,-99.4436C204.217,-112.925 318.143,-139.158 376.551,-152.607"/>
<polygon fill="#6666ff" stroke="#6666ff" points="375.917,-156.053 386.447,-154.886 377.488,-149.231 375.917,-156.053"/>
</g>
<!-- Duration -->
<g id="node13" class="node"><title>Duration</title>
<g id="a_node13"><a xlink:href="/type/Duration" xlink:title="Duration">
<ellipse fill="none" stroke="#000000" cx="382" cy="-90" rx="44.393" ry="18"/>
<text text-anchor="middle" x="382" y="-86.3" font-family="FreeSans" font-size="14.00" fill="#000000">Duration</text>
</a>
</g>
</g>
<!-- Duration&#45;&gt;Cool -->
<g id="edge9" class="edge"><title>Duration&#45;&gt;Cool</title>
<path fill="none" stroke="#000000" d="M408.415,-104.497C431.205,-116.141 464.141,-132.97 488.139,-145.231"/>
<polygon fill="#000000" stroke="#000000" points="486.681,-148.417 497.178,-149.85 489.866,-142.184 486.681,-148.417"/>
</g>
<!-- Duration&#45;&gt;Real -->
<g id="edge29" class="edge"><title>Duration&#45;&gt;Real</title>
<path fill="none" stroke="#6666ff" d="M389.504,-107.945C393.084,-116.027 397.446,-125.879 401.436,-134.888"/>
<polygon fill="#6666ff" stroke="#6666ff" points="398.315,-136.485 405.565,-144.211 404.716,-133.65 398.315,-136.485"/>
</g>
<!-- Instant -->
<g id="node14" class="node"><title>Instant</title>
<g id="a_node14"><a xlink:href="/type/Instant" xlink:title="Instant">
<ellipse fill="none" stroke="#000000" cx="283" cy="-90" rx="37.0935" ry="18"/>
<text text-anchor="middle" x="283" y="-86.3" font-family="FreeSans" font-size="14.00" fill="#000000">Instant</text>
</a>
</g>
</g>
<!-- Instant&#45;&gt;Cool -->
<g id="edge10" class="edge"><title>Instant&#45;&gt;Cool</title>
<path fill="none" stroke="#000000" d="M311.609,-101.573C320.964,-105.03 329,-108 329,-108 329,-108 428.715,-135.815 483.67,-151.145"/>
<polygon fill="#000000" stroke="#000000" points="482.803,-154.537 493.376,-153.852 484.684,-147.794 482.803,-154.537"/>
</g>
<!-- Instant&#45;&gt;Real -->
<g id="edge30" class="edge"><title>Instant&#45;&gt;Real</title>
<path fill="none" stroke="#6666ff" d="M306.844,-103.839C328.233,-115.356 359.722,-132.312 382.851,-144.766"/>
<polygon fill="#6666ff" stroke="#6666ff" points="381.423,-147.972 391.887,-149.632 384.742,-141.809 381.423,-147.972"/>
</g>
<!-- NumStr -->
<g id="node15" class="node"><title>NumStr</title>
<g id="a_node15"><a xlink:href="/type/NumStr" xlink:title="NumStr">
<ellipse fill="none" stroke="#000000" cx="871" cy="-18" rx="40.8928" ry="18"/>
<text text-anchor="middle" x="871" y="-14.3" font-family="FreeSans" font-size="14.00" fill="#000000">NumStr</text>
</a>
</g>
</g>
<!-- NumStr&#45;&gt;Str -->
<g id="edge12" class="edge"><title>NumStr&#45;&gt;Str</title>
<path fill="none" stroke="#000000" d="M851.254,-34.189C837.708,-44.609 819.621,-58.5222 805.06,-69.7232"/>
<polygon fill="#000000" stroke="#000000" points="802.747,-67.0866 796.955,-75.9579 807.015,-72.635 802.747,-67.0866"/>
</g>
<!-- NumStr&#45;&gt;Num -->
<g id="edge11" class="edge"><title>NumStr&#45;&gt;Num</title>
<path fill="none" stroke="#000000" d="M839.618,-29.6698C829.572,-33.0854 821,-36 821,-36 821,-36 716.128,-63.9308 658.646,-79.2399"/>
<polygon fill="#000000" stroke="#000000" points="657.6,-75.8964 648.838,-81.8522 659.402,-82.6606 657.6,-75.8964"/>
</g>
<!-- PromiseStatus -->
<g id="node16" class="node"><title>PromiseStatus</title>
<g id="a_node16"><a xlink:href="/type/PromiseStatus" xlink:title="PromiseStatus">
<ellipse fill="none" stroke="#33bb33" cx="304" cy="-18" rx="67.6881" ry="18"/>
<text text-anchor="middle" x="304" y="-14.3" font-family="FreeSans" font-size="14.00" fill="#33bb33">PromiseStatus</text>
</a>
</g>
</g>
<!-- PromiseStatus&#45;&gt;Int -->
<g id="edge13" class="edge"><title>PromiseStatus&#45;&gt;Int</title>
<path fill="none" stroke="#000000" d="M350.343,-31.1593C409.98,-46.8067 506,-72 506,-72 506,-72 509.88,-73.6087 515.252,-75.8363"/>
<polygon fill="#000000" stroke="#000000" points="514.003,-79.1071 524.581,-79.7042 516.684,-72.6409 514.003,-79.1071"/>
</g>
<!-- Bool -->
<g id="node17" class="node"><title>Bool</title>
<g id="a_node17"><a xlink:href="/type/Bool" xlink:title="Bool">
<ellipse fill="none" stroke="#33bb33" cx="418" cy="-18" rx="28.6953" ry="18"/>
<text text-anchor="middle" x="418" y="-14.3" font-family="FreeSans" font-size="14.00" fill="#33bb33">Bool</text>
</a>
</g>
</g>
<!-- Bool&#45;&gt;Int -->
<g id="edge14" class="edge"><title>Bool&#45;&gt;Int</title>
<path fill="none" stroke="#000000" d="M439.013,-30.4025C460.316,-41.9624 493.467,-59.9508 517.419,-72.9484"/>
<polygon fill="#000000" stroke="#000000" points="515.964,-76.1407 526.423,-77.8339 519.302,-69.9882 515.964,-76.1407"/>
</g>
<!-- IntStr -->
<g id="node18" class="node"><title>IntStr</title>
<g id="a_node18"><a xlink:href="/type/IntStr" xlink:title="IntStr">
<ellipse fill="none" stroke="#000000" cx="780" cy="-18" rx="31.6951" ry="18"/>
<text text-anchor="middle" x="780" y="-14.3" font-family="FreeSans" font-size="14.00" fill="#000000">IntStr</text>
</a>
</g>
</g>
<!-- IntStr&#45;&gt;Str -->
<g id="edge16" class="edge"><title>IntStr&#45;&gt;Str</title>
<path fill="none" stroke="#000000" d="M780,-36.3034C780,-44.0173 780,-53.2875 780,-61.8876"/>
<polygon fill="#000000" stroke="#000000" points="776.5,-61.8956 780,-71.8957 783.5,-61.8957 776.5,-61.8956"/>
</g>
<!-- IntStr&#45;&gt;Int -->
<g id="edge15" class="edge"><title>IntStr&#45;&gt;Int</title>
<path fill="none" stroke="#000000" d="M754.734,-29.476C746.297,-32.9744 739,-36 739,-36 739,-36 583,-72 583,-72 583,-72 580.82,-73.0296 577.532,-74.5819"/>
<polygon fill="#000000" stroke="#000000" points="575.905,-71.4796 568.357,-78.9146 578.894,-77.8093 575.905,-71.4796"/>
</g>
<!-- Order -->
<g id="node19" class="node"><title>Order</title>
<g id="a_node19"><a xlink:href="/type/Order" xlink:title="Order">
<ellipse fill="none" stroke="#33bb33" cx="498" cy="-18" rx="33.5952" ry="18"/>
<text text-anchor="middle" x="498" y="-14.3" font-family="FreeSans" font-size="14.00" fill="#33bb33">Order</text>
</a>
</g>
</g>
<!-- Order&#45;&gt;Int -->
<g id="edge17" class="edge"><title>Order&#45;&gt;Int</title>
<path fill="none" stroke="#000000" d="M509.365,-35.2354C515.575,-44.1069 523.383,-55.262 530.276,-65.1084"/>
<polygon fill="#000000" stroke="#000000" points="527.432,-67.149 536.034,-73.3342 533.167,-63.1347 527.432,-67.149"/>
</g>
<!-- atomicint -->
<g id="node20" class="node"><title>atomicint</title>
<g id="a_node20"><a xlink:href="/type/atomicint" xlink:title="atomicint">
<ellipse fill="none" stroke="#000000" cx="596" cy="-18" rx="46.2923" ry="18"/>
<text text-anchor="middle" x="596" y="-14.3" font-family="FreeSans" font-size="14.00" fill="#000000">atomicint</text>
</a>
</g>
</g>
<!-- atomicint&#45;&gt;Int -->
<g id="edge18" class="edge"><title>atomicint&#45;&gt;Int</title>
<path fill="none" stroke="#000000" d="M584.388,-35.589C578.234,-44.3799 570.564,-55.3371 563.775,-65.0351"/>
<polygon fill="#000000" stroke="#000000" points="560.725,-63.2897 557.858,-73.4892 566.46,-67.304 560.725,-63.2897"/>
</g>
<!-- Signal -->
<g id="node21" class="node"><title>Signal</title>
<g id="a_node21"><a xlink:href="/type/Signal" xlink:title="Signal">
<ellipse fill="none" stroke="#33bb33" cx="695" cy="-18" rx="35.194" ry="18"/>
<text text-anchor="middle" x="695" y="-14.3" font-family="FreeSans" font-size="14.00" fill="#33bb33">Signal</text>
</a>
</g>
</g>
<!-- Signal&#45;&gt;Int -->
<g id="edge19" class="edge"><title>Signal&#45;&gt;Int</title>
<path fill="none" stroke="#000000" d="M669.894,-30.8745C644.368,-42.9474 604.795,-61.6647 577.485,-74.5815"/>
<polygon fill="#000000" stroke="#000000" points="575.923,-71.4484 568.38,-78.888 578.916,-77.7763 575.923,-71.4484"/>
</g>
<!-- int -->
<g id="node22" class="node"><title>int</title>
<g id="a_node22"><a xlink:href="/type/int" xlink:title="int">
<ellipse fill="none" stroke="#000000" cx="191" cy="-18" rx="27" ry="18"/>
<text text-anchor="middle" x="191" y="-14.3" font-family="FreeSans" font-size="14.00" fill="#000000">int</text>
</a>
</g>
</g>
<!-- int&#45;&gt;Int -->
<g id="edge20" class="edge"><title>int&#45;&gt;Int</title>
<path fill="none" stroke="#000000" d="M212.357,-29.0854C220.109,-32.7461 227,-36 227,-36 227,-36 506,-72 506,-72 506,-72 509.88,-73.6087 515.252,-75.8363"/>
<polygon fill="#000000" stroke="#000000" points="514.003,-79.1071 524.581,-79.7042 516.684,-72.6409 514.003,-79.1071"/>
</g>
<!-- FatRat -->
<g id="node23" class="node"><title>FatRat</title>
<g id="a_node23"><a xlink:href="/type/FatRat" xlink:title="FatRat">
<ellipse fill="none" stroke="#000000" cx="109" cy="-18" rx="37.0935" ry="18"/>
<text text-anchor="middle" x="109" y="-14.3" font-family="FreeSans" font-size="14.00" fill="#000000">FatRat</text>
</a>
</g>
</g>
<!-- FatRat&#45;&gt;Cool -->
<g id="edge21" class="edge"><title>FatRat&#45;&gt;Cool</title>
<path fill="none" stroke="#000000" d="M137.609,-29.573C146.964,-33.0301 155,-36 155,-36 155,-36 468,-72 468,-72 468,-72 489.543,-109.595 504.626,-135.916"/>
<polygon fill="#000000" stroke="#000000" points="501.637,-137.74 509.646,-144.676 507.711,-134.259 501.637,-137.74"/>
</g>
<!-- FatRat&#45;&gt;Rational -->
<g id="edge31" class="edge"><title>FatRat&#45;&gt;Rational</title>
<path fill="none" stroke="#6666ff" d="M109,-36.3034C109,-44.0173 109,-53.2875 109,-61.8876"/>
<polygon fill="#6666ff" stroke="#6666ff" points="105.5,-61.8956 109,-71.8957 112.5,-61.8957 105.5,-61.8956"/>
</g>
<!-- Rat -->
<g id="node24" class="node"><title>Rat</title>
<g id="a_node24"><a xlink:href="/type/Rat" xlink:title="Rat">
<ellipse fill="none" stroke="#000000" cx="27" cy="-18" rx="27" ry="18"/>
<text text-anchor="middle" x="27" y="-14.3" font-family="FreeSans" font-size="14.00" fill="#000000">Rat</text>
</a>
</g>
</g>
<!-- Rat&#45;&gt;Cool -->
<g id="edge22" class="edge"><title>Rat&#45;&gt;Cool</title>
<path fill="none" stroke="#000000" d="M48.3574,-29.0854C56.1094,-32.7461 63,-36 63,-36 63,-36 435,-72 435,-72 435,-72 468,-108 468,-108 468,-108 483.738,-124.355 497.729,-138.895"/>
<polygon fill="#000000" stroke="#000000" points="495.338,-141.458 504.794,-146.237 500.382,-136.604 495.338,-141.458"/>
</g>
<!-- Rat&#45;&gt;Rational -->
<g id="edge32" class="edge"><title>Rat&#45;&gt;Rational</title>
<path fill="none" stroke="#6666ff" d="M43.2006,-32.8297C54.5643,-42.5305 69.9994,-55.7068 83.0642,-66.8597"/>
<polygon fill="#6666ff" stroke="#6666ff" points="80.9568,-69.6626 90.8349,-73.4932 85.5017,-64.3386 80.9568,-69.6626"/>
</g>
</g>
</svg>
