<?xml version="1.0" encoding="UTF-8" standalone="no"?>
<!DOCTYPE svg PUBLIC "-//W3C//DTD SVG 1.1//EN"
 "http://www.w3.org/Graphics/SVG/1.1/DTD/svg11.dtd">
<!-- Generated by graphviz version 2.38.0 (20140413.2041)
 -->
<!-- Title: perl6&#45;type&#45;graph Pages: 1 -->
<svg width="2057pt" height="991pt"
 viewBox="0.00 0.00 2056.53 991.13" xmlns="http://www.w3.org/2000/svg" xmlns:xlink="http://www.w3.org/1999/xlink">
<g id="graph0" class="graph" transform="scale(1 1) rotate(0) translate(1075.66 466.28)">
<title>perl6&#45;type&#45;graph</title>
<polygon fill="white" stroke="none" points="-1075.66,524.847 -1075.66,-466.28 980.862,-466.28 980.862,524.847 -1075.66,524.847"/>
<!-- Metamodel::TypePretense -->
<g id="node1" class="node"><title>Metamodel::TypePretense</title>
<g id="a_node1"><a xlink:href="/type/Metamodel::TypePretense" xlink:title="Metamodel::TypePretense">
<ellipse fill="none" stroke="#6666ff" cx="-84.4162" cy="-94.0143" rx="114.28" ry="18"/>
<text text-anchor="middle" x="-84.4162" y="-90.3143" font-family="FreeSans" font-size="14.00" fill="#6666ff">Metamodel::TypePretense</text>
</a>
</g>
</g>
<!-- Mu -->
<g id="node2" class="node"><title>Mu</title>
<g id="a_node2"><a xlink:href="/type/Mu" xlink:title="Mu">
<ellipse fill="none" stroke="#000000" cx="757.14" cy="502.847" rx="27" ry="18"/>
<text text-anchor="middle" x="757.14" y="506.547" font-family="FreeSans" font-size="14.00" fill="#000000">Mu</text>
</a>
</g>
</g>
<!-- Any -->
<g id="node3" class="node"><title>Any</title>
<g id="a_node3"><a xlink:href="/type/Any" xlink:title="Any">
<ellipse fill="none" stroke="#000000" cx="73.1193" cy="192.161" rx="27" ry="18"/>
<text text-anchor="middle" x="73.1193" y="195.861" font-family="FreeSans" font-size="14.00" fill="#000000">Any</text>
</a>
</g>
</g>
<!-- Any&#45;&gt;Mu -->
<g id="edge1" class="edge"><title>Any&#45;&gt;Mu</title>
<path fill="none" stroke="#000000" d="M95.489,202.322C196.155,248.045 607.365,434.819 725.353,488.41"/>
<polygon fill="#000000" stroke="#000000" points="726.938,485.285 734.595,492.608 724.043,491.659 726.938,485.285"/>
</g>
<!-- Metamodel::RolePunning -->
<g id="node4" class="node"><title>Metamodel::RolePunning</title>
<g id="a_node4"><a xlink:href="/type/Metamodel::RolePunning" xlink:title="Metamodel::RolePunning">
<ellipse fill="none" stroke="#6666ff" cx="-574.537" cy="-423.794" rx="109.681" ry="18"/>
<text text-anchor="middle" x="-574.537" y="-420.094" font-family="FreeSans" font-size="14.00" fill="#6666ff">Metamodel::RolePunning</text>
</a>
</g>
</g>
<!-- Metamodel::CurriedRoleHOW -->
<g id="node5" class="node"><title>Metamodel::CurriedRoleHOW</title>
<g id="a_node5"><a xlink:href="/type/Metamodel::CurriedRoleHOW" xlink:title="Metamodel::CurriedRoleHOW">
<ellipse fill="none" stroke="#000000" cx="-942.976" cy="-292.078" rx="128.877" ry="18"/>
<text text-anchor="middle" x="-942.976" y="-288.378" font-family="FreeSans" font-size="14.00" fill="#000000">Metamodel::CurriedRoleHOW</text>
</a>
</g>
</g>
<!-- Metamodel::CurriedRoleHOW&#45;&gt;Metamodel::TypePretense -->
<g id="edge8" class="edge"><title>Metamodel::CurriedRoleHOW&#45;&gt;Metamodel::TypePretense</title>
<path fill="none" stroke="#6666ff" d="M-875.964,-276.619C-718.152,-240.213 -324.019,-149.289 -158.965,-111.212"/>
<polygon fill="#6666ff" stroke="#6666ff" points="-157.861,-114.55 -148.904,-108.891 -159.434,-107.729 -157.861,-114.55"/>
</g>
<!-- Metamodel::CurriedRoleHOW&#45;&gt;Any -->
<g id="edge2" class="edge"><title>Metamodel::CurriedRoleHOW&#45;&gt;Any</title>
<path fill="none" stroke="#000000" d="M-906.513,-274.701C-746.527,-198.457 -108.019,105.836 41.6232,177.151"/>
<polygon fill="#000000" stroke="#000000" points="43.2411,174.045 50.7626,181.507 40.2296,180.364 43.2411,174.045"/>
</g>
<!-- Metamodel::CurriedRoleHOW&#45;&gt;Metamodel::RolePunning -->
<g id="edge7" class="edge"><title>Metamodel::CurriedRoleHOW&#45;&gt;Metamodel::RolePunning</title>
<path fill="none" stroke="#6666ff" d="M-895.939,-308.894C-827.894,-333.22 -702.242,-378.14 -629.846,-404.021"/>
<polygon fill="#6666ff" stroke="#6666ff" points="-631.021,-407.318 -620.427,-407.389 -628.665,-400.726 -631.021,-407.318"/>
</g>
<!-- Metamodel::Naming -->
<g id="node6" class="node"><title>Metamodel::Naming</title>
<g id="a_node6"><a xlink:href="/type/Metamodel::Naming" xlink:title="Metamodel::Naming">
<ellipse fill="none" stroke="#6666ff" cx="-266.813" cy="181.522" rx="90.1842" ry="18"/>
<text text-anchor="middle" x="-266.813" y="185.222" font-family="FreeSans" font-size="14.00" fill="#6666ff">Metamodel::Naming</text>
</a>
</g>
</g>
<!-- Metamodel::Documenting -->
<g id="node7" class="node"><title>Metamodel::Documenting</title>
<g id="a_node7"><a xlink:href="/type/Metamodel::Documenting" xlink:title="Metamodel::Documenting">
<ellipse fill="none" stroke="#6666ff" cx="428.646" cy="179.854" rx="111.28" ry="18"/>
<text text-anchor="middle" x="428.646" y="183.554" font-family="FreeSans" font-size="14.00" fill="#6666ff">Metamodel::Documenting</text>
</a>
</g>
</g>
<!-- Metamodel::Versioning -->
<g id="node8" class="node"><title>Metamodel::Versioning</title>
<g id="a_node8"><a xlink:href="/type/Metamodel::Versioning" xlink:title="Metamodel::Versioning">
<ellipse fill="none" stroke="#6666ff" cx="863.089" cy="213.078" rx="100.983" ry="18"/>
<text text-anchor="middle" x="863.089" y="216.778" font-family="FreeSans" font-size="14.00" fill="#6666ff">Metamodel::Versioning</text>
</a>
</g>
</g>
<!-- Metamodel::Stashing -->
<g id="node9" class="node"><title>Metamodel::Stashing</title>
<g id="a_node9"><a xlink:href="/type/Metamodel::Stashing" xlink:title="Metamodel::Stashing">
<ellipse fill="none" stroke="#6666ff" cx="-363.891" cy="-120.21" rx="93.6835" ry="18"/>
<text text-anchor="middle" x="-363.891" y="-116.51" font-family="FreeSans" font-size="14.00" fill="#6666ff">Metamodel::Stashing</text>
</a>
</g>
</g>
<!-- Metamodel::MethodDelegation -->
<g id="node10" class="node"><title>Metamodel::MethodDelegation</title>
<g id="a_node10"><a xlink:href="/type/Metamodel::MethodDelegation" xlink:title="Metamodel::MethodDelegation">
<ellipse fill="none" stroke="#6666ff" cx="-99.2105" cy="489.558" rx="131.077" ry="18"/>
<text text-anchor="middle" x="-99.2105" y="493.258" font-family="FreeSans" font-size="14.00" fill="#6666ff">Metamodel::MethodDelegation</text>
</a>
</g>
</g>
<!-- Metamodel::ModuleHOW -->
<g id="node11" class="node"><title>Metamodel::ModuleHOW</title>
<g id="a_node11"><a xlink:href="/type/Metamodel::ModuleHOW" xlink:title="Metamodel::ModuleHOW">
<ellipse fill="none" stroke="#000000" cx="284.597" cy="487.062" rx="111.28" ry="18"/>
<text text-anchor="middle" x="284.597" y="490.762" font-family="FreeSans" font-size="14.00" fill="#000000">Metamodel::ModuleHOW</text>
</a>
</g>
</g>
<!-- Metamodel::ModuleHOW&#45;&gt;Metamodel::TypePretense -->
<g id="edge13" class="edge"><title>Metamodel::ModuleHOW&#45;&gt;Metamodel::TypePretense</title>
<path fill="none" stroke="#6666ff" d="M273.48,469.122C232.633,403.206 93.2087,178.211 93.2087,178.211 93.2087,178.211 -22.0757,1.52759 -66.8923,-67.1576"/>
<polygon fill="#6666ff" stroke="#6666ff" points="-69.9525,-65.4427 -72.4859,-75.7302 -64.0901,-69.2679 -69.9525,-65.4427"/>
</g>
<!-- Metamodel::ModuleHOW&#45;&gt;Any -->
<g id="edge3" class="edge"><title>Metamodel::ModuleHOW&#45;&gt;Any</title>
<path fill="none" stroke="#000000" d="M271.687,469.059C235.349,418.387 132.16,274.492 90.6916,216.665"/>
<polygon fill="#000000" stroke="#000000" points="87.794,218.631 84.8107,208.464 93.4826,214.551 87.794,218.631"/>
</g>
<!-- Metamodel::ModuleHOW&#45;&gt;Metamodel::Naming -->
<g id="edge9" class="edge"><title>Metamodel::ModuleHOW&#45;&gt;Metamodel::Naming</title>
<path fill="none" stroke="#6666ff" d="M253.371,469.76C159.16,417.557 -122.191,261.659 -226.938,203.618"/>
<polygon fill="#6666ff" stroke="#6666ff" points="-228.879,206.543 -235.929,198.635 -225.486,200.421 -228.879,206.543"/>
</g>
<!-- Metamodel::ModuleHOW&#45;&gt;Metamodel::Documenting -->
<g id="edge10" class="edge"><title>Metamodel::ModuleHOW&#45;&gt;Metamodel::Documenting</title>
<path fill="none" stroke="#6666ff" d="M293.177,468.765C317.496,416.9 386.986,268.702 415.842,207.161"/>
<polygon fill="#6666ff" stroke="#6666ff" points="412.697,205.624 420.112,198.056 419.035,208.596 412.697,205.624"/>
</g>
<!-- Metamodel::ModuleHOW&#45;&gt;Metamodel::Versioning -->
<g id="edge11" class="edge"><title>Metamodel::ModuleHOW&#45;&gt;Metamodel::Versioning</title>
<path fill="none" stroke="#6666ff" d="M320.784,469.923C421.852,422.056 706.977,287.015 818.028,234.419"/>
<polygon fill="#6666ff" stroke="#6666ff" points="816.75,231.152 827.285,230.035 819.746,237.479 816.75,231.152"/>
</g>
<!-- Metamodel::ModuleHOW&#45;&gt;Metamodel::Stashing -->
<g id="edge12" class="edge"><title>Metamodel::ModuleHOW&#45;&gt;Metamodel::Stashing</title>
<path fill="none" stroke="#6666ff" d="M265.54,469.217C172.98,382.539 -229.611,5.53611 -337.311,-95.3196"/>
<polygon fill="#6666ff" stroke="#6666ff" points="-339.927,-92.9736 -344.833,-102.364 -335.142,-98.0831 -339.927,-92.9736"/>
</g>
<!-- Metamodel::ModuleHOW&#45;&gt;Metamodel::MethodDelegation -->
<g id="edge14" class="edge"><title>Metamodel::ModuleHOW&#45;&gt;Metamodel::MethodDelegation</title>
<path fill="none" stroke="#6666ff" d="M173.326,487.786C132.356,488.052 85.3929,488.358 42.1231,488.639"/>
<polygon fill="#6666ff" stroke="#6666ff" points="42.106,492.139 32.0834,488.705 42.0604,485.139 42.106,492.139"/>
</g>
<!-- Metamodel::BoolificationProtocol -->
<g id="node12" class="node"><title>Metamodel::BoolificationProtocol</title>
<g id="a_node12"><a xlink:href="/type/Metamodel::BoolificationProtocol" xlink:title="Metamodel::BoolificationProtocol">
<ellipse fill="none" stroke="#6666ff" cx="-924.175" cy="364.395" rx="139.175" ry="18"/>
<text text-anchor="middle" x="-924.175" y="368.095" font-family="FreeSans" font-size="14.00" fill="#6666ff">Metamodel::BoolificationProtocol</text>
</a>
</g>
</g>
<!-- Metamodel::ParametricRoleGroupHOW -->
<g id="node13" class="node"><title>Metamodel::ParametricRoleGroupHOW</title>
<g id="a_node13"><a xlink:href="/type/Metamodel::ParametricRoleGroupHOW" xlink:title="Metamodel::ParametricRoleGroupHOW">
<ellipse fill="none" stroke="#000000" cx="-644.071" cy="47.4354" rx="167.07" ry="18"/>
<text text-anchor="middle" x="-644.071" y="51.1354" font-family="FreeSans" font-size="14.00" fill="#000000">Metamodel::ParametricRoleGroupHOW</text>
</a>
</g>
</g>
<!-- Metamodel::ParametricRoleGroupHOW&#45;&gt;Metamodel::TypePretense -->
<g id="edge17" class="edge"><title>Metamodel::ParametricRoleGroupHOW&#45;&gt;Metamodel::TypePretense</title>
<path fill="none" stroke="#6666ff" d="M-578.502,30.8629C-472.417,4.0507 -264.044,-48.6144 -154.895,-76.2011"/>
<polygon fill="#6666ff" stroke="#6666ff" points="-155.522,-79.6527 -144.969,-78.7099 -153.807,-72.8661 -155.522,-79.6527"/>
</g>
<!-- Metamodel::ParametricRoleGroupHOW&#45;&gt;Any -->
<g id="edge4" class="edge"><title>Metamodel::ParametricRoleGroupHOW&#45;&gt;Any</title>
<path fill="none" stroke="#000000" d="M-565.268,63.3375C-410.869,94.4945 -73.9359,162.486 36.9447,184.861"/>
<polygon fill="#000000" stroke="#000000" points="37.8457,181.472 46.9557,186.881 36.461,188.334 37.8457,181.472"/>
</g>
<!-- Metamodel::ParametricRoleGroupHOW&#45;&gt;Metamodel::RolePunning -->
<g id="edge18" class="edge"><title>Metamodel::ParametricRoleGroupHOW&#45;&gt;Metamodel::RolePunning</title>
<path fill="none" stroke="#6666ff" d="M-641.388,29.2514C-630.762,-42.7599 -591.584,-308.266 -578.685,-395.682"/>
<polygon fill="#6666ff" stroke="#6666ff" points="-582.135,-396.282 -577.213,-405.664 -575.21,-395.26 -582.135,-396.282"/>
</g>
<!-- Metamodel::ParametricRoleGroupHOW&#45;&gt;Metamodel::Naming -->
<g id="edge15" class="edge"><title>Metamodel::ParametricRoleGroupHOW&#45;&gt;Metamodel::Naming</title>
<path fill="none" stroke="#6666ff" d="M-595.524,64.6904C-524.865,89.8044 -394.127,136.272 -320.617,162.399"/>
<polygon fill="#6666ff" stroke="#6666ff" points="-319.323,159.145 -311.072,165.792 -321.667,165.74 -319.323,159.145"/>
</g>
<!-- Metamodel::ParametricRoleGroupHOW&#45;&gt;Metamodel::Stashing -->
<g id="edge16" class="edge"><title>Metamodel::ParametricRoleGroupHOW&#45;&gt;Metamodel::Stashing</title>
<path fill="none" stroke="#6666ff" d="M-614.352,29.6531C-563.018,-1.06293 -457.836,-63.9986 -401.493,-97.7112"/>
<polygon fill="#6666ff" stroke="#6666ff" points="-403.264,-100.73 -392.886,-102.861 -399.67,-94.7235 -403.264,-100.73"/>
</g>
<!-- Metamodel::ParametricRoleGroupHOW&#45;&gt;Metamodel::BoolificationProtocol -->
<g id="edge19" class="edge"><title>Metamodel::ParametricRoleGroupHOW&#45;&gt;Metamodel::BoolificationProtocol</title>
<path fill="none" stroke="#6666ff" d="M-659.934,65.3846C-707.006,118.65 -846.049,275.988 -901.23,338.431"/>
<polygon fill="#6666ff" stroke="#6666ff" points="-898.895,341.074 -908.14,346.249 -904.141,336.438 -898.895,341.074"/>
</g>
<!-- Metamodel::MethodContainer -->
<g id="node14" class="node"><title>Metamodel::MethodContainer</title>
<g id="a_node14"><a xlink:href="/type/Metamodel::MethodContainer" xlink:title="Metamodel::MethodContainer">
<ellipse fill="none" stroke="#6666ff" cx="470.295" cy="-131.325" rx="127.277" ry="18"/>
<text text-anchor="middle" x="470.295" y="-127.625" font-family="FreeSans" font-size="14.00" fill="#6666ff">Metamodel::MethodContainer</text>
</a>
</g>
</g>
<!-- Metamodel::PrivateMethodContainer -->
<g id="node15" class="node"><title>Metamodel::PrivateMethodContainer</title>
<g id="a_node15"><a xlink:href="/type/Metamodel::PrivateMethodContainer" xlink:title="Metamodel::PrivateMethodContainer">
<ellipse fill="none" stroke="#6666ff" cx="373.518" cy="-444.28" rx="154.873" ry="18"/>
<text text-anchor="middle" x="373.518" y="-440.58" font-family="FreeSans" font-size="14.00" fill="#6666ff">Metamodel::PrivateMethodContainer</text>
</a>
</g>
</g>
<!-- Metamodel::MultiMethodContainer -->
<g id="node16" class="node"><title>Metamodel::MultiMethodContainer</title>
<g id="a_node16"><a xlink:href="/type/Metamodel::MultiMethodContainer" xlink:title="Metamodel::MultiMethodContainer">
<ellipse fill="none" stroke="#6666ff" cx="812.539" cy="-435.235" rx="146.474" ry="18"/>
<text text-anchor="middle" x="812.539" y="-431.535" font-family="FreeSans" font-size="14.00" fill="#6666ff">Metamodel::MultiMethodContainer</text>
</a>
</g>
</g>
<!-- Metamodel::AttributeContainer -->
<g id="node17" class="node"><title>Metamodel::AttributeContainer</title>
<g id="a_node17"><a xlink:href="/type/Metamodel::AttributeContainer" xlink:title="Metamodel::AttributeContainer">
<ellipse fill="none" stroke="#6666ff" cx="846.873" cy="-100.508" rx="129.977" ry="18"/>
<text text-anchor="middle" x="846.873" y="-96.8078" font-family="FreeSans" font-size="14.00" fill="#6666ff">Metamodel::AttributeContainer</text>
</a>
</g>
</g>
<!-- Metamodel::RoleContainer -->
<g id="node18" class="node"><title>Metamodel::RoleContainer</title>
<g id="a_node18"><a xlink:href="/type/Metamodel::RoleContainer" xlink:title="Metamodel::RoleContainer">
<ellipse fill="none" stroke="#6666ff" cx="58.2144" cy="-426.776" rx="115.88" ry="18"/>
<text text-anchor="middle" x="58.2144" y="-423.076" font-family="FreeSans" font-size="14.00" fill="#6666ff">Metamodel::RoleContainer</text>
</a>
</g>
</g>
<!-- Metamodel::MultipleInheritance -->
<g id="node19" class="node"><title>Metamodel::MultipleInheritance</title>
<g id="a_node19"><a xlink:href="/type/Metamodel::MultipleInheritance" xlink:title="Metamodel::MultipleInheritance">
<ellipse fill="none" stroke="#6666ff" cx="-233.437" cy="-437.581" rx="133.776" ry="18"/>
<text text-anchor="middle" x="-233.437" y="-433.881" font-family="FreeSans" font-size="14.00" fill="#6666ff">Metamodel::MultipleInheritance</text>
</a>
</g>
</g>
<!-- Metamodel::ParametricRoleHOW -->
<g id="node20" class="node"><title>Metamodel::ParametricRoleHOW</title>
<g id="a_node20"><a xlink:href="/type/Metamodel::ParametricRoleHOW" xlink:title="Metamodel::ParametricRoleHOW">
<ellipse fill="none" stroke="#000000" cx="182.292" cy="-96.9451" rx="142.175" ry="18"/>
<text text-anchor="middle" x="182.292" y="-93.2451" font-family="FreeSans" font-size="14.00" fill="#000000">Metamodel::ParametricRoleHOW</text>
</a>
</g>
</g>
<!-- Metamodel::ParametricRoleHOW&#45;&gt;Metamodel::TypePretense -->
<g id="edge30" class="edge"><title>Metamodel::ParametricRoleHOW&#45;&gt;Metamodel::TypePretense</title>
<path fill="none" stroke="#6666ff" d="M40.3479,-95.3853C40.2391,-95.3841 40.1302,-95.3829 40.0214,-95.3817"/>
<polygon fill="#6666ff" stroke="#6666ff" points="39.9691,-91.881 29.9312,-95.2709 39.8921,-98.8806 39.9691,-91.881"/>
</g>
<!-- Metamodel::ParametricRoleHOW&#45;&gt;Any -->
<g id="edge5" class="edge"><title>Metamodel::ParametricRoleHOW&#45;&gt;Any</title>
<path fill="none" stroke="#000000" d="M175.462,-78.8602C156.923,-29.7648 105.566,106.238 83.4588,164.78"/>
<polygon fill="#000000" stroke="#000000" points="86.6137,166.333 79.8066,174.452 80.065,163.86 86.6137,166.333"/>
</g>
<!-- Metamodel::ParametricRoleHOW&#45;&gt;Metamodel::RolePunning -->
<g id="edge31" class="edge"><title>Metamodel::ParametricRoleHOW&#45;&gt;Metamodel::RolePunning</title>
<path fill="none" stroke="#6666ff" d="M142.136,-114.287C13.6814,-169.762 -386.9,-342.76 -526.207,-402.922"/>
<polygon fill="#6666ff" stroke="#6666ff" points="-527.596,-399.709 -535.389,-406.887 -524.821,-406.136 -527.596,-399.709"/>
</g>
<!-- Metamodel::ParametricRoleHOW&#45;&gt;Metamodel::Naming -->
<g id="edge20" class="edge"><title>Metamodel::ParametricRoleHOW&#45;&gt;Metamodel::Naming</title>
<path fill="none" stroke="#6666ff" d="M153.515,-79.1021C74.8895,-30.3503 -143.47,105.043 -230.413,158.953"/>
<polygon fill="#6666ff" stroke="#6666ff" points="-228.795,162.068 -239.138,164.363 -232.484,156.118 -228.795,162.068"/>
</g>
<!-- Metamodel::ParametricRoleHOW&#45;&gt;Metamodel::Documenting -->
<g id="edge21" class="edge"><title>Metamodel::ParametricRoleHOW&#45;&gt;Metamodel::Documenting</title>
<path fill="none" stroke="#6666ff" d="M198.456,-78.7835C241.103,-30.8655 356.759,99.0834 405.98,154.386"/>
<polygon fill="#6666ff" stroke="#6666ff" points="408.709,152.189 412.743,161.986 403.48,156.843 408.709,152.189"/>
</g>
<!-- Metamodel::ParametricRoleHOW&#45;&gt;Metamodel::Versioning -->
<g id="edge22" class="edge"><title>Metamodel::ParametricRoleHOW&#45;&gt;Metamodel::Versioning</title>
<path fill="none" stroke="#6666ff" d="M220.845,-79.3886C338.041,-26.0194 689.796,134.163 816.752,191.977"/>
<polygon fill="#6666ff" stroke="#6666ff" points="818.559,188.954 826.209,196.283 815.658,195.324 818.559,188.954"/>
</g>
<!-- Metamodel::ParametricRoleHOW&#45;&gt;Metamodel::Stashing -->
<g id="edge29" class="edge"><title>Metamodel::ParametricRoleHOW&#45;&gt;Metamodel::Stashing</title>
<path fill="none" stroke="#6666ff" d="M54.6219,-104.913C-14.0434,-109.199 -84.781,-113.614 -84.781,-113.614 -84.781,-113.614 -181.323,-115.896 -260.85,-117.775"/>
<polygon fill="#6666ff" stroke="#6666ff" points="-261.037,-114.279 -270.952,-118.014 -260.872,-121.277 -261.037,-114.279"/>
</g>
<!-- Metamodel::ParametricRoleHOW&#45;&gt;Metamodel::MethodContainer -->
<g id="edge23" class="edge"><title>Metamodel::ParametricRoleHOW&#45;&gt;Metamodel::MethodContainer</title>
<path fill="none" stroke="#6666ff" d="M285.86,-109.308C310.917,-112.3 337.751,-115.503 362.976,-118.514"/>
<polygon fill="#6666ff" stroke="#6666ff" points="362.584,-121.992 372.928,-119.702 363.413,-115.041 362.584,-121.992"/>
</g>
<!-- Metamodel::ParametricRoleHOW&#45;&gt;Metamodel::PrivateMethodContainer -->
<g id="edge24" class="edge"><title>Metamodel::ParametricRoleHOW&#45;&gt;Metamodel::PrivateMethodContainer</title>
<path fill="none" stroke="#6666ff" d="M192.304,-115.13C223.864,-172.455 321.386,-349.59 358.746,-417.449"/>
<polygon fill="#6666ff" stroke="#6666ff" points="355.717,-419.203 363.606,-426.275 361.849,-415.827 355.717,-419.203"/>
</g>
<!-- Metamodel::ParametricRoleHOW&#45;&gt;Metamodel::MultiMethodContainer -->
<g id="edge25" class="edge"><title>Metamodel::ParametricRoleHOW&#45;&gt;Metamodel::MultiMethodContainer</title>
<path fill="none" stroke="#6666ff" d="M215.289,-114.657C321.203,-171.507 652.519,-349.343 770.391,-412.612"/>
<polygon fill="#6666ff" stroke="#6666ff" points="769.022,-415.85 779.489,-417.495 772.333,-409.682 769.022,-415.85"/>
</g>
<!-- Metamodel::ParametricRoleHOW&#45;&gt;Metamodel::AttributeContainer -->
<g id="edge26" class="edge"><title>Metamodel::ParametricRoleHOW&#45;&gt;Metamodel::AttributeContainer</title>
<path fill="none" stroke="#6666ff" d="M324.861,-97.7094C437.78,-98.3147 594.655,-99.1557 706.894,-99.7574"/>
<polygon fill="#6666ff" stroke="#6666ff" points="706.914,-103.257 716.932,-99.8112 706.951,-96.2575 706.914,-103.257"/>
</g>
<!-- Metamodel::ParametricRoleHOW&#45;&gt;Metamodel::RoleContainer -->
<g id="edge27" class="edge"><title>Metamodel::ParametricRoleHOW&#45;&gt;Metamodel::RoleContainer</title>
<path fill="none" stroke="#6666ff" d="M175.444,-115.148C154.852,-169.886 93.3969,-333.251 68.6804,-398.955"/>
<polygon fill="#6666ff" stroke="#6666ff" points="65.286,-398.038 65.0409,-408.63 71.8378,-400.502 65.286,-398.038"/>
</g>
<!-- Metamodel::ParametricRoleHOW&#45;&gt;Metamodel::MultipleInheritance -->
<g id="edge28" class="edge"><title>Metamodel::ParametricRoleHOW&#45;&gt;Metamodel::MultipleInheritance</title>
<path fill="none" stroke="#6666ff" d="M160.526,-114.78C91.2921,-171.507 -123.95,-347.87 -203.495,-413.047"/>
<polygon fill="#6666ff" stroke="#6666ff" points="-206.119,-410.673 -211.636,-419.718 -201.683,-416.087 -206.119,-410.673"/>
</g>
<!-- Metamodel::PackageHOW -->
<g id="node21" class="node"><title>Metamodel::PackageHOW</title>
<g id="a_node21"><a xlink:href="/type/Metamodel::PackageHOW" xlink:title="Metamodel::PackageHOW">
<ellipse fill="none" stroke="#000000" cx="-493.565" cy="466.371" rx="116.18" ry="18"/>
<text text-anchor="middle" x="-493.565" y="470.071" font-family="FreeSans" font-size="14.00" fill="#000000">Metamodel::PackageHOW</text>
</a>
</g>
</g>
<!-- Metamodel::PackageHOW&#45;&gt;Metamodel::TypePretense -->
<g id="edge35" class="edge"><title>Metamodel::PackageHOW&#45;&gt;Metamodel::TypePretense</title>
<path fill="none" stroke="#6666ff" d="M-484.927,448.13C-455.172,385.296 -358.752,181.682 -358.752,181.682 -358.752,181.682 -177.675,-0.293382 -109.749,-68.5563"/>
<polygon fill="#6666ff" stroke="#6666ff" points="-111.951,-71.3053 -102.416,-75.9252 -106.989,-66.3678 -111.951,-71.3053"/>
</g>
<!-- Metamodel::PackageHOW&#45;&gt;Any -->
<g id="edge6" class="edge"><title>Metamodel::PackageHOW&#45;&gt;Any</title>
<path fill="none" stroke="#000000" d="M-458.117,449.218C-354.82,399.235 -55.2509,254.277 42.1359,207.153"/>
<polygon fill="#000000" stroke="#000000" points="40.6514,203.984 51.1775,202.778 43.7004,210.285 40.6514,203.984"/>
</g>
<!-- Metamodel::PackageHOW&#45;&gt;Metamodel::Naming -->
<g id="edge32" class="edge"><title>Metamodel::PackageHOW&#45;&gt;Metamodel::Naming</title>
<path fill="none" stroke="#6666ff" d="M-479.036,448.119C-440.08,399.182 -333.183,264.897 -287.72,207.786"/>
<polygon fill="#6666ff" stroke="#6666ff" points="-290.188,205.266 -281.221,199.622 -284.711,209.626 -290.188,205.266"/>
</g>
<!-- Metamodel::PackageHOW&#45;&gt;Metamodel::Documenting -->
<g id="edge33" class="edge"><title>Metamodel::PackageHOW&#45;&gt;Metamodel::Documenting</title>
<path fill="none" stroke="#6666ff" d="M-441.674,450.25C-282.71,400.862 197.067,251.802 367.643,198.807"/>
<polygon fill="#6666ff" stroke="#6666ff" points="366.635,195.455 377.223,195.831 368.712,202.14 366.635,195.455"/>
</g>
<!-- Metamodel::PackageHOW&#45;&gt;Metamodel::Stashing -->
<g id="edge34" class="edge"><title>Metamodel::PackageHOW&#45;&gt;Metamodel::Stashing</title>
<path fill="none" stroke="#6666ff" d="M-489.542,448.173C-470.88,363.754 -392.695,10.0827 -370.057,-92.3194"/>
<polygon fill="#6666ff" stroke="#6666ff" points="-373.444,-93.2153 -367.867,-102.224 -366.609,-91.7043 -373.444,-93.2153"/>
</g>
<!-- Metamodel::PackageHOW&#45;&gt;Metamodel::MethodDelegation -->
<g id="edge36" class="edge"><title>Metamodel::PackageHOW&#45;&gt;Metamodel::MethodDelegation</title>
<path fill="none" stroke="#6666ff" d="M-384.762,472.769C-336.986,475.578 -280.481,478.9 -230.398,481.845"/>
<polygon fill="#6666ff" stroke="#6666ff" points="-229.92,478.367 -220.143,482.448 -230.331,485.355 -229.92,478.367"/>
</g>
</g>
</svg>
