<?xml version="1.0" encoding="UTF-8" standalone="no"?>
<!DOCTYPE svg PUBLIC "-//W3C//DTD SVG 1.1//EN"
 "http://www.w3.org/Graphics/SVG/1.1/DTD/svg11.dtd">
<!-- Generated by graphviz version 2.38.0 (20140413.2041)
 -->
<!-- Title: perl6&#45;type&#45;graph Pages: 1 -->
<svg width="1817pt" height="404pt"
 viewBox="0.00 0.00 1816.54 404.00" xmlns="http://www.w3.org/2000/svg" xmlns:xlink="http://www.w3.org/1999/xlink">
<g id="graph0" class="graph" transform="scale(1 1) rotate(0) translate(4 400)">
<title>perl6&#45;type&#45;graph</title>
<polygon fill="white" stroke="none" points="-4,4 -4,-400 1812.54,-400 1812.54,4 -4,4"/>
<!-- X::OS -->
<g id="node1" class="node"><title>X::OS</title>
<g id="a_node1"><a xlink:href="/type/X::OS" xlink:title="X::OS">
<ellipse fill="none" stroke="#6666ff" cx="931.446" cy="-162" rx="34.394" ry="18"/>
<text text-anchor="middle" x="931.446" y="-158.3" font-family="FreeSans" font-size="14.00" fill="#6666ff">X::OS</text>
</a>
</g>
</g>
<!-- Exception -->
<g id="node4" class="node"><title>Exception</title>
<g id="a_node4"><a xlink:href="/type/Exception" xlink:title="Exception">
<ellipse fill="none" stroke="#000000" cx="1002.45" cy="-234" rx="49.2915" ry="18"/>
<text text-anchor="middle" x="1002.45" y="-230.3" font-family="FreeSans" font-size="14.00" fill="#000000">Exception</text>
</a>
</g>
</g>
<!-- X::OS&#45;&gt;Exception -->
<g id="edge1" class="edge"><title>X::OS&#45;&gt;Exception</title>
<path fill="none" stroke="#000000" d="M946.852,-178.189C956.172,-187.378 968.248,-199.284 978.763,-209.651"/>
<polygon fill="#000000" stroke="#000000" points="976.503,-212.338 986.082,-216.866 981.418,-207.353 976.503,-212.338"/>
</g>
<!-- Mu -->
<g id="node2" class="node"><title>Mu</title>
<g id="a_node2"><a xlink:href="/type/Mu" xlink:title="Mu">
<ellipse fill="none" stroke="#000000" cx="1002.45" cy="-378" rx="27" ry="18"/>
<text text-anchor="middle" x="1002.45" y="-374.3" font-family="FreeSans" font-size="14.00" fill="#000000">Mu</text>
</a>
</g>
</g>
<!-- Any -->
<g id="node3" class="node"><title>Any</title>
<g id="a_node3"><a xlink:href="/type/Any" xlink:title="Any">
<ellipse fill="none" stroke="#000000" cx="1002.45" cy="-306" rx="27" ry="18"/>
<text text-anchor="middle" x="1002.45" y="-302.3" font-family="FreeSans" font-size="14.00" fill="#000000">Any</text>
</a>
</g>
</g>
<!-- Any&#45;&gt;Mu -->
<g id="edge2" class="edge"><title>Any&#45;&gt;Mu</title>
<path fill="none" stroke="#000000" d="M1002.45,-324.303C1002.45,-332.017 1002.45,-341.288 1002.45,-349.888"/>
<polygon fill="#000000" stroke="#000000" points="998.946,-349.896 1002.45,-359.896 1005.95,-349.896 998.946,-349.896"/>
</g>
<!-- Exception&#45;&gt;Any -->
<g id="edge3" class="edge"><title>Exception&#45;&gt;Any</title>
<path fill="none" stroke="#000000" d="M1002.45,-252.303C1002.45,-260.017 1002.45,-269.288 1002.45,-277.888"/>
<polygon fill="#000000" stroke="#000000" points="998.946,-277.896 1002.45,-287.896 1005.95,-277.896 998.946,-277.896"/>
</g>
<!-- X::IO -->
<g id="node5" class="node"><title>X::IO</title>
<g id="a_node5"><a xlink:href="/type/X::IO" xlink:title="X::IO">
<ellipse fill="none" stroke="#6666ff" cx="883.446" cy="-90" rx="31.3957" ry="18"/>
<text text-anchor="middle" x="883.446" y="-86.3" font-family="FreeSans" font-size="14.00" fill="#6666ff">X::IO</text>
</a>
</g>
</g>
<!-- X::IO&#45;&gt;X::OS -->
<g id="edge34" class="edge"><title>X::IO&#45;&gt;X::OS</title>
<path fill="none" stroke="#6666ff" d="M894.338,-106.884C900.267,-115.531 907.737,-126.425 914.417,-136.167"/>
<polygon fill="#6666ff" stroke="#6666ff" points="911.722,-138.425 920.264,-144.693 917.495,-134.466 911.722,-138.425"/>
</g>
<!-- X::IO&#45;&gt;Exception -->
<g id="edge4" class="edge"><title>X::IO&#45;&gt;Exception</title>
<path fill="none" stroke="#000000" d="M884.41,-108.16C885.863,-134.022 888.446,-180 888.446,-180 888.446,-180 930.581,-199.589 963.619,-214.949"/>
<polygon fill="#000000" stroke="#000000" points="962.544,-218.309 973.088,-219.351 965.496,-211.962 962.544,-218.309"/>
</g>
<!-- X::IO::Dir -->
<g id="node6" class="node"><title>X::IO::Dir</title>
<g id="a_node6"><a xlink:href="/type/X::IO::Dir" xlink:title="X::IO::Dir">
<ellipse fill="none" stroke="#000000" cx="47.4458" cy="-18" rx="47.3916" ry="18"/>
<text text-anchor="middle" x="47.4458" y="-14.3" font-family="FreeSans" font-size="14.00" fill="#000000">X::IO::Dir</text>
</a>
</g>
</g>
<!-- X::IO::Dir&#45;&gt;Exception -->
<g id="edge5" class="edge"><title>X::IO::Dir&#45;&gt;Exception</title>
<path fill="none" stroke="#000000" d="M80.0075,-31.2333C186.624,-68.805 517.446,-180 517.446,-180 517.446,-180 816.762,-213.327 945.179,-227.126"/>
<polygon fill="#000000" stroke="#000000" points="944.911,-230.617 955.227,-228.203 945.657,-223.657 944.911,-230.617"/>
</g>
<!-- X::IO::Dir&#45;&gt;Exception -->
<g id="edge6" class="edge"><title>X::IO::Dir&#45;&gt;Exception</title>
<path fill="none" stroke="#000000" d="M83.2495,-29.8137C196.016,-65.9119 535.446,-180 535.446,-180 535.446,-180 822.108,-211.918 946.306,-226.215"/>
<polygon fill="#000000" stroke="#000000" points="946.05,-229.709 956.385,-227.378 946.852,-222.755 946.05,-229.709"/>
</g>
<!-- X::IO::Dir&#45;&gt;X::IO -->
<g id="edge35" class="edge"><title>X::IO::Dir&#45;&gt;X::IO</title>
<path fill="none" stroke="#6666ff" d="M83.2285,-29.8626C94.2036,-33.1943 103.446,-36 103.446,-36 103.446,-36 680.495,-75.2097 841.93,-86.179"/>
<polygon fill="#6666ff" stroke="#6666ff" points="842.173,-89.7036 852.388,-86.8896 842.648,-82.7197 842.173,-89.7036"/>
</g>
<!-- X::IO::Rename -->
<g id="node7" class="node"><title>X::IO::Rename</title>
<g id="a_node7"><a xlink:href="/type/X::IO::Rename" xlink:title="X::IO::Rename">
<ellipse fill="none" stroke="#000000" cx="182.446" cy="-18" rx="69.5877" ry="18"/>
<text text-anchor="middle" x="182.446" y="-14.3" font-family="FreeSans" font-size="14.00" fill="#000000">X::IO::Rename</text>
</a>
</g>
</g>
<!-- X::IO::Rename&#45;&gt;Exception -->
<g id="edge7" class="edge"><title>X::IO::Rename&#45;&gt;Exception</title>
<path fill="none" stroke="#000000" d="M218.403,-33.5716C322.589,-73.2032 616.446,-180 616.446,-180 616.446,-180 839.467,-211.353 946.538,-225.83"/>
<polygon fill="#000000" stroke="#000000" points="946.148,-229.309 956.526,-227.176 947.083,-222.372 946.148,-229.309"/>
</g>
<!-- X::IO::Rename&#45;&gt;Exception -->
<g id="edge8" class="edge"><title>X::IO::Rename&#45;&gt;Exception</title>
<path fill="none" stroke="#000000" d="M223.848,-32.588C335.635,-71.403 634.446,-180 634.446,-180 634.446,-180 845.242,-209.634 947.822,-224.585"/>
<polygon fill="#000000" stroke="#000000" points="947.595,-228.088 957.996,-226.071 948.607,-221.162 947.595,-228.088"/>
</g>
<!-- X::IO::Rename&#45;&gt;X::IO -->
<g id="edge36" class="edge"><title>X::IO::Rename&#45;&gt;X::IO</title>
<path fill="none" stroke="#6666ff" d="M234.039,-30.2446C248.544,-33.406 260.446,-36 260.446,-36 260.446,-36 703.459,-73.6881 842.33,-85.5022"/>
<polygon fill="#6666ff" stroke="#6666ff" points="842.29,-89.0114 852.551,-86.3717 842.884,-82.0366 842.29,-89.0114"/>
</g>
<!-- X::IO::Move -->
<g id="node8" class="node"><title>X::IO::Move</title>
<g id="a_node8"><a xlink:href="/type/X::IO::Move" xlink:title="X::IO::Move">
<ellipse fill="none" stroke="#000000" cx="327.446" cy="-18" rx="57.6901" ry="18"/>
<text text-anchor="middle" x="327.446" y="-14.3" font-family="FreeSans" font-size="14.00" fill="#000000">X::IO::Move</text>
</a>
</g>
</g>
<!-- X::IO::Move&#45;&gt;Exception -->
<g id="edge9" class="edge"><title>X::IO::Move&#45;&gt;Exception</title>
<path fill="none" stroke="#000000" d="M357.741,-33.4294C447.114,-72.947 702.446,-180 702.446,-180 702.446,-180 861.893,-209.04 948.385,-224.128"/>
<polygon fill="#000000" stroke="#000000" points="947.85,-227.588 958.302,-225.852 949.049,-220.691 947.85,-227.588"/>
</g>
<!-- X::IO::Move&#45;&gt;Exception -->
<g id="edge10" class="edge"><title>X::IO::Move&#45;&gt;Exception</title>
<path fill="none" stroke="#000000" d="M363.175,-32.3123C460.198,-70.8858 720.446,-180 720.446,-180 720.446,-180 868.638,-206.99 950.246,-222.449"/>
<polygon fill="#000000" stroke="#000000" points="949.858,-225.938 960.335,-224.367 951.165,-219.061 949.858,-225.938"/>
</g>
<!-- X::IO::Move&#45;&gt;X::IO -->
<g id="edge37" class="edge"><title>X::IO::Move&#45;&gt;X::IO</title>
<path fill="none" stroke="#6666ff" d="M370.732,-30.1496C383.173,-33.3539 393.446,-36 393.446,-36 393.446,-36 725.194,-71.883 842.75,-84.5983"/>
<polygon fill="#6666ff" stroke="#6666ff" points="842.476,-88.0889 852.794,-85.6846 843.228,-81.1295 842.476,-88.0889"/>
</g>
<!-- X::IO::Copy -->
<g id="node9" class="node"><title>X::IO::Copy</title>
<g id="a_node9"><a xlink:href="/type/X::IO::Copy" xlink:title="X::IO::Copy">
<ellipse fill="none" stroke="#000000" cx="459.446" cy="-18" rx="56.59" ry="18"/>
<text text-anchor="middle" x="459.446" y="-14.3" font-family="FreeSans" font-size="14.00" fill="#000000">X::IO::Copy</text>
</a>
</g>
</g>
<!-- X::IO::Copy&#45;&gt;Exception -->
<g id="edge11" class="edge"><title>X::IO::Copy&#45;&gt;Exception</title>
<path fill="none" stroke="#000000" d="M485.632,-34.0019C561.752,-73.9702 776.446,-180 776.446,-180 776.446,-180 884.022,-206.274 950.829,-221.824"/>
<polygon fill="#000000" stroke="#000000" points="950.243,-225.281 960.775,-224.129 951.824,-218.462 950.243,-225.281"/>
</g>
<!-- X::IO::Copy&#45;&gt;Exception -->
<g id="edge12" class="edge"><title>X::IO::Copy&#45;&gt;Exception</title>
<path fill="none" stroke="#000000" d="M491.572,-32.8661C575.598,-71.9189 794.446,-180 794.446,-180 794.446,-180 892.862,-204.037 954.389,-219.736"/>
<polygon fill="#000000" stroke="#000000" points="953.743,-223.183 964.299,-222.275 955.48,-216.402 953.743,-223.183"/>
</g>
<!-- X::IO::Copy&#45;&gt;X::IO -->
<g id="edge38" class="edge"><title>X::IO::Copy&#45;&gt;X::IO</title>
<path fill="none" stroke="#6666ff" d="M501.991,-29.9586C514.762,-33.248 525.446,-36 525.446,-36 525.446,-36 750.321,-69.2916 843.62,-83.1039"/>
<polygon fill="#6666ff" stroke="#6666ff" points="843.134,-86.5701 853.539,-84.5724 844.159,-79.6456 843.134,-86.5701"/>
</g>
<!-- X::IO::Link -->
<g id="node10" class="node"><title>X::IO::Link</title>
<g id="a_node10"><a xlink:href="/type/X::IO::Link" xlink:title="X::IO::Link">
<ellipse fill="none" stroke="#000000" cx="587.446" cy="-18" rx="53.0913" ry="18"/>
<text text-anchor="middle" x="587.446" y="-14.3" font-family="FreeSans" font-size="14.00" fill="#000000">X::IO::Link</text>
</a>
</g>
</g>
<!-- X::IO::Link&#45;&gt;Exception -->
<g id="edge13" class="edge"><title>X::IO::Link&#45;&gt;Exception</title>
<path fill="none" stroke="#000000" d="M608.28,-34.7305C668.224,-75.2423 835.446,-180 835.446,-180 835.446,-180 905.634,-203.544 955.113,-219.248"/>
<polygon fill="#000000" stroke="#000000" points="954.116,-222.603 964.706,-222.275 956.223,-215.928 954.116,-222.603"/>
</g>
<!-- X::IO::Link&#45;&gt;Exception -->
<g id="edge14" class="edge"><title>X::IO::Link&#45;&gt;Exception</title>
<path fill="none" stroke="#000000" d="M614.844,-33.5716C682.969,-73.2032 853.446,-180 853.446,-180 853.446,-180 916.534,-201.163 960.709,-216.743"/>
<polygon fill="#000000" stroke="#000000" points="959.778,-220.126 970.372,-220.17 962.118,-213.528 959.778,-220.126"/>
</g>
<!-- X::IO::Link&#45;&gt;X::IO -->
<g id="edge39" class="edge"><title>X::IO::Link&#45;&gt;X::IO</title>
<path fill="none" stroke="#6666ff" d="M627.701,-29.8626C640.048,-33.1943 650.446,-36 650.446,-36 650.446,-36 778.581,-65.1466 844.807,-80.211"/>
<polygon fill="#6666ff" stroke="#6666ff" points="844.348,-83.6959 854.875,-82.5012 845.901,-76.8702 844.348,-83.6959"/>
</g>
<!-- X::IO::Mkdir -->
<g id="node11" class="node"><title>X::IO::Mkdir</title>
<g id="a_node11"><a xlink:href="/type/X::IO::Mkdir" xlink:title="X::IO::Mkdir">
<ellipse fill="none" stroke="#000000" cx="717.446" cy="-18" rx="58.4896" ry="18"/>
<text text-anchor="middle" x="717.446" y="-14.3" font-family="FreeSans" font-size="14.00" fill="#000000">X::IO::Mkdir</text>
</a>
</g>
</g>
<!-- X::IO::Mkdir&#45;&gt;Exception -->
<g id="edge15" class="edge"><title>X::IO::Mkdir&#45;&gt;Exception</title>
<path fill="none" stroke="#000000" d="M730.207,-35.6234C767.998,-76.7587 874.446,-180 874.446,-180 874.446,-180 921.842,-201.109 959.074,-216.684"/>
<polygon fill="#000000" stroke="#000000" points="958.192,-220.107 968.77,-220.708 960.875,-213.642 958.192,-220.107"/>
</g>
<!-- X::IO::Mkdir&#45;&gt;Exception -->
<g id="edge16" class="edge"><title>X::IO::Mkdir&#45;&gt;Exception</title>
<path fill="none" stroke="#000000" d="M738.28,-35.0259C784.957,-75.749 892.446,-180 892.446,-180 892.446,-180 934.9,-198.908 967.175,-214.137"/>
<polygon fill="#000000" stroke="#000000" points="965.851,-217.383 976.385,-218.518 968.858,-211.061 965.851,-217.383"/>
</g>
<!-- X::IO::Mkdir&#45;&gt;X::IO -->
<g id="edge40" class="edge"><title>X::IO::Mkdir&#45;&gt;X::IO</title>
<path fill="none" stroke="#6666ff" d="M750.639,-32.9973C779.371,-45.1132 820.739,-62.5575 849.647,-74.7475"/>
<polygon fill="#6666ff" stroke="#6666ff" points="848.362,-78.0042 858.937,-78.6648 851.082,-71.5542 848.362,-78.0042"/>
</g>
<!-- X::IO::DoesNotExist -->
<g id="node12" class="node"><title>X::IO::DoesNotExist</title>
<g id="a_node12"><a xlink:href="/type/X::IO::DoesNotExist" xlink:title="X::IO::DoesNotExist">
<ellipse fill="none" stroke="#000000" cx="883.446" cy="-18" rx="89.8845" ry="18"/>
<text text-anchor="middle" x="883.446" y="-14.3" font-family="FreeSans" font-size="14.00" fill="#000000">X::IO::DoesNotExist</text>
</a>
</g>
</g>
<!-- X::IO::DoesNotExist&#45;&gt;Exception -->
<g id="edge17" class="edge"><title>X::IO::DoesNotExist&#45;&gt;Exception</title>
<path fill="none" stroke="#000000" d="M889.479,-36.0613C899.015,-51.5549 914.446,-72 914.446,-72 914.446,-72 965.446,-144 965.446,-144 965.446,-144 976.943,-180.545 987.571,-206.799"/>
<polygon fill="#000000" stroke="#000000" points="984.454,-208.415 991.576,-216.26 990.901,-205.686 984.454,-208.415"/>
</g>
<!-- X::IO::DoesNotExist&#45;&gt;Exception -->
<g id="edge18" class="edge"><title>X::IO::DoesNotExist&#45;&gt;Exception</title>
<path fill="none" stroke="#000000" d="M902.905,-35.7695C916.821,-51.2969 932.446,-72 932.446,-72 932.446,-72 983.446,-144 983.446,-144 983.446,-144 994.719,-179.833 1000.66,-206.025"/>
<polygon fill="#000000" stroke="#000000" points="997.239,-206.764 1002.71,-215.84 1004.09,-205.336 997.239,-206.764"/>
</g>
<!-- X::IO::DoesNotExist&#45;&gt;X::IO -->
<g id="edge41" class="edge"><title>X::IO::DoesNotExist&#45;&gt;X::IO</title>
<path fill="none" stroke="#6666ff" d="M883.446,-36.3034C883.446,-44.0173 883.446,-53.2875 883.446,-61.8876"/>
<polygon fill="#6666ff" stroke="#6666ff" points="879.946,-61.8956 883.446,-71.8957 886.946,-61.8957 879.946,-61.8956"/>
</g>
<!-- X::IO::Symlink -->
<g id="node13" class="node"><title>X::IO::Symlink</title>
<g id="a_node13"><a xlink:href="/type/X::IO::Symlink" xlink:title="X::IO::Symlink">
<ellipse fill="none" stroke="#000000" cx="1058.45" cy="-18" rx="67.6881" ry="18"/>
<text text-anchor="middle" x="1058.45" y="-14.3" font-family="FreeSans" font-size="14.00" fill="#000000">X::IO::Symlink</text>
</a>
</g>
</g>
<!-- X::IO::Symlink&#45;&gt;Exception -->
<g id="edge19" class="edge"><title>X::IO::Symlink&#45;&gt;Exception</title>
<path fill="none" stroke="#000000" d="M1050.56,-35.9255C1037.5,-77.2617 1016.45,-180 1016.45,-180 1016.45,-180 1010.81,-192.983 1006.21,-206.097"/>
<polygon fill="#000000" stroke="#000000" points="1002.78,-205.346 1003.01,-215.939 1009.43,-207.514 1002.78,-205.346"/>
</g>
<!-- X::IO::Symlink&#45;&gt;Exception -->
<g id="edge20" class="edge"><title>X::IO::Symlink&#45;&gt;Exception</title>
<path fill="none" stroke="#000000" d="M1059.36,-36.2298C1055.4,-77.7634 1034.45,-180 1034.45,-180 1034.45,-180 1028.44,-193.839 1021.37,-207.373"/>
<polygon fill="#000000" stroke="#000000" points="1018.09,-206.069 1016.36,-216.521 1024.23,-209.43 1018.09,-206.069"/>
</g>
<!-- X::IO::Symlink&#45;&gt;X::IO -->
<g id="edge42" class="edge"><title>X::IO::Symlink&#45;&gt;X::IO</title>
<path fill="none" stroke="#6666ff" d="M1022.61,-33.3345C991.931,-45.606 948.051,-63.158 917.805,-75.2561"/>
<polygon fill="#6666ff" stroke="#6666ff" points="916.484,-72.0152 908.499,-78.9788 919.083,-78.5145 916.484,-72.0152"/>
</g>
<!-- X::IO::Chdir -->
<g id="node14" class="node"><title>X::IO::Chdir</title>
<g id="a_node14"><a xlink:href="/type/X::IO::Chdir" xlink:title="X::IO::Chdir">
<ellipse fill="none" stroke="#000000" cx="1201.45" cy="-18" rx="57.3905" ry="18"/>
<text text-anchor="middle" x="1201.45" y="-14.3" font-family="FreeSans" font-size="14.00" fill="#000000">X::IO::Chdir</text>
</a>
</g>
</g>
<!-- X::IO::Chdir&#45;&gt;Exception -->
<g id="edge21" class="edge"><title>X::IO::Chdir&#45;&gt;Exception</title>
<path fill="none" stroke="#000000" d="M1182.3,-35.0259C1139.93,-75.749 1043.45,-180 1043.45,-180 1043.45,-180 1029.8,-194.467 1018.05,-208.284"/>
<polygon fill="#000000" stroke="#000000" points="1015.15,-206.297 1011.46,-216.23 1020.54,-210.762 1015.15,-206.297"/>
</g>
<!-- X::IO::Chdir&#45;&gt;Exception -->
<g id="edge22" class="edge"><title>X::IO::Chdir&#45;&gt;Exception</title>
<path fill="none" stroke="#000000" d="M1190.19,-35.9255C1156.53,-77.2617 1061.45,-180 1061.45,-180 1061.45,-180 1046.11,-196.26 1030.89,-210.768"/>
<polygon fill="#000000" stroke="#000000" points="1028.42,-208.287 1023.5,-217.67 1033.2,-213.404 1028.42,-208.287"/>
</g>
<!-- X::IO::Chdir&#45;&gt;X::IO -->
<g id="edge43" class="edge"><title>X::IO::Chdir&#45;&gt;X::IO</title>
<path fill="none" stroke="#6666ff" d="M1158.53,-30.0542C1145.92,-33.3012 1135.45,-36 1135.45,-36 1135.45,-36 992.91,-65.9777 922.234,-80.8421"/>
<polygon fill="#6666ff" stroke="#6666ff" points="921.419,-77.4369 912.353,-82.9202 922.86,-84.2871 921.419,-77.4369"/>
</g>
<!-- X::IO::Cwd -->
<g id="node15" class="node"><title>X::IO::Cwd</title>
<g id="a_node15"><a xlink:href="/type/X::IO::Cwd" xlink:title="X::IO::Cwd">
<ellipse fill="none" stroke="#000000" cx="1330.45" cy="-18" rx="53.8905" ry="18"/>
<text text-anchor="middle" x="1330.45" y="-14.3" font-family="FreeSans" font-size="14.00" fill="#000000">X::IO::Cwd</text>
</a>
</g>
</g>
<!-- X::IO::Cwd&#45;&gt;Exception -->
<g id="edge23" class="edge"><title>X::IO::Cwd&#45;&gt;Exception</title>
<path fill="none" stroke="#000000" d="M1304.31,-33.8579C1240.56,-73.7148 1083.45,-180 1083.45,-180 1083.45,-180 1054.4,-197.102 1030.96,-211.877"/>
<polygon fill="#000000" stroke="#000000" points="1028.88,-209.057 1022.33,-217.385 1032.64,-214.959 1028.88,-209.057"/>
</g>
<!-- X::IO::Cwd&#45;&gt;Exception -->
<g id="edge24" class="edge"><title>X::IO::Cwd&#45;&gt;Exception</title>
<path fill="none" stroke="#000000" d="M1311.07,-35.0259C1255.56,-75.749 1101.45,-180 1101.45,-180 1101.45,-180 1068.56,-199.367 1040.56,-214.687"/>
<polygon fill="#000000" stroke="#000000" points="1038.81,-211.651 1031.68,-219.489 1042.14,-217.807 1038.81,-211.651"/>
</g>
<!-- X::IO::Cwd&#45;&gt;X::IO -->
<g id="edge44" class="edge"><title>X::IO::Cwd&#45;&gt;X::IO</title>
<path fill="none" stroke="#6666ff" d="M1289.83,-29.9586C1277.64,-33.248 1267.45,-36 1267.45,-36 1267.45,-36 1022.29,-69.8362 923.747,-83.4376"/>
<polygon fill="#6666ff" stroke="#6666ff" points="923.005,-80.0067 913.578,-84.8412 923.962,-86.941 923.005,-80.0067"/>
</g>
<!-- X::IO::Chmod -->
<g id="node16" class="node"><title>X::IO::Chmod</title>
<g id="a_node16"><a xlink:href="/type/X::IO::Chmod" xlink:title="X::IO::Chmod">
<ellipse fill="none" stroke="#000000" cx="1466.45" cy="-18" rx="64.189" ry="18"/>
<text text-anchor="middle" x="1466.45" y="-14.3" font-family="FreeSans" font-size="14.00" fill="#000000">X::IO::Chmod</text>
</a>
</g>
</g>
<!-- X::IO::Chmod&#45;&gt;Exception -->
<g id="edge25" class="edge"><title>X::IO::Chmod&#45;&gt;Exception</title>
<path fill="none" stroke="#000000" d="M1430.04,-33.006C1341.1,-72.1764 1123.45,-180 1123.45,-180 1123.45,-180 1073.3,-199.12 1037.15,-214.392"/>
<polygon fill="#000000" stroke="#000000" points="1035.65,-211.224 1027.84,-218.377 1038.41,-217.66 1035.65,-211.224"/>
</g>
<!-- X::IO::Chmod&#45;&gt;Exception -->
<g id="edge26" class="edge"><title>X::IO::Chmod&#45;&gt;Exception</title>
<path fill="none" stroke="#000000" d="M1436.16,-34.0019C1355.48,-73.9702 1141.45,-180 1141.45,-180 1141.45,-180 1085.77,-201.227 1044.9,-216.814"/>
<polygon fill="#000000" stroke="#000000" points="1043.48,-213.607 1035.39,-220.44 1045.98,-220.147 1043.48,-213.607"/>
</g>
<!-- X::IO::Chmod&#45;&gt;Exception -->
<g id="edge27" class="edge"><title>X::IO::Chmod&#45;&gt;Exception</title>
<path fill="none" stroke="#000000" d="M1442.98,-34.8779C1370.4,-75.4958 1159.45,-180 1159.45,-180 1159.45,-180 1097.2,-203.735 1050.62,-219.438"/>
<polygon fill="#000000" stroke="#000000" points="1049.33,-216.178 1040.95,-222.655 1051.54,-222.82 1049.33,-216.178"/>
</g>
<!-- X::IO::Chmod&#45;&gt;X::IO -->
<g id="edge45" class="edge"><title>X::IO::Chmod&#45;&gt;X::IO</title>
<path fill="none" stroke="#6666ff" d="M1418.57,-30.1496C1404.81,-33.3539 1393.45,-36 1393.45,-36 1393.45,-36 1044.97,-72.2144 924.125,-84.7726"/>
<polygon fill="#6666ff" stroke="#6666ff" points="923.406,-81.3283 913.821,-85.8433 924.13,-88.2908 923.406,-81.3283"/>
</g>
<!-- X::IO::Rmdir -->
<g id="node17" class="node"><title>X::IO::Rmdir</title>
<g id="a_node17"><a xlink:href="/type/X::IO::Rmdir" xlink:title="X::IO::Rmdir">
<ellipse fill="none" stroke="#000000" cx="1608.45" cy="-18" rx="59.5901" ry="18"/>
<text text-anchor="middle" x="1608.45" y="-14.3" font-family="FreeSans" font-size="14.00" fill="#000000">X::IO::Rmdir</text>
</a>
</g>
</g>
<!-- X::IO::Rmdir&#45;&gt;Exception -->
<g id="edge28" class="edge"><title>X::IO::Rmdir&#45;&gt;Exception</title>
<path fill="none" stroke="#000000" d="M1569.36,-31.6334C1465.08,-69.5876 1191.45,-180 1191.45,-180 1191.45,-180 1103.38,-202.547 1047.13,-218.229"/>
<polygon fill="#000000" stroke="#000000" points="1046.05,-214.898 1037.37,-220.973 1047.94,-221.637 1046.05,-214.898"/>
</g>
<!-- X::IO::Rmdir&#45;&gt;Exception -->
<g id="edge29" class="edge"><title>X::IO::Rmdir&#45;&gt;Exception</title>
<path fill="none" stroke="#000000" d="M1574.08,-32.8661C1477.3,-71.9189 1209.45,-180 1209.45,-180 1209.45,-180 1112.97,-204.702 1051.74,-220.378"/>
<polygon fill="#000000" stroke="#000000" points="1050.69,-217.035 1041.87,-222.906 1052.42,-223.817 1050.69,-217.035"/>
</g>
<!-- X::IO::Rmdir&#45;&gt;Exception -->
<g id="edge30" class="edge"><title>X::IO::Rmdir&#45;&gt;Exception</title>
<path fill="none" stroke="#000000" d="M1579.97,-33.8579C1490.85,-73.7148 1227.45,-180 1227.45,-180 1227.45,-180 1121.83,-207.042 1054.92,-222.494"/>
<polygon fill="#000000" stroke="#000000" points="1053.91,-219.135 1044.94,-224.777 1055.47,-225.959 1053.91,-219.135"/>
</g>
<!-- X::IO::Rmdir&#45;&gt;X::IO -->
<g id="edge46" class="edge"><title>X::IO::Rmdir&#45;&gt;X::IO</title>
<path fill="none" stroke="#6666ff" d="M1563.58,-30.0542C1550.4,-33.3012 1539.45,-36 1539.45,-36 1539.45,-36 1067.8,-74.1054 924.347,-85.6955"/>
<polygon fill="#6666ff" stroke="#6666ff" points="923.892,-82.2208 914.206,-86.5148 924.456,-89.198 923.892,-82.2208"/>
</g>
<!-- X::IO::Unlink -->
<g id="node18" class="node"><title>X::IO::Unlink</title>
<g id="a_node18"><a xlink:href="/type/X::IO::Unlink" xlink:title="X::IO::Unlink">
<ellipse fill="none" stroke="#000000" cx="1747.45" cy="-18" rx="61.1893" ry="18"/>
<text text-anchor="middle" x="1747.45" y="-14.3" font-family="FreeSans" font-size="14.00" fill="#000000">X::IO::Unlink</text>
</a>
</g>
</g>
<!-- X::IO::Unlink&#45;&gt;Exception -->
<g id="edge31" class="edge"><title>X::IO::Unlink&#45;&gt;Exception</title>
<path fill="none" stroke="#000000" d="M1705.09,-31.1012C1587.28,-68.5436 1267.45,-180 1267.45,-180 1267.45,-180 1129.88,-205.764 1052.67,-221.365"/>
<polygon fill="#000000" stroke="#000000" points="1051.76,-217.98 1042.65,-223.402 1053.15,-224.839 1051.76,-217.98"/>
</g>
<!-- X::IO::Unlink&#45;&gt;Exception -->
<g id="edge32" class="edge"><title>X::IO::Unlink&#45;&gt;Exception</title>
<path fill="none" stroke="#000000" d="M1709.64,-32.1753C1599.3,-70.6268 1285.45,-180 1285.45,-180 1285.45,-180 1137.22,-207.76 1055.31,-223.099"/>
<polygon fill="#000000" stroke="#000000" points="1054.61,-219.669 1045.43,-224.95 1055.9,-226.55 1054.61,-219.669"/>
</g>
<!-- X::IO::Unlink&#45;&gt;Exception -->
<g id="edge33" class="edge"><title>X::IO::Unlink&#45;&gt;Exception</title>
<path fill="none" stroke="#000000" d="M1714.65,-33.2877C1611.38,-72.6904 1303.45,-180 1303.45,-180 1303.45,-180 1144.82,-209.707 1057.53,-224.64"/>
<polygon fill="#000000" stroke="#000000" points="1056.79,-221.216 1047.51,-226.341 1057.96,-228.117 1056.79,-221.216"/>
</g>
<!-- X::IO::Unlink&#45;&gt;X::IO -->
<g id="edge47" class="edge"><title>X::IO::Unlink&#45;&gt;X::IO</title>
<path fill="none" stroke="#6666ff" d="M1701.93,-30.0542C1688.56,-33.3012 1677.45,-36 1677.45,-36 1677.45,-36 1087.56,-75.3754 924.672,-86.2481"/>
<polygon fill="#6666ff" stroke="#6666ff" points="924.316,-82.764 914.572,-86.9223 924.782,-89.7484 924.316,-82.764"/>
</g>
</g>
</svg>
