<?xml version="1.0" encoding="UTF-8" standalone="no"?>
<!DOCTYPE svg PUBLIC "-//W3C//DTD SVG 1.1//EN"
 "http://www.w3.org/Graphics/SVG/1.1/DTD/svg11.dtd">
<!-- Generated by graphviz version 2.38.0 (20140413.2041)
 -->
<!-- Title: perl6&#45;type&#45;graph Pages: 1 -->
<svg width="834pt" height="332pt"
 viewBox="0.00 0.00 834.29 332.00" xmlns="http://www.w3.org/2000/svg" xmlns:xlink="http://www.w3.org/1999/xlink">
<g id="graph0" class="graph" transform="scale(1 1) rotate(0) translate(4 328)">
<title>perl6&#45;type&#45;graph</title>
<polygon fill="white" stroke="none" points="-4,4 -4,-328 830.291,-328 830.291,4 -4,4"/>
<!-- X::Control -->
<g id="node1" class="node"><title>X::Control</title>
<g id="a_node1"><a xlink:href="/type/X::Control" xlink:title="X::Control">
<ellipse fill="none" stroke="#6666ff" cx="375.846" cy="-90" rx="50.0912" ry="18"/>
<text text-anchor="middle" x="375.846" y="-86.3" font-family="FreeSans" font-size="14.00" fill="#6666ff">X::Control</text>
</a>
</g>
</g>
<!-- Exception -->
<g id="node4" class="node"><title>Exception</title>
<g id="a_node4"><a xlink:href="/type/Exception" xlink:title="Exception">
<ellipse fill="none" stroke="#000000" cx="414.846" cy="-162" rx="49.2915" ry="18"/>
<text text-anchor="middle" x="414.846" y="-158.3" font-family="FreeSans" font-size="14.00" fill="#000000">Exception</text>
</a>
</g>
</g>
<!-- X::Control&#45;&gt;Exception -->
<g id="edge1" class="edge"><title>X::Control&#45;&gt;Exception</title>
<path fill="none" stroke="#000000" d="M385.287,-107.945C389.886,-116.199 395.512,-126.299 400.618,-135.462"/>
<polygon fill="#000000" stroke="#000000" points="397.568,-137.179 405.492,-144.211 403.683,-133.772 397.568,-137.179"/>
</g>
<!-- Mu -->
<g id="node2" class="node"><title>Mu</title>
<g id="a_node2"><a xlink:href="/type/Mu" xlink:title="Mu">
<ellipse fill="none" stroke="#000000" cx="414.846" cy="-306" rx="27" ry="18"/>
<text text-anchor="middle" x="414.846" y="-302.3" font-family="FreeSans" font-size="14.00" fill="#000000">Mu</text>
</a>
</g>
</g>
<!-- Any -->
<g id="node3" class="node"><title>Any</title>
<g id="a_node3"><a xlink:href="/type/Any" xlink:title="Any">
<ellipse fill="none" stroke="#000000" cx="414.846" cy="-234" rx="27" ry="18"/>
<text text-anchor="middle" x="414.846" y="-230.3" font-family="FreeSans" font-size="14.00" fill="#000000">Any</text>
</a>
</g>
</g>
<!-- Any&#45;&gt;Mu -->
<g id="edge2" class="edge"><title>Any&#45;&gt;Mu</title>
<path fill="none" stroke="#000000" d="M414.846,-252.303C414.846,-260.017 414.846,-269.288 414.846,-277.888"/>
<polygon fill="#000000" stroke="#000000" points="411.346,-277.896 414.846,-287.896 418.346,-277.896 411.346,-277.896"/>
</g>
<!-- Exception&#45;&gt;Any -->
<g id="edge3" class="edge"><title>Exception&#45;&gt;Any</title>
<path fill="none" stroke="#000000" d="M414.846,-180.303C414.846,-188.017 414.846,-197.288 414.846,-205.888"/>
<polygon fill="#000000" stroke="#000000" points="411.346,-205.896 414.846,-215.896 418.346,-205.896 411.346,-205.896"/>
</g>
<!-- CX::Last -->
<g id="node5" class="node"><title>CX::Last</title>
<g id="a_node5"><a xlink:href="/type/CX::Last" xlink:title="CX::Last">
<ellipse fill="none" stroke="#000000" cx="44.846" cy="-18" rx="44.6926" ry="18"/>
<text text-anchor="middle" x="44.846" y="-14.3" font-family="FreeSans" font-size="14.00" fill="#000000">CX::Last</text>
</a>
</g>
</g>
<!-- CX::Last&#45;&gt;X::Control -->
<g id="edge11" class="edge"><title>CX::Last&#45;&gt;X::Control</title>
<path fill="none" stroke="#6666ff" d="M79.045,-29.7664C89.7617,-33.1401 98.846,-36 98.846,-36 98.846,-36 242.513,-63.4885 322.916,-78.8725"/>
<polygon fill="#6666ff" stroke="#6666ff" points="322.389,-82.3352 332.869,-80.7769 323.705,-75.4599 322.389,-82.3352"/>
</g>
<!-- CX::Last&#45;&gt;Exception -->
<g id="edge4" class="edge"><title>CX::Last&#45;&gt;Exception</title>
<path fill="none" stroke="#000000" d="M73.6189,-32.1323C127.861,-56.8891 239.846,-108 239.846,-108 239.846,-108 316.629,-131.254 368.474,-146.956"/>
<polygon fill="#000000" stroke="#000000" points="367.575,-150.341 378.16,-149.889 369.604,-143.641 367.575,-150.341"/>
</g>
<!-- CX::Next -->
<g id="node6" class="node"><title>CX::Next</title>
<g id="a_node6"><a xlink:href="/type/CX::Next" xlink:title="CX::Next">
<ellipse fill="none" stroke="#000000" cx="153.846" cy="-18" rx="46.2923" ry="18"/>
<text text-anchor="middle" x="153.846" y="-14.3" font-family="FreeSans" font-size="14.00" fill="#000000">CX::Next</text>
</a>
</g>
</g>
<!-- CX::Next&#45;&gt;X::Control -->
<g id="edge12" class="edge"><title>CX::Next&#45;&gt;X::Control</title>
<path fill="none" stroke="#6666ff" d="M188.534,-29.9375C226.58,-41.9341 287.81,-61.2409 329.843,-74.4945"/>
<polygon fill="#6666ff" stroke="#6666ff" points="328.97,-77.8892 339.56,-77.5584 331.075,-71.2132 328.97,-77.8892"/>
</g>
<!-- CX::Next&#45;&gt;Exception -->
<g id="edge5" class="edge"><title>CX::Next&#45;&gt;Exception</title>
<path fill="none" stroke="#000000" d="M177.465,-33.4975C218.553,-58.7167 298.846,-108 298.846,-108 298.846,-108 342.343,-127.874 376.066,-143.282"/>
<polygon fill="#000000" stroke="#000000" points="374.724,-146.516 385.274,-147.489 377.633,-140.149 374.724,-146.516"/>
</g>
<!-- CX::Succeed -->
<g id="node7" class="node"><title>CX::Succeed</title>
<g id="a_node7"><a xlink:href="/type/CX::Succeed" xlink:title="CX::Succeed">
<ellipse fill="none" stroke="#000000" cx="279.846" cy="-18" rx="61.99" ry="18"/>
<text text-anchor="middle" x="279.846" y="-14.3" font-family="FreeSans" font-size="14.00" fill="#000000">CX::Succeed</text>
</a>
</g>
</g>
<!-- CX::Succeed&#45;&gt;X::Control -->
<g id="edge13" class="edge"><title>CX::Succeed&#45;&gt;X::Control</title>
<path fill="none" stroke="#6666ff" d="M301.63,-34.8841C314.948,-44.5954 332.151,-57.139 346.64,-67.7042"/>
<polygon fill="#6666ff" stroke="#6666ff" points="344.666,-70.5961 354.808,-73.6598 348.79,-64.94 344.666,-70.5961"/>
</g>
<!-- CX::Succeed&#45;&gt;Exception -->
<g id="edge6" class="edge"><title>CX::Succeed&#45;&gt;Exception</title>
<path fill="none" stroke="#000000" d="M286.98,-36.1601C297.732,-62.0225 316.846,-108 316.846,-108 316.846,-108 351.415,-126.696 379.491,-141.879"/>
<polygon fill="#000000" stroke="#000000" points="377.865,-144.979 388.326,-146.657 381.195,-138.822 377.865,-144.979"/>
</g>
<!-- CX::Redo -->
<g id="node8" class="node"><title>CX::Redo</title>
<g id="a_node8"><a xlink:href="/type/CX::Redo" xlink:title="CX::Redo">
<ellipse fill="none" stroke="#000000" cx="407.846" cy="-18" rx="48.9926" ry="18"/>
<text text-anchor="middle" x="407.846" y="-14.3" font-family="FreeSans" font-size="14.00" fill="#000000">CX::Redo</text>
</a>
</g>
</g>
<!-- CX::Redo&#45;&gt;X::Control -->
<g id="edge14" class="edge"><title>CX::Redo&#45;&gt;X::Control</title>
<path fill="none" stroke="#6666ff" d="M400.1,-35.945C396.405,-44.0274 391.902,-53.8786 387.783,-62.8883"/>
<polygon fill="#6666ff" stroke="#6666ff" points="384.495,-61.6611 383.521,-72.211 390.862,-64.5714 384.495,-61.6611"/>
</g>
<!-- CX::Redo&#45;&gt;Exception -->
<g id="edge7" class="edge"><title>CX::Redo&#45;&gt;Exception</title>
<path fill="none" stroke="#000000" d="M416.389,-35.7695C424.299,-51.2969 434.846,-72 434.846,-72 434.846,-72 434.846,-108 434.846,-108 434.846,-108 429.85,-121.239 424.852,-134.483"/>
<polygon fill="#000000" stroke="#000000" points="421.54,-133.347 421.284,-143.939 428.089,-135.818 421.54,-133.347"/>
</g>
<!-- CX::Take -->
<g id="node9" class="node"><title>CX::Take</title>
<g id="a_node9"><a xlink:href="/type/CX::Take" xlink:title="CX::Take">
<ellipse fill="none" stroke="#000000" cx="522.846" cy="-18" rx="48.1917" ry="18"/>
<text text-anchor="middle" x="522.846" y="-14.3" font-family="FreeSans" font-size="14.00" fill="#000000">CX::Take</text>
</a>
</g>
</g>
<!-- CX::Take&#45;&gt;X::Control -->
<g id="edge15" class="edge"><title>CX::Take&#45;&gt;X::Control</title>
<path fill="none" stroke="#6666ff" d="M494.154,-32.6629C471.26,-43.5645 438.988,-58.9322 413.932,-70.8639"/>
<polygon fill="#6666ff" stroke="#6666ff" points="412.24,-67.7927 404.717,-75.2521 415.25,-74.1128 412.24,-67.7927"/>
</g>
<!-- CX::Take&#45;&gt;Exception -->
<g id="edge8" class="edge"><title>CX::Take&#45;&gt;Exception</title>
<path fill="none" stroke="#000000" d="M510.246,-35.5671C491.305,-60.4707 455.381,-107.703 433.429,-136.567"/>
<polygon fill="#000000" stroke="#000000" points="430.634,-134.46 427.366,-144.538 436.206,-138.698 430.634,-134.46"/>
</g>
<!-- CX::Warn -->
<g id="node10" class="node"><title>CX::Warn</title>
<g id="a_node10"><a xlink:href="/type/CX::Warn" xlink:title="CX::Warn">
<ellipse fill="none" stroke="#000000" cx="637.846" cy="-18" rx="49.2915" ry="18"/>
<text text-anchor="middle" x="637.846" y="-14.3" font-family="FreeSans" font-size="14.00" fill="#000000">CX::Warn</text>
</a>
</g>
</g>
<!-- CX::Warn&#45;&gt;X::Control -->
<g id="edge16" class="edge"><title>CX::Warn&#45;&gt;X::Control</title>
<path fill="none" stroke="#6666ff" d="M600.458,-29.9586C589.235,-33.248 579.846,-36 579.846,-36 579.846,-36 485.281,-60.5683 424.92,-76.2504"/>
<polygon fill="#6666ff" stroke="#6666ff" points="423.978,-72.8789 415.179,-78.7811 425.738,-79.654 423.978,-72.8789"/>
</g>
<!-- CX::Warn&#45;&gt;Exception -->
<g id="edge9" class="edge"><title>CX::Warn&#45;&gt;Exception</title>
<path fill="none" stroke="#000000" d="M614.403,-33.9281C574.25,-59.4958 492.271,-111.698 446.878,-140.603"/>
<polygon fill="#000000" stroke="#000000" points="444.865,-137.735 438.31,-146.059 448.625,-143.64 444.865,-137.735"/>
</g>
<!-- CX::Proceed -->
<g id="node11" class="node"><title>CX::Proceed</title>
<g id="a_node11"><a xlink:href="/type/CX::Proceed" xlink:title="CX::Proceed">
<ellipse fill="none" stroke="#000000" cx="765.846" cy="-18" rx="60.3893" ry="18"/>
<text text-anchor="middle" x="765.846" y="-14.3" font-family="FreeSans" font-size="14.00" fill="#000000">CX::Proceed</text>
</a>
</g>
</g>
<!-- CX::Proceed&#45;&gt;X::Control -->
<g id="edge17" class="edge"><title>CX::Proceed&#45;&gt;X::Control</title>
<path fill="none" stroke="#6666ff" d="M720.329,-30.0542C706.959,-33.3012 695.846,-36 695.846,-36 695.846,-36 521.578,-64.8631 430.249,-79.9896"/>
<polygon fill="#6666ff" stroke="#6666ff" points="429.634,-76.5435 420.341,-81.6306 430.778,-83.4495 429.634,-76.5435"/>
</g>
<!-- CX::Proceed&#45;&gt;Exception -->
<g id="edge10" class="edge"><title>CX::Proceed&#45;&gt;Exception</title>
<path fill="none" stroke="#000000" d="M731.552,-32.8741C666.639,-59.135 526.068,-116.004 456.115,-144.304"/>
<polygon fill="#000000" stroke="#000000" points="454.686,-141.107 446.728,-148.102 457.311,-147.596 454.686,-141.107"/>
</g>
</g>
</svg>
